%TF.GenerationSoftware,KiCad,Pcbnew,10.0.6*%
%TF.CreationDate,2026-09-26T10:38:17+05:30*%
%TF.ProjectId,electrophy_2,656c6563-7472-46f7-9068-795f322e6b69,rev?*%
%TF.SameCoordinates,Original*%
%TF.FileFunction,Soldermask,Top*%
%TF.FilePolarity,Negative*%
%FSLAX46Y46*%
G04 Gerber Fmt 4.6, Leading zero omitted, Abs format (unit mm)*
G04 Created by KiCad (PCBNEW 10.0.6) date 2026-09-26 10:38:17*
%MOMM*%
%LPD*%
G01*
G04 APERTURE LIST*
G04 Aperture macros list*
%AMRoundRect*
0 Rectangle with rounded corners*
0 $1 Rounding radius*
0 $2 $3 $4 $5 $6 $7 $8 $9 X,Y pos of 4 corners*
0 Add a 4 corners polygon primitive as box body*
4,1,4,$2,$3,$4,$5,$6,$7,$8,$9,$2,$3,0*
0 Add four circle primitives for the rounded corners*
1,1,$1+$1,$2,$3*
1,1,$1+$1,$4,$5*
1,1,$1+$1,$6,$7*
1,1,$1+$1,$8,$9*
0 Add four rect primitives between the rounded corners*
20,1,$1+$1,$2,$3,$4,$5,0*
20,1,$1+$1,$4,$5,$6,$7,0*
20,1,$1+$1,$6,$7,$8,$9,0*
20,1,$1+$1,$8,$9,$2,$3,0*%
%AMHorizOval*
0 Thick line with rounded ends*
0 $1 width*
0 $2 $3 position (X,Y) of the first rounded end (center of the circle)*
0 $4 $5 position (X,Y) of the second rounded end (center of the circle)*
0 Add line between two ends*
20,1,$1,$2,$3,$4,$5,0*
0 Add two circle primitives to create the rounded ends*
1,1,$1,$2,$3*
1,1,$1,$4,$5*%
%AMRotRect*
0 Rectangle, with rotation*
0 The origin of the aperture is its center*
0 $1 length*
0 $2 width*
0 $3 Rotation angle, in degrees counterclockwise*
0 Add horizontal line*
21,1,$1,$2,0,0,$3*%
G04 Aperture macros list end*
%ADD10C,0.500000*%
%ADD11C,2.200000*%
%ADD12RoundRect,0.140000X0.217224X-0.036244X0.077224X0.206244X-0.217224X0.036244X-0.077224X-0.206244X0*%
%ADD13RoundRect,0.160000X0.039814X-0.251040X0.237314X0.091040X-0.039814X0.251040X-0.237314X-0.091040X0*%
%ADD14RoundRect,0.155000X0.040659X0.259862X-0.259862X-0.040659X-0.040659X-0.259862X0.259862X0.040659X0*%
%ADD15C,0.650000*%
%ADD16RoundRect,0.150000X-0.406586X-0.194454X-0.194454X-0.406586X0.406586X0.194454X0.194454X0.406586X0*%
%ADD17RoundRect,0.075000X-0.406586X-0.300520X-0.300520X-0.406586X0.406586X0.300520X0.300520X0.406586X0*%
%ADD18HorizOval,1.000000X-0.388909X-0.388909X0.388909X0.388909X0*%
%ADD19HorizOval,1.000000X-0.212132X-0.212132X0.212132X0.212132X0*%
%ADD20RoundRect,0.155000X0.155000X-0.212500X0.155000X0.212500X-0.155000X0.212500X-0.155000X-0.212500X0*%
%ADD21RoundRect,0.187500X0.412500X-0.187500X0.412500X0.187500X-0.412500X0.187500X-0.412500X-0.187500X0*%
%ADD22RoundRect,0.287500X-0.287500X-1.612500X0.287500X-1.612500X0.287500X1.612500X-0.287500X1.612500X0*%
%ADD23RoundRect,0.160000X0.197500X0.160000X-0.197500X0.160000X-0.197500X-0.160000X0.197500X-0.160000X0*%
%ADD24RoundRect,0.150000X0.512500X0.150000X-0.512500X0.150000X-0.512500X-0.150000X0.512500X-0.150000X0*%
%ADD25RoundRect,0.155000X-0.212500X-0.155000X0.212500X-0.155000X0.212500X0.155000X-0.212500X0.155000X0*%
%ADD26RotRect,1.500000X1.500000X135.000000*%
%ADD27RoundRect,0.160000X-0.197500X-0.160000X0.197500X-0.160000X0.197500X0.160000X-0.197500X0.160000X0*%
%ADD28RoundRect,0.160000X0.160000X-0.197500X0.160000X0.197500X-0.160000X0.197500X-0.160000X-0.197500X0*%
%ADD29RoundRect,0.155000X-0.155000X0.212500X-0.155000X-0.212500X0.155000X-0.212500X0.155000X0.212500X0*%
%ADD30RoundRect,0.160000X-0.026517X-0.252791X0.252791X0.026517X0.026517X0.252791X-0.252791X-0.026517X0*%
%ADD31R,1.200000X1.400000*%
%ADD32RoundRect,0.150000X-0.256326X-0.468458X0.468458X0.256326X0.256326X0.468458X-0.468458X-0.256326X0*%
%ADD33R,1.574800X0.558800*%
%ADD34RoundRect,0.062500X-0.062500X0.337500X-0.062500X-0.337500X0.062500X-0.337500X0.062500X0.337500X0*%
%ADD35RoundRect,0.062500X-0.337500X0.062500X-0.337500X-0.062500X0.337500X-0.062500X0.337500X0.062500X0*%
%ADD36R,3.700000X3.700000*%
%ADD37RoundRect,0.160000X0.026517X0.252791X-0.252791X-0.026517X-0.026517X-0.252791X0.252791X0.026517X0*%
%ADD38RoundRect,0.250000X0.312500X0.625000X-0.312500X0.625000X-0.312500X-0.625000X0.312500X-0.625000X0*%
%ADD39RoundRect,0.160000X-0.160000X0.197500X-0.160000X-0.197500X0.160000X-0.197500X0.160000X0.197500X0*%
%ADD40RoundRect,0.160000X-0.044194X-0.270468X0.270468X0.044194X0.044194X0.270468X-0.270468X-0.044194X0*%
%ADD41R,0.535000X0.254000*%
%ADD42R,0.254000X0.535000*%
%ADD43C,0.700000*%
%ADD44C,4.400000*%
%ADD45RoundRect,0.160000X0.027314X-0.272691X0.249814X0.112691X-0.027314X0.272691X-0.249814X-0.112691X0*%
%ADD46RoundRect,0.147500X0.060779X0.218674X-0.206582X0.094002X-0.060779X-0.218674X0.206582X-0.094002X0*%
G04 APERTURE END LIST*
D10*
X152930000Y-103290000D02*
X152930000Y-105290000D01*
X153115000Y-97605000D02*
X153115000Y-99605000D01*
X157450000Y-94770000D02*
X159450000Y-94770000D01*
X162210000Y-98490000D02*
X164197500Y-97325000D01*
X163740000Y-103250000D02*
X163740000Y-105250000D01*
D11*
%TO.C,H3*%
X135050000Y-100075000D03*
%TD*%
D12*
%TO.C,C8*%
X148360000Y-90625692D03*
X147880000Y-89794308D03*
%TD*%
D13*
%TO.C,R6*%
X137071250Y-91377450D03*
X137668750Y-90342550D03*
%TD*%
D14*
%TO.C,C3*%
X146571283Y-112388717D03*
X145768717Y-113191283D03*
%TD*%
D15*
%TO.C,J1*%
X140783913Y-105259607D03*
X144870990Y-109346684D03*
D16*
X141317778Y-104287335D03*
X141883464Y-104853021D03*
D17*
X142696636Y-105666194D03*
X143403743Y-106373300D03*
X143757297Y-106726854D03*
X144464403Y-107433961D03*
D16*
X145277576Y-108247133D03*
X145843262Y-108812819D03*
X145843262Y-108812819D03*
X145277576Y-108247133D03*
D17*
X144817957Y-107787514D03*
X144110850Y-107080407D03*
X143050190Y-106019747D03*
X142343083Y-105312640D03*
D16*
X141883464Y-104853021D03*
X141317778Y-104287335D03*
D18*
X140126303Y-103894891D03*
D19*
X137170597Y-106850597D03*
D18*
X146235706Y-110004294D03*
D19*
X143280000Y-112960000D03*
%TD*%
D20*
%TO.C,C4*%
X152010000Y-95787500D03*
X152010000Y-94652500D03*
%TD*%
D21*
%TO.C,L2*%
X151440000Y-86900000D03*
D22*
X147575900Y-85376000D03*
X153025900Y-85376000D03*
%TD*%
D23*
%TO.C,Y2*%
X141595000Y-91590000D03*
X140400000Y-91590000D03*
%TD*%
D24*
%TO.C,U5*%
X151467500Y-110900000D03*
X151467500Y-109950000D03*
X151467500Y-109000000D03*
X149192500Y-109000000D03*
X149192500Y-110900000D03*
%TD*%
D25*
%TO.C,C12*%
X140542500Y-101410000D03*
X141677500Y-101410000D03*
%TD*%
D26*
%TO.C,ON1*%
X162927716Y-92827716D03*
X157412284Y-87312284D03*
%TD*%
D11*
%TO.C,H2*%
X165000000Y-100075000D03*
%TD*%
D27*
%TO.C,R13*%
X147672500Y-103220000D03*
X148867500Y-103220000D03*
%TD*%
D20*
%TO.C,C13*%
X141180000Y-90507500D03*
X141180000Y-89372500D03*
%TD*%
D28*
%TO.C,R7*%
X145950000Y-99847500D03*
X145950000Y-98652500D03*
%TD*%
%TO.C,R8*%
X147040000Y-99867500D03*
X147040000Y-98672500D03*
%TD*%
D29*
%TO.C,C10*%
X152830000Y-100812500D03*
X152830000Y-101947500D03*
%TD*%
D30*
%TO.C,R14*%
X136877504Y-104612496D03*
X137722496Y-103767504D03*
%TD*%
D31*
%TO.C,Y1*%
X150290000Y-95420000D03*
X150290000Y-93220000D03*
X148590000Y-93220000D03*
X148590000Y-95420000D03*
%TD*%
D28*
%TO.C,R3*%
X153120000Y-110687500D03*
X153120000Y-109492500D03*
%TD*%
D32*
%TO.C,U4*%
X143373915Y-102932583D03*
X144045666Y-103604334D03*
X144717417Y-104276085D03*
X146326085Y-102667417D03*
X145654334Y-101995666D03*
X144982583Y-101323915D03*
%TD*%
D25*
%TO.C,C11*%
X137482500Y-93170000D03*
X138617500Y-93170000D03*
%TD*%
D20*
%TO.C,C14*%
X139630000Y-90517500D03*
X139630000Y-89382500D03*
%TD*%
D27*
%TO.C,R17*%
X148872500Y-107700000D03*
X150067500Y-107700000D03*
%TD*%
D20*
%TO.C,C2*%
X163150000Y-107957500D03*
X163150000Y-106822500D03*
%TD*%
D33*
%TO.C,U3*%
X147241600Y-104539999D03*
X147241600Y-105490000D03*
X147241600Y-106440001D03*
X149578400Y-106440001D03*
X149578400Y-105490000D03*
X149578400Y-104539999D03*
%TD*%
D27*
%TO.C,R12*%
X149980000Y-103230000D03*
X151175000Y-103230000D03*
%TD*%
D34*
%TO.C,IC1*%
X143240000Y-94100000D03*
X142740000Y-94100000D03*
X142240000Y-94100000D03*
X141740000Y-94100000D03*
X141240000Y-94100000D03*
X140740000Y-94100000D03*
X140240000Y-94100000D03*
X139740000Y-94100000D03*
D35*
X139040000Y-94800000D03*
X139040000Y-95300000D03*
X139040000Y-95800000D03*
X139040000Y-96300000D03*
X139040000Y-96800000D03*
X139040000Y-97300000D03*
X139040000Y-97800000D03*
X139040000Y-98300000D03*
D34*
X139740000Y-99000000D03*
X140240000Y-99000000D03*
X140740000Y-99000000D03*
X141240000Y-99000000D03*
X141740000Y-99000000D03*
X142240000Y-99000000D03*
X142740000Y-99000000D03*
X143240000Y-99000000D03*
D35*
X143940000Y-98300000D03*
X143940000Y-97800000D03*
X143940000Y-97300000D03*
X143940000Y-96800000D03*
X143940000Y-96300000D03*
X143940000Y-95800000D03*
X143940000Y-95300000D03*
X143940000Y-94800000D03*
D36*
X141490000Y-96550000D03*
%TD*%
D37*
%TO.C,R15*%
X136822496Y-102997504D03*
X135977504Y-103842496D03*
%TD*%
D38*
%TO.C,BAT1*%
X159737500Y-108200000D03*
X156812500Y-108200000D03*
%TD*%
D25*
%TO.C,C6*%
X145702500Y-94100000D03*
X146837500Y-94100000D03*
%TD*%
D39*
%TO.C,R9*%
X153640000Y-112462500D03*
X153640000Y-113657500D03*
%TD*%
D40*
%TO.C,CH1*%
X160835181Y-111604819D03*
X161644819Y-110795181D03*
%TD*%
D41*
%TO.C,U1*%
X148808600Y-99289998D03*
X148808600Y-99789999D03*
X148808600Y-100289999D03*
X148808600Y-100790000D03*
D42*
X149514301Y-100991699D03*
X150014300Y-100991699D03*
X150514299Y-100991699D03*
D41*
X151220000Y-100790000D03*
X151220000Y-100289999D03*
X151220000Y-99789999D03*
X151220000Y-99289998D03*
D42*
X150514299Y-99088299D03*
X150014300Y-99088299D03*
X149514301Y-99088299D03*
%TD*%
D28*
%TO.C,R16*%
X151480000Y-107637500D03*
X151480000Y-106442500D03*
%TD*%
D12*
%TO.C,C9*%
X145026250Y-92124223D03*
X144546250Y-91292839D03*
%TD*%
D27*
%TO.C,R11*%
X155772500Y-110190000D03*
X156967500Y-110190000D03*
%TD*%
D43*
%TO.C,H1*%
X148400000Y-115025000D03*
X148883274Y-113858274D03*
X148883274Y-116191726D03*
X150050000Y-113375000D03*
D44*
X150050000Y-115025000D03*
D43*
X150050000Y-116675000D03*
X151216726Y-113858274D03*
X151216726Y-116191726D03*
X151700000Y-115025000D03*
%TD*%
D25*
%TO.C,C5*%
X153062500Y-93130000D03*
X154197500Y-93130000D03*
%TD*%
D23*
%TO.C,R1*%
X146917500Y-95470000D03*
X145722500Y-95470000D03*
%TD*%
D45*
%TO.C,S1*%
X135893750Y-93355800D03*
X136466250Y-92364200D03*
%TD*%
D14*
%TO.C,C1*%
X148201283Y-112508717D03*
X147398717Y-113311283D03*
%TD*%
D46*
%TO.C,L1*%
X147089559Y-91185030D03*
X146210441Y-91594970D03*
%TD*%
D28*
%TO.C,R10*%
X159460000Y-112597500D03*
X159460000Y-111402500D03*
%TD*%
D14*
%TO.C,C7*%
X139351283Y-102128717D03*
X138548717Y-102931283D03*
%TD*%
D24*
%TO.C,U2*%
X157680000Y-113470000D03*
X157680000Y-112520000D03*
X157680000Y-111570000D03*
X155405000Y-111570000D03*
X155405000Y-112520000D03*
X155405000Y-113470000D03*
%TD*%
M02*
