%TF.GenerationSoftware,KiCad,Pcbnew,10.0.6*%
%TF.CreationDate,2026-09-26T10:38:17+05:30*%
%TF.ProjectId,electrophy_2,656c6563-7472-46f7-9068-795f322e6b69,rev?*%
%TF.SameCoordinates,Original*%
%TF.FileFunction,Copper,L1,Top*%
%TF.FilePolarity,Positive*%
%FSLAX46Y46*%
G04 Gerber Fmt 4.6, Leading zero omitted, Abs format (unit mm)*
G04 Created by KiCad (PCBNEW 10.0.6) date 2026-09-26 10:38:17*
%MOMM*%
%LPD*%
G01*
G04 APERTURE LIST*
G04 Aperture macros list*
%AMRoundRect*
0 Rectangle with rounded corners*
0 $1 Rounding radius*
0 $2 $3 $4 $5 $6 $7 $8 $9 X,Y pos of 4 corners*
0 Add a 4 corners polygon primitive as box body*
4,1,4,$2,$3,$4,$5,$6,$7,$8,$9,$2,$3,0*
0 Add four circle primitives for the rounded corners*
1,1,$1+$1,$2,$3*
1,1,$1+$1,$4,$5*
1,1,$1+$1,$6,$7*
1,1,$1+$1,$8,$9*
0 Add four rect primitives between the rounded corners*
20,1,$1+$1,$2,$3,$4,$5,0*
20,1,$1+$1,$4,$5,$6,$7,0*
20,1,$1+$1,$6,$7,$8,$9,0*
20,1,$1+$1,$8,$9,$2,$3,0*%
%AMHorizOval*
0 Thick line with rounded ends*
0 $1 width*
0 $2 $3 position (X,Y) of the first rounded end (center of the circle)*
0 $4 $5 position (X,Y) of the second rounded end (center of the circle)*
0 Add line between two ends*
20,1,$1,$2,$3,$4,$5,0*
0 Add two circle primitives to create the rounded ends*
1,1,$1,$2,$3*
1,1,$1,$4,$5*%
%AMRotRect*
0 Rectangle, with rotation*
0 The origin of the aperture is its center*
0 $1 length*
0 $2 width*
0 $3 Rotation angle, in degrees counterclockwise*
0 Add horizontal line*
21,1,$1,$2,0,0,$3*%
G04 Aperture macros list end*
%TA.AperFunction,Conductor*%
%ADD10C,0.200000*%
%TD*%
%TA.AperFunction,NonConductor*%
%ADD11C,0.200000*%
%TD*%
%TA.AperFunction,NonConductor*%
%ADD12C,0.500000*%
%TD*%
%TA.AperFunction,SMDPad,CuDef*%
%ADD13RoundRect,0.140000X0.217224X-0.036244X0.077224X0.206244X-0.217224X0.036244X-0.077224X-0.206244X0*%
%TD*%
%TA.AperFunction,SMDPad,CuDef*%
%ADD14RoundRect,0.160000X0.039814X-0.251040X0.237314X0.091040X-0.039814X0.251040X-0.237314X-0.091040X0*%
%TD*%
%TA.AperFunction,SMDPad,CuDef*%
%ADD15RoundRect,0.155000X0.040659X0.259862X-0.259862X-0.040659X-0.040659X-0.259862X0.259862X0.040659X0*%
%TD*%
%TA.AperFunction,SMDPad,CuDef*%
%ADD16RoundRect,0.150000X-0.406586X-0.194454X-0.194454X-0.406586X0.406586X0.194454X0.194454X0.406586X0*%
%TD*%
%TA.AperFunction,SMDPad,CuDef*%
%ADD17RoundRect,0.075000X-0.406586X-0.300520X-0.300520X-0.406586X0.406586X0.300520X0.300520X0.406586X0*%
%TD*%
%TA.AperFunction,ComponentPad*%
%ADD18HorizOval,1.000000X-0.388909X-0.388909X0.388909X0.388909X0*%
%TD*%
%TA.AperFunction,ComponentPad*%
%ADD19HorizOval,1.000000X-0.212132X-0.212132X0.212132X0.212132X0*%
%TD*%
%TA.AperFunction,SMDPad,CuDef*%
%ADD20RoundRect,0.155000X0.155000X-0.212500X0.155000X0.212500X-0.155000X0.212500X-0.155000X-0.212500X0*%
%TD*%
%TA.AperFunction,SMDPad,CuDef*%
%ADD21RoundRect,0.187500X0.412500X-0.187500X0.412500X0.187500X-0.412500X0.187500X-0.412500X-0.187500X0*%
%TD*%
%TA.AperFunction,SMDPad,CuDef*%
%ADD22RoundRect,0.287500X-0.287500X-1.612500X0.287500X-1.612500X0.287500X1.612500X-0.287500X1.612500X0*%
%TD*%
%TA.AperFunction,SMDPad,CuDef*%
%ADD23RoundRect,0.160000X0.197500X0.160000X-0.197500X0.160000X-0.197500X-0.160000X0.197500X-0.160000X0*%
%TD*%
%TA.AperFunction,SMDPad,CuDef*%
%ADD24RoundRect,0.150000X0.512500X0.150000X-0.512500X0.150000X-0.512500X-0.150000X0.512500X-0.150000X0*%
%TD*%
%TA.AperFunction,SMDPad,CuDef*%
%ADD25RoundRect,0.155000X-0.212500X-0.155000X0.212500X-0.155000X0.212500X0.155000X-0.212500X0.155000X0*%
%TD*%
%TA.AperFunction,SMDPad,CuDef*%
%ADD26RotRect,1.500000X1.500000X135.000000*%
%TD*%
%TA.AperFunction,SMDPad,CuDef*%
%ADD27RoundRect,0.160000X-0.197500X-0.160000X0.197500X-0.160000X0.197500X0.160000X-0.197500X0.160000X0*%
%TD*%
%TA.AperFunction,SMDPad,CuDef*%
%ADD28RoundRect,0.160000X0.160000X-0.197500X0.160000X0.197500X-0.160000X0.197500X-0.160000X-0.197500X0*%
%TD*%
%TA.AperFunction,SMDPad,CuDef*%
%ADD29RoundRect,0.155000X-0.155000X0.212500X-0.155000X-0.212500X0.155000X-0.212500X0.155000X0.212500X0*%
%TD*%
%TA.AperFunction,SMDPad,CuDef*%
%ADD30RoundRect,0.160000X-0.026517X-0.252791X0.252791X0.026517X0.026517X0.252791X-0.252791X-0.026517X0*%
%TD*%
%TA.AperFunction,SMDPad,CuDef*%
%ADD31R,1.200000X1.400000*%
%TD*%
%TA.AperFunction,SMDPad,CuDef*%
%ADD32RoundRect,0.150000X-0.256326X-0.468458X0.468458X0.256326X0.256326X0.468458X-0.468458X-0.256326X0*%
%TD*%
%TA.AperFunction,SMDPad,CuDef*%
%ADD33R,1.574800X0.558800*%
%TD*%
%TA.AperFunction,SMDPad,CuDef*%
%ADD34RoundRect,0.062500X-0.062500X0.337500X-0.062500X-0.337500X0.062500X-0.337500X0.062500X0.337500X0*%
%TD*%
%TA.AperFunction,SMDPad,CuDef*%
%ADD35RoundRect,0.062500X-0.337500X0.062500X-0.337500X-0.062500X0.337500X-0.062500X0.337500X0.062500X0*%
%TD*%
%TA.AperFunction,HeatsinkPad*%
%ADD36R,3.700000X3.700000*%
%TD*%
%TA.AperFunction,SMDPad,CuDef*%
%ADD37RoundRect,0.160000X0.026517X0.252791X-0.252791X-0.026517X-0.026517X-0.252791X0.252791X0.026517X0*%
%TD*%
%TA.AperFunction,SMDPad,CuDef*%
%ADD38RoundRect,0.250000X0.312500X0.625000X-0.312500X0.625000X-0.312500X-0.625000X0.312500X-0.625000X0*%
%TD*%
%TA.AperFunction,SMDPad,CuDef*%
%ADD39RoundRect,0.160000X-0.160000X0.197500X-0.160000X-0.197500X0.160000X-0.197500X0.160000X0.197500X0*%
%TD*%
%TA.AperFunction,SMDPad,CuDef*%
%ADD40RoundRect,0.160000X-0.044194X-0.270468X0.270468X0.044194X0.044194X0.270468X-0.270468X-0.044194X0*%
%TD*%
%TA.AperFunction,SMDPad,CuDef*%
%ADD41R,0.535000X0.254000*%
%TD*%
%TA.AperFunction,SMDPad,CuDef*%
%ADD42R,0.254000X0.535000*%
%TD*%
%TA.AperFunction,ComponentPad*%
%ADD43C,0.700000*%
%TD*%
%TA.AperFunction,ComponentPad*%
%ADD44C,4.400000*%
%TD*%
%TA.AperFunction,SMDPad,CuDef*%
%ADD45RoundRect,0.160000X0.027314X-0.272691X0.249814X0.112691X-0.027314X0.272691X-0.249814X-0.112691X0*%
%TD*%
%TA.AperFunction,SMDPad,CuDef*%
%ADD46RoundRect,0.147500X0.060779X0.218674X-0.206582X0.094002X-0.060779X-0.218674X0.206582X-0.094002X0*%
%TD*%
%TA.AperFunction,ViaPad*%
%ADD47C,0.800000*%
%TD*%
%TA.AperFunction,Conductor*%
%ADD48C,0.350000*%
%TD*%
%TA.AperFunction,Conductor*%
%ADD49C,0.800000*%
%TD*%
%TA.AperFunction,Conductor*%
%ADD50C,0.219964*%
%TD*%
%TA.AperFunction,Conductor*%
%ADD51C,0.230000*%
%TD*%
%TA.AperFunction,Conductor*%
%ADD52C,0.500000*%
%TD*%
%TA.AperFunction,Conductor*%
%ADD53C,0.250000*%
%TD*%
%TA.AperFunction,Conductor*%
%ADD54C,0.160000*%
%TD*%
%TA.AperFunction,Conductor*%
%ADD55C,0.330000*%
%TD*%
%TA.AperFunction,Conductor*%
%ADD56C,0.254000*%
%TD*%
G04 APERTURE END LIST*
D10*
%TO.N,GND*%
X153510000Y-83060000D02*
X154460000Y-83240000D01*
X155140000Y-83690000D01*
X154990000Y-84610000D01*
X153450000Y-84630000D01*
X153510000Y-83060000D01*
%TA.AperFunction,Conductor*%
G36*
X154460000Y-83240000D02*
G01*
X155140000Y-83690000D01*
X154990000Y-84610000D01*
X153450000Y-84630000D01*
X153510000Y-83060000D01*
X154460000Y-83240000D01*
G37*
%TD.AperFunction*%
D11*
X157420000Y-94210000D02*
X156370000Y-95310000D01*
X158220000Y-96610000D01*
X159570000Y-95510000D01*
X159770000Y-94160000D01*
X157420000Y-94210000D01*
%TA.AperFunction,NonConductor*%
G36*
X159570000Y-95510000D02*
G01*
X158220000Y-96610000D01*
X156370000Y-95310000D01*
X157420000Y-94210000D01*
X159770000Y-94160000D01*
X159570000Y-95510000D01*
G37*
%TD.AperFunction*%
X152280000Y-97370000D02*
X153080000Y-97470000D01*
X153680000Y-97120000D01*
X154180000Y-98070000D01*
X153680000Y-99620000D01*
X152280000Y-99620000D01*
X152280000Y-97370000D01*
%TA.AperFunction,NonConductor*%
G36*
X154180000Y-98070000D02*
G01*
X153680000Y-99620000D01*
X152280000Y-99620000D01*
X152280000Y-97370000D01*
X153080000Y-97470000D01*
X153680000Y-97120000D01*
X154180000Y-98070000D01*
G37*
%TD.AperFunction*%
X152300000Y-102800000D02*
X152300000Y-103850000D01*
X151550000Y-104600000D01*
X152100000Y-105350000D01*
X153550000Y-104700000D01*
X153800000Y-103050000D01*
X152300000Y-102800000D01*
%TA.AperFunction,NonConductor*%
G36*
X153800000Y-103050000D02*
G01*
X153550000Y-104700000D01*
X152100000Y-105350000D01*
X151550000Y-104600000D01*
X152300000Y-103850000D01*
X152300000Y-102800000D01*
X153800000Y-103050000D01*
G37*
%TD.AperFunction*%
X162500000Y-96720000D02*
X162500000Y-97770000D01*
X161750000Y-98520000D01*
X162300000Y-99270000D01*
X163750000Y-98620000D01*
X164000000Y-96970000D01*
X162500000Y-96720000D01*
%TA.AperFunction,NonConductor*%
G36*
X164000000Y-96970000D02*
G01*
X163750000Y-98620000D01*
X162300000Y-99270000D01*
X161750000Y-98520000D01*
X162500000Y-97770000D01*
X162500000Y-96720000D01*
X164000000Y-96970000D01*
G37*
%TD.AperFunction*%
X163060000Y-103250000D02*
X163060000Y-104300000D01*
X162310000Y-105050000D01*
X162860000Y-105800000D01*
X164310000Y-105150000D01*
X164560000Y-103500000D01*
X163060000Y-103250000D01*
%TA.AperFunction,NonConductor*%
G36*
X164560000Y-103500000D02*
G01*
X164310000Y-105150000D01*
X162860000Y-105800000D01*
X162310000Y-105050000D01*
X163060000Y-104300000D01*
X163060000Y-103250000D01*
X164560000Y-103500000D01*
G37*
%TD.AperFunction*%
D10*
X146310000Y-83045000D02*
X148050000Y-83045000D01*
X148050000Y-83715000D01*
X146310000Y-83715000D01*
X146310000Y-83045000D01*
%TA.AperFunction,Conductor*%
G36*
X146310000Y-83045000D02*
G01*
X148050000Y-83045000D01*
X148050000Y-83715000D01*
X146310000Y-83715000D01*
X146310000Y-83045000D01*
G37*
%TD.AperFunction*%
X152550000Y-83060000D02*
X153510000Y-83060000D01*
X153510000Y-83730000D01*
X152550000Y-83730000D01*
X152550000Y-83060000D01*
%TA.AperFunction,Conductor*%
G36*
X152550000Y-83060000D02*
G01*
X153510000Y-83060000D01*
X153510000Y-83730000D01*
X152550000Y-83730000D01*
X152550000Y-83060000D01*
G37*
%TD.AperFunction*%
D12*
X152930000Y-103300000D02*
X152930000Y-105300000D01*
X153120000Y-97610000D02*
X153120000Y-99610000D01*
X157460000Y-94770000D02*
X159460000Y-94770000D01*
X162220000Y-98490000D02*
X164202500Y-97335000D01*
X163740000Y-103260000D02*
X163740000Y-105260000D01*
%TD*%
D13*
%TO.P,C8,1*%
%TO.N,Net-(C8-Pad1)*%
X148360000Y-90625692D03*
%TO.P,C8,2*%
%TO.N,GND*%
X147880000Y-89794308D03*
%TD*%
D14*
%TO.P,R6,1*%
%TO.N,Net-(S1-A)*%
X137071250Y-91377450D03*
%TO.P,R6,2*%
%TO.N,+3.3V*%
X137668750Y-90342550D03*
%TD*%
D15*
%TO.P,C3,1*%
%TO.N,+3.3V*%
X146571283Y-112388717D03*
%TO.P,C3,2*%
%TO.N,GND*%
X145768717Y-113191283D03*
%TD*%
D16*
%TO.P,J1,A1,GND_A1*%
%TO.N,GND*%
X141317778Y-104287335D03*
%TO.P,J1,A4,VBUS_A4*%
%TO.N,VBUS*%
X141883464Y-104853021D03*
D17*
%TO.P,J1,A5,CC1_A5*%
%TO.N,Net-(J1-CC1)*%
X142696636Y-105666194D03*
%TO.P,J1,A6,D+_A6*%
%TO.N,Net-(J1-D+-PadA6)*%
X143403743Y-106373300D03*
%TO.P,J1,A7,D-_A7*%
%TO.N,Net-(J1-D--PadA7)*%
X143757297Y-106726854D03*
%TO.P,J1,A8*%
%TO.N,N/C*%
X144464403Y-107433961D03*
D16*
%TO.P,J1,A9,VBUS_A9*%
%TO.N,VBUS*%
X145277576Y-108247133D03*
%TO.P,J1,A12,GND_A12*%
%TO.N,GND*%
X145843262Y-108812819D03*
%TO.P,J1,B1,GND_B1*%
X145843262Y-108812819D03*
%TO.P,J1,B4,VBUS_B4*%
%TO.N,VBUS*%
X145277576Y-108247133D03*
D17*
%TO.P,J1,B5,CC2_B5*%
%TO.N,Net-(J1-CC2)*%
X144817957Y-107787514D03*
%TO.P,J1,B6,D+_B6*%
%TO.N,Net-(J1-D+-PadA6)*%
X144110850Y-107080407D03*
%TO.P,J1,B7,D-_B7*%
%TO.N,Net-(J1-D--PadA7)*%
X143050190Y-106019747D03*
%TO.P,J1,B8*%
%TO.N,N/C*%
X142343083Y-105312640D03*
D16*
%TO.P,J1,B9,VBUS_B9*%
%TO.N,VBUS*%
X141883464Y-104853021D03*
%TO.P,J1,B12,GND_B12*%
%TO.N,GND*%
X141317778Y-104287335D03*
D18*
%TO.P,J1,SH,SHIELD_SH*%
X140126303Y-103894891D03*
D19*
X137170597Y-106850597D03*
D18*
X146235706Y-110004294D03*
D19*
X143280000Y-112960000D03*
%TD*%
D20*
%TO.P,C4,1*%
%TO.N,Net-(IC1-XTAL_N)*%
X152010000Y-95787500D03*
%TO.P,C4,2*%
%TO.N,GND*%
X152010000Y-94652500D03*
%TD*%
D21*
%TO.P,L2,1*%
%TO.N,Net-(C8-Pad1)*%
X151440000Y-86900000D03*
D22*
%TO.P,L2,2,G_2*%
%TO.N,GND*%
X147575900Y-85376000D03*
%TO.P,L2,3,G_3*%
X153025900Y-85376000D03*
%TD*%
D23*
%TO.P,Y2,1*%
%TO.N,32K_P*%
X141595000Y-91590000D03*
%TO.P,Y2,2*%
%TO.N,32K_N*%
X140400000Y-91590000D03*
%TD*%
D24*
%TO.P,U5,1,VIN_1*%
%TO.N,BAT_V*%
X151467500Y-110900000D03*
%TO.P,U5,2,GND_2*%
%TO.N,GND*%
X151467500Y-109950000D03*
%TO.P,U5,3,EN_3*%
%TO.N,Net-(U5-EN)*%
X151467500Y-109000000D03*
%TO.P,U5,4,NC_4*%
%TO.N,unconnected-(U5-NC-Pad4)*%
X149192500Y-109000000D03*
%TO.P,U5,5,VOUT_5*%
%TO.N,+3.3V*%
X149192500Y-110900000D03*
%TD*%
D25*
%TO.P,C12,1*%
%TO.N,Net-(IC1-VDD_SPI)*%
X140542500Y-101410000D03*
%TO.P,C12,2*%
%TO.N,GND*%
X141677500Y-101410000D03*
%TD*%
D26*
%TO.P,ON1,1,1_1*%
%TO.N,Net-(BAT1-Pin_1)*%
X162927716Y-92827716D03*
%TO.P,ON1,2,2_2*%
%TO.N,POWER_HOLD*%
X157412284Y-87312284D03*
%TD*%
D27*
%TO.P,R13,1*%
%TO.N,Net-(BAT1-Pin_1)*%
X147672500Y-103220000D03*
%TO.P,R13,2*%
%TO.N,Net-(U3-R1_C1)*%
X148867500Y-103220000D03*
%TD*%
D20*
%TO.P,C13,1*%
%TO.N,32K_P*%
X141180000Y-90507500D03*
%TO.P,C13,2*%
%TO.N,GND*%
X141180000Y-89372500D03*
%TD*%
D28*
%TO.P,R7,1*%
%TO.N,Net-(R7-Pad1)*%
X145950000Y-99847500D03*
%TO.P,R7,2*%
%TO.N,D-*%
X145950000Y-98652500D03*
%TD*%
%TO.P,R8,1*%
%TO.N,Net-(R8-Pad1)*%
X147040000Y-99867500D03*
%TO.P,R8,2*%
%TO.N,D+*%
X147040000Y-98672500D03*
%TD*%
D29*
%TO.P,C10,1*%
%TO.N,+3.3V*%
X152830000Y-100812500D03*
%TO.P,C10,2*%
%TO.N,GND*%
X152830000Y-101947500D03*
%TD*%
D30*
%TO.P,R14,1*%
%TO.N,BAT_V*%
X136877504Y-104612496D03*
%TO.P,R14,2*%
%TO.N,BAT_MON*%
X137722496Y-103767504D03*
%TD*%
D31*
%TO.P,Y1,1,1_1*%
%TO.N,Net-(IC1-XTAL_N)*%
X150290000Y-95420000D03*
%TO.P,Y1,2,2_2*%
%TO.N,GND*%
X150290000Y-93220000D03*
%TO.P,Y1,3,3_3*%
%TO.N,Net-(C5-Pad1)*%
X148590000Y-93220000D03*
%TO.P,Y1,4,4_4*%
%TO.N,GND*%
X148590000Y-95420000D03*
%TD*%
D28*
%TO.P,R3,1*%
%TO.N,BAT_V*%
X153120000Y-110687500D03*
%TO.P,R3,2*%
%TO.N,Net-(U5-EN)*%
X153120000Y-109492500D03*
%TD*%
D32*
%TO.P,U4,1,I/O1_1*%
%TO.N,Net-(J1-D--PadA7)*%
X143373915Y-102932583D03*
%TO.P,U4,2,GND_2*%
%TO.N,GND*%
X144045666Y-103604334D03*
%TO.P,U4,3,I/O2_3*%
%TO.N,Net-(J1-D+-PadA6)*%
X144717417Y-104276085D03*
%TO.P,U4,4,I/O2_4*%
%TO.N,Net-(R8-Pad1)*%
X146326085Y-102667417D03*
%TO.P,U4,5,VBUS_5*%
%TO.N,VBUS*%
X145654334Y-101995666D03*
%TO.P,U4,6,I/O1_6*%
%TO.N,Net-(R7-Pad1)*%
X144982583Y-101323915D03*
%TD*%
D25*
%TO.P,C11,1*%
%TO.N,+3.3V*%
X137482500Y-93170000D03*
%TO.P,C11,2*%
%TO.N,GND*%
X138617500Y-93170000D03*
%TD*%
D20*
%TO.P,C14,1*%
%TO.N,32K_N*%
X139630000Y-90517500D03*
%TO.P,C14,2*%
%TO.N,GND*%
X139630000Y-89382500D03*
%TD*%
D27*
%TO.P,R17,1*%
%TO.N,Net-(J1-CC2)*%
X148872500Y-107700000D03*
%TO.P,R17,2*%
%TO.N,GND*%
X150067500Y-107700000D03*
%TD*%
D20*
%TO.P,C2,1*%
%TO.N,BAT_V*%
X163150000Y-107957500D03*
%TO.P,C2,2*%
%TO.N,GND*%
X163150000Y-106822500D03*
%TD*%
D33*
%TO.P,U3,1,R2_1*%
%TO.N,GND*%
X147241600Y-104539999D03*
%TO.P,U3,2,VOUT_2*%
%TO.N,BAT_V*%
X147241600Y-105490000D03*
%TO.P,U3,3,VOUT_3*%
X147241600Y-106440001D03*
%TO.P,U3,4,VIN_4*%
%TO.N,Net-(BAT1-Pin_1)*%
X149578400Y-106440001D03*
%TO.P,U3,5,ON_OFF_5*%
%TO.N,POWER_HOLD*%
X149578400Y-105490000D03*
%TO.P,U3,6,R1_C1_6*%
%TO.N,Net-(U3-R1_C1)*%
X149578400Y-104539999D03*
%TD*%
D27*
%TO.P,R12,1*%
%TO.N,POWER_HOLD*%
X149980000Y-103230000D03*
%TO.P,R12,2*%
%TO.N,GND*%
X151175000Y-103230000D03*
%TD*%
D34*
%TO.P,IC1,1,LNA_IN_1*%
%TO.N,Net-(IC1-LNA_IN)*%
X143240000Y-94100000D03*
%TO.P,IC1,2,VDD3P3_1_2*%
%TO.N,+3.3V*%
X142740000Y-94100000D03*
%TO.P,IC1,3,VDD3P3_2_3*%
X142240000Y-94100000D03*
%TO.P,IC1,4,XTAL_32K_P_4*%
%TO.N,32K_P*%
X141740000Y-94100000D03*
%TO.P,IC1,5,XTAL_32K_N_5*%
%TO.N,32K_N*%
X141240000Y-94100000D03*
%TO.P,IC1,6,GPIO2_6*%
%TO.N,SCL*%
X140740000Y-94100000D03*
%TO.P,IC1,7,CHIP_EN_7*%
%TO.N,+3.3V*%
X140240000Y-94100000D03*
%TO.P,IC1,8,GPIO3_8*%
%TO.N,BAT_MON*%
X139740000Y-94100000D03*
D35*
%TO.P,IC1,9,MTMS_9*%
%TO.N,SCLK*%
X139040000Y-94800000D03*
%TO.P,IC1,10,MTDI_10*%
%TO.N,CS*%
X139040000Y-95300000D03*
%TO.P,IC1,11,VDD3P3_RTC_11*%
%TO.N,+3.3V*%
X139040000Y-95800000D03*
%TO.P,IC1,12,MTCK_12*%
%TO.N,MOSI*%
X139040000Y-96300000D03*
%TO.P,IC1,13,MTDO_13*%
%TO.N,MISO*%
X139040000Y-96800000D03*
%TO.P,IC1,14,GPIO8_14*%
%TO.N,Net-(IC1-GPIO8)*%
X139040000Y-97300000D03*
%TO.P,IC1,15,GPIO9_15*%
%TO.N,SDA*%
X139040000Y-97800000D03*
%TO.P,IC1,16,GPIO10_16*%
%TO.N,INT1*%
X139040000Y-98300000D03*
D34*
%TO.P,IC1,17,VDD3P3_CPU_17*%
%TO.N,+3.3V*%
X139740000Y-99000000D03*
%TO.P,IC1,18,VDD_SPI_18*%
%TO.N,Net-(IC1-VDD_SPI)*%
X140240000Y-99000000D03*
%TO.P,IC1,19,SPIHD_19*%
%TO.N,unconnected-(IC1-SPIHD-Pad19)*%
X140740000Y-99000000D03*
%TO.P,IC1,20,SPIWP_20*%
%TO.N,unconnected-(IC1-SPIWP-Pad20)*%
X141240000Y-99000000D03*
%TO.P,IC1,21,SPICS0_21*%
%TO.N,unconnected-(IC1-SPICS0-Pad21)*%
X141740000Y-99000000D03*
%TO.P,IC1,22,SPICLK_22*%
%TO.N,unconnected-(IC1-SPICLK-Pad22)*%
X142240000Y-99000000D03*
%TO.P,IC1,23,SPID_23*%
%TO.N,unconnected-(IC1-SPID-Pad23)*%
X142740000Y-99000000D03*
%TO.P,IC1,24,SPIQ_24*%
%TO.N,unconnected-(IC1-SPIQ-Pad24)*%
X143240000Y-99000000D03*
D35*
%TO.P,IC1,25,GPIO18_25*%
%TO.N,D-*%
X143940000Y-98300000D03*
%TO.P,IC1,26,GPIO19_26*%
%TO.N,D+*%
X143940000Y-97800000D03*
%TO.P,IC1,27,U0RXD_27*%
%TO.N,GPIO20*%
X143940000Y-97300000D03*
%TO.P,IC1,28,U0TXD_28*%
%TO.N,POWER_HOLD*%
X143940000Y-96800000D03*
%TO.P,IC1,29,XTAL_N_29*%
%TO.N,Net-(IC1-XTAL_N)*%
X143940000Y-96300000D03*
%TO.P,IC1,30,XTAL_P_30*%
%TO.N,Net-(IC1-XTAL_P)*%
X143940000Y-95800000D03*
%TO.P,IC1,31,VDDA_1_31*%
%TO.N,+3.3V*%
X143940000Y-95300000D03*
%TO.P,IC1,32,VDDA_2_32*%
X143940000Y-94800000D03*
D36*
%TO.P,IC1,33,EP_33*%
%TO.N,GND*%
X141490000Y-96550000D03*
%TD*%
D37*
%TO.P,R15,1*%
%TO.N,BAT_MON*%
X136822496Y-102997504D03*
%TO.P,R15,2*%
%TO.N,GND*%
X135977504Y-103842496D03*
%TD*%
D38*
%TO.P,BAT1,1,Pin_1_1*%
%TO.N,Net-(BAT1-Pin_1)*%
X159737500Y-108200000D03*
%TO.P,BAT1,2,Pin_2_2*%
%TO.N,GND*%
X156812500Y-108200000D03*
%TD*%
D25*
%TO.P,C6,1*%
%TO.N,+3.3V*%
X145702500Y-94100000D03*
%TO.P,C6,2*%
%TO.N,GND*%
X146837500Y-94100000D03*
%TD*%
D39*
%TO.P,R9,1*%
%TO.N,Net-(U2-ISET)*%
X153640000Y-112462500D03*
%TO.P,R9,2*%
%TO.N,GND*%
X153640000Y-113657500D03*
%TD*%
D40*
%TO.P,CH1,1,K_1*%
%TO.N,Net-(CH1-K)*%
X160835181Y-111604819D03*
%TO.P,CH1,2,A_2*%
%TO.N,Net-(CH1-A)*%
X161644819Y-110795181D03*
%TD*%
D41*
%TO.P,U1,1,SDO/TA0_1*%
%TO.N,MISO*%
X148808600Y-99289998D03*
%TO.P,U1,2,SDX_2*%
%TO.N,unconnected-(U1-SDX-Pad2)*%
X148808600Y-99789999D03*
%TO.P,U1,3,SCX_3*%
%TO.N,unconnected-(U1-SCX-Pad3)*%
X148808600Y-100289999D03*
%TO.P,U1,4,INT1_4*%
%TO.N,INT1*%
X148808600Y-100790000D03*
D42*
%TO.P,U1,5,VDDIO_5*%
%TO.N,+3.3V*%
X149514301Y-100991699D03*
%TO.P,U1,6,GND_6*%
%TO.N,GND*%
X150014300Y-100991699D03*
%TO.P,U1,7,GND_7*%
X150514299Y-100991699D03*
D41*
%TO.P,U1,8,VDD_8*%
%TO.N,+3.3V*%
X151220000Y-100790000D03*
%TO.P,U1,9,INT2_9*%
%TO.N,unconnected-(U1-INT2-Pad9)*%
X151220000Y-100289999D03*
%TO.P,U1,10,OCS_AUX_10*%
%TO.N,unconnected-(U1-OCS_AUX-Pad10)*%
X151220000Y-99789999D03*
%TO.P,U1,11,SDO_AUX_11*%
%TO.N,unconnected-(U1-SDO_AUX-Pad11)*%
X151220000Y-99289998D03*
D42*
%TO.P,U1,12,CS_12*%
%TO.N,CS*%
X150514299Y-99088299D03*
%TO.P,U1,13,SCL_13*%
%TO.N,SCLK*%
X150014300Y-99088299D03*
%TO.P,U1,14,SDA_14*%
%TO.N,MOSI*%
X149514301Y-99088299D03*
%TD*%
D28*
%TO.P,R16,1*%
%TO.N,Net-(J1-CC1)*%
X151480000Y-107637500D03*
%TO.P,R16,2*%
%TO.N,GND*%
X151480000Y-106442500D03*
%TD*%
D13*
%TO.P,C9,1*%
%TO.N,Net-(IC1-LNA_IN)*%
X145026250Y-92124223D03*
%TO.P,C9,2*%
%TO.N,GND*%
X144546250Y-91292839D03*
%TD*%
D27*
%TO.P,R11,1*%
%TO.N,Net-(BAT1-Pin_1)*%
X155772500Y-110190000D03*
%TO.P,R11,2*%
%TO.N,Net-(CH1-A)*%
X156967500Y-110190000D03*
%TD*%
D43*
%TO.P,H1,1*%
%TO.N,N/C*%
X148400000Y-115025000D03*
X148883274Y-113858274D03*
X148883274Y-116191726D03*
X150050000Y-113375000D03*
D44*
X150050000Y-115025000D03*
D43*
X150050000Y-116675000D03*
X151216726Y-113858274D03*
X151216726Y-116191726D03*
X151700000Y-115025000D03*
%TD*%
D25*
%TO.P,C5,1*%
%TO.N,Net-(C5-Pad1)*%
X153062500Y-93130000D03*
%TO.P,C5,2*%
%TO.N,GND*%
X154197500Y-93130000D03*
%TD*%
D23*
%TO.P,R1,1*%
%TO.N,Net-(C5-Pad1)*%
X146917500Y-95470000D03*
%TO.P,R1,2*%
%TO.N,Net-(IC1-XTAL_P)*%
X145722500Y-95470000D03*
%TD*%
D45*
%TO.P,S1,1,K_1*%
%TO.N,Net-(IC1-GPIO8)*%
X135893750Y-93355800D03*
%TO.P,S1,2,A_2*%
%TO.N,Net-(S1-A)*%
X136466250Y-92364200D03*
%TD*%
D15*
%TO.P,C1,1*%
%TO.N,+3.3V*%
X148201283Y-112508717D03*
%TO.P,C1,2*%
%TO.N,GND*%
X147398717Y-113311283D03*
%TD*%
D46*
%TO.P,L1,1,1_1*%
%TO.N,Net-(C8-Pad1)*%
X147089559Y-91185030D03*
%TO.P,L1,2,2_2*%
%TO.N,Net-(IC1-LNA_IN)*%
X146210441Y-91594970D03*
%TD*%
D28*
%TO.P,R10,1*%
%TO.N,Net-(U2-TS)*%
X159460000Y-112597500D03*
%TO.P,R10,2*%
%TO.N,GND*%
X159460000Y-111402500D03*
%TD*%
D15*
%TO.P,C7,1*%
%TO.N,+3.3V*%
X139351283Y-102128717D03*
%TO.P,C7,2*%
%TO.N,GND*%
X138548717Y-102931283D03*
%TD*%
D24*
%TO.P,U2,1,TS_1*%
%TO.N,Net-(U2-TS)*%
X157680000Y-113470000D03*
%TO.P,U2,2,OUT_2*%
%TO.N,Net-(BAT1-Pin_1)*%
X157680000Y-112520000D03*
%TO.P,U2,3,~{CHG}_3*%
%TO.N,Net-(CH1-K)*%
X157680000Y-111570000D03*
%TO.P,U2,4,ISET_4*%
%TO.N,Net-(U2-ISET)*%
X155405000Y-111570000D03*
%TO.P,U2,5,GND_5*%
%TO.N,GND*%
X155405000Y-112520000D03*
%TO.P,U2,6,VIN_6*%
%TO.N,VBUS*%
X155405000Y-113470000D03*
%TD*%
D47*
%TO.N,*%
X163200000Y-97840000D03*
X163710000Y-104180000D03*
X153140000Y-99130000D03*
X152870000Y-104040000D03*
X153257600Y-98136936D03*
X158170000Y-94800000D03*
%TO.N,GND*%
X145740000Y-90710000D03*
X154250000Y-87250000D03*
X161200000Y-104250000D03*
X143950000Y-88610000D03*
X150370000Y-88720000D03*
X153250000Y-88750000D03*
X151840000Y-89690000D03*
X146750000Y-90250000D03*
X151433593Y-106445000D03*
X141490000Y-96540000D03*
X145840000Y-87550000D03*
X144790000Y-89440000D03*
X142860000Y-108420000D03*
X146250000Y-88750000D03*
X145780000Y-85030000D03*
X154250000Y-86250000D03*
X145037817Y-93255544D03*
X145800000Y-86300000D03*
X146793270Y-94055770D03*
X150384130Y-109855196D03*
X147241600Y-104539999D03*
X148000000Y-91750000D03*
X154014000Y-88040000D03*
X153202308Y-90419358D03*
X147250000Y-92250000D03*
X149100000Y-91490000D03*
X143320000Y-87650000D03*
X143160000Y-90100000D03*
X161070000Y-100910000D03*
X148910000Y-89110000D03*
X143770000Y-91970000D03*
X154210000Y-84930000D03*
X159460000Y-111400000D03*
X149900000Y-91020000D03*
X146000000Y-92750000D03*
X151190000Y-90320000D03*
X152470000Y-112490000D03*
X143150000Y-92680000D03*
X142790000Y-89160000D03*
X160948154Y-94528153D03*
X147630000Y-88720000D03*
X152440000Y-88800000D03*
%TO.N,+3.3V*%
X150220000Y-102130000D03*
X142961851Y-91098149D03*
X137502496Y-101880000D03*
X145702500Y-94100000D03*
X154760000Y-101620000D03*
X137482500Y-93170000D03*
X137872708Y-95620000D03*
X147460000Y-111230000D03*
X139297500Y-91820000D03*
X154630000Y-92080000D03*
%TO.N,BAT_V*%
X151467500Y-110900000D03*
X154990000Y-105840000D03*
X163150000Y-107957500D03*
X147241600Y-105540002D03*
X139860000Y-107500000D03*
%TO.N,Net-(BAT1-Pin_1)*%
X155772500Y-110190000D03*
X153656235Y-107573765D03*
%TO.N,POWER_HOLD*%
X149980000Y-103230000D03*
X155950000Y-103230000D03*
%TO.N,SCL*%
X151480000Y-91560000D03*
X157356052Y-90936052D03*
X140260000Y-92590000D03*
%TO.N,SCLK*%
X136977327Y-94592051D03*
X149451378Y-97158622D03*
%TO.N,CS*%
X151580000Y-97870000D03*
X134820000Y-95920000D03*
%TO.N,MOSI*%
X148140833Y-97229167D03*
X137220000Y-96687554D03*
%TO.N,MISO*%
X137190000Y-97790000D03*
X147152020Y-97080000D03*
%TO.N,Net-(IC1-GPIO8)*%
X135500000Y-97058019D03*
X135893750Y-93355800D03*
%TO.N,SDA*%
X138260882Y-99370000D03*
%TO.N,INT1*%
X138471290Y-100870000D03*
X148090000Y-101690000D03*
%TO.N,Net-(J1-CC1)*%
X141610000Y-106690000D03*
X147500000Y-108390000D03*
%TD*%
%TO.N,GPIO20*%
D48*
X144830000Y-97300000D02*
X145700000Y-97300000D01*
%TO.N,Net-(C8-Pad1)*%
D49*
X151440000Y-86900000D02*
X151440000Y-87360000D01*
D50*
X151427707Y-88132293D02*
X151440000Y-88120000D01*
X151427707Y-88384398D02*
X151427707Y-88132293D01*
D51*
X148330000Y-90625272D02*
X149160000Y-90350000D01*
X149620000Y-90200000D02*
X150252549Y-89897452D01*
X147089559Y-91185030D02*
X148330000Y-90625272D01*
D50*
X148330000Y-90625692D02*
X148330000Y-90625272D01*
X148360000Y-90625692D02*
X148330000Y-90625692D01*
D51*
X149160000Y-90350000D02*
X149620000Y-90200000D01*
D52*
X151440000Y-88120000D02*
X151440000Y-87360000D01*
D51*
X150252549Y-89897452D02*
X151118873Y-89031127D01*
X151118873Y-89031127D02*
G75*
G03*
X151427724Y-88384400I-771873J765727D01*
G01*
%TO.N,GND*%
D53*
X150067500Y-107700000D02*
X150222500Y-107700000D01*
D54*
X145768717Y-113191283D02*
X143511283Y-113191283D01*
D10*
X146265270Y-84811517D02*
X146270000Y-85450000D01*
X147010000Y-85553800D02*
X147180000Y-83715000D01*
X145740000Y-84390000D02*
X146295270Y-84541517D01*
D50*
X143160000Y-90100000D02*
X143500000Y-90100000D01*
D54*
X154080000Y-110880000D02*
X152470000Y-112490000D01*
X159460000Y-111402500D02*
X159460000Y-111400000D01*
X151175000Y-103230000D02*
X152457500Y-101947500D01*
D10*
X147180000Y-83715000D02*
X146310000Y-83045000D01*
D54*
X156053304Y-108959196D02*
X154080000Y-108959196D01*
D50*
X144546250Y-91026250D02*
X144546250Y-91292839D01*
D10*
X146514200Y-85403800D02*
X147010000Y-85553800D01*
D53*
X154197500Y-93130000D02*
X154389019Y-92938481D01*
D54*
X148590000Y-95420000D02*
X148590000Y-95320000D01*
X139640000Y-89372500D02*
X139630000Y-89382500D01*
D10*
X147050000Y-83930000D02*
X146260000Y-84100000D01*
D54*
X155405000Y-112520000D02*
X154777500Y-112520000D01*
D55*
X146295270Y-84541517D02*
X146514200Y-85403800D01*
D54*
X135977504Y-105657504D02*
X137170597Y-106850597D01*
D50*
X144070000Y-90550000D02*
X144546250Y-91026250D01*
D54*
X145843262Y-108812819D02*
X145843262Y-109611850D01*
X148590000Y-95320000D02*
X150290000Y-93620000D01*
D50*
X143950000Y-90550000D02*
X144070000Y-90550000D01*
D53*
X150222500Y-107700000D02*
X151480000Y-106442500D01*
X151467500Y-109950000D02*
X150478934Y-109950000D01*
X154197500Y-93130000D02*
X152675000Y-94652500D01*
D54*
X147398717Y-113311283D02*
X145888717Y-113311283D01*
X153262183Y-101947500D02*
X152830000Y-101947500D01*
X153640000Y-113657500D02*
X152472500Y-112490000D01*
X156812500Y-108200000D02*
X156053304Y-108959196D01*
X156812500Y-105497817D02*
X153262183Y-101947500D01*
X150014300Y-100991699D02*
X150514299Y-100991699D01*
X141677500Y-103927613D02*
X141317778Y-104287335D01*
X150290000Y-93620000D02*
X150290000Y-93220000D01*
X146793270Y-94055770D02*
X146837500Y-94100000D01*
D10*
X146270000Y-85450000D02*
X146324200Y-85553800D01*
D54*
X151722500Y-94652500D02*
X150290000Y-93220000D01*
X141180000Y-89372500D02*
X142577500Y-89372500D01*
D53*
X152675000Y-94652500D02*
X152010000Y-94652500D01*
D54*
X154777500Y-112520000D02*
X153640000Y-113657500D01*
X152472500Y-112490000D02*
X152470000Y-112490000D01*
X138548717Y-102931283D02*
X139162695Y-102931283D01*
X156812500Y-108200000D02*
X156812500Y-105497817D01*
D53*
X163150000Y-106822500D02*
X161200000Y-104872500D01*
D54*
X142577500Y-89372500D02*
X142790000Y-89160000D01*
X152010000Y-94652500D02*
X151722500Y-94652500D01*
D10*
X146324200Y-85553800D02*
X147010000Y-85553800D01*
D54*
X143511283Y-113191283D02*
X143280000Y-112960000D01*
X135977504Y-103842496D02*
X135977504Y-105657504D01*
X139162695Y-102931283D02*
X140126303Y-103894891D01*
X151470100Y-101947500D02*
X152830000Y-101947500D01*
X144520000Y-103130000D02*
X145090000Y-103130000D01*
D53*
X151436093Y-106442500D02*
X151433593Y-106445000D01*
D54*
X145843262Y-109611850D02*
X146235706Y-110004294D01*
X154080000Y-108959196D02*
X154080000Y-110880000D01*
X138617500Y-90395000D02*
X139630000Y-89382500D01*
D53*
X154389019Y-92938481D02*
X159358482Y-92938481D01*
D54*
X144045666Y-103604334D02*
X144520000Y-103130000D01*
D53*
X150478934Y-109950000D02*
X150384130Y-109855196D01*
D54*
X141677500Y-101410000D02*
X141677500Y-103927613D01*
X146499999Y-104539999D02*
X147241600Y-104539999D01*
D10*
X146260000Y-84100000D02*
X146265270Y-84811517D01*
D54*
X145090000Y-103130000D02*
X146499999Y-104539999D01*
X152457500Y-101947500D02*
X152830000Y-101947500D01*
X141180000Y-89372500D02*
X139640000Y-89372500D01*
D10*
X145740000Y-84390000D02*
X145740000Y-84990000D01*
D53*
X159358482Y-92938481D02*
X160948154Y-94528153D01*
D10*
X145740000Y-84990000D02*
X145780000Y-85030000D01*
D54*
X145888717Y-113311283D02*
X145768717Y-113191283D01*
D53*
X161200000Y-104872500D02*
X161200000Y-104250000D01*
D54*
X138617500Y-93170000D02*
X138617500Y-90395000D01*
D10*
X147010000Y-85553800D02*
X147050000Y-83930000D01*
D54*
X150514299Y-100991699D02*
X151470100Y-101947500D01*
D50*
X143500000Y-90100000D02*
X143950000Y-90550000D01*
D54*
X141490000Y-96550000D02*
X141490000Y-96540000D01*
D53*
X151480000Y-106442500D02*
X151436093Y-106442500D01*
%TO.N,+3.3V*%
D54*
X152830000Y-100812500D02*
X153952500Y-100812500D01*
X150220000Y-102130000D02*
X150220000Y-102050000D01*
X142240000Y-92628334D02*
X142240000Y-94100000D01*
X138052708Y-95800000D02*
X139040000Y-95800000D01*
X148201283Y-111891217D02*
X149192500Y-110900000D01*
D56*
X144680000Y-94110000D02*
X144860000Y-94110000D01*
D54*
X137903006Y-92749494D02*
X137482500Y-93170000D01*
X142961851Y-91098149D02*
X142550000Y-91510000D01*
X139351283Y-102128717D02*
X137751213Y-102128717D01*
X142550000Y-91510000D02*
X142550000Y-92318334D01*
X146571283Y-112388717D02*
X148081283Y-112388717D01*
X140240000Y-94100000D02*
X140240000Y-93713900D01*
X142240000Y-94100000D02*
X142740000Y-94100000D01*
X149530000Y-101007398D02*
X149514301Y-100991699D01*
D56*
X143990000Y-95300000D02*
X143990000Y-94800000D01*
D54*
X137751213Y-102128717D02*
X137502496Y-101880000D01*
X146571283Y-112118717D02*
X147460000Y-111230000D01*
X140240000Y-93713900D02*
X139270000Y-92743900D01*
X137903006Y-90576806D02*
X137903006Y-92749494D01*
X146571283Y-112388717D02*
X146571283Y-112118717D01*
D56*
X143990000Y-94800000D02*
X144680000Y-94110000D01*
X144870000Y-94100000D02*
X145702500Y-94100000D01*
D54*
X152807500Y-100790000D02*
X152830000Y-100812500D01*
X151220000Y-100790000D02*
X152807500Y-100790000D01*
X139740000Y-99000000D02*
X139740000Y-101740000D01*
X139270000Y-92743900D02*
X139270000Y-91847500D01*
X139740000Y-101740000D02*
X139351283Y-102128717D01*
X137668750Y-90342550D02*
X137903006Y-90576806D01*
D56*
X144860000Y-94110000D02*
X144870000Y-94100000D01*
D54*
X137872708Y-95620000D02*
X138052708Y-95800000D01*
X142550000Y-92318334D02*
X142240000Y-92628334D01*
X153952500Y-100812500D02*
X154760000Y-101620000D01*
X148081283Y-112388717D02*
X148201283Y-112508717D01*
X139270000Y-91847500D02*
X139297500Y-91820000D01*
X150220000Y-102050000D02*
X149514301Y-101344301D01*
X149514301Y-101344301D02*
X149514301Y-100991699D01*
X148201283Y-112508717D02*
X148201283Y-111891217D01*
%TO.N,VBUS*%
X150135000Y-110567732D02*
X150135000Y-111232268D01*
X144599430Y-108550570D02*
X144440000Y-108710000D01*
X149887268Y-110320000D02*
X150135000Y-110567732D01*
D53*
X142202303Y-102567697D02*
X142202303Y-104534182D01*
D54*
X144040000Y-108710000D02*
X143590000Y-109160000D01*
X143155000Y-110375000D02*
X143953203Y-111173203D01*
X143590000Y-109160000D02*
X142570000Y-109160000D01*
X145277576Y-108247133D02*
X144974139Y-108550570D01*
D53*
X145654334Y-101995666D02*
X145379688Y-102270312D01*
X143190000Y-101580000D02*
X142202303Y-102567697D01*
D54*
X150135000Y-111232268D02*
X153197732Y-114295000D01*
X146169883Y-111173203D02*
X147023086Y-110320000D01*
X140750000Y-107340000D02*
X140750000Y-106297329D01*
X141493713Y-105553616D02*
X141493713Y-105242772D01*
X144440000Y-108710000D02*
X144040000Y-108710000D01*
X144040000Y-108710000D02*
X143155000Y-109595000D01*
X154580000Y-114295000D02*
X155405000Y-113470000D01*
X140750000Y-106297329D02*
X141493713Y-105553616D01*
X143953203Y-111173203D02*
X146169883Y-111173203D01*
X143155000Y-109595000D02*
X143155000Y-110375000D01*
X142570000Y-109160000D02*
X140750000Y-107340000D01*
D53*
X142202303Y-104534182D02*
X141883464Y-104853021D01*
D54*
X153197732Y-114295000D02*
X154580000Y-114295000D01*
X147023086Y-110320000D02*
X149887268Y-110320000D01*
X141493713Y-105242772D02*
X141883464Y-104853021D01*
D53*
X144420312Y-102270312D02*
X143730000Y-101580000D01*
X141883464Y-104853021D02*
X141883464Y-105100507D01*
X145379688Y-102270312D02*
X144420312Y-102270312D01*
X143730000Y-101580000D02*
X143190000Y-101580000D01*
D54*
X144974139Y-108550570D02*
X144599430Y-108550570D01*
%TO.N,Net-(J1-D+-PadA6)*%
D53*
X144628521Y-105148521D02*
X144628521Y-106562736D01*
X144628521Y-106562736D02*
X144110850Y-107080407D01*
X144717417Y-104276085D02*
X144717417Y-105059626D01*
X144717417Y-105059626D02*
X144628521Y-105148521D01*
X144628521Y-105148521D02*
X143403743Y-106373300D01*
%TO.N,Net-(J1-D--PadA7)*%
X143099269Y-104796035D02*
X143504692Y-105201458D01*
X142974362Y-107216711D02*
X143267440Y-107216711D01*
X142595687Y-106474250D02*
X142595687Y-106838036D01*
X143504692Y-105565245D02*
X143050190Y-106019747D01*
X143050190Y-106019747D02*
X142595687Y-106474250D01*
X142595687Y-106838036D02*
X142974362Y-107216711D01*
X143267440Y-107216711D02*
X143757297Y-106726854D01*
X143099269Y-103207229D02*
X143099269Y-104796035D01*
X143504692Y-105201458D02*
X143504692Y-105565245D01*
X143373915Y-102932583D02*
X143099269Y-103207229D01*
%TO.N,Net-(IC1-XTAL_N)*%
D54*
X144439999Y-96400000D02*
X149310000Y-96400000D01*
X150657500Y-95787500D02*
X150290000Y-95420000D01*
X143940000Y-96300000D02*
X144339999Y-96300000D01*
X149310000Y-96400000D02*
X150290000Y-95420000D01*
X152010000Y-95787500D02*
X150657500Y-95787500D01*
D10*
X150290000Y-95444264D02*
X150290000Y-95420000D01*
D54*
X144339999Y-96300000D02*
X144439999Y-96400000D01*
%TO.N,32K_P*%
X141595000Y-91590000D02*
X141595000Y-90922500D01*
X141595000Y-90922500D02*
X141180000Y-90507500D01*
X141740000Y-91810000D02*
X141560000Y-91630000D01*
X141740000Y-91735000D02*
X141595000Y-91590000D01*
X141740000Y-94100000D02*
X141740000Y-91735000D01*
X141157500Y-90530000D02*
X141180000Y-90507500D01*
%TO.N,32K_N*%
X140400000Y-91590000D02*
X140400000Y-91287500D01*
X141240000Y-92430000D02*
X140400000Y-91590000D01*
X140400000Y-91287500D02*
X139630000Y-90517500D01*
X141240000Y-94100000D02*
X141240000Y-92430000D01*
%TO.N,BAT_V*%
X152907500Y-110900000D02*
X153120000Y-110687500D01*
X151467500Y-110900000D02*
X152907500Y-110900000D01*
X147241600Y-105490000D02*
X147241600Y-105540002D01*
X153120000Y-110687500D02*
X153720000Y-110087500D01*
X136877504Y-104612496D02*
X139765008Y-107500000D01*
X153720000Y-108810079D02*
X154990000Y-107540079D01*
X154990000Y-107540079D02*
X154990000Y-105840000D01*
X153720000Y-110087500D02*
X153720000Y-108810079D01*
X139765008Y-107500000D02*
X139860000Y-107500000D01*
X147241600Y-105490000D02*
X147241600Y-106440001D01*
%TO.N,Net-(U5-EN)*%
X152627500Y-109000000D02*
X151467500Y-109000000D01*
X153120000Y-109492500D02*
X152627500Y-109000000D01*
%TO.N,Net-(IC1-VDD_SPI)*%
X140240000Y-101107500D02*
X140240000Y-99000000D01*
X140542500Y-101410000D02*
X140240000Y-101107500D01*
%TO.N,Net-(BAT1-Pin_1)*%
X147672500Y-103220000D02*
X148511000Y-104058500D01*
X156520000Y-110937500D02*
X156520000Y-112022499D01*
X148511000Y-104058500D02*
X148511000Y-106049400D01*
X155772500Y-110190000D02*
X156520000Y-110937500D01*
X156520000Y-112022499D02*
X157017501Y-112520000D01*
X151090520Y-105765000D02*
X151847470Y-105765000D01*
X148901601Y-106440001D02*
X149578400Y-106440001D01*
X149578400Y-106440001D02*
X150415519Y-106440001D01*
X157017501Y-112520000D02*
X157680000Y-112520000D01*
X159737500Y-108200000D02*
X159737500Y-98047932D01*
X159737500Y-98047932D02*
X162927716Y-94857716D01*
X158582500Y-109355000D02*
X156607500Y-109355000D01*
X159737500Y-108200000D02*
X158582500Y-109355000D01*
X151847470Y-105765000D02*
X153656235Y-107573765D01*
X150415519Y-106440001D02*
X151090520Y-105765000D01*
X162927716Y-94857716D02*
X162927716Y-92827716D01*
X148511000Y-106049400D02*
X148901601Y-106440001D01*
X156607500Y-109355000D02*
X155772500Y-110190000D01*
%TO.N,POWER_HOLD*%
X143940000Y-96800000D02*
X145910354Y-96800000D01*
X147410000Y-102140000D02*
X147810000Y-102540000D01*
X147145354Y-98035000D02*
X147386688Y-98035000D01*
X149861688Y-103230000D02*
X149980000Y-103230000D01*
X147810000Y-102540000D02*
X149171688Y-102540000D01*
X149578400Y-105490000D02*
X150630000Y-105490000D01*
X161628154Y-92984794D02*
X157412284Y-88768924D01*
X159377500Y-102492500D02*
X159377500Y-97898816D01*
X158630000Y-103240000D02*
X159377500Y-102492500D01*
X155960000Y-103240000D02*
X158630000Y-103240000D01*
X145910354Y-96800000D02*
X147145354Y-98035000D01*
X147386688Y-98035000D02*
X147640000Y-98288312D01*
X150645800Y-105474200D02*
X150645800Y-103895800D01*
X159377500Y-97898816D02*
X161628154Y-95648162D01*
X157412284Y-88768924D02*
X157412284Y-87312284D01*
X150630000Y-105490000D02*
X150645800Y-105474200D01*
X161628154Y-95648162D02*
X161628154Y-92984794D01*
X150645800Y-103895800D02*
X149980000Y-103230000D01*
X147410000Y-101408334D02*
X147410000Y-102140000D01*
X155950000Y-103230000D02*
X155960000Y-103240000D01*
X147640000Y-101178334D02*
X147410000Y-101408334D01*
X149171688Y-102540000D02*
X149861688Y-103230000D01*
X147640000Y-98288312D02*
X147640000Y-101178334D01*
%TO.N,Net-(U3-R1_C1)*%
X149578400Y-103930900D02*
X148867500Y-103220000D01*
X149578400Y-104539999D02*
X149578400Y-103930900D01*
%TO.N,Net-(R7-Pad1)*%
D53*
X144982583Y-101323915D02*
X144982583Y-100814917D01*
X144982583Y-100814917D02*
X145950000Y-99847500D01*
%TO.N,D-*%
D10*
X145597500Y-98300000D02*
X143940000Y-98300000D01*
X145950000Y-98652500D02*
X145597500Y-98300000D01*
%TO.N,Net-(R8-Pad1)*%
D53*
X146600731Y-101545527D02*
X146350000Y-101294796D01*
X146600731Y-102392771D02*
X146600731Y-101545527D01*
X146326085Y-102667417D02*
X146600731Y-102392771D01*
X146350000Y-101294796D02*
X146350000Y-100557500D01*
X146350000Y-100557500D02*
X147040000Y-99867500D01*
%TO.N,D+*%
D10*
X146167500Y-97800000D02*
X143940000Y-97800000D01*
X147040000Y-98672500D02*
X146167500Y-97800000D01*
%TO.N,BAT_MON*%
D54*
X135710000Y-94810000D02*
X134770000Y-94810000D01*
X137722496Y-103767504D02*
X137592496Y-103767504D01*
X134140000Y-95440000D02*
X134140000Y-97065176D01*
X134140000Y-97065176D02*
X136822496Y-99747672D01*
X137854166Y-93760000D02*
X137764166Y-93850000D01*
X136822496Y-99747672D02*
X136822496Y-102997504D01*
X134770000Y-94810000D02*
X134140000Y-95440000D01*
X139400000Y-93760000D02*
X137854166Y-93760000D01*
X139740000Y-94100000D02*
X139400000Y-93760000D01*
X136670000Y-93850000D02*
X135710000Y-94810000D01*
X137764166Y-93850000D02*
X136670000Y-93850000D01*
X137592496Y-103767504D02*
X136822496Y-102997504D01*
%TO.N,Net-(C5-Pad1)*%
X146917500Y-95470000D02*
X146917500Y-95342500D01*
X152172500Y-92240000D02*
X153062500Y-93130000D01*
X146917500Y-95342500D02*
X148590000Y-93670000D01*
X148590000Y-93670000D02*
X148590000Y-93220000D01*
X148590000Y-93220000D02*
X149570000Y-92240000D01*
X149570000Y-92240000D02*
X152172500Y-92240000D01*
%TO.N,Net-(IC1-LNA_IN)*%
D51*
X145630000Y-91850000D02*
X146210441Y-91594970D01*
X144421300Y-92468701D02*
X143570000Y-93320000D01*
D50*
X143570000Y-93320000D02*
X143522843Y-93367157D01*
D51*
X145026250Y-92124223D02*
X145630000Y-91850000D01*
X143522843Y-93367157D02*
G75*
G03*
X143240004Y-94050000I682857J-682843D01*
G01*
X145070000Y-92200000D02*
G75*
G03*
X144421300Y-92468701I0J-917400D01*
G01*
%TO.N,SCL*%
D54*
X156892104Y-91400000D02*
X157356052Y-90936052D01*
X151480000Y-91560000D02*
X151640000Y-91400000D01*
X151640000Y-91400000D02*
X156892104Y-91400000D01*
X140740000Y-93070000D02*
X140260000Y-92590000D01*
X140740000Y-94100000D02*
X140740000Y-93070000D01*
%TO.N,SCLK*%
X150014300Y-99088299D02*
X150014300Y-97721544D01*
X138450000Y-94210000D02*
X139040000Y-94800000D01*
X136977327Y-94592051D02*
X137359378Y-94210000D01*
X150014300Y-97721544D02*
X149451378Y-97158622D01*
X137359378Y-94210000D02*
X138450000Y-94210000D01*
%TO.N,CS*%
X134820000Y-95920000D02*
X135220000Y-95520000D01*
X135220000Y-95520000D02*
X135230000Y-95520000D01*
X151450000Y-97870000D02*
X150514299Y-98805701D01*
X151580000Y-97870000D02*
X151450000Y-97870000D01*
X135230000Y-95520000D02*
X135580000Y-95170000D01*
X136593610Y-95170000D02*
X136695661Y-95272051D01*
X138653900Y-95300000D02*
X139040000Y-95300000D01*
X137657327Y-94873717D02*
X138227617Y-94873717D01*
X135580000Y-95170000D02*
X136593610Y-95170000D01*
X138227617Y-94873717D02*
X138653900Y-95300000D01*
X150514299Y-98805701D02*
X150514299Y-99088299D01*
X137258993Y-95272051D02*
X137657327Y-94873717D01*
X136695661Y-95272051D02*
X137258993Y-95272051D01*
%TO.N,MOSI*%
X148140833Y-97229167D02*
X149514301Y-98602635D01*
X149514301Y-98602635D02*
X149514301Y-99088299D01*
X137607554Y-96300000D02*
X137220000Y-96687554D01*
X139040000Y-96300000D02*
X137607554Y-96300000D01*
%TO.N,MISO*%
X138069218Y-96800000D02*
X137190000Y-97679218D01*
X137190000Y-97679218D02*
X137190000Y-97790000D01*
X148808600Y-98858600D02*
X147152020Y-97202020D01*
X147152020Y-97202020D02*
X147152020Y-97080000D01*
X139040000Y-96800000D02*
X138069218Y-96800000D01*
X148808600Y-99289998D02*
X148808600Y-98858600D01*
%TO.N,Net-(IC1-GPIO8)*%
X136908334Y-98470000D02*
X137471666Y-98470000D01*
X137870000Y-97508334D02*
X138078334Y-97300000D01*
X135750000Y-97311666D02*
X136908334Y-98470000D01*
X135750000Y-97279167D02*
X135750000Y-97311666D01*
X138078334Y-97300000D02*
X139040000Y-97300000D01*
X135500000Y-97058019D02*
X135528852Y-97058019D01*
X137870000Y-98071666D02*
X137870000Y-97508334D01*
X137471666Y-98470000D02*
X137870000Y-98071666D01*
X135528852Y-97058019D02*
X135750000Y-97279167D01*
%TO.N,SDA*%
X138640001Y-97800000D02*
X139040000Y-97800000D01*
X138260882Y-98179119D02*
X138640001Y-97800000D01*
X138260882Y-99370000D02*
X138260882Y-98179119D01*
%TO.N,INT1*%
X139335000Y-99985000D02*
X139330000Y-99980000D01*
X139335000Y-100445000D02*
X139335000Y-99985000D01*
X138471290Y-100870000D02*
X138910000Y-100870000D01*
X138910000Y-100870000D02*
X139335000Y-100445000D01*
X148808600Y-100971400D02*
X148090000Y-101690000D01*
X148808600Y-100790000D02*
X148808600Y-100971400D01*
X139330000Y-98590000D02*
X139040000Y-98300000D01*
X139330000Y-99980000D02*
X139330000Y-98590000D01*
%TO.N,GPIO20*%
X143940000Y-97300000D02*
X144830000Y-97300000D01*
%TO.N,Net-(IC1-XTAL_P)*%
X145392500Y-95800000D02*
X145722500Y-95470000D01*
X143990000Y-95800000D02*
X145392500Y-95800000D01*
%TO.N,Net-(U2-ISET)*%
X155405000Y-111570000D02*
X154532500Y-111570000D01*
X154532500Y-111570000D02*
X153640000Y-112462500D01*
%TO.N,Net-(U2-TS)*%
X158587500Y-113470000D02*
X157680000Y-113470000D01*
X159460000Y-112597500D02*
X158587500Y-113470000D01*
%TO.N,Net-(CH1-K)*%
X157680000Y-111570000D02*
X158890000Y-110360000D01*
X159590362Y-110360000D02*
X160835181Y-111604819D01*
X158890000Y-110360000D02*
X159590362Y-110360000D01*
%TO.N,Net-(CH1-A)*%
X160759638Y-109910000D02*
X161644819Y-110795181D01*
X156967500Y-110190000D02*
X157247500Y-109910000D01*
X157247500Y-109910000D02*
X160759638Y-109910000D01*
%TO.N,Net-(S1-A)*%
X136466250Y-91982450D02*
X137071250Y-91377450D01*
X136466250Y-92364200D02*
X136466250Y-91982450D01*
%TO.N,Net-(J1-CC2)*%
D53*
X145242863Y-107362608D02*
X144817957Y-107787514D01*
X148535108Y-107362608D02*
X145242863Y-107362608D01*
X148872500Y-107700000D02*
X148535108Y-107362608D01*
%TO.N,Net-(J1-CC1)*%
X147500000Y-108390000D02*
X147830000Y-108390000D01*
X141672830Y-106690000D02*
X142696636Y-105666194D01*
X147830000Y-108390000D02*
X147845000Y-108375000D01*
X141610000Y-106690000D02*
X141672830Y-106690000D01*
X150742500Y-108375000D02*
X151480000Y-107637500D01*
X147845000Y-108375000D02*
X150742500Y-108375000D01*
%TD*%
%TA.AperFunction,Conductor*%
%TO.N,GND*%
G36*
X133637655Y-100328562D02*
G01*
X133671676Y-100367144D01*
X133675938Y-100382825D01*
X133679303Y-100404069D01*
X133679305Y-100404079D01*
X133747657Y-100614447D01*
X133848080Y-100811538D01*
X133911432Y-100898734D01*
X133958579Y-100963626D01*
X133978099Y-100990492D01*
X133978106Y-100990500D01*
X134134499Y-101146893D01*
X134134507Y-101146900D01*
X134134509Y-101146902D01*
X134211965Y-101203177D01*
X134313461Y-101276919D01*
X134448382Y-101345665D01*
X134510552Y-101377342D01*
X134720925Y-101445696D01*
X134939401Y-101480300D01*
X134939405Y-101480300D01*
X135160595Y-101480300D01*
X135160599Y-101480300D01*
X135379075Y-101445696D01*
X135589448Y-101377342D01*
X135786537Y-101276920D01*
X135965491Y-101146902D01*
X136121902Y-100990491D01*
X136251920Y-100811537D01*
X136352342Y-100614448D01*
X136395277Y-100482306D01*
X136426946Y-100441772D01*
X136477262Y-100431077D01*
X136522680Y-100455226D01*
X136541950Y-100502920D01*
X136541996Y-100505545D01*
X136541996Y-102510757D01*
X136524403Y-102559095D01*
X136519971Y-102563931D01*
X136290603Y-102793299D01*
X136248271Y-102850069D01*
X136248269Y-102850073D01*
X136232595Y-102895728D01*
X136200259Y-102935734D01*
X136149773Y-102945595D01*
X136143474Y-102944325D01*
X136084157Y-102929705D01*
X135923885Y-102929705D01*
X135768259Y-102968063D01*
X135626347Y-103042544D01*
X135575046Y-103085298D01*
X135574452Y-103085890D01*
X135574452Y-103085891D01*
X136101106Y-103612544D01*
X136122846Y-103659164D01*
X136109532Y-103708851D01*
X136101107Y-103718892D01*
X135977504Y-103842495D01*
X135977504Y-103842497D01*
X136101106Y-103966099D01*
X136122846Y-104012719D01*
X136109532Y-104062406D01*
X136101106Y-104072447D01*
X135550291Y-104623260D01*
X135550292Y-104623261D01*
X135573310Y-104642444D01*
X135573313Y-104642446D01*
X135715226Y-104716928D01*
X135870852Y-104755287D01*
X136031123Y-104755287D01*
X136186745Y-104716929D01*
X136188088Y-104716420D01*
X136188854Y-104716409D01*
X136191161Y-104715841D01*
X136191292Y-104716376D01*
X136239523Y-104715722D01*
X136279373Y-104748249D01*
X136285889Y-104762311D01*
X136303277Y-104812960D01*
X136303279Y-104812964D01*
X136345608Y-104869731D01*
X136620269Y-105144391D01*
X136677036Y-105186721D01*
X136790831Y-105225787D01*
X136790832Y-105225787D01*
X136911143Y-105225787D01*
X136911144Y-105225787D01*
X136985974Y-105200097D01*
X137002950Y-105194270D01*
X137054381Y-105195214D01*
X137080542Y-105212221D01*
X137378412Y-105510091D01*
X137400152Y-105556711D01*
X137386838Y-105606398D01*
X137344701Y-105635903D01*
X137325238Y-105638465D01*
X137284237Y-105638465D01*
X137091037Y-105676894D01*
X137091036Y-105676895D01*
X136909052Y-105752275D01*
X136745263Y-105861716D01*
X136745260Y-105861718D01*
X136640267Y-105966712D01*
X136640267Y-105966713D01*
X137135242Y-106461688D01*
X136781688Y-106815241D01*
X136286714Y-106320267D01*
X136286713Y-106320267D01*
X136181711Y-106425269D01*
X136072277Y-106589048D01*
X135996895Y-106771036D01*
X135996894Y-106771037D01*
X135958465Y-106964237D01*
X135958465Y-107161220D01*
X135996894Y-107354420D01*
X135996895Y-107354421D01*
X136072275Y-107536405D01*
X136072277Y-107536409D01*
X136095890Y-107571747D01*
X136095891Y-107571748D01*
X136663609Y-107004030D01*
X136658464Y-107023234D01*
X136658464Y-107102224D01*
X136678909Y-107178525D01*
X136718405Y-107246933D01*
X136774261Y-107302789D01*
X136842669Y-107342285D01*
X136918970Y-107362730D01*
X136997960Y-107362730D01*
X137017162Y-107357584D01*
X136449445Y-107925301D01*
X136484789Y-107948918D01*
X136484788Y-107948918D01*
X136666772Y-108024298D01*
X136666773Y-108024299D01*
X136859973Y-108062729D01*
X137056957Y-108062729D01*
X137250156Y-108024299D01*
X137250157Y-108024298D01*
X137432145Y-107948916D01*
X137595921Y-107839484D01*
X137595929Y-107839477D01*
X137700926Y-107734481D01*
X137700926Y-107734479D01*
X137205952Y-107239505D01*
X137559505Y-106885952D01*
X138054479Y-107380926D01*
X138054480Y-107380926D01*
X138159479Y-107275928D01*
X138268918Y-107112141D01*
X138344298Y-106930157D01*
X138344299Y-106930156D01*
X138382729Y-106736956D01*
X138382729Y-106695956D01*
X138400322Y-106647618D01*
X138444871Y-106621898D01*
X138495529Y-106630831D01*
X138511103Y-106642782D01*
X139237474Y-107369153D01*
X139259214Y-107415773D01*
X139259500Y-107422327D01*
X139259500Y-107579057D01*
X139282306Y-107664170D01*
X139300423Y-107731785D01*
X139379479Y-107868714D01*
X139379483Y-107868720D01*
X139491279Y-107980516D01*
X139491282Y-107980518D01*
X139491284Y-107980520D01*
X139580290Y-108031907D01*
X139619491Y-108054540D01*
X139628216Y-108059577D01*
X139780943Y-108100500D01*
X139780946Y-108100500D01*
X139939054Y-108100500D01*
X139939057Y-108100500D01*
X140091784Y-108059577D01*
X140228716Y-107980520D01*
X140340520Y-107868716D01*
X140419577Y-107731784D01*
X140454657Y-107600862D01*
X140484160Y-107558729D01*
X140533847Y-107545415D01*
X140571112Y-107562792D01*
X140572590Y-107560724D01*
X140572597Y-107560729D01*
X140579829Y-107566856D01*
X140580467Y-107567154D01*
X140580467Y-107567155D01*
X140582048Y-107568736D01*
X140582061Y-107568747D01*
X142345543Y-109332230D01*
X142345544Y-109332231D01*
X142397769Y-109384456D01*
X142461731Y-109421384D01*
X142533072Y-109440500D01*
X142606929Y-109440500D01*
X142808001Y-109440500D01*
X142856339Y-109458093D01*
X142882059Y-109502642D01*
X142880639Y-109535160D01*
X142874500Y-109558072D01*
X142874500Y-110338071D01*
X142874500Y-110411929D01*
X142887237Y-110459463D01*
X142893616Y-110483270D01*
X142930543Y-110547229D01*
X142930547Y-110547235D01*
X142987048Y-110603736D01*
X142987061Y-110603747D01*
X143728746Y-111345433D01*
X143728747Y-111345434D01*
X143780972Y-111397659D01*
X143844934Y-111434587D01*
X143916275Y-111453703D01*
X143916278Y-111453703D01*
X146206810Y-111453703D01*
X146206812Y-111453703D01*
X146278152Y-111434587D01*
X146292767Y-111426149D01*
X146292768Y-111426149D01*
X146342109Y-111397662D01*
X146342109Y-111397661D01*
X146342114Y-111397659D01*
X146394339Y-111345434D01*
X146400523Y-111339250D01*
X146400530Y-111339240D01*
X146760124Y-110979647D01*
X146806743Y-110957909D01*
X146856430Y-110971223D01*
X146885935Y-111013360D01*
X146885935Y-111052286D01*
X146859500Y-111150943D01*
X146859500Y-111309057D01*
X146867590Y-111339250D01*
X146874627Y-111365513D01*
X146870143Y-111416757D01*
X146855163Y-111438150D01*
X146515187Y-111778125D01*
X146486431Y-111796075D01*
X146440406Y-111811876D01*
X146440401Y-111811878D01*
X146384427Y-111853617D01*
X146384421Y-111853622D01*
X146036188Y-112201855D01*
X146036181Y-112201864D01*
X145996513Y-112255060D01*
X145953514Y-112283293D01*
X145917529Y-112282944D01*
X145892121Y-112276421D01*
X145726627Y-112276421D01*
X145566336Y-112317577D01*
X145421314Y-112397303D01*
X145393002Y-112421485D01*
X145392995Y-112421492D01*
X145372737Y-112441749D01*
X145945494Y-113014506D01*
X145945495Y-113014506D01*
X146517537Y-113586550D01*
X146537791Y-113606803D01*
X146559532Y-113653423D01*
X146559419Y-113657568D01*
X146604735Y-113739998D01*
X146604741Y-113740006D01*
X146610129Y-113746315D01*
X146610130Y-113746316D01*
X147168766Y-113187680D01*
X147215386Y-113165940D01*
X147265073Y-113179254D01*
X147275114Y-113187680D01*
X147522319Y-113434885D01*
X147544059Y-113481505D01*
X147530745Y-113531192D01*
X147522319Y-113541233D01*
X146963682Y-114099868D01*
X146963683Y-114099869D01*
X146969996Y-114105261D01*
X146970001Y-114105264D01*
X147115019Y-114184988D01*
X147115018Y-114184988D01*
X147275310Y-114226144D01*
X147275313Y-114226145D01*
X147440804Y-114226145D01*
X147440806Y-114226144D01*
X147601097Y-114184988D01*
X147676207Y-114143696D01*
X147727041Y-114135826D01*
X147771041Y-114162473D01*
X147787619Y-114211168D01*
X147783415Y-114234431D01*
X147739685Y-114359404D01*
X147739685Y-114359405D01*
X147739684Y-114359409D01*
X147703097Y-114519709D01*
X147679687Y-114622273D01*
X147649500Y-114890193D01*
X147649500Y-115159806D01*
X147676652Y-115400792D01*
X147679688Y-115427732D01*
X147739684Y-115690591D01*
X147828733Y-115945079D01*
X147945716Y-116187997D01*
X148019962Y-116306158D01*
X148030782Y-116356447D01*
X148006746Y-116401926D01*
X147959100Y-116421314D01*
X147947083Y-116420801D01*
X147604761Y-116378580D01*
X147601110Y-116378039D01*
X146806461Y-116240154D01*
X146802841Y-116239434D01*
X146015923Y-116062726D01*
X146012342Y-116061829D01*
X145235052Y-115846724D01*
X145231520Y-115845653D01*
X144465694Y-115592659D01*
X144462219Y-115591415D01*
X143709768Y-115301162D01*
X143706358Y-115299750D01*
X142969016Y-114972909D01*
X142965679Y-114971330D01*
X142245308Y-114608725D01*
X142242053Y-114606986D01*
X141540297Y-114209447D01*
X141537131Y-114207549D01*
X141320254Y-114070213D01*
X140855747Y-113776067D01*
X140852678Y-113774016D01*
X140412239Y-113463824D01*
X140193289Y-113309622D01*
X140190329Y-113307427D01*
X139961992Y-113129231D01*
X139890759Y-113073640D01*
X142067868Y-113073640D01*
X142067868Y-113270623D01*
X142106297Y-113463823D01*
X142106298Y-113463824D01*
X142181678Y-113645808D01*
X142181680Y-113645812D01*
X142205293Y-113681150D01*
X142205294Y-113681151D01*
X142773012Y-113113433D01*
X142767867Y-113132637D01*
X142767867Y-113211627D01*
X142788312Y-113287928D01*
X142827808Y-113356336D01*
X142883664Y-113412192D01*
X142952072Y-113451688D01*
X143028373Y-113472133D01*
X143107363Y-113472133D01*
X143126565Y-113466987D01*
X142558848Y-114034704D01*
X142594192Y-114058321D01*
X142594191Y-114058321D01*
X142776175Y-114133701D01*
X142776176Y-114133702D01*
X142969376Y-114172132D01*
X143166360Y-114172132D01*
X143359559Y-114133702D01*
X143359560Y-114133701D01*
X143541548Y-114058319D01*
X143658958Y-113979868D01*
X145333682Y-113979868D01*
X145333683Y-113979869D01*
X145339996Y-113985261D01*
X145340001Y-113985264D01*
X145485019Y-114064988D01*
X145485018Y-114064988D01*
X145645310Y-114106144D01*
X145645313Y-114106145D01*
X145810804Y-114106145D01*
X145810806Y-114106144D01*
X145971097Y-114064988D01*
X146116118Y-113985262D01*
X146144435Y-113961077D01*
X146144437Y-113961075D01*
X146164696Y-113940815D01*
X146164696Y-113940814D01*
X145768718Y-113544836D01*
X145768716Y-113544836D01*
X145333682Y-113979868D01*
X143658958Y-113979868D01*
X143705324Y-113948887D01*
X143705332Y-113948880D01*
X143757433Y-113896780D01*
X143810329Y-113843884D01*
X143810329Y-113843882D01*
X143315355Y-113348908D01*
X143668908Y-112995355D01*
X144163882Y-113490329D01*
X144163883Y-113490329D01*
X144268882Y-113385331D01*
X144378321Y-113221544D01*
X144408290Y-113149193D01*
X144853855Y-113149193D01*
X144853855Y-113314689D01*
X144895011Y-113474980D01*
X144974736Y-113620000D01*
X144974740Y-113620007D01*
X144980128Y-113626315D01*
X144980130Y-113626316D01*
X145415163Y-113191283D01*
X145415163Y-113191282D01*
X145019182Y-112795303D01*
X144998926Y-112815561D01*
X144998919Y-112815568D01*
X144974737Y-112843880D01*
X144895011Y-112988902D01*
X144853855Y-113149193D01*
X144408290Y-113149193D01*
X144422169Y-113115687D01*
X144453701Y-113039560D01*
X144453702Y-113039559D01*
X144492132Y-112846359D01*
X144492132Y-112649375D01*
X144453702Y-112456176D01*
X144453701Y-112456175D01*
X144378320Y-112274188D01*
X144354705Y-112238846D01*
X143786988Y-112806563D01*
X143792133Y-112787363D01*
X143792133Y-112708372D01*
X143771688Y-112632072D01*
X143732192Y-112563664D01*
X143676336Y-112507808D01*
X143607928Y-112468312D01*
X143531628Y-112447867D01*
X143452637Y-112447867D01*
X143433434Y-112453012D01*
X144001151Y-111885294D01*
X144001151Y-111885293D01*
X143965808Y-111861678D01*
X143783824Y-111786298D01*
X143783823Y-111786297D01*
X143590625Y-111747868D01*
X143393640Y-111747868D01*
X143200440Y-111786297D01*
X143200439Y-111786298D01*
X143018455Y-111861678D01*
X142854666Y-111971119D01*
X142854663Y-111971121D01*
X142749670Y-112076115D01*
X142749670Y-112076117D01*
X143244644Y-112571091D01*
X142891091Y-112924644D01*
X142396117Y-112429670D01*
X142396116Y-112429670D01*
X142291114Y-112534672D01*
X142181680Y-112698451D01*
X142106298Y-112880439D01*
X142106297Y-112880440D01*
X142067868Y-113073640D01*
X139890759Y-113073640D01*
X139714381Y-112935994D01*
X139554512Y-112811231D01*
X139551663Y-112808893D01*
X139550228Y-112807655D01*
X138940943Y-112282082D01*
X138938216Y-112279609D01*
X138932522Y-112274188D01*
X138354111Y-111723495D01*
X138351503Y-111720886D01*
X137900638Y-111247328D01*
X137795381Y-111136774D01*
X137792911Y-111134049D01*
X137776389Y-111114896D01*
X137266099Y-110523327D01*
X137263764Y-110520482D01*
X137212103Y-110454285D01*
X136767564Y-109884660D01*
X136765374Y-109881706D01*
X136733372Y-109836267D01*
X136300977Y-109222313D01*
X136298932Y-109219252D01*
X136276145Y-109183268D01*
X135867449Y-108537867D01*
X135865552Y-108534702D01*
X135525454Y-107934343D01*
X135525454Y-107934342D01*
X135468014Y-107832946D01*
X135466274Y-107829691D01*
X135151403Y-107204151D01*
X135103667Y-107109317D01*
X135102090Y-107105983D01*
X135051130Y-106991018D01*
X134835055Y-106503560D01*
X134775245Y-106368632D01*
X134773837Y-106365231D01*
X134767114Y-106347802D01*
X134483577Y-105612762D01*
X134482346Y-105609323D01*
X134229340Y-104843461D01*
X134228275Y-104839947D01*
X134226621Y-104833972D01*
X134013166Y-104062644D01*
X134012273Y-104059076D01*
X134011973Y-104057741D01*
X133963639Y-103842496D01*
X133954276Y-103800801D01*
X133951598Y-103788876D01*
X135064713Y-103788876D01*
X135064713Y-103949148D01*
X135103071Y-104104773D01*
X135177553Y-104246685D01*
X135177558Y-104246693D01*
X135196737Y-104269706D01*
X135196738Y-104269707D01*
X135623950Y-103842496D01*
X135623950Y-103842494D01*
X135220900Y-103439444D01*
X135220898Y-103439444D01*
X135220306Y-103440038D01*
X135177552Y-103491339D01*
X135103071Y-103633251D01*
X135064713Y-103788876D01*
X133951598Y-103788876D01*
X133835565Y-103272158D01*
X133834845Y-103268538D01*
X133823047Y-103200542D01*
X133696956Y-102473867D01*
X133696422Y-102470260D01*
X133597693Y-101669788D01*
X133597333Y-101666134D01*
X133537999Y-100861775D01*
X133537821Y-100858136D01*
X133526487Y-100396434D01*
X133542889Y-100347681D01*
X133586792Y-100320875D01*
X133637655Y-100328562D01*
G37*
%TD.AperFunction*%
%TA.AperFunction,Conductor*%
G36*
X154035878Y-84037678D02*
G01*
X154814964Y-84253280D01*
X154818461Y-84254340D01*
X155584323Y-84507346D01*
X155587762Y-84508577D01*
X156340240Y-84798841D01*
X156343632Y-84800245D01*
X156795222Y-85000421D01*
X157080983Y-85127090D01*
X157084320Y-85128669D01*
X157804691Y-85491274D01*
X157807946Y-85493013D01*
X158509702Y-85890552D01*
X158512867Y-85892449D01*
X158834134Y-86095890D01*
X159194252Y-86323932D01*
X159197313Y-86325977D01*
X159856717Y-86790382D01*
X159859660Y-86792564D01*
X160425378Y-87234055D01*
X160495482Y-87288764D01*
X160498327Y-87291099D01*
X160998140Y-87722241D01*
X161109049Y-87817911D01*
X161111783Y-87820390D01*
X161695886Y-88376503D01*
X161698496Y-88379113D01*
X162066231Y-88765357D01*
X162241022Y-88948946D01*
X162254609Y-88963216D01*
X162257082Y-88965943D01*
X162730119Y-89514324D01*
X162783893Y-89576663D01*
X162786231Y-89579512D01*
X163274823Y-90205586D01*
X163282427Y-90215329D01*
X163284622Y-90218289D01*
X163662933Y-90755449D01*
X163749016Y-90877678D01*
X163751067Y-90880747D01*
X164182549Y-91562131D01*
X164184447Y-91565297D01*
X164581986Y-92267053D01*
X164583725Y-92270308D01*
X164946330Y-92990679D01*
X164947909Y-92994016D01*
X165274750Y-93731358D01*
X165276162Y-93734768D01*
X165566415Y-94487219D01*
X165567659Y-94490694D01*
X165820653Y-95256520D01*
X165821724Y-95260052D01*
X166036829Y-96037342D01*
X166037726Y-96040923D01*
X166214434Y-96827841D01*
X166215154Y-96831461D01*
X166353039Y-97626110D01*
X166353580Y-97629761D01*
X166452304Y-98430192D01*
X166452666Y-98433865D01*
X166511998Y-99238200D01*
X166512179Y-99241887D01*
X166524965Y-99762735D01*
X166508563Y-99811489D01*
X166464660Y-99838295D01*
X166413798Y-99830608D01*
X166379776Y-99792026D01*
X166375514Y-99776344D01*
X166373360Y-99762742D01*
X166370696Y-99745925D01*
X166302342Y-99535552D01*
X166201920Y-99338463D01*
X166201263Y-99337559D01*
X166088563Y-99182441D01*
X166071902Y-99159509D01*
X166071900Y-99159507D01*
X166071893Y-99159499D01*
X165915500Y-99003106D01*
X165915492Y-99003099D01*
X165912995Y-99001285D01*
X165848307Y-98954286D01*
X165736538Y-98873080D01*
X165539447Y-98772657D01*
X165329079Y-98704305D01*
X165329067Y-98704302D01*
X165110601Y-98669700D01*
X165110599Y-98669700D01*
X164889401Y-98669700D01*
X164889398Y-98669700D01*
X164670932Y-98704302D01*
X164670920Y-98704305D01*
X164460552Y-98772657D01*
X164263461Y-98873080D01*
X164084507Y-99003099D01*
X164084499Y-99003106D01*
X163928106Y-99159499D01*
X163928099Y-99159507D01*
X163798080Y-99338461D01*
X163697657Y-99535552D01*
X163629305Y-99745920D01*
X163629302Y-99745932D01*
X163594700Y-99964398D01*
X163594700Y-100185601D01*
X163629302Y-100404067D01*
X163629305Y-100404079D01*
X163697657Y-100614447D01*
X163798080Y-100811538D01*
X163861432Y-100898734D01*
X163908579Y-100963626D01*
X163928099Y-100990492D01*
X163928106Y-100990500D01*
X164084499Y-101146893D01*
X164084507Y-101146900D01*
X164084509Y-101146902D01*
X164161965Y-101203177D01*
X164263461Y-101276919D01*
X164398382Y-101345665D01*
X164460552Y-101377342D01*
X164670925Y-101445696D01*
X164889401Y-101480300D01*
X164889405Y-101480300D01*
X165110595Y-101480300D01*
X165110599Y-101480300D01*
X165329075Y-101445696D01*
X165539448Y-101377342D01*
X165736537Y-101276920D01*
X165915491Y-101146902D01*
X166071902Y-100990491D01*
X166201920Y-100811537D01*
X166302342Y-100614448D01*
X166370696Y-100404075D01*
X166374061Y-100382827D01*
X166398998Y-100337837D01*
X166447021Y-100319401D01*
X166495658Y-100336147D01*
X166522153Y-100380239D01*
X166523512Y-100396435D01*
X166512179Y-100858112D01*
X166511998Y-100861799D01*
X166452666Y-101666134D01*
X166452304Y-101669807D01*
X166353580Y-102470238D01*
X166353039Y-102473889D01*
X166215154Y-103268538D01*
X166214434Y-103272158D01*
X166037726Y-104059076D01*
X166036829Y-104062657D01*
X165821724Y-104839947D01*
X165820653Y-104843479D01*
X165567659Y-105609305D01*
X165566415Y-105612780D01*
X165276162Y-106365231D01*
X165274750Y-106368641D01*
X164947909Y-107105983D01*
X164946330Y-107109320D01*
X164583725Y-107829691D01*
X164581986Y-107832946D01*
X164184447Y-108534702D01*
X164182549Y-108537868D01*
X163751067Y-109219252D01*
X163749016Y-109222321D01*
X163284625Y-109881706D01*
X163282427Y-109884670D01*
X162786235Y-110520482D01*
X162783893Y-110523336D01*
X162338818Y-111039301D01*
X162338817Y-111039300D01*
X162273610Y-111114895D01*
X162273609Y-111114896D01*
X162257087Y-111134049D01*
X162254609Y-111136783D01*
X161698496Y-111720886D01*
X161695886Y-111723496D01*
X161111783Y-112279609D01*
X161109049Y-112282088D01*
X160498336Y-112808893D01*
X160495482Y-112811235D01*
X159859670Y-113307427D01*
X159856706Y-113309625D01*
X159197321Y-113774016D01*
X159194252Y-113776067D01*
X158512868Y-114207549D01*
X158509702Y-114209447D01*
X157807946Y-114606986D01*
X157804691Y-114608725D01*
X157084320Y-114971330D01*
X157080983Y-114972909D01*
X156343641Y-115299750D01*
X156340231Y-115301162D01*
X155587780Y-115591415D01*
X155584305Y-115592659D01*
X154818479Y-115845653D01*
X154814947Y-115846724D01*
X154037657Y-116061829D01*
X154034076Y-116062726D01*
X153247158Y-116239434D01*
X153243538Y-116240154D01*
X152448889Y-116378039D01*
X152445238Y-116378580D01*
X152157117Y-116414116D01*
X152106989Y-116402572D01*
X152076010Y-116361507D01*
X152078674Y-116310137D01*
X152084234Y-116299479D01*
X152154284Y-116187997D01*
X152271267Y-115945079D01*
X152360316Y-115690591D01*
X152420312Y-115427732D01*
X152450500Y-115159809D01*
X152450500Y-114890191D01*
X152420312Y-114622268D01*
X152360316Y-114359409D01*
X152271267Y-114104921D01*
X152154284Y-113862003D01*
X152147968Y-113851952D01*
X152137150Y-113801664D01*
X152161188Y-113756186D01*
X152208834Y-113736799D01*
X152257795Y-113752574D01*
X152264811Y-113758766D01*
X152973275Y-114467230D01*
X152973276Y-114467231D01*
X153008992Y-114502947D01*
X153025501Y-114519456D01*
X153025929Y-114519703D01*
X153025925Y-114519709D01*
X153025947Y-114519713D01*
X153089463Y-114556384D01*
X153160803Y-114575500D01*
X153160804Y-114575500D01*
X153160805Y-114575500D01*
X154616927Y-114575500D01*
X154616929Y-114575500D01*
X154688269Y-114556384D01*
X154690520Y-114555084D01*
X154692167Y-114554134D01*
X154704859Y-114546805D01*
X154752231Y-114519456D01*
X154804456Y-114467231D01*
X154810640Y-114461047D01*
X154810647Y-114461037D01*
X155279162Y-113992525D01*
X155325782Y-113970786D01*
X155332336Y-113970500D01*
X155950758Y-113970500D01*
X155950760Y-113970500D01*
X155950764Y-113970499D01*
X155950768Y-113970499D01*
X155960446Y-113969088D01*
X156018893Y-113960573D01*
X156123983Y-113909198D01*
X156206698Y-113826483D01*
X156258073Y-113721393D01*
X156268000Y-113653260D01*
X156268000Y-113286740D01*
X156266033Y-113273242D01*
X156276471Y-113222874D01*
X156302170Y-113197668D01*
X156319056Y-113187682D01*
X156319061Y-113187678D01*
X156435176Y-113071563D01*
X156435182Y-113071556D01*
X156518781Y-112930197D01*
X156564599Y-112772493D01*
X156564601Y-112772482D01*
X156567499Y-112735649D01*
X156567500Y-112735640D01*
X156567500Y-112648234D01*
X156585093Y-112599896D01*
X156629642Y-112574176D01*
X156680300Y-112583109D01*
X156695874Y-112595060D01*
X156801561Y-112700747D01*
X156822801Y-112743078D01*
X156826926Y-112771392D01*
X156878303Y-112876485D01*
X156943644Y-112941826D01*
X156965384Y-112988446D01*
X156952070Y-113038133D01*
X156943644Y-113048174D01*
X156878303Y-113113514D01*
X156826927Y-113218606D01*
X156817000Y-113286731D01*
X156817000Y-113653268D01*
X156826927Y-113721393D01*
X156878303Y-113826485D01*
X156961014Y-113909196D01*
X156961015Y-113909196D01*
X156961017Y-113909198D01*
X157066107Y-113960573D01*
X157116036Y-113967847D01*
X157134231Y-113970499D01*
X157134236Y-113970499D01*
X157134240Y-113970500D01*
X157134242Y-113970500D01*
X158225758Y-113970500D01*
X158225760Y-113970500D01*
X158225764Y-113970499D01*
X158225768Y-113970499D01*
X158235446Y-113969088D01*
X158293893Y-113960573D01*
X158398983Y-113909198D01*
X158481698Y-113826483D01*
X158498227Y-113792671D01*
X158535263Y-113756973D01*
X158565786Y-113750500D01*
X158624427Y-113750500D01*
X158624429Y-113750500D01*
X158695769Y-113731384D01*
X158727585Y-113713015D01*
X158759731Y-113694456D01*
X158811956Y-113642231D01*
X158818141Y-113636046D01*
X158818148Y-113636036D01*
X159276660Y-113177525D01*
X159323280Y-113155785D01*
X159329834Y-113155499D01*
X159654211Y-113155499D01*
X159654214Y-113155499D01*
X159724286Y-113145291D01*
X159832375Y-113092449D01*
X159917449Y-113007375D01*
X159970291Y-112899286D01*
X159975481Y-112863664D01*
X159980499Y-112829225D01*
X159980499Y-112829221D01*
X159980500Y-112829215D01*
X159980499Y-112365786D01*
X159970291Y-112295714D01*
X159949087Y-112252342D01*
X159943664Y-112201191D01*
X159972389Y-112158519D01*
X159977744Y-112154961D01*
X160030024Y-112123356D01*
X160030026Y-112123355D01*
X160143355Y-112010026D01*
X160143356Y-112010024D01*
X160196382Y-111922308D01*
X160236444Y-111890043D01*
X160287874Y-111891078D01*
X160313911Y-111908036D01*
X160560268Y-112154392D01*
X160617035Y-112196722D01*
X160730830Y-112235787D01*
X160730833Y-112235787D01*
X160851140Y-112235787D01*
X160851143Y-112235787D01*
X160964939Y-112196722D01*
X161021705Y-112154393D01*
X161384754Y-111791343D01*
X161427084Y-111734577D01*
X161466149Y-111620781D01*
X161466149Y-111501349D01*
X161483742Y-111453011D01*
X161528291Y-111427291D01*
X161541349Y-111426149D01*
X161660778Y-111426149D01*
X161660781Y-111426149D01*
X161774577Y-111387084D01*
X161831343Y-111344755D01*
X162194392Y-110981705D01*
X162236722Y-110924939D01*
X162275787Y-110811143D01*
X162275787Y-110690830D01*
X162236722Y-110577035D01*
X162194393Y-110520268D01*
X161919732Y-110245608D01*
X161862965Y-110203278D01*
X161749170Y-110164213D01*
X161628857Y-110164213D01*
X161628854Y-110164213D01*
X161510728Y-110204765D01*
X161459297Y-110203819D01*
X161433138Y-110186813D01*
X160988386Y-109742062D01*
X160988374Y-109742048D01*
X160931873Y-109685547D01*
X160931867Y-109685543D01*
X160867907Y-109648615D01*
X160855323Y-109645243D01*
X160855319Y-109645243D01*
X160796567Y-109629500D01*
X160796566Y-109629500D01*
X160796565Y-109629500D01*
X158886233Y-109629500D01*
X158837895Y-109611907D01*
X158812175Y-109567358D01*
X158821108Y-109516700D01*
X158833054Y-109501130D01*
X159105528Y-109228656D01*
X159152146Y-109206918D01*
X159201833Y-109220232D01*
X159203353Y-109221325D01*
X159212114Y-109227790D01*
X159212120Y-109227794D01*
X159242889Y-109238560D01*
X159340301Y-109272646D01*
X159354347Y-109273963D01*
X159370727Y-109275500D01*
X159370734Y-109275500D01*
X160104272Y-109275500D01*
X160118312Y-109274182D01*
X160134699Y-109272646D01*
X160262882Y-109227793D01*
X160372150Y-109147150D01*
X160452793Y-109037882D01*
X160497646Y-108909699D01*
X160499073Y-108894482D01*
X160500500Y-108879273D01*
X160500500Y-107520726D01*
X160498059Y-107494708D01*
X160497646Y-107490301D01*
X160455255Y-107369153D01*
X160452794Y-107362120D01*
X160452792Y-107362117D01*
X160450350Y-107358808D01*
X160372150Y-107252850D01*
X160262882Y-107172207D01*
X160262879Y-107172205D01*
X160145930Y-107131284D01*
X160134699Y-107127354D01*
X160134694Y-107127353D01*
X160134692Y-107127353D01*
X160104273Y-107124500D01*
X160104266Y-107124500D01*
X160093200Y-107124500D01*
X160074840Y-107117817D01*
X160055600Y-107114425D01*
X160051239Y-107109228D01*
X160044862Y-107106907D01*
X160041542Y-107101157D01*
X162340000Y-107101157D01*
X162342920Y-107138270D01*
X162342922Y-107138281D01*
X162389092Y-107297197D01*
X162473335Y-107439645D01*
X162473341Y-107439652D01*
X162590349Y-107556660D01*
X162590359Y-107556668D01*
X162599108Y-107561842D01*
X162631759Y-107601590D01*
X162631221Y-107653027D01*
X162625955Y-107664168D01*
X162590424Y-107725713D01*
X162590423Y-107725715D01*
X162590423Y-107725716D01*
X162549500Y-107878443D01*
X162549500Y-108036557D01*
X162580192Y-108151102D01*
X162590423Y-108189285D01*
X162669479Y-108326214D01*
X162669482Y-108326218D01*
X162672695Y-108329431D01*
X162687083Y-108349579D01*
X162701676Y-108379429D01*
X162785571Y-108463324D01*
X162892160Y-108515433D01*
X162927881Y-108520636D01*
X162931453Y-108521157D01*
X162940076Y-108522934D01*
X162983995Y-108534702D01*
X163070943Y-108558000D01*
X163070945Y-108558000D01*
X163229055Y-108558000D01*
X163229057Y-108558000D01*
X163359922Y-108522934D01*
X163368542Y-108521157D01*
X163407840Y-108515433D01*
X163514429Y-108463324D01*
X163598324Y-108379429D01*
X163612916Y-108349581D01*
X163627302Y-108329434D01*
X163630517Y-108326219D01*
X163630517Y-108326218D01*
X163630520Y-108326216D01*
X163709577Y-108189284D01*
X163750500Y-108036557D01*
X163750500Y-107878443D01*
X163709577Y-107725716D01*
X163709576Y-107725715D01*
X163709576Y-107725713D01*
X163674044Y-107664170D01*
X163665112Y-107613511D01*
X163690832Y-107568963D01*
X163700895Y-107561839D01*
X163709642Y-107556666D01*
X163709650Y-107556660D01*
X163826658Y-107439652D01*
X163826664Y-107439645D01*
X163910907Y-107297197D01*
X163957077Y-107138281D01*
X163957079Y-107138270D01*
X163959999Y-107101157D01*
X163960000Y-107101148D01*
X163960000Y-107072500D01*
X162340000Y-107072500D01*
X162340000Y-107101157D01*
X160041542Y-107101157D01*
X160035092Y-107089984D01*
X160022535Y-107075020D01*
X160020812Y-107065251D01*
X160019142Y-107062358D01*
X160018000Y-107049300D01*
X160018000Y-105017542D01*
X162006228Y-105017542D01*
X162015016Y-105129465D01*
X162015017Y-105129469D01*
X162063642Y-105230661D01*
X162379519Y-105661402D01*
X162579679Y-105934348D01*
X162612582Y-105979215D01*
X162626979Y-106028599D01*
X162606265Y-106075684D01*
X162594048Y-106085378D01*
X162594093Y-106085436D01*
X162590348Y-106088340D01*
X162473341Y-106205347D01*
X162473335Y-106205354D01*
X162389092Y-106347802D01*
X162342922Y-106506718D01*
X162342920Y-106506729D01*
X162340000Y-106543842D01*
X162340000Y-106572500D01*
X163960000Y-106572500D01*
X163960000Y-106543851D01*
X163959999Y-106543842D01*
X163957079Y-106506729D01*
X163957077Y-106506718D01*
X163910907Y-106347802D01*
X163826664Y-106205354D01*
X163826658Y-106205347D01*
X163709652Y-106088341D01*
X163709645Y-106088335D01*
X163567198Y-106004092D01*
X163511565Y-105987929D01*
X163470055Y-105957548D01*
X163457786Y-105907592D01*
X163480498Y-105861438D01*
X163501781Y-105847096D01*
X163811694Y-105708169D01*
X163822980Y-105704156D01*
X163913886Y-105679799D01*
X164016613Y-105620489D01*
X164016619Y-105620482D01*
X164020521Y-105617489D01*
X164021021Y-105618141D01*
X164036812Y-105607254D01*
X164434967Y-105428772D01*
X164434975Y-105428766D01*
X164434983Y-105428763D01*
X164478522Y-105401988D01*
X164502388Y-105387313D01*
X164575123Y-105301789D01*
X164612053Y-105195766D01*
X164735051Y-104383979D01*
X164862050Y-103545787D01*
X164862050Y-103545782D01*
X164862053Y-103545766D01*
X164864692Y-103522205D01*
X164852138Y-103410638D01*
X164800130Y-103311140D01*
X164715690Y-103237149D01*
X164715688Y-103237148D01*
X164715689Y-103237148D01*
X164610226Y-103198657D01*
X164217619Y-103133222D01*
X164172831Y-103107921D01*
X164160505Y-103087821D01*
X164159801Y-103086124D01*
X164159799Y-103086114D01*
X164123621Y-103023452D01*
X164100489Y-102983386D01*
X164016613Y-102899510D01*
X163913886Y-102840201D01*
X163884089Y-102832217D01*
X163799309Y-102809500D01*
X163680691Y-102809500D01*
X163566114Y-102840201D01*
X163566112Y-102840201D01*
X163463388Y-102899509D01*
X163398174Y-102964723D01*
X163351554Y-102986462D01*
X163332638Y-102985725D01*
X163110226Y-102948657D01*
X163110220Y-102948656D01*
X163031814Y-102945802D01*
X163031808Y-102945803D01*
X162923827Y-102976527D01*
X162834233Y-103044185D01*
X162775130Y-103139638D01*
X162772460Y-103153922D01*
X162754500Y-103250000D01*
X162754500Y-103250004D01*
X162754500Y-104142309D01*
X162736907Y-104190647D01*
X162732474Y-104195483D01*
X162093984Y-104833972D01*
X162038467Y-104910000D01*
X162006228Y-105017542D01*
X160018000Y-105017542D01*
X160018000Y-98487542D01*
X161446228Y-98487542D01*
X161455016Y-98599465D01*
X161455017Y-98599469D01*
X161503642Y-98700661D01*
X161591782Y-98820851D01*
X162053643Y-99450662D01*
X162053646Y-99450665D01*
X162106153Y-99506122D01*
X162106156Y-99506125D01*
X162146905Y-99528523D01*
X162204544Y-99560204D01*
X162315824Y-99575090D01*
X162424967Y-99548772D01*
X163874967Y-98898772D01*
X163942388Y-98857313D01*
X164015123Y-98771789D01*
X164052053Y-98665766D01*
X164166601Y-97909739D01*
X164191237Y-97864584D01*
X164203092Y-97856031D01*
X164480526Y-97694401D01*
X164564073Y-97610196D01*
X164622978Y-97507236D01*
X164653229Y-97392540D01*
X164652763Y-97273922D01*
X164621613Y-97159466D01*
X164561901Y-97056974D01*
X164477696Y-96973427D01*
X164477694Y-96973425D01*
X164374738Y-96914523D01*
X164374734Y-96914521D01*
X164331564Y-96903135D01*
X164289312Y-96873795D01*
X164284098Y-96865257D01*
X164281586Y-96860452D01*
X164240130Y-96781140D01*
X164155690Y-96707149D01*
X164155688Y-96707148D01*
X164155689Y-96707148D01*
X164050226Y-96668657D01*
X162826230Y-96464658D01*
X162550224Y-96418657D01*
X162550222Y-96418656D01*
X162550220Y-96418656D01*
X162471814Y-96415802D01*
X162471808Y-96415803D01*
X162363827Y-96446527D01*
X162274233Y-96514185D01*
X162215130Y-96609638D01*
X162214486Y-96613085D01*
X162194500Y-96720000D01*
X162194500Y-96720004D01*
X162194500Y-97612309D01*
X162176907Y-97660647D01*
X162172474Y-97665483D01*
X161533984Y-98303972D01*
X161533979Y-98303979D01*
X161479797Y-98378179D01*
X161478467Y-98380000D01*
X161446228Y-98487542D01*
X160018000Y-98487542D01*
X160018000Y-98195266D01*
X160035593Y-98146928D01*
X160040026Y-98142092D01*
X161586456Y-96595663D01*
X163152172Y-95029947D01*
X163155343Y-95024455D01*
X163189100Y-94965985D01*
X163208216Y-94894644D01*
X163208216Y-93922574D01*
X163225809Y-93874236D01*
X163230242Y-93869400D01*
X164144109Y-92955533D01*
X164144115Y-92955527D01*
X164177243Y-92905947D01*
X164192804Y-92827716D01*
X164177243Y-92749485D01*
X164144115Y-92699905D01*
X164144113Y-92699903D01*
X164144109Y-92699898D01*
X163055533Y-91611322D01*
X163055528Y-91611318D01*
X163055527Y-91611317D01*
X163005947Y-91578189D01*
X163005945Y-91578188D01*
X163005944Y-91578188D01*
X162927716Y-91562628D01*
X162849487Y-91578188D01*
X162849485Y-91578189D01*
X162799903Y-91611318D01*
X162799898Y-91611322D01*
X161778808Y-92632413D01*
X161732188Y-92654153D01*
X161682501Y-92640839D01*
X161672460Y-92632413D01*
X157714810Y-88674763D01*
X157693070Y-88628143D01*
X157692784Y-88621589D01*
X157692784Y-88407142D01*
X157710377Y-88358804D01*
X157714810Y-88353968D01*
X158628677Y-87440101D01*
X158628683Y-87440095D01*
X158661811Y-87390515D01*
X158677372Y-87312284D01*
X158661811Y-87234053D01*
X158628683Y-87184473D01*
X158628681Y-87184471D01*
X158628677Y-87184466D01*
X157540101Y-86095890D01*
X157540096Y-86095886D01*
X157529424Y-86088755D01*
X157490515Y-86062757D01*
X157490513Y-86062756D01*
X157490512Y-86062756D01*
X157412284Y-86047196D01*
X157334055Y-86062756D01*
X157334053Y-86062757D01*
X157284471Y-86095886D01*
X157284466Y-86095890D01*
X156195890Y-87184466D01*
X156195886Y-87184471D01*
X156162757Y-87234053D01*
X156162756Y-87234055D01*
X156151413Y-87291082D01*
X156147196Y-87312284D01*
X156162757Y-87390515D01*
X156195885Y-87440095D01*
X156195886Y-87440096D01*
X156195890Y-87440101D01*
X157109758Y-88353968D01*
X157131498Y-88400588D01*
X157131784Y-88407142D01*
X157131784Y-88805852D01*
X157143424Y-88849293D01*
X157150900Y-88877194D01*
X157187827Y-88941153D01*
X157187831Y-88941159D01*
X157244332Y-88997660D01*
X157244346Y-88997672D01*
X161325628Y-93078954D01*
X161347368Y-93125574D01*
X161347654Y-93132128D01*
X161347654Y-95500827D01*
X161330061Y-95549165D01*
X161325628Y-95554001D01*
X159205271Y-97674358D01*
X159205269Y-97674360D01*
X159185228Y-97694401D01*
X159153044Y-97726584D01*
X159153041Y-97726589D01*
X159125972Y-97773475D01*
X159125972Y-97773476D01*
X159116116Y-97790547D01*
X159104722Y-97833071D01*
X159101261Y-97845989D01*
X159097000Y-97861889D01*
X159097000Y-102345165D01*
X159079407Y-102393503D01*
X159074974Y-102398339D01*
X158535840Y-102937474D01*
X158489220Y-102959214D01*
X158482666Y-102959500D01*
X156530642Y-102959500D01*
X156482304Y-102941907D01*
X156465517Y-102921900D01*
X156430520Y-102861283D01*
X156318720Y-102749483D01*
X156318714Y-102749479D01*
X156317290Y-102748657D01*
X156283074Y-102728902D01*
X156181785Y-102670423D01*
X156142784Y-102659973D01*
X156029057Y-102629500D01*
X155870943Y-102629500D01*
X155779306Y-102654053D01*
X155718214Y-102670423D01*
X155581285Y-102749479D01*
X155581279Y-102749483D01*
X155469483Y-102861279D01*
X155469479Y-102861285D01*
X155390423Y-102998214D01*
X155378105Y-103044186D01*
X155349500Y-103150943D01*
X155349500Y-103309057D01*
X155376719Y-103410639D01*
X155390423Y-103461785D01*
X155446475Y-103558870D01*
X155462948Y-103587403D01*
X155469479Y-103598714D01*
X155469483Y-103598720D01*
X155581279Y-103710516D01*
X155581282Y-103710518D01*
X155581284Y-103710520D01*
X155718216Y-103789577D01*
X155870943Y-103830500D01*
X155870946Y-103830500D01*
X156029054Y-103830500D01*
X156029057Y-103830500D01*
X156181784Y-103789577D01*
X156318716Y-103710520D01*
X156430520Y-103598716D01*
X156446101Y-103571729D01*
X156453970Y-103558100D01*
X156493375Y-103525035D01*
X156519095Y-103520500D01*
X158666927Y-103520500D01*
X158666929Y-103520500D01*
X158738269Y-103501384D01*
X158750563Y-103494286D01*
X158802231Y-103464456D01*
X158854456Y-103412231D01*
X158860641Y-103406046D01*
X158860648Y-103406036D01*
X159328627Y-102938058D01*
X159375246Y-102916319D01*
X159424933Y-102929633D01*
X159454438Y-102971770D01*
X159457000Y-102991233D01*
X159457000Y-107049300D01*
X159439407Y-107097638D01*
X159394858Y-107123358D01*
X159381800Y-107124500D01*
X159370727Y-107124500D01*
X159340307Y-107127353D01*
X159340303Y-107127353D01*
X159340301Y-107127354D01*
X159340298Y-107127354D01*
X159340298Y-107127355D01*
X159212120Y-107172205D01*
X159212117Y-107172207D01*
X159102850Y-107252850D01*
X159022207Y-107362117D01*
X159022205Y-107362120D01*
X158977355Y-107490298D01*
X158977353Y-107490307D01*
X158974500Y-107520726D01*
X158974500Y-108535165D01*
X158956907Y-108583503D01*
X158952474Y-108588339D01*
X158488340Y-109052474D01*
X158441720Y-109074214D01*
X158435166Y-109074500D01*
X157936568Y-109074500D01*
X157888230Y-109056907D01*
X157862510Y-109012358D01*
X157864726Y-108981942D01*
X157863646Y-108981711D01*
X157864505Y-108977698D01*
X157875000Y-108874972D01*
X157875000Y-108450000D01*
X155750001Y-108450000D01*
X155750001Y-108874973D01*
X155760494Y-108977694D01*
X155760495Y-108977697D01*
X155815642Y-109144122D01*
X155907681Y-109293342D01*
X155907682Y-109293343D01*
X156034753Y-109420413D01*
X156033690Y-109421475D01*
X156057625Y-109460280D01*
X156050168Y-109511177D01*
X156037152Y-109528659D01*
X155980648Y-109585163D01*
X155934028Y-109606903D01*
X155908012Y-109604627D01*
X155851557Y-109589500D01*
X155693443Y-109589500D01*
X155628494Y-109606903D01*
X155540713Y-109630423D01*
X155403785Y-109709478D01*
X155399878Y-109712477D01*
X155399340Y-109711776D01*
X155386743Y-109720759D01*
X155362626Y-109732549D01*
X155362623Y-109732551D01*
X155277552Y-109817622D01*
X155224709Y-109925713D01*
X155224432Y-109927614D01*
X155215146Y-109954363D01*
X155212925Y-109958210D01*
X155212924Y-109958211D01*
X155212923Y-109958216D01*
X155172000Y-110110943D01*
X155172000Y-110269057D01*
X155212923Y-110421784D01*
X155215144Y-110425632D01*
X155224432Y-110452385D01*
X155224708Y-110454285D01*
X155277552Y-110562377D01*
X155362622Y-110647447D01*
X155362624Y-110647448D01*
X155362625Y-110647449D01*
X155386738Y-110659237D01*
X155399329Y-110668227D01*
X155399873Y-110667519D01*
X155403780Y-110670516D01*
X155403784Y-110670520D01*
X155540716Y-110749577D01*
X155693443Y-110790500D01*
X155693446Y-110790500D01*
X155851557Y-110790500D01*
X155908012Y-110775372D01*
X155959254Y-110779854D01*
X155980649Y-110794835D01*
X156182204Y-110996390D01*
X156203944Y-111043010D01*
X156190630Y-111092697D01*
X156148493Y-111122202D01*
X156097249Y-111117718D01*
X156096003Y-111117123D01*
X156018894Y-111079427D01*
X155950768Y-111069500D01*
X155950760Y-111069500D01*
X154859240Y-111069500D01*
X154859231Y-111069500D01*
X154791106Y-111079427D01*
X154686014Y-111130803D01*
X154603303Y-111213514D01*
X154603302Y-111213517D01*
X154587667Y-111245500D01*
X154586773Y-111247328D01*
X154549737Y-111283027D01*
X154519214Y-111289500D01*
X154495572Y-111289500D01*
X154459901Y-111299058D01*
X154424228Y-111308616D01*
X154368922Y-111340548D01*
X154360270Y-111345543D01*
X154360264Y-111345547D01*
X153823338Y-111882474D01*
X153776718Y-111904214D01*
X153770164Y-111904500D01*
X153445789Y-111904500D01*
X153445784Y-111904501D01*
X153375715Y-111914708D01*
X153375713Y-111914709D01*
X153267622Y-111967552D01*
X153182552Y-112052622D01*
X153129708Y-112160714D01*
X153119500Y-112230774D01*
X153119500Y-112694210D01*
X153119501Y-112694215D01*
X153129708Y-112764284D01*
X153129709Y-112764286D01*
X153150911Y-112807655D01*
X153156335Y-112858808D01*
X153127609Y-112901480D01*
X153122257Y-112905037D01*
X153069974Y-112936644D01*
X153069972Y-112936645D01*
X152956645Y-113049972D01*
X152873724Y-113187140D01*
X152826043Y-113340155D01*
X152826043Y-113340158D01*
X152825040Y-113351191D01*
X152803142Y-113397737D01*
X152756448Y-113419318D01*
X152706807Y-113405835D01*
X152696975Y-113397556D01*
X150822353Y-111522934D01*
X150800613Y-111476314D01*
X150813927Y-111426627D01*
X150856064Y-111397122D01*
X150886367Y-111395346D01*
X150921740Y-111400500D01*
X151113241Y-111400500D01*
X151150841Y-111410575D01*
X151197586Y-111437563D01*
X151235716Y-111459577D01*
X151388443Y-111500500D01*
X151388446Y-111500500D01*
X151546554Y-111500500D01*
X151546557Y-111500500D01*
X151699284Y-111459577D01*
X151755205Y-111427291D01*
X151784159Y-111410575D01*
X151821759Y-111400500D01*
X152013258Y-111400500D01*
X152013260Y-111400500D01*
X152013264Y-111400499D01*
X152013268Y-111400499D01*
X152022946Y-111399088D01*
X152081393Y-111390573D01*
X152186483Y-111339198D01*
X152269198Y-111256483D01*
X152285727Y-111222671D01*
X152322763Y-111186973D01*
X152353286Y-111180500D01*
X152726241Y-111180500D01*
X152759267Y-111188140D01*
X152855714Y-111235291D01*
X152925785Y-111245500D01*
X153314214Y-111245499D01*
X153384286Y-111235291D01*
X153492375Y-111182449D01*
X153577449Y-111097375D01*
X153630291Y-110989286D01*
X153632923Y-110971223D01*
X153640499Y-110919225D01*
X153640499Y-110919221D01*
X153640500Y-110919215D01*
X153640499Y-110594834D01*
X153658092Y-110546498D01*
X153662513Y-110541672D01*
X153944455Y-110259732D01*
X153946308Y-110256524D01*
X153959186Y-110234219D01*
X153978941Y-110200000D01*
X153981384Y-110195769D01*
X153981385Y-110195767D01*
X153994247Y-110147769D01*
X153999178Y-110129360D01*
X154000500Y-110124429D01*
X154000500Y-110050571D01*
X154000500Y-108957413D01*
X154018093Y-108909075D01*
X154022526Y-108904239D01*
X154615823Y-108310943D01*
X155214455Y-107712311D01*
X155220994Y-107700986D01*
X155251384Y-107648348D01*
X155257108Y-107626987D01*
X155270500Y-107577008D01*
X155270500Y-107525027D01*
X155750000Y-107525027D01*
X155750000Y-107950000D01*
X156562500Y-107950000D01*
X157062500Y-107950000D01*
X157874999Y-107950000D01*
X157874999Y-107525026D01*
X157864505Y-107422305D01*
X157864504Y-107422302D01*
X157809357Y-107255877D01*
X157717318Y-107106657D01*
X157717313Y-107106651D01*
X157593348Y-106982686D01*
X157593342Y-106982681D01*
X157444122Y-106890642D01*
X157277697Y-106835494D01*
X157277698Y-106835494D01*
X157174973Y-106825000D01*
X157062500Y-106825000D01*
X157062500Y-107950000D01*
X156562500Y-107950000D01*
X156562500Y-106825000D01*
X156450027Y-106825000D01*
X156347305Y-106835494D01*
X156347302Y-106835495D01*
X156180877Y-106890642D01*
X156031657Y-106982681D01*
X156031651Y-106982686D01*
X155907686Y-107106651D01*
X155907681Y-107106657D01*
X155815642Y-107255877D01*
X155760494Y-107422302D01*
X155750000Y-107525027D01*
X155270500Y-107525027D01*
X155270500Y-107503151D01*
X155270500Y-106414867D01*
X155288093Y-106366529D01*
X155308096Y-106349745D01*
X155358716Y-106320520D01*
X155470520Y-106208716D01*
X155549577Y-106071784D01*
X155590500Y-105919057D01*
X155590500Y-105760943D01*
X155549577Y-105608216D01*
X155549020Y-105607252D01*
X155515695Y-105549530D01*
X155470520Y-105471284D01*
X155470518Y-105471282D01*
X155470516Y-105471279D01*
X155358720Y-105359483D01*
X155358714Y-105359479D01*
X155358414Y-105359306D01*
X155298021Y-105324438D01*
X155221785Y-105280423D01*
X155160772Y-105264075D01*
X155069057Y-105239500D01*
X154910943Y-105239500D01*
X154819306Y-105264053D01*
X154758214Y-105280423D01*
X154621285Y-105359479D01*
X154621279Y-105359483D01*
X154509483Y-105471279D01*
X154509479Y-105471285D01*
X154430423Y-105608214D01*
X154411243Y-105679798D01*
X154389500Y-105760943D01*
X154389500Y-105919057D01*
X154412285Y-106004092D01*
X154430423Y-106071785D01*
X154509479Y-106208714D01*
X154509483Y-106208720D01*
X154621279Y-106320516D01*
X154621282Y-106320518D01*
X154621284Y-106320520D01*
X154671901Y-106349743D01*
X154704964Y-106389146D01*
X154709500Y-106414867D01*
X154709500Y-107392744D01*
X154691907Y-107441082D01*
X154687484Y-107445907D01*
X154519881Y-107613511D01*
X154373254Y-107760138D01*
X154326634Y-107781877D01*
X154276947Y-107768563D01*
X154247442Y-107726426D01*
X154247443Y-107687499D01*
X154256735Y-107652821D01*
X154256735Y-107494710D01*
X154256735Y-107494709D01*
X154256735Y-107494708D01*
X154215812Y-107341981D01*
X154136755Y-107205049D01*
X154136753Y-107205047D01*
X154136751Y-107205044D01*
X154024955Y-107093248D01*
X154024949Y-107093244D01*
X154016058Y-107088111D01*
X153966139Y-107059290D01*
X153888020Y-107014188D01*
X153833684Y-106999629D01*
X153735292Y-106973265D01*
X153577178Y-106973265D01*
X153570830Y-106974966D01*
X153520720Y-106988392D01*
X153469476Y-106983908D01*
X153448084Y-106968928D01*
X152221313Y-105742157D01*
X152199573Y-105695537D01*
X152212887Y-105645850D01*
X152243724Y-105620363D01*
X152460653Y-105523118D01*
X152511955Y-105519401D01*
X152553647Y-105549530D01*
X152556528Y-105554126D01*
X152569511Y-105576613D01*
X152569512Y-105576614D01*
X152569514Y-105576617D01*
X152653386Y-105660489D01*
X152712696Y-105694731D01*
X152756114Y-105719799D01*
X152870691Y-105750500D01*
X152870694Y-105750500D01*
X152989306Y-105750500D01*
X152989309Y-105750500D01*
X153103886Y-105719799D01*
X153206613Y-105660489D01*
X153290489Y-105576613D01*
X153349799Y-105473886D01*
X153380500Y-105359309D01*
X153380500Y-105159474D01*
X153398093Y-105111136D01*
X153424939Y-105090853D01*
X153458472Y-105075821D01*
X153674967Y-104978772D01*
X153674975Y-104978766D01*
X153674983Y-104978763D01*
X153718522Y-104951988D01*
X153742388Y-104937313D01*
X153815123Y-104851789D01*
X153852053Y-104745766D01*
X153986431Y-103858872D01*
X154102050Y-103095787D01*
X154102050Y-103095782D01*
X154102053Y-103095766D01*
X154104692Y-103072205D01*
X154092138Y-102960638D01*
X154040130Y-102861140D01*
X153955690Y-102787149D01*
X153955688Y-102787148D01*
X153955689Y-102787148D01*
X153850226Y-102748657D01*
X153542160Y-102697312D01*
X153497372Y-102672011D01*
X153479326Y-102623840D01*
X153496466Y-102575340D01*
X153501352Y-102569958D01*
X153506659Y-102564651D01*
X153506664Y-102564645D01*
X153590907Y-102422197D01*
X153637077Y-102263281D01*
X153637079Y-102263270D01*
X153639999Y-102226157D01*
X153640000Y-102226148D01*
X153640000Y-102197500D01*
X152020000Y-102197500D01*
X152020000Y-102226157D01*
X152022920Y-102263270D01*
X152022922Y-102263281D01*
X152069092Y-102422197D01*
X152106800Y-102485958D01*
X152116262Y-102536520D01*
X152091010Y-102581335D01*
X152087394Y-102584246D01*
X152074235Y-102594183D01*
X152074231Y-102594189D01*
X152028557Y-102667954D01*
X151988152Y-102699790D01*
X151936737Y-102698205D01*
X151900266Y-102667269D01*
X151895856Y-102659975D01*
X151895855Y-102659973D01*
X151782527Y-102546645D01*
X151645359Y-102463724D01*
X151492344Y-102416043D01*
X151492340Y-102416042D01*
X151425848Y-102410000D01*
X151425000Y-102410000D01*
X151425000Y-104050000D01*
X151425846Y-104050000D01*
X151485315Y-104044595D01*
X151535047Y-104057741D01*
X151564694Y-104099778D01*
X151560383Y-104151037D01*
X151545297Y-104172660D01*
X151333981Y-104383976D01*
X151322575Y-104399596D01*
X151285427Y-104450469D01*
X151278467Y-104460000D01*
X151246228Y-104567542D01*
X151255016Y-104679465D01*
X151255017Y-104679469D01*
X151303642Y-104780661D01*
X151732032Y-105364829D01*
X151746429Y-105414213D01*
X151725715Y-105461298D01*
X151679582Y-105484052D01*
X151671390Y-105484500D01*
X151053592Y-105484500D01*
X151037933Y-105488695D01*
X151020962Y-105493243D01*
X150969718Y-105488759D01*
X150933345Y-105452385D01*
X150926300Y-105420605D01*
X150926300Y-103858868D01*
X150925657Y-103853985D01*
X150926276Y-103853903D01*
X150925000Y-103844119D01*
X150925000Y-102410000D01*
X150924151Y-102410000D01*
X150870066Y-102414915D01*
X150820334Y-102401769D01*
X150790688Y-102359731D01*
X150790622Y-102320563D01*
X150820500Y-102209057D01*
X150820500Y-102050943D01*
X150779577Y-101898216D01*
X150779576Y-101898214D01*
X150749471Y-101846070D01*
X150740538Y-101795411D01*
X150766259Y-101750863D01*
X150788317Y-101738011D01*
X150883387Y-101702551D01*
X150883391Y-101702549D01*
X150998488Y-101616388D01*
X151084649Y-101501291D01*
X151084650Y-101501289D01*
X151134896Y-101366576D01*
X151134897Y-101366573D01*
X151141298Y-101307030D01*
X151141299Y-101307019D01*
X151141299Y-101192700D01*
X151158892Y-101144362D01*
X151203441Y-101118642D01*
X151216499Y-101117500D01*
X151507249Y-101117500D01*
X151526742Y-101113622D01*
X151565731Y-101105867D01*
X151599694Y-101083173D01*
X151641472Y-101070500D01*
X152236992Y-101070500D01*
X152285330Y-101088093D01*
X152311050Y-101132642D01*
X152302117Y-101183300D01*
X152275271Y-101210428D01*
X152270357Y-101213333D01*
X152270347Y-101213341D01*
X152153341Y-101330347D01*
X152153335Y-101330354D01*
X152069092Y-101472802D01*
X152022922Y-101631718D01*
X152022920Y-101631729D01*
X152020000Y-101668842D01*
X152020000Y-101697500D01*
X153640000Y-101697500D01*
X153640000Y-101668851D01*
X153639999Y-101668842D01*
X153637079Y-101631729D01*
X153637077Y-101631718D01*
X153590907Y-101472802D01*
X153506664Y-101330354D01*
X153506658Y-101330347D01*
X153397685Y-101221374D01*
X153375945Y-101174754D01*
X153389259Y-101125067D01*
X153431396Y-101095562D01*
X153450859Y-101093000D01*
X153805166Y-101093000D01*
X153853504Y-101110593D01*
X153858340Y-101115026D01*
X154155163Y-101411849D01*
X154176903Y-101458469D01*
X154174627Y-101484485D01*
X154166041Y-101516530D01*
X154159500Y-101540943D01*
X154159500Y-101699057D01*
X154179696Y-101774429D01*
X154200423Y-101851785D01*
X154255433Y-101947065D01*
X154277479Y-101985251D01*
X154279479Y-101988714D01*
X154279483Y-101988720D01*
X154391279Y-102100516D01*
X154391282Y-102100518D01*
X154391284Y-102100520D01*
X154528216Y-102179577D01*
X154680943Y-102220500D01*
X154680946Y-102220500D01*
X154839054Y-102220500D01*
X154839057Y-102220500D01*
X154991784Y-102179577D01*
X155128716Y-102100520D01*
X155240520Y-101988716D01*
X155319577Y-101851784D01*
X155360500Y-101699057D01*
X155360500Y-101540943D01*
X155319577Y-101388216D01*
X155318382Y-101386147D01*
X155286171Y-101330354D01*
X155240520Y-101251284D01*
X155240518Y-101251282D01*
X155240516Y-101251279D01*
X155128720Y-101139483D01*
X155128714Y-101139479D01*
X154991785Y-101060423D01*
X154953602Y-101050192D01*
X154839057Y-101019500D01*
X154680943Y-101019500D01*
X154665136Y-101023735D01*
X154624485Y-101034627D01*
X154573241Y-101030143D01*
X154551849Y-101015163D01*
X154181248Y-100644562D01*
X154181236Y-100644548D01*
X154124735Y-100588047D01*
X154124729Y-100588043D01*
X154060770Y-100551116D01*
X154036989Y-100544744D01*
X153989429Y-100532000D01*
X153989428Y-100532000D01*
X153989427Y-100532000D01*
X153394407Y-100532000D01*
X153346069Y-100514407D01*
X153326849Y-100489829D01*
X153278324Y-100390571D01*
X153278322Y-100390569D01*
X153278322Y-100390568D01*
X153194431Y-100306677D01*
X153087839Y-100254566D01*
X153018752Y-100244500D01*
X153018742Y-100244500D01*
X152641258Y-100244500D01*
X152641247Y-100244500D01*
X152572160Y-100254566D01*
X152465568Y-100306677D01*
X152381677Y-100390568D01*
X152381677Y-100390569D01*
X152344151Y-100467328D01*
X152307115Y-100503027D01*
X152276592Y-100509500D01*
X151763200Y-100509500D01*
X151714862Y-100491907D01*
X151689142Y-100447358D01*
X151688000Y-100434300D01*
X151688000Y-100143250D01*
X151686069Y-100133547D01*
X151676367Y-100084768D01*
X151674371Y-100081782D01*
X151662141Y-100031819D01*
X151674372Y-99998215D01*
X151676367Y-99995230D01*
X151688000Y-99936747D01*
X151688000Y-99643251D01*
X151687233Y-99639397D01*
X151676461Y-99585240D01*
X151676367Y-99584768D01*
X151674368Y-99581776D01*
X151662142Y-99531810D01*
X151674372Y-99498214D01*
X151676367Y-99495229D01*
X151688000Y-99436746D01*
X151688000Y-99143250D01*
X151676367Y-99084767D01*
X151632052Y-99018446D01*
X151565731Y-98974131D01*
X151565729Y-98974130D01*
X151507249Y-98962498D01*
X151507248Y-98962498D01*
X150935736Y-98962498D01*
X150887398Y-98944905D01*
X150861678Y-98900356D01*
X150870611Y-98849698D01*
X150882557Y-98834127D01*
X151269477Y-98447207D01*
X151316095Y-98425469D01*
X151343100Y-98429623D01*
X151343455Y-98428301D01*
X151348214Y-98429576D01*
X151348216Y-98429577D01*
X151500943Y-98470500D01*
X151500946Y-98470500D01*
X151659054Y-98470500D01*
X151659057Y-98470500D01*
X151811784Y-98429577D01*
X151861700Y-98400757D01*
X151912358Y-98391825D01*
X151956906Y-98417545D01*
X151974500Y-98465883D01*
X151974500Y-99619997D01*
X151975803Y-99648189D01*
X152006527Y-99756172D01*
X152074185Y-99845766D01*
X152074184Y-99845766D01*
X152169638Y-99904869D01*
X152169639Y-99904869D01*
X152169641Y-99904870D01*
X152280000Y-99925500D01*
X152767250Y-99925500D01*
X152815588Y-99943093D01*
X152820425Y-99947527D01*
X152843386Y-99970489D01*
X152902696Y-100004731D01*
X152946114Y-100029799D01*
X153060691Y-100060500D01*
X153060694Y-100060500D01*
X153179306Y-100060500D01*
X153179309Y-100060500D01*
X153293886Y-100029799D01*
X153396613Y-99970489D01*
X153419575Y-99947527D01*
X153466194Y-99925786D01*
X153472750Y-99925500D01*
X153679990Y-99925500D01*
X153680000Y-99925500D01*
X153725640Y-99922072D01*
X153831679Y-99885186D01*
X153917233Y-99812486D01*
X153970747Y-99713789D01*
X154470747Y-98163789D01*
X154475643Y-98146978D01*
X154479564Y-98090980D01*
X154483486Y-98034984D01*
X154483485Y-98034983D01*
X154483486Y-98034982D01*
X154450343Y-97927714D01*
X153950343Y-96977714D01*
X153942453Y-96964917D01*
X153928558Y-96942379D01*
X153928556Y-96942376D01*
X153847605Y-96864581D01*
X153744021Y-96821283D01*
X153744019Y-96821282D01*
X153634742Y-96818405D01*
X153631788Y-96818328D01*
X153631787Y-96818328D01*
X153631784Y-96818328D01*
X153526072Y-96856114D01*
X153526069Y-96856114D01*
X153526067Y-96856116D01*
X153526064Y-96856117D01*
X153526059Y-96856120D01*
X153037314Y-97141220D01*
X152990096Y-97150883D01*
X152317902Y-97066859D01*
X152317877Y-97066858D01*
X152251817Y-97065802D01*
X152251812Y-97065802D01*
X152143827Y-97096527D01*
X152054233Y-97164185D01*
X151995129Y-97259640D01*
X151988221Y-97296597D01*
X151962045Y-97340878D01*
X151913529Y-97357974D01*
X151876702Y-97347903D01*
X151811785Y-97310423D01*
X151773602Y-97300192D01*
X151659057Y-97269500D01*
X151500943Y-97269500D01*
X151409836Y-97293912D01*
X151348214Y-97310423D01*
X151211285Y-97389479D01*
X151211279Y-97389483D01*
X151099483Y-97501279D01*
X151099479Y-97501285D01*
X151020423Y-97638214D01*
X151010433Y-97675499D01*
X150979500Y-97790943D01*
X150979500Y-97790945D01*
X150979500Y-97912665D01*
X150961907Y-97961003D01*
X150957474Y-97965839D01*
X150423174Y-98500139D01*
X150376554Y-98521879D01*
X150326867Y-98508565D01*
X150297362Y-98466428D01*
X150294800Y-98446965D01*
X150294800Y-97684615D01*
X150292357Y-97675499D01*
X150292356Y-97675497D01*
X150292052Y-97674361D01*
X150275684Y-97613275D01*
X150238756Y-97549313D01*
X150056212Y-97366770D01*
X150034473Y-97320150D01*
X150036749Y-97294137D01*
X150051878Y-97237679D01*
X150051878Y-97079565D01*
X150010955Y-96926838D01*
X150006625Y-96919339D01*
X149980331Y-96873795D01*
X149931898Y-96789906D01*
X149931896Y-96789904D01*
X149931894Y-96789901D01*
X149820098Y-96678105D01*
X149820092Y-96678101D01*
X149803734Y-96668657D01*
X149745229Y-96634879D01*
X149683161Y-96599044D01*
X149670543Y-96595663D01*
X149628406Y-96566158D01*
X149615093Y-96516471D01*
X149636831Y-96469853D01*
X149764161Y-96342525D01*
X149810781Y-96320786D01*
X149817335Y-96320500D01*
X150909749Y-96320500D01*
X150929242Y-96316622D01*
X150968231Y-96308867D01*
X151034552Y-96264552D01*
X151078867Y-96198231D01*
X151090500Y-96139748D01*
X151090500Y-96139747D01*
X151090862Y-96136073D01*
X151093016Y-96136285D01*
X151108093Y-96094862D01*
X151152642Y-96069142D01*
X151165700Y-96068000D01*
X151445593Y-96068000D01*
X151493931Y-96085593D01*
X151513150Y-96110170D01*
X151525233Y-96134884D01*
X151561677Y-96209431D01*
X151645568Y-96293322D01*
X151645569Y-96293322D01*
X151645571Y-96293324D01*
X151701160Y-96320500D01*
X151752160Y-96345433D01*
X151821247Y-96355499D01*
X151821255Y-96355499D01*
X151821258Y-96355500D01*
X151821260Y-96355500D01*
X152198740Y-96355500D01*
X152198742Y-96355500D01*
X152198744Y-96355499D01*
X152198752Y-96355499D01*
X152251135Y-96347866D01*
X152267840Y-96345433D01*
X152374429Y-96293324D01*
X152458324Y-96209429D01*
X152510433Y-96102840D01*
X152516939Y-96058187D01*
X152520499Y-96033752D01*
X152520500Y-96033740D01*
X152520500Y-95541259D01*
X152520499Y-95541249D01*
X152514767Y-95501907D01*
X152510932Y-95475586D01*
X152521372Y-95425218D01*
X152547069Y-95400016D01*
X152569640Y-95386668D01*
X152569650Y-95386660D01*
X152686658Y-95269652D01*
X152686664Y-95269645D01*
X152689892Y-95264187D01*
X156067954Y-95264187D01*
X156071801Y-95376389D01*
X156071801Y-95376392D01*
X156115919Y-95479627D01*
X156115921Y-95479630D01*
X156176095Y-95541258D01*
X156194354Y-95559958D01*
X157992413Y-96823459D01*
X158044357Y-96859960D01*
X158094011Y-96888311D01*
X158203057Y-96915030D01*
X158314390Y-96900552D01*
X158314391Y-96900551D01*
X158314393Y-96900551D01*
X158412974Y-96846835D01*
X158412973Y-96846835D01*
X158412976Y-96846834D01*
X159762895Y-95746900D01*
X159762966Y-95746843D01*
X159763162Y-95746683D01*
X159763162Y-95746682D01*
X159763168Y-95746678D01*
X159835622Y-95660915D01*
X159872202Y-95554771D01*
X160072202Y-94204771D01*
X160073528Y-94125348D01*
X160040514Y-94018040D01*
X159970965Y-93929906D01*
X159970959Y-93929902D01*
X159874275Y-93872847D01*
X159763498Y-93854568D01*
X157413510Y-93904568D01*
X157398800Y-93905235D01*
X157398796Y-93905236D01*
X157290139Y-93933473D01*
X157199011Y-93999063D01*
X156149019Y-95099053D01*
X156104900Y-95158168D01*
X156067955Y-95264182D01*
X156067954Y-95264187D01*
X152689892Y-95264187D01*
X152715128Y-95221516D01*
X152770907Y-95127197D01*
X152817077Y-94968281D01*
X152817079Y-94968270D01*
X152819999Y-94931157D01*
X152820000Y-94931148D01*
X152820000Y-94902500D01*
X151178398Y-94902500D01*
X151172254Y-94905365D01*
X151122567Y-94892051D01*
X151093062Y-94849914D01*
X151090500Y-94830451D01*
X151090500Y-94700251D01*
X151078867Y-94641770D01*
X151078866Y-94641768D01*
X151078240Y-94640831D01*
X151034552Y-94575448D01*
X150987956Y-94544313D01*
X150957541Y-94502830D01*
X150960906Y-94451500D01*
X150996478Y-94414343D01*
X151003457Y-94411329D01*
X151107757Y-94372427D01*
X151159195Y-94372019D01*
X151187211Y-94389712D01*
X151199999Y-94402500D01*
X151760000Y-94402500D01*
X152260000Y-94402500D01*
X152820000Y-94402500D01*
X152820000Y-94373851D01*
X152819999Y-94373842D01*
X152817079Y-94336729D01*
X152817077Y-94336718D01*
X152770907Y-94177802D01*
X152686664Y-94035354D01*
X152686658Y-94035347D01*
X152569652Y-93918341D01*
X152569645Y-93918335D01*
X152427197Y-93834092D01*
X152268284Y-93787923D01*
X152268279Y-93787922D01*
X152260000Y-93787270D01*
X152260000Y-94402500D01*
X151760000Y-94402500D01*
X151760000Y-93787270D01*
X151751720Y-93787922D01*
X151751715Y-93787923D01*
X151592802Y-93834092D01*
X151592801Y-93834092D01*
X151503480Y-93886917D01*
X151452918Y-93896379D01*
X151408103Y-93871127D01*
X151390004Y-93822976D01*
X151390000Y-93822189D01*
X151390000Y-93470000D01*
X150365200Y-93470000D01*
X150316862Y-93452407D01*
X150291142Y-93407858D01*
X150290000Y-93394800D01*
X150290000Y-93220000D01*
X150115200Y-93220000D01*
X150066862Y-93202407D01*
X150041142Y-93157858D01*
X150040000Y-93144800D01*
X150040000Y-92595700D01*
X150057593Y-92547362D01*
X150102142Y-92521642D01*
X150115200Y-92520500D01*
X150464800Y-92520500D01*
X150513138Y-92538093D01*
X150538858Y-92582642D01*
X150540000Y-92595700D01*
X150540000Y-92970000D01*
X151390000Y-92970000D01*
X151390000Y-92595700D01*
X151407593Y-92547362D01*
X151452142Y-92521642D01*
X151465200Y-92520500D01*
X152025166Y-92520500D01*
X152073504Y-92538093D01*
X152078340Y-92542526D01*
X152472474Y-92936660D01*
X152494214Y-92983280D01*
X152494500Y-92989834D01*
X152494500Y-93318752D01*
X152504566Y-93387839D01*
X152556677Y-93494431D01*
X152640568Y-93578322D01*
X152640569Y-93578322D01*
X152640571Y-93578324D01*
X152737160Y-93625544D01*
X152747160Y-93630433D01*
X152816247Y-93640499D01*
X152816255Y-93640499D01*
X152816258Y-93640500D01*
X152816260Y-93640500D01*
X153308740Y-93640500D01*
X153308742Y-93640500D01*
X153308746Y-93640499D01*
X153308750Y-93640499D01*
X153323395Y-93638365D01*
X153374412Y-93630932D01*
X153424781Y-93641372D01*
X153449981Y-93667065D01*
X153463333Y-93689642D01*
X153463341Y-93689652D01*
X153580347Y-93806658D01*
X153580354Y-93806664D01*
X153722802Y-93890907D01*
X153881718Y-93937077D01*
X153881729Y-93937079D01*
X153918842Y-93939999D01*
X153918851Y-93940000D01*
X153947500Y-93940000D01*
X154447500Y-93940000D01*
X154476149Y-93940000D01*
X154476157Y-93939999D01*
X154513270Y-93937079D01*
X154513281Y-93937077D01*
X154672197Y-93890907D01*
X154814645Y-93806664D01*
X154814652Y-93806658D01*
X154931658Y-93689652D01*
X154931664Y-93689645D01*
X155015907Y-93547197D01*
X155062076Y-93388284D01*
X155062077Y-93388279D01*
X155062730Y-93380000D01*
X154447500Y-93380000D01*
X154447500Y-93940000D01*
X153947500Y-93940000D01*
X153947500Y-93205200D01*
X153965093Y-93156862D01*
X154009642Y-93131142D01*
X154022700Y-93130000D01*
X154197500Y-93130000D01*
X154197500Y-92955200D01*
X154215093Y-92906862D01*
X154259642Y-92881142D01*
X154272700Y-92880000D01*
X155062729Y-92880000D01*
X155062077Y-92871720D01*
X155062076Y-92871715D01*
X155015907Y-92712802D01*
X154982520Y-92656347D01*
X154973058Y-92605785D01*
X154996106Y-92564881D01*
X154995231Y-92564006D01*
X155110516Y-92448720D01*
X155110520Y-92448716D01*
X155189577Y-92311784D01*
X155230500Y-92159057D01*
X155230500Y-92000943D01*
X155189577Y-91848216D01*
X155189576Y-91848215D01*
X155189576Y-91848213D01*
X155157872Y-91793300D01*
X155148940Y-91742641D01*
X155174660Y-91698093D01*
X155222997Y-91680500D01*
X156929031Y-91680500D01*
X156929033Y-91680500D01*
X157000373Y-91661384D01*
X157006709Y-91657726D01*
X157064335Y-91624456D01*
X157116560Y-91572231D01*
X157122745Y-91566046D01*
X157122752Y-91566036D01*
X157147902Y-91540886D01*
X157194521Y-91519147D01*
X157220537Y-91521423D01*
X157249031Y-91529058D01*
X157276994Y-91536552D01*
X157276995Y-91536552D01*
X157435106Y-91536552D01*
X157435109Y-91536552D01*
X157587836Y-91495629D01*
X157724768Y-91416572D01*
X157836572Y-91304768D01*
X157915629Y-91167836D01*
X157956552Y-91015109D01*
X157956552Y-90856995D01*
X157915629Y-90704268D01*
X157836572Y-90567336D01*
X157836570Y-90567334D01*
X157836568Y-90567331D01*
X157724772Y-90455535D01*
X157724766Y-90455531D01*
X157587837Y-90376475D01*
X157549654Y-90366244D01*
X157435109Y-90335552D01*
X157276995Y-90335552D01*
X157185358Y-90360105D01*
X157124266Y-90376475D01*
X156987337Y-90455531D01*
X156987331Y-90455535D01*
X156875535Y-90567331D01*
X156875531Y-90567337D01*
X156796475Y-90704266D01*
X156779369Y-90768108D01*
X156755552Y-90856995D01*
X156755552Y-91015109D01*
X156756620Y-91019094D01*
X156758159Y-91024838D01*
X156753675Y-91076082D01*
X156717301Y-91112455D01*
X156685521Y-91119500D01*
X151919885Y-91119500D01*
X151871547Y-91101907D01*
X151866711Y-91097474D01*
X151848720Y-91079483D01*
X151848714Y-91079479D01*
X151843741Y-91076608D01*
X151800958Y-91051907D01*
X151711785Y-91000423D01*
X151673602Y-90990192D01*
X151559057Y-90959500D01*
X151400943Y-90959500D01*
X151309306Y-90984053D01*
X151248214Y-91000423D01*
X151111285Y-91079479D01*
X151111279Y-91079483D01*
X150999483Y-91191279D01*
X150999479Y-91191285D01*
X150920423Y-91328214D01*
X150917404Y-91339483D01*
X150879500Y-91480943D01*
X150879500Y-91639057D01*
X150898853Y-91711284D01*
X150920423Y-91791786D01*
X150952128Y-91846700D01*
X150961060Y-91897359D01*
X150935340Y-91941907D01*
X150887003Y-91959500D01*
X149606928Y-91959500D01*
X149533071Y-91959500D01*
X149497401Y-91969058D01*
X149461729Y-91978616D01*
X149397770Y-92015543D01*
X149115839Y-92297474D01*
X149069219Y-92319214D01*
X149062665Y-92319500D01*
X147970251Y-92319500D01*
X147911770Y-92331132D01*
X147911768Y-92331133D01*
X147845448Y-92375448D01*
X147801133Y-92441768D01*
X147801132Y-92441770D01*
X147789500Y-92500251D01*
X147789500Y-93633809D01*
X147771907Y-93682147D01*
X147727358Y-93707867D01*
X147676700Y-93698934D01*
X147649572Y-93672089D01*
X147571664Y-93540354D01*
X147571658Y-93540347D01*
X147454652Y-93423341D01*
X147454645Y-93423335D01*
X147312197Y-93339092D01*
X147153281Y-93292922D01*
X147153270Y-93292920D01*
X147116157Y-93290000D01*
X147087500Y-93290000D01*
X147087500Y-94024800D01*
X147069907Y-94073138D01*
X147025358Y-94098858D01*
X147012300Y-94100000D01*
X146662700Y-94100000D01*
X146614362Y-94082407D01*
X146588642Y-94037858D01*
X146587500Y-94024800D01*
X146587500Y-93290000D01*
X146558842Y-93290000D01*
X146521729Y-93292920D01*
X146521718Y-93292922D01*
X146362802Y-93339092D01*
X146220354Y-93423335D01*
X146220347Y-93423341D01*
X146103341Y-93540347D01*
X146103331Y-93540360D01*
X146098154Y-93549114D01*
X146058403Y-93581762D01*
X146006966Y-93581220D01*
X145995830Y-93575955D01*
X145934287Y-93540424D01*
X145934284Y-93540423D01*
X145781557Y-93499500D01*
X145623443Y-93499500D01*
X145531806Y-93524053D01*
X145470714Y-93540423D01*
X145333784Y-93619479D01*
X145330556Y-93622707D01*
X145310418Y-93637083D01*
X145280572Y-93651674D01*
X145196674Y-93735573D01*
X145193053Y-93740645D01*
X145190469Y-93738800D01*
X145162133Y-93766058D01*
X145131680Y-93772500D01*
X144913116Y-93772500D01*
X144826884Y-93772500D01*
X144806827Y-93777874D01*
X144799125Y-93779938D01*
X144779663Y-93782500D01*
X144723116Y-93782500D01*
X144636884Y-93782500D01*
X144595237Y-93793659D01*
X144553588Y-93804819D01*
X144478911Y-93847934D01*
X144478905Y-93847938D01*
X143874369Y-94452474D01*
X143827749Y-94474214D01*
X143821195Y-94474500D01*
X143640699Y-94474500D01*
X143592361Y-94456907D01*
X143566641Y-94412358D01*
X143565499Y-94399310D01*
X143565499Y-93952169D01*
X143565861Y-93944799D01*
X143566334Y-93939999D01*
X143567267Y-93930522D01*
X143570143Y-93916066D01*
X143570352Y-93915377D01*
X143602843Y-93808266D01*
X143608482Y-93794655D01*
X143661585Y-93695306D01*
X143669770Y-93683056D01*
X143743605Y-93593088D01*
X143748532Y-93587652D01*
X143781269Y-93554916D01*
X144602865Y-92733318D01*
X144602870Y-92733315D01*
X144609057Y-92727127D01*
X144609059Y-92727127D01*
X144641795Y-92694390D01*
X144647230Y-92689464D01*
X144704807Y-92642211D01*
X144753333Y-92625146D01*
X144795645Y-92638741D01*
X144802905Y-92643825D01*
X144918891Y-92674904D01*
X145038514Y-92664438D01*
X145084720Y-92645299D01*
X145448278Y-92435397D01*
X145487958Y-92404951D01*
X145556833Y-92306588D01*
X145571079Y-92253417D01*
X145600581Y-92211281D01*
X145612610Y-92204416D01*
X145758322Y-92138233D01*
X145758990Y-92137934D01*
X145871445Y-92088524D01*
X145922774Y-92085187D01*
X145948961Y-92098885D01*
X145976070Y-92120796D01*
X146085208Y-92160519D01*
X146201328Y-92162653D01*
X146201330Y-92162653D01*
X146266800Y-92142998D01*
X146594028Y-91990409D01*
X146651167Y-91952890D01*
X146724175Y-91862564D01*
X146762539Y-91757159D01*
X146795603Y-91717755D01*
X146846261Y-91708822D01*
X146858918Y-91712213D01*
X146964326Y-91750579D01*
X147080446Y-91752713D01*
X147080448Y-91752713D01*
X147145918Y-91733058D01*
X147473146Y-91580469D01*
X147530285Y-91542950D01*
X147603293Y-91452624D01*
X147643016Y-91343486D01*
X147643291Y-91328483D01*
X147661766Y-91280477D01*
X147687545Y-91261319D01*
X148022405Y-91110210D01*
X148073699Y-91106365D01*
X148096467Y-91117154D01*
X148136655Y-91145294D01*
X148252641Y-91176373D01*
X148372264Y-91165907D01*
X148418470Y-91146768D01*
X148782028Y-90936866D01*
X148821708Y-90906420D01*
X148890583Y-90808057D01*
X148890767Y-90807366D01*
X148891176Y-90806783D01*
X148893363Y-90802094D01*
X148894189Y-90802479D01*
X148920269Y-90765229D01*
X148939730Y-90755450D01*
X149258512Y-90649726D01*
X149258650Y-90649680D01*
X149693475Y-90507889D01*
X149702990Y-90505462D01*
X149718663Y-90502541D01*
X149733031Y-90495668D01*
X149742157Y-90492015D01*
X149757301Y-90487078D01*
X149770657Y-90478383D01*
X149779221Y-90473574D01*
X150356109Y-90197650D01*
X150369090Y-90192854D01*
X150374328Y-90191451D01*
X150397200Y-90178244D01*
X150402315Y-90175549D01*
X150426153Y-90164149D01*
X150430271Y-90160623D01*
X150441574Y-90152625D01*
X150446271Y-90149914D01*
X150464953Y-90131230D01*
X150469201Y-90127300D01*
X150489263Y-90110129D01*
X150492327Y-90105658D01*
X150501173Y-90095010D01*
X151302531Y-89293652D01*
X151304654Y-89291833D01*
X151307662Y-89288800D01*
X151307665Y-89288799D01*
X151342237Y-89253947D01*
X151371336Y-89224849D01*
X151371338Y-89224844D01*
X151373564Y-89222619D01*
X151375545Y-89220349D01*
X151409295Y-89186306D01*
X151523070Y-89035719D01*
X151572868Y-88947252D01*
X151615647Y-88871254D01*
X151615650Y-88871248D01*
X151624377Y-88849293D01*
X151685363Y-88695862D01*
X151730956Y-88512716D01*
X151733838Y-88486612D01*
X151755408Y-88441692D01*
X151800489Y-88396613D01*
X151857655Y-88297598D01*
X151897061Y-88264535D01*
X151922780Y-88260000D01*
X152021851Y-88260000D01*
X152053723Y-88271600D01*
X152064600Y-88271600D01*
X152089965Y-88271600D01*
X152090000Y-88271600D01*
X153614000Y-88263000D01*
X153614000Y-87770579D01*
X153631593Y-87722241D01*
X153653810Y-87704973D01*
X153653669Y-87704749D01*
X153655918Y-87703335D01*
X153656578Y-87702823D01*
X153657246Y-87702501D01*
X153807507Y-87608086D01*
X153932986Y-87482607D01*
X154027403Y-87332342D01*
X154086012Y-87164849D01*
X154086014Y-87164841D01*
X154100900Y-87032723D01*
X154100900Y-86804553D01*
X153047926Y-85751579D01*
X153026186Y-85704959D01*
X153025900Y-85698405D01*
X153025900Y-85375999D01*
X153379453Y-85375999D01*
X153379453Y-85376000D01*
X154100899Y-86097446D01*
X154100900Y-86097446D01*
X154100900Y-84654553D01*
X154100899Y-84654553D01*
X153379453Y-85375999D01*
X153025900Y-85375999D01*
X153025900Y-85053595D01*
X153043493Y-85005257D01*
X153047926Y-85000421D01*
X154015291Y-84033055D01*
X154035878Y-84037678D01*
G37*
%TD.AperFunction*%
%TA.AperFunction,Conductor*%
G36*
X153863138Y-113675093D02*
G01*
X153888858Y-113719642D01*
X153890000Y-113732700D01*
X153890000Y-113939300D01*
X153872407Y-113987638D01*
X153827858Y-114013358D01*
X153814800Y-114014500D01*
X153465200Y-114014500D01*
X153416862Y-113996907D01*
X153391142Y-113952358D01*
X153390000Y-113939300D01*
X153390000Y-113732700D01*
X153407593Y-113684362D01*
X153452142Y-113658642D01*
X153465200Y-113657500D01*
X153814800Y-113657500D01*
X153863138Y-113675093D01*
G37*
%TD.AperFunction*%
%TA.AperFunction,Conductor*%
G36*
X148307823Y-108718093D02*
G01*
X148333543Y-108762642D01*
X148333899Y-108786542D01*
X148329500Y-108816729D01*
X148329500Y-109183268D01*
X148339427Y-109251393D01*
X148390803Y-109356485D01*
X148473514Y-109439196D01*
X148473515Y-109439196D01*
X148473517Y-109439198D01*
X148578607Y-109490573D01*
X148628536Y-109497847D01*
X148646731Y-109500499D01*
X148646736Y-109500499D01*
X148646740Y-109500500D01*
X148646742Y-109500500D01*
X149738258Y-109500500D01*
X149738260Y-109500500D01*
X149738264Y-109500499D01*
X149738268Y-109500499D01*
X149747946Y-109499088D01*
X149806393Y-109490573D01*
X149911483Y-109439198D01*
X149994198Y-109356483D01*
X150045573Y-109251393D01*
X150055500Y-109183260D01*
X150055500Y-108816740D01*
X150055499Y-108816738D01*
X150055499Y-108816729D01*
X150051101Y-108786542D01*
X150061541Y-108736173D01*
X150101916Y-108704299D01*
X150125515Y-108700500D01*
X150534485Y-108700500D01*
X150582823Y-108718093D01*
X150608543Y-108762642D01*
X150608899Y-108786542D01*
X150604500Y-108816729D01*
X150604500Y-109183258D01*
X150604501Y-109183272D01*
X150606466Y-109196760D01*
X150596025Y-109247129D01*
X150570334Y-109272328D01*
X150553445Y-109282316D01*
X150553437Y-109282322D01*
X150437323Y-109398436D01*
X150437317Y-109398443D01*
X150353718Y-109539802D01*
X150307900Y-109697508D01*
X150307899Y-109697513D01*
X150307703Y-109699999D01*
X150307704Y-109700000D01*
X151392300Y-109700000D01*
X151440638Y-109717593D01*
X151466358Y-109762142D01*
X151467500Y-109775200D01*
X151467500Y-110124800D01*
X151449907Y-110173138D01*
X151405358Y-110198858D01*
X151392300Y-110200000D01*
X150307703Y-110200000D01*
X150291742Y-110217266D01*
X150246011Y-110240818D01*
X150195839Y-110229464D01*
X150183348Y-110219393D01*
X150111724Y-110147769D01*
X150059499Y-110095544D01*
X150034242Y-110080962D01*
X149995536Y-110058615D01*
X149965255Y-110050501D01*
X149965249Y-110050500D01*
X149965248Y-110050500D01*
X149924197Y-110039500D01*
X149924196Y-110039500D01*
X147643879Y-110039500D01*
X147595541Y-110021907D01*
X147569821Y-109977358D01*
X147574403Y-109935523D01*
X147586184Y-109907078D01*
X147586185Y-109907075D01*
X147624615Y-109713876D01*
X147624615Y-109516892D01*
X147586185Y-109323693D01*
X147586184Y-109323692D01*
X147510804Y-109141708D01*
X147487933Y-109107479D01*
X147475707Y-109057513D01*
X147498458Y-109011378D01*
X147545542Y-108990661D01*
X147550460Y-108990500D01*
X147579054Y-108990500D01*
X147579057Y-108990500D01*
X147731784Y-108949577D01*
X147868716Y-108870520D01*
X147980520Y-108758716D01*
X147992422Y-108738100D01*
X148031827Y-108705035D01*
X148057548Y-108700500D01*
X148259485Y-108700500D01*
X148307823Y-108718093D01*
G37*
%TD.AperFunction*%
%TA.AperFunction,Conductor*%
G36*
X147282400Y-107705701D02*
G01*
X147308120Y-107750250D01*
X147299187Y-107800908D01*
X147271662Y-107828433D01*
X147131285Y-107909479D01*
X147131279Y-107909483D01*
X147019483Y-108021279D01*
X147019479Y-108021285D01*
X146940422Y-108158216D01*
X146922713Y-108224307D01*
X146893209Y-108266444D01*
X146843521Y-108279757D01*
X146796901Y-108258017D01*
X146784177Y-108241069D01*
X146779890Y-108233270D01*
X146779888Y-108233268D01*
X146778265Y-108231367D01*
X146073212Y-108936421D01*
X146026592Y-108958161D01*
X145976905Y-108944847D01*
X145966864Y-108936421D01*
X145719659Y-108689216D01*
X145697919Y-108642596D01*
X145711233Y-108592909D01*
X145719659Y-108582868D01*
X146424712Y-107877815D01*
X146424711Y-107877814D01*
X146422809Y-107876189D01*
X146422808Y-107876188D01*
X146337347Y-107829206D01*
X146303464Y-107790502D01*
X146302387Y-107739074D01*
X146334619Y-107698985D01*
X146373575Y-107688108D01*
X147234062Y-107688108D01*
X147282400Y-107705701D01*
G37*
%TD.AperFunction*%
%TA.AperFunction,Conductor*%
G36*
X142285254Y-106947023D02*
G01*
X142290299Y-106959201D01*
X142290485Y-106959125D01*
X142292372Y-106963682D01*
X142335221Y-107037898D01*
X142524949Y-107227625D01*
X142713896Y-107416572D01*
X142713897Y-107416573D01*
X142774500Y-107477176D01*
X142804868Y-107494709D01*
X142848721Y-107520028D01*
X142848723Y-107520028D01*
X142848724Y-107520029D01*
X142931509Y-107542211D01*
X142931512Y-107542211D01*
X143310291Y-107542211D01*
X143310293Y-107542211D01*
X143393079Y-107520029D01*
X143393080Y-107520028D01*
X143397840Y-107518753D01*
X143398124Y-107519814D01*
X143444449Y-107517783D01*
X143484375Y-107547727D01*
X143490268Y-107556546D01*
X143490271Y-107556550D01*
X143634699Y-107700978D01*
X143634704Y-107700982D01*
X143634708Y-107700986D01*
X143702835Y-107746509D01*
X143733178Y-107752544D01*
X143777155Y-107779228D01*
X143792264Y-107811627D01*
X143798300Y-107841974D01*
X143798302Y-107841979D01*
X143843817Y-107910096D01*
X143843824Y-107910104D01*
X143988252Y-108054532D01*
X143988257Y-108054536D01*
X143988261Y-108054540D01*
X144056388Y-108100063D01*
X144086733Y-108106098D01*
X144130709Y-108132782D01*
X144145818Y-108165181D01*
X144151854Y-108195527D01*
X144151856Y-108195532D01*
X144197371Y-108263649D01*
X144197378Y-108263657D01*
X144234847Y-108301126D01*
X144256587Y-108347746D01*
X144243273Y-108397433D01*
X144201136Y-108426938D01*
X144181673Y-108429500D01*
X144076929Y-108429500D01*
X144003071Y-108429500D01*
X143967401Y-108439058D01*
X143931729Y-108448616D01*
X143867770Y-108485543D01*
X143867768Y-108485544D01*
X143853813Y-108499500D01*
X143815544Y-108537769D01*
X143495839Y-108857474D01*
X143449219Y-108879214D01*
X143442665Y-108879500D01*
X142717335Y-108879500D01*
X142668997Y-108861907D01*
X142664161Y-108857474D01*
X141052526Y-107245839D01*
X141030786Y-107199219D01*
X141030500Y-107192665D01*
X141030500Y-107141285D01*
X141048093Y-107092947D01*
X141092642Y-107067227D01*
X141143300Y-107076160D01*
X141158874Y-107088111D01*
X141241279Y-107170516D01*
X141241282Y-107170518D01*
X141241284Y-107170520D01*
X141311244Y-107210911D01*
X141371741Y-107245839D01*
X141378216Y-107249577D01*
X141530943Y-107290500D01*
X141530946Y-107290500D01*
X141689054Y-107290500D01*
X141689057Y-107290500D01*
X141841784Y-107249577D01*
X141978716Y-107170520D01*
X142090520Y-107058716D01*
X142155004Y-106947024D01*
X142194408Y-106913959D01*
X142245848Y-106913959D01*
X142285254Y-106947023D01*
G37*
%TD.AperFunction*%
%TA.AperFunction,Conductor*%
G36*
X138770920Y-103818062D02*
G01*
X138806911Y-103854814D01*
X138810858Y-103906102D01*
X138807904Y-103914657D01*
X138775825Y-103992103D01*
X138775823Y-103992108D01*
X138737394Y-104185308D01*
X138737394Y-104382291D01*
X138775823Y-104575491D01*
X138775824Y-104575492D01*
X138851206Y-104757480D01*
X138874819Y-104792819D01*
X138874820Y-104792820D01*
X139442538Y-104225101D01*
X139437393Y-104244305D01*
X139437393Y-104323295D01*
X139457838Y-104399596D01*
X139497334Y-104468004D01*
X139553190Y-104523860D01*
X139621598Y-104563356D01*
X139697899Y-104583801D01*
X139776889Y-104583801D01*
X139796092Y-104578655D01*
X139228373Y-105146373D01*
X139263713Y-105169987D01*
X139445701Y-105245369D01*
X139445702Y-105245370D01*
X139638902Y-105283800D01*
X139835886Y-105283800D01*
X140029080Y-105245371D01*
X140029087Y-105245369D01*
X140049634Y-105236858D01*
X140101025Y-105234613D01*
X140141836Y-105265927D01*
X140153613Y-105306333D01*
X140153613Y-105321686D01*
X140177835Y-105443461D01*
X140177836Y-105443462D01*
X140202753Y-105503616D01*
X140225348Y-105558166D01*
X140294327Y-105661400D01*
X140294329Y-105661402D01*
X140294331Y-105661405D01*
X140382114Y-105749188D01*
X140382117Y-105749190D01*
X140382120Y-105749193D01*
X140485354Y-105818172D01*
X140538174Y-105840050D01*
X140600055Y-105865683D01*
X140600057Y-105865683D01*
X140600061Y-105865685D01*
X140616295Y-105868914D01*
X140660269Y-105895596D01*
X140676806Y-105944306D01*
X140658164Y-105992249D01*
X140654799Y-105995842D01*
X140614517Y-106036125D01*
X140577771Y-106072871D01*
X140577769Y-106072873D01*
X140564313Y-106086329D01*
X140525544Y-106125097D01*
X140505683Y-106159500D01*
X140505682Y-106159501D01*
X140488616Y-106189058D01*
X140488616Y-106189060D01*
X140472915Y-106247659D01*
X140472914Y-106247662D01*
X140469500Y-106260398D01*
X140469500Y-107078715D01*
X140451907Y-107127053D01*
X140407358Y-107152773D01*
X140356700Y-107143840D01*
X140341126Y-107131889D01*
X140228720Y-107019483D01*
X140228714Y-107019479D01*
X140091785Y-106940423D01*
X140053467Y-106930156D01*
X139939057Y-106899500D01*
X139780943Y-106899500D01*
X139722212Y-106915237D01*
X139649569Y-106934701D01*
X139598325Y-106930217D01*
X139576932Y-106915237D01*
X137477228Y-104815534D01*
X137455488Y-104768914D01*
X137459276Y-104737945D01*
X137490795Y-104646136D01*
X137490795Y-104525823D01*
X137464926Y-104450469D01*
X137465870Y-104399038D01*
X137499653Y-104360246D01*
X137550467Y-104352246D01*
X137560470Y-104354926D01*
X137635823Y-104380795D01*
X137635824Y-104380795D01*
X137756135Y-104380795D01*
X137756136Y-104380795D01*
X137869931Y-104341729D01*
X137926698Y-104299400D01*
X138254391Y-103971706D01*
X138296721Y-103914939D01*
X138306289Y-103887067D01*
X138338623Y-103847062D01*
X138389109Y-103837200D01*
X138396118Y-103838648D01*
X138425313Y-103846145D01*
X138590804Y-103846145D01*
X138590805Y-103846144D01*
X138719726Y-103813043D01*
X138770920Y-103818062D01*
G37*
%TD.AperFunction*%
%TA.AperFunction,Conductor*%
G36*
X147257843Y-102388153D02*
G01*
X147273417Y-102400104D01*
X147450043Y-102576730D01*
X147471783Y-102623350D01*
X147458469Y-102673037D01*
X147416332Y-102702542D01*
X147407711Y-102704318D01*
X147370720Y-102709707D01*
X147370713Y-102709709D01*
X147262622Y-102762552D01*
X147177552Y-102847622D01*
X147124708Y-102955714D01*
X147114500Y-103025774D01*
X147114500Y-103414210D01*
X147114501Y-103414215D01*
X147124708Y-103484284D01*
X147124709Y-103484286D01*
X147177552Y-103592377D01*
X147262622Y-103677447D01*
X147262623Y-103677447D01*
X147262625Y-103677449D01*
X147364993Y-103727494D01*
X147370714Y-103730291D01*
X147427242Y-103738527D01*
X147472538Y-103762905D01*
X147491566Y-103810696D01*
X147491600Y-103812941D01*
X147491600Y-104464799D01*
X147474007Y-104513137D01*
X147429458Y-104538857D01*
X147416400Y-104539999D01*
X147241600Y-104539999D01*
X147241600Y-104714799D01*
X147224007Y-104763137D01*
X147179458Y-104788857D01*
X147166400Y-104789999D01*
X145954200Y-104789999D01*
X145954200Y-104867230D01*
X145960601Y-104926773D01*
X145960602Y-104926776D01*
X146010848Y-105061489D01*
X146010849Y-105061491D01*
X146097010Y-105176588D01*
X146212106Y-105262749D01*
X146214535Y-105264075D01*
X146215806Y-105265519D01*
X146216417Y-105265976D01*
X146216321Y-105266103D01*
X146248531Y-105302680D01*
X146253700Y-105330079D01*
X146253700Y-105789148D01*
X146265332Y-105847629D01*
X146265333Y-105847631D01*
X146309648Y-105913952D01*
X146309649Y-105913953D01*
X146313763Y-105920109D01*
X146311949Y-105921320D01*
X146329262Y-105958446D01*
X146315948Y-106008133D01*
X146310986Y-106014046D01*
X146265333Y-106082369D01*
X146265332Y-106082371D01*
X146253700Y-106140852D01*
X146253700Y-106739149D01*
X146265332Y-106797630D01*
X146265333Y-106797632D01*
X146309648Y-106863953D01*
X146362671Y-106899382D01*
X146393087Y-106940866D01*
X146389722Y-106992196D01*
X146354150Y-107029353D01*
X146320891Y-107037108D01*
X145200009Y-107037108D01*
X145199430Y-107037263D01*
X145199070Y-107037231D01*
X145195126Y-107037751D01*
X145195010Y-107036876D01*
X145148186Y-107032776D01*
X145117447Y-107006403D01*
X145084988Y-106957825D01*
X145084981Y-106957817D01*
X144940550Y-106813386D01*
X144937689Y-106811038D01*
X144938340Y-106810243D01*
X144910323Y-106772019D01*
X144913695Y-106720690D01*
X144917391Y-106713397D01*
X144931839Y-106688374D01*
X144954021Y-106605589D01*
X144954021Y-105314497D01*
X144971614Y-105266159D01*
X144976052Y-105261318D01*
X144977882Y-105259488D01*
X144983141Y-105250379D01*
X144995706Y-105228616D01*
X145020734Y-105185267D01*
X145042917Y-105102481D01*
X145042917Y-105016775D01*
X145042917Y-104689547D01*
X145060510Y-104641209D01*
X145064943Y-104636373D01*
X145457230Y-104244086D01*
X145457235Y-104244081D01*
X145480584Y-104212767D01*
X145954200Y-104212767D01*
X145954200Y-104289999D01*
X146991600Y-104289999D01*
X146991600Y-103760599D01*
X146406368Y-103760599D01*
X146346825Y-103767000D01*
X146346822Y-103767001D01*
X146212109Y-103817247D01*
X146212107Y-103817248D01*
X146097010Y-103903409D01*
X146010849Y-104018506D01*
X146010848Y-104018508D01*
X145960602Y-104153221D01*
X145960601Y-104153224D01*
X145954200Y-104212767D01*
X145480584Y-104212767D01*
X145498392Y-104188885D01*
X145518635Y-104129920D01*
X145536374Y-104078251D01*
X145536375Y-104078245D01*
X145536375Y-103961271D01*
X145536374Y-103961265D01*
X145498392Y-103850633D01*
X145492323Y-103842494D01*
X145457235Y-103795436D01*
X145457232Y-103795433D01*
X145457230Y-103795430D01*
X145198071Y-103536271D01*
X145198063Y-103536264D01*
X145187128Y-103528110D01*
X145158895Y-103485111D01*
X145159245Y-103449123D01*
X145164124Y-103430121D01*
X145164124Y-103265895D01*
X145123281Y-103106821D01*
X145044167Y-102962915D01*
X145042541Y-102961010D01*
X145042540Y-102961010D01*
X144275616Y-103727936D01*
X144228996Y-103749676D01*
X144179309Y-103736362D01*
X144169268Y-103727936D01*
X143922063Y-103480731D01*
X143900323Y-103434111D01*
X143913637Y-103384424D01*
X143922063Y-103374383D01*
X144678609Y-102617838D01*
X144725229Y-102596098D01*
X144731783Y-102595812D01*
X145002865Y-102595812D01*
X145051203Y-102613405D01*
X145056028Y-102617827D01*
X145173685Y-102735484D01*
X145209987Y-102762552D01*
X145228882Y-102776641D01*
X145339514Y-102814623D01*
X145339518Y-102814623D01*
X145339519Y-102814624D01*
X145339520Y-102814624D01*
X145431927Y-102814624D01*
X145480265Y-102832217D01*
X145505985Y-102876766D01*
X145507127Y-102889824D01*
X145507127Y-102982236D01*
X145545109Y-103092868D01*
X145545110Y-103092869D01*
X145585788Y-103147424D01*
X145586271Y-103148071D01*
X145845430Y-103407230D01*
X145845433Y-103407232D01*
X145845436Y-103407235D01*
X145883091Y-103435312D01*
X145900633Y-103448392D01*
X146011265Y-103486374D01*
X146011269Y-103486374D01*
X146011270Y-103486375D01*
X146011271Y-103486375D01*
X146128246Y-103486375D01*
X146128247Y-103486375D01*
X146128248Y-103486374D01*
X146128251Y-103486374D01*
X146157063Y-103476482D01*
X146238885Y-103448392D01*
X146294081Y-103407235D01*
X147065903Y-102635413D01*
X147107060Y-102580217D01*
X147141294Y-102480500D01*
X147145042Y-102469583D01*
X147145043Y-102469577D01*
X147145043Y-102453278D01*
X147162636Y-102404940D01*
X147207185Y-102379220D01*
X147257843Y-102388153D01*
G37*
%TD.AperFunction*%
%TA.AperFunction,Conductor*%
G36*
X145402638Y-98618093D02*
G01*
X145428358Y-98662642D01*
X145429500Y-98675700D01*
X145429500Y-98884210D01*
X145429501Y-98884215D01*
X145439708Y-98954284D01*
X145439709Y-98954286D01*
X145449486Y-98974286D01*
X145492552Y-99062377D01*
X145577622Y-99147447D01*
X145577623Y-99147447D01*
X145577625Y-99147449D01*
X145602290Y-99159507D01*
X145649201Y-99182441D01*
X145684900Y-99219477D01*
X145688441Y-99270795D01*
X145658166Y-99312383D01*
X145649201Y-99317559D01*
X145577622Y-99352552D01*
X145492552Y-99437622D01*
X145439708Y-99545714D01*
X145429500Y-99615774D01*
X145429500Y-99876524D01*
X145411907Y-99924862D01*
X145407474Y-99929698D01*
X144722117Y-100615054D01*
X144679268Y-100689270D01*
X144679265Y-100689278D01*
X144657083Y-100772064D01*
X144657083Y-100772066D01*
X144657083Y-100910452D01*
X144639490Y-100958790D01*
X144635057Y-100963626D01*
X144242769Y-101355913D01*
X144242761Y-101355922D01*
X144201610Y-101411112D01*
X144201606Y-101411118D01*
X144194679Y-101431297D01*
X144162342Y-101471302D01*
X144111856Y-101481163D01*
X144070380Y-101460052D01*
X143929862Y-101319534D01*
X143929863Y-101319534D01*
X143855646Y-101276685D01*
X143855640Y-101276683D01*
X143855639Y-101276682D01*
X143772853Y-101254500D01*
X143147147Y-101254500D01*
X143097476Y-101267809D01*
X143064360Y-101276682D01*
X143020974Y-101301732D01*
X142990139Y-101319534D01*
X142990137Y-101319535D01*
X142649404Y-101660268D01*
X142602784Y-101682007D01*
X142553097Y-101668693D01*
X142543141Y-101660000D01*
X141927500Y-101660000D01*
X141927500Y-102220001D01*
X141938585Y-102231086D01*
X141956462Y-102237593D01*
X141982182Y-102282142D01*
X141973249Y-102332800D01*
X141961298Y-102348374D01*
X141941837Y-102367834D01*
X141898985Y-102442056D01*
X141898985Y-102442058D01*
X141889806Y-102476315D01*
X141883350Y-102500412D01*
X141876803Y-102524845D01*
X141876803Y-103212266D01*
X141859210Y-103260604D01*
X141814661Y-103286324D01*
X141765376Y-103278165D01*
X141753414Y-103271589D01*
X141594349Y-103230748D01*
X141533846Y-103230748D01*
X141485508Y-103213155D01*
X141464370Y-103184326D01*
X141401399Y-103032301D01*
X141377785Y-102996961D01*
X140810067Y-103564680D01*
X140815213Y-103545477D01*
X140815213Y-103466486D01*
X140794768Y-103390186D01*
X140755272Y-103321778D01*
X140699416Y-103265922D01*
X140631008Y-103226426D01*
X140554708Y-103205981D01*
X140475717Y-103205981D01*
X140456513Y-103211126D01*
X141024232Y-102643408D01*
X141024231Y-102643407D01*
X140988892Y-102619794D01*
X140806904Y-102544412D01*
X140806903Y-102544411D01*
X140613705Y-102505982D01*
X140416720Y-102505982D01*
X140223520Y-102544411D01*
X140223519Y-102544412D01*
X140041535Y-102619792D01*
X139877746Y-102729233D01*
X139877743Y-102729235D01*
X139591953Y-103015026D01*
X139545333Y-103036766D01*
X139495646Y-103023452D01*
X139466141Y-102981315D01*
X139463579Y-102961852D01*
X139463579Y-102807879D01*
X139457055Y-102782473D01*
X139462073Y-102731279D01*
X139484935Y-102703489D01*
X139538142Y-102663814D01*
X139886380Y-102315576D01*
X139928122Y-102259598D01*
X139966645Y-102147381D01*
X139966645Y-102028736D01*
X139951441Y-101984447D01*
X139952385Y-101933015D01*
X139962913Y-101914241D01*
X139964453Y-101912233D01*
X139964456Y-101912231D01*
X139992327Y-101863955D01*
X140031732Y-101830890D01*
X140083172Y-101830890D01*
X140110627Y-101848381D01*
X140120568Y-101858322D01*
X140120569Y-101858322D01*
X140120571Y-101858324D01*
X140187766Y-101891174D01*
X140227160Y-101910433D01*
X140296247Y-101920499D01*
X140296255Y-101920499D01*
X140296258Y-101920500D01*
X140296260Y-101920500D01*
X140788740Y-101920500D01*
X140788742Y-101920500D01*
X140788746Y-101920499D01*
X140788750Y-101920499D01*
X140803395Y-101918365D01*
X140854412Y-101910932D01*
X140904781Y-101921372D01*
X140929981Y-101947065D01*
X140943333Y-101969642D01*
X140943341Y-101969652D01*
X141060347Y-102086658D01*
X141060354Y-102086664D01*
X141202802Y-102170907D01*
X141361718Y-102217077D01*
X141361729Y-102217079D01*
X141398842Y-102219999D01*
X141398851Y-102220000D01*
X141427500Y-102220000D01*
X141427500Y-101160000D01*
X141927500Y-101160000D01*
X142542729Y-101160000D01*
X142542077Y-101151720D01*
X142542076Y-101151715D01*
X142495907Y-100992802D01*
X142411664Y-100850354D01*
X142411658Y-100850347D01*
X142294652Y-100733341D01*
X142294645Y-100733335D01*
X142152197Y-100649092D01*
X141993281Y-100602922D01*
X141993270Y-100602920D01*
X141956157Y-100600000D01*
X141927500Y-100600000D01*
X141927500Y-101160000D01*
X141427500Y-101160000D01*
X141427500Y-100600000D01*
X141398842Y-100600000D01*
X141361729Y-100602920D01*
X141361718Y-100602922D01*
X141202802Y-100649092D01*
X141060354Y-100733335D01*
X141060347Y-100733341D01*
X140943341Y-100850347D01*
X140943331Y-100850360D01*
X140929980Y-100872935D01*
X140890230Y-100905584D01*
X140854412Y-100909067D01*
X140788752Y-100899500D01*
X140788742Y-100899500D01*
X140595700Y-100899500D01*
X140547362Y-100881907D01*
X140521642Y-100837358D01*
X140520500Y-100824300D01*
X140520500Y-99666054D01*
X140538093Y-99617716D01*
X140582642Y-99591996D01*
X140610370Y-99592298D01*
X140651599Y-99600500D01*
X140828400Y-99600499D01*
X140828401Y-99600499D01*
X140828401Y-99600498D01*
X140905117Y-99585240D01*
X140948221Y-99556439D01*
X140998186Y-99544212D01*
X141031779Y-99556439D01*
X141074879Y-99585238D01*
X141074881Y-99585238D01*
X141074883Y-99585240D01*
X141151599Y-99600500D01*
X141328400Y-99600499D01*
X141328401Y-99600499D01*
X141328401Y-99600498D01*
X141405117Y-99585240D01*
X141448221Y-99556439D01*
X141498186Y-99544212D01*
X141531779Y-99556439D01*
X141574879Y-99585238D01*
X141574881Y-99585238D01*
X141574883Y-99585240D01*
X141651599Y-99600500D01*
X141828400Y-99600499D01*
X141828401Y-99600499D01*
X141828401Y-99600498D01*
X141905117Y-99585240D01*
X141948221Y-99556439D01*
X141998186Y-99544212D01*
X142031779Y-99556439D01*
X142074879Y-99585238D01*
X142074881Y-99585238D01*
X142074883Y-99585240D01*
X142151599Y-99600500D01*
X142328400Y-99600499D01*
X142328401Y-99600499D01*
X142328401Y-99600498D01*
X142405117Y-99585240D01*
X142448221Y-99556439D01*
X142498186Y-99544212D01*
X142531779Y-99556439D01*
X142574879Y-99585238D01*
X142574881Y-99585238D01*
X142574883Y-99585240D01*
X142651599Y-99600500D01*
X142828400Y-99600499D01*
X142828401Y-99600499D01*
X142828401Y-99600498D01*
X142905117Y-99585240D01*
X142948221Y-99556439D01*
X142998186Y-99544212D01*
X143031779Y-99556439D01*
X143074879Y-99585238D01*
X143074881Y-99585238D01*
X143074883Y-99585240D01*
X143151599Y-99600500D01*
X143328400Y-99600499D01*
X143328401Y-99600499D01*
X143328401Y-99600498D01*
X143405117Y-99585240D01*
X143492112Y-99527112D01*
X143550240Y-99440117D01*
X143565500Y-99363401D01*
X143565499Y-98700698D01*
X143583092Y-98652361D01*
X143627641Y-98626641D01*
X143640688Y-98625499D01*
X144303400Y-98625499D01*
X144303402Y-98625499D01*
X144303402Y-98625498D01*
X144380117Y-98610240D01*
X144380119Y-98610238D01*
X144386963Y-98607405D01*
X144387831Y-98609501D01*
X144417506Y-98600500D01*
X145354300Y-98600500D01*
X145402638Y-98618093D01*
G37*
%TD.AperFunction*%
%TA.AperFunction,Conductor*%
G36*
X143031779Y-94656439D02*
G01*
X143074879Y-94685238D01*
X143074881Y-94685238D01*
X143074883Y-94685240D01*
X143151599Y-94700500D01*
X143264299Y-94700499D01*
X143312637Y-94718092D01*
X143338357Y-94762640D01*
X143339500Y-94775698D01*
X143339500Y-94888401D01*
X143339501Y-94888402D01*
X143354760Y-94965118D01*
X143383561Y-95008222D01*
X143395787Y-95058187D01*
X143383561Y-95091778D01*
X143354761Y-95134879D01*
X143354759Y-95134884D01*
X143339500Y-95211597D01*
X143339500Y-95388401D01*
X143339501Y-95388402D01*
X143354760Y-95465118D01*
X143383561Y-95508222D01*
X143395787Y-95558187D01*
X143383561Y-95591778D01*
X143354761Y-95634879D01*
X143354759Y-95634884D01*
X143339500Y-95711597D01*
X143339500Y-95888401D01*
X143339501Y-95888402D01*
X143354760Y-95965118D01*
X143383561Y-96008222D01*
X143395787Y-96058187D01*
X143383561Y-96091778D01*
X143354761Y-96134879D01*
X143354759Y-96134884D01*
X143339500Y-96211597D01*
X143339500Y-96388401D01*
X143339501Y-96388402D01*
X143354760Y-96465118D01*
X143383561Y-96508222D01*
X143395787Y-96558187D01*
X143383561Y-96591778D01*
X143354761Y-96634879D01*
X143354759Y-96634884D01*
X143339500Y-96711597D01*
X143339500Y-96888401D01*
X143339501Y-96888402D01*
X143354760Y-96965118D01*
X143383561Y-97008222D01*
X143395787Y-97058187D01*
X143383561Y-97091778D01*
X143354761Y-97134879D01*
X143354759Y-97134884D01*
X143339500Y-97211597D01*
X143339500Y-97388401D01*
X143339501Y-97388402D01*
X143354760Y-97465118D01*
X143383561Y-97508222D01*
X143395787Y-97558187D01*
X143383561Y-97591778D01*
X143354761Y-97634879D01*
X143354759Y-97634884D01*
X143339500Y-97711597D01*
X143339500Y-97888401D01*
X143339501Y-97888402D01*
X143354760Y-97965118D01*
X143383561Y-98008222D01*
X143395787Y-98058187D01*
X143383561Y-98091778D01*
X143354761Y-98134879D01*
X143354759Y-98134884D01*
X143339500Y-98211597D01*
X143339500Y-98324300D01*
X143321907Y-98372638D01*
X143277358Y-98398358D01*
X143264301Y-98399500D01*
X143151598Y-98399500D01*
X143151597Y-98399501D01*
X143074881Y-98414760D01*
X143031778Y-98443561D01*
X142981813Y-98455787D01*
X142948222Y-98443561D01*
X142905120Y-98414761D01*
X142905115Y-98414759D01*
X142828402Y-98399500D01*
X142651598Y-98399500D01*
X142651597Y-98399501D01*
X142574881Y-98414760D01*
X142531778Y-98443561D01*
X142481813Y-98455787D01*
X142448222Y-98443561D01*
X142405120Y-98414761D01*
X142405115Y-98414759D01*
X142328402Y-98399500D01*
X142151598Y-98399500D01*
X142151597Y-98399501D01*
X142074881Y-98414760D01*
X142031778Y-98443561D01*
X141981813Y-98455787D01*
X141948222Y-98443561D01*
X141905120Y-98414761D01*
X141905115Y-98414759D01*
X141828402Y-98399500D01*
X141651598Y-98399500D01*
X141651597Y-98399501D01*
X141574881Y-98414760D01*
X141531778Y-98443561D01*
X141481813Y-98455787D01*
X141448222Y-98443561D01*
X141405120Y-98414761D01*
X141405115Y-98414759D01*
X141328402Y-98399500D01*
X141151598Y-98399500D01*
X141151597Y-98399501D01*
X141074881Y-98414760D01*
X141031778Y-98443561D01*
X140981813Y-98455787D01*
X140948222Y-98443561D01*
X140905120Y-98414761D01*
X140905115Y-98414759D01*
X140828402Y-98399500D01*
X140651598Y-98399500D01*
X140651597Y-98399501D01*
X140574881Y-98414760D01*
X140531778Y-98443561D01*
X140481813Y-98455787D01*
X140448222Y-98443561D01*
X140405120Y-98414761D01*
X140405115Y-98414759D01*
X140328402Y-98399500D01*
X140151598Y-98399500D01*
X140151597Y-98399501D01*
X140074881Y-98414760D01*
X140031778Y-98443561D01*
X139981813Y-98455787D01*
X139948222Y-98443561D01*
X139905120Y-98414761D01*
X139905115Y-98414759D01*
X139828403Y-98399500D01*
X139715699Y-98399500D01*
X139667361Y-98381907D01*
X139641641Y-98337358D01*
X139640499Y-98324307D01*
X139640499Y-98211600D01*
X139625240Y-98134883D01*
X139596437Y-98091777D01*
X139584212Y-98041812D01*
X139596437Y-98008222D01*
X139625240Y-97965117D01*
X139640500Y-97888401D01*
X139640499Y-97711600D01*
X139625240Y-97634883D01*
X139596437Y-97591777D01*
X139584212Y-97541812D01*
X139596437Y-97508222D01*
X139625240Y-97465117D01*
X139640500Y-97388401D01*
X139640499Y-97211600D01*
X139625240Y-97134883D01*
X139596437Y-97091777D01*
X139584212Y-97041812D01*
X139596437Y-97008222D01*
X139625240Y-96965117D01*
X139640500Y-96888401D01*
X139640499Y-96711600D01*
X139625240Y-96634883D01*
X139596437Y-96591777D01*
X139584212Y-96541812D01*
X139596437Y-96508222D01*
X139625240Y-96465117D01*
X139640500Y-96388401D01*
X139640499Y-96211600D01*
X139625240Y-96134883D01*
X139596437Y-96091777D01*
X139584212Y-96041812D01*
X139596437Y-96008222D01*
X139625240Y-95965117D01*
X139640500Y-95888401D01*
X139640499Y-95711600D01*
X139625240Y-95634883D01*
X139596437Y-95591777D01*
X139584212Y-95541812D01*
X139596437Y-95508222D01*
X139625240Y-95465117D01*
X139640500Y-95388401D01*
X139640499Y-95211600D01*
X139625240Y-95134883D01*
X139596437Y-95091777D01*
X139584212Y-95041812D01*
X139596437Y-95008222D01*
X139625240Y-94965117D01*
X139640500Y-94888401D01*
X139640499Y-94775699D01*
X139658092Y-94727362D01*
X139702640Y-94701642D01*
X139715691Y-94700499D01*
X139828400Y-94700499D01*
X139828402Y-94700499D01*
X139828402Y-94700498D01*
X139905117Y-94685240D01*
X139943423Y-94659645D01*
X139948221Y-94656439D01*
X139998186Y-94644212D01*
X140031779Y-94656439D01*
X140074879Y-94685238D01*
X140074881Y-94685238D01*
X140074883Y-94685240D01*
X140151599Y-94700500D01*
X140328400Y-94700499D01*
X140328401Y-94700499D01*
X140328401Y-94700498D01*
X140405117Y-94685240D01*
X140443423Y-94659645D01*
X140448221Y-94656439D01*
X140498186Y-94644212D01*
X140531779Y-94656439D01*
X140574879Y-94685238D01*
X140574881Y-94685238D01*
X140574883Y-94685240D01*
X140651599Y-94700500D01*
X140828400Y-94700499D01*
X140828401Y-94700499D01*
X140828401Y-94700498D01*
X140905117Y-94685240D01*
X140943423Y-94659645D01*
X140948221Y-94656439D01*
X140998186Y-94644212D01*
X141031779Y-94656439D01*
X141074879Y-94685238D01*
X141074881Y-94685238D01*
X141074883Y-94685240D01*
X141151599Y-94700500D01*
X141328400Y-94700499D01*
X141328401Y-94700499D01*
X141328401Y-94700498D01*
X141405117Y-94685240D01*
X141443423Y-94659645D01*
X141448221Y-94656439D01*
X141498186Y-94644212D01*
X141531779Y-94656439D01*
X141574879Y-94685238D01*
X141574881Y-94685238D01*
X141574883Y-94685240D01*
X141651599Y-94700500D01*
X141828400Y-94700499D01*
X141828401Y-94700499D01*
X141828401Y-94700498D01*
X141905117Y-94685240D01*
X141943423Y-94659645D01*
X141948221Y-94656439D01*
X141998186Y-94644212D01*
X142031779Y-94656439D01*
X142074879Y-94685238D01*
X142074881Y-94685238D01*
X142074883Y-94685240D01*
X142151599Y-94700500D01*
X142328400Y-94700499D01*
X142328401Y-94700499D01*
X142328401Y-94700498D01*
X142405117Y-94685240D01*
X142443423Y-94659645D01*
X142448221Y-94656439D01*
X142498186Y-94644212D01*
X142531779Y-94656439D01*
X142574879Y-94685238D01*
X142574881Y-94685238D01*
X142574883Y-94685240D01*
X142651599Y-94700500D01*
X142828400Y-94700499D01*
X142828401Y-94700499D01*
X142828401Y-94700498D01*
X142905117Y-94685240D01*
X142943423Y-94659645D01*
X142948221Y-94656439D01*
X142998186Y-94644212D01*
X143031779Y-94656439D01*
G37*
%TD.AperFunction*%
%TA.AperFunction,Conductor*%
G36*
X148813138Y-95437593D02*
G01*
X148838858Y-95482142D01*
X148840000Y-95495200D01*
X148840000Y-96044300D01*
X148822407Y-96092638D01*
X148777858Y-96118358D01*
X148764800Y-96119500D01*
X148415200Y-96119500D01*
X148366862Y-96101907D01*
X148341142Y-96057358D01*
X148340000Y-96044300D01*
X148340000Y-95495200D01*
X148357593Y-95446862D01*
X148402142Y-95421142D01*
X148415200Y-95420000D01*
X148764800Y-95420000D01*
X148813138Y-95437593D01*
G37*
%TD.AperFunction*%
%TA.AperFunction,Conductor*%
G36*
X146495953Y-83947509D02*
G01*
X146514586Y-83961133D01*
X147553874Y-85000421D01*
X147575614Y-85047041D01*
X147575900Y-85053595D01*
X147575900Y-85548005D01*
X147558307Y-85596343D01*
X147513758Y-85622063D01*
X147463100Y-85613130D01*
X147447526Y-85601179D01*
X146500900Y-84654553D01*
X146500900Y-85478600D01*
X146483307Y-85526938D01*
X146438758Y-85552658D01*
X146425700Y-85553800D01*
X146324200Y-85553800D01*
X146324200Y-88263000D01*
X150845400Y-88271600D01*
X150845400Y-88271599D01*
X150857261Y-88271622D01*
X150881646Y-88260280D01*
X150888129Y-88260000D01*
X150957220Y-88260000D01*
X151005558Y-88277593D01*
X151022345Y-88297600D01*
X151081975Y-88400882D01*
X151080824Y-88401546D01*
X151094564Y-88445142D01*
X151093232Y-88456318D01*
X151090414Y-88470694D01*
X151086957Y-88482826D01*
X151060008Y-88554092D01*
X151045648Y-88592064D01*
X151040213Y-88603443D01*
X151011367Y-88652737D01*
X150981224Y-88704244D01*
X150973962Y-88714558D01*
X150897033Y-88806370D01*
X150892566Y-88811247D01*
X150076773Y-89627041D01*
X150056047Y-89641706D01*
X149506972Y-89904329D01*
X149497837Y-89907985D01*
X149106207Y-90035690D01*
X149102853Y-90036555D01*
X149100109Y-90037464D01*
X149100108Y-90037465D01*
X149082962Y-90043151D01*
X149061713Y-90050198D01*
X149061358Y-90050314D01*
X149019982Y-90063807D01*
X149016735Y-90065115D01*
X148798177Y-90137600D01*
X148746759Y-90136117D01*
X148708323Y-90101930D01*
X148700855Y-90051035D01*
X148701867Y-90046759D01*
X148736342Y-89918097D01*
X148738036Y-89756402D01*
X148701721Y-89608560D01*
X148701720Y-89608560D01*
X148005000Y-90010814D01*
X147308276Y-90413065D01*
X147308276Y-90413066D01*
X147418157Y-90518438D01*
X147418158Y-90518439D01*
X147458377Y-90541101D01*
X147491853Y-90580158D01*
X147492393Y-90631595D01*
X147459742Y-90671345D01*
X147452395Y-90675160D01*
X147424825Y-90687602D01*
X147373529Y-90691450D01*
X147346621Y-90677544D01*
X147323930Y-90659204D01*
X147323929Y-90659203D01*
X147214789Y-90619480D01*
X147214791Y-90619480D01*
X147098671Y-90617346D01*
X147098669Y-90617346D01*
X147033203Y-90637000D01*
X147033200Y-90637001D01*
X146705970Y-90789591D01*
X146648832Y-90827110D01*
X146575825Y-90917435D01*
X146575824Y-90917436D01*
X146537461Y-91022839D01*
X146504396Y-91062244D01*
X146453737Y-91071177D01*
X146441076Y-91067784D01*
X146335671Y-91029420D01*
X146335673Y-91029420D01*
X146219553Y-91027286D01*
X146219551Y-91027286D01*
X146154085Y-91046940D01*
X146154082Y-91046941D01*
X145826852Y-91199531D01*
X145769714Y-91237050D01*
X145696707Y-91327375D01*
X145696706Y-91327376D01*
X145656983Y-91436516D01*
X145656811Y-91445888D01*
X145638332Y-91493894D01*
X145611873Y-91513353D01*
X145545381Y-91542567D01*
X145537591Y-91545453D01*
X145501633Y-91561784D01*
X145500790Y-91562160D01*
X145488731Y-91567459D01*
X145437399Y-91570798D01*
X145395931Y-91540361D01*
X145383729Y-91490389D01*
X145385840Y-91479150D01*
X145402592Y-91416629D01*
X145404286Y-91254933D01*
X145367971Y-91107091D01*
X145367970Y-91107091D01*
X144671250Y-91509345D01*
X143974526Y-91911596D01*
X143974526Y-91911597D01*
X144084407Y-92016969D01*
X144084408Y-92016970D01*
X144217118Y-92091747D01*
X144250594Y-92130804D01*
X144251134Y-92182241D01*
X144233378Y-92210437D01*
X144198207Y-92245609D01*
X144168837Y-92274980D01*
X144168836Y-92274980D01*
X143335086Y-93108729D01*
X143335086Y-93108730D01*
X143299751Y-93144064D01*
X143299750Y-93144063D01*
X143228460Y-93215353D01*
X143228453Y-93215361D01*
X143109916Y-93378513D01*
X143044529Y-93506840D01*
X143006908Y-93541921D01*
X142955539Y-93544613D01*
X142935748Y-93535226D01*
X142905120Y-93514761D01*
X142905115Y-93514759D01*
X142828402Y-93499500D01*
X142651598Y-93499500D01*
X142651597Y-93499501D01*
X142610370Y-93507701D01*
X142559528Y-93499875D01*
X142525613Y-93461200D01*
X142520500Y-93433946D01*
X142520500Y-92775669D01*
X142538093Y-92727331D01*
X142542526Y-92722494D01*
X142645520Y-92619500D01*
X142774455Y-92490566D01*
X142775174Y-92489319D01*
X142778375Y-92483779D01*
X142798851Y-92448310D01*
X142811384Y-92426603D01*
X142825091Y-92375448D01*
X142830500Y-92355263D01*
X142830500Y-92281405D01*
X142830500Y-91773849D01*
X142848093Y-91725511D01*
X142892642Y-91699791D01*
X142905700Y-91698649D01*
X143040905Y-91698649D01*
X143040908Y-91698649D01*
X143193635Y-91657726D01*
X143330567Y-91578669D01*
X143442371Y-91466865D01*
X143521428Y-91329933D01*
X143540939Y-91257114D01*
X143570442Y-91214979D01*
X143620129Y-91201665D01*
X143666750Y-91223404D01*
X143688490Y-91270024D01*
X143688772Y-91277366D01*
X143688213Y-91330743D01*
X143724527Y-91478585D01*
X143724528Y-91478585D01*
X144204743Y-91201332D01*
X144204744Y-91201331D01*
X143940347Y-90743385D01*
X143923061Y-90755267D01*
X143811139Y-90871976D01*
X143731759Y-91012855D01*
X143710189Y-91093356D01*
X143680684Y-91135493D01*
X143630997Y-91148807D01*
X143584376Y-91127067D01*
X143562637Y-91080447D01*
X143562351Y-91073893D01*
X143562351Y-91019094D01*
X143562351Y-91019092D01*
X143521428Y-90866365D01*
X143516019Y-90856997D01*
X143504721Y-90837427D01*
X143442371Y-90729433D01*
X143442369Y-90729431D01*
X143442367Y-90729428D01*
X143330571Y-90617632D01*
X143330565Y-90617628D01*
X143330078Y-90617347D01*
X143243448Y-90567331D01*
X143193636Y-90538572D01*
X143118497Y-90518439D01*
X143040908Y-90497649D01*
X142882794Y-90497649D01*
X142805205Y-90518439D01*
X142730065Y-90538572D01*
X142593136Y-90617628D01*
X142593130Y-90617632D01*
X142481334Y-90729428D01*
X142481330Y-90729434D01*
X142402274Y-90866363D01*
X142383385Y-90936860D01*
X142361351Y-91019092D01*
X142361351Y-91177206D01*
X142367333Y-91199531D01*
X142376478Y-91233662D01*
X142371994Y-91284906D01*
X142357014Y-91306298D01*
X142325547Y-91337764D01*
X142325545Y-91337767D01*
X142322243Y-91343486D01*
X142299053Y-91383655D01*
X142299051Y-91383658D01*
X142299049Y-91383660D01*
X142289326Y-91400500D01*
X142249921Y-91433564D01*
X142198481Y-91433563D01*
X142159076Y-91400498D01*
X142149787Y-91373739D01*
X142143523Y-91330743D01*
X142142791Y-91325714D01*
X142089949Y-91217625D01*
X142089947Y-91217623D01*
X142089947Y-91217622D01*
X142004877Y-91132552D01*
X141917672Y-91089919D01*
X141881973Y-91052883D01*
X141875500Y-91022360D01*
X141875500Y-90885574D01*
X141875500Y-90885572D01*
X141856384Y-90814231D01*
X141852819Y-90808057D01*
X141842158Y-90789591D01*
X141819456Y-90750269D01*
X141767231Y-90698044D01*
X141767230Y-90698043D01*
X141712526Y-90643339D01*
X141690786Y-90596719D01*
X141690500Y-90590165D01*
X141690500Y-90493386D01*
X144373360Y-90493386D01*
X144637755Y-90951332D01*
X144637756Y-90951333D01*
X145117972Y-90674079D01*
X145008093Y-90568709D01*
X144867214Y-90489329D01*
X144711021Y-90447477D01*
X144549326Y-90445783D01*
X144392302Y-90484352D01*
X144392296Y-90484354D01*
X144373360Y-90493386D01*
X141690500Y-90493386D01*
X141690500Y-90261259D01*
X141690499Y-90261249D01*
X141683813Y-90215358D01*
X141680932Y-90195586D01*
X141691372Y-90145218D01*
X141717069Y-90120016D01*
X141739640Y-90106668D01*
X141739650Y-90106660D01*
X141856658Y-89989652D01*
X141856664Y-89989645D01*
X141940907Y-89847197D01*
X141945261Y-89832212D01*
X147021963Y-89832212D01*
X147058277Y-89980054D01*
X147058278Y-89980054D01*
X147538493Y-89702801D01*
X147538494Y-89702800D01*
X147274097Y-89244854D01*
X147256811Y-89256736D01*
X147144889Y-89373445D01*
X147065509Y-89514324D01*
X147023657Y-89670517D01*
X147021963Y-89832212D01*
X141945261Y-89832212D01*
X141950212Y-89815172D01*
X141987077Y-89688281D01*
X141987079Y-89688270D01*
X141989999Y-89651157D01*
X141990000Y-89651148D01*
X141990000Y-89622500D01*
X140507436Y-89622500D01*
X140486605Y-89632214D01*
X140480051Y-89632500D01*
X138820000Y-89632500D01*
X138820000Y-89661157D01*
X138822920Y-89698270D01*
X138822922Y-89698281D01*
X138869092Y-89857197D01*
X138953335Y-89999645D01*
X138953341Y-89999652D01*
X139070353Y-90116664D01*
X139092932Y-90130016D01*
X139125583Y-90169765D01*
X139129067Y-90205586D01*
X139119501Y-90271245D01*
X139119500Y-90271259D01*
X139119500Y-90763752D01*
X139129566Y-90832839D01*
X139165539Y-90906421D01*
X139180423Y-90936867D01*
X139181677Y-90939431D01*
X139265568Y-91023322D01*
X139265569Y-91023322D01*
X139265571Y-91023324D01*
X139372160Y-91075433D01*
X139441258Y-91085500D01*
X139770165Y-91085500D01*
X139818503Y-91103093D01*
X139823340Y-91107526D01*
X139876406Y-91160593D01*
X139898145Y-91207214D01*
X139890790Y-91246794D01*
X139852209Y-91325711D01*
X139852209Y-91325714D01*
X139848414Y-91351758D01*
X139824035Y-91397054D01*
X139776243Y-91416082D01*
X139727402Y-91399938D01*
X139720826Y-91394089D01*
X139666220Y-91339483D01*
X139666214Y-91339479D01*
X139659864Y-91335813D01*
X139608743Y-91306298D01*
X139529285Y-91260423D01*
X139502355Y-91253207D01*
X139376557Y-91219500D01*
X139218443Y-91219500D01*
X139126806Y-91244053D01*
X139065714Y-91260423D01*
X138928785Y-91339479D01*
X138928779Y-91339483D01*
X138816983Y-91451279D01*
X138816979Y-91451285D01*
X138737923Y-91588214D01*
X138724301Y-91639054D01*
X138697000Y-91740943D01*
X138697000Y-91899057D01*
X138721478Y-91990409D01*
X138737923Y-92051785D01*
X138816979Y-92188714D01*
X138816983Y-92188720D01*
X138874707Y-92246444D01*
X138896447Y-92293064D01*
X138883133Y-92342751D01*
X138874707Y-92352792D01*
X138867500Y-92359999D01*
X138867500Y-93094800D01*
X138849907Y-93143138D01*
X138805358Y-93168858D01*
X138792300Y-93170000D01*
X138442700Y-93170000D01*
X138394362Y-93152407D01*
X138368642Y-93107858D01*
X138367500Y-93094800D01*
X138367500Y-92360000D01*
X138338842Y-92360000D01*
X138301725Y-92362921D01*
X138301723Y-92362921D01*
X138279684Y-92369324D01*
X138228357Y-92365913D01*
X138191231Y-92330308D01*
X138183506Y-92297109D01*
X138183506Y-90539879D01*
X138182799Y-90537241D01*
X138182942Y-90535598D01*
X138182863Y-90534994D01*
X138182997Y-90534976D01*
X138187281Y-90485997D01*
X138190305Y-90480186D01*
X138235372Y-90402129D01*
X138261568Y-90336341D01*
X138269850Y-90216312D01*
X138238711Y-90100099D01*
X138214280Y-90063807D01*
X138171524Y-90000292D01*
X138115949Y-89956417D01*
X138115944Y-89956414D01*
X137779555Y-89762201D01*
X137779556Y-89762201D01*
X137713770Y-89736007D01*
X137713765Y-89736005D01*
X137593740Y-89727724D01*
X137593739Y-89727724D01*
X137593738Y-89727724D01*
X137535631Y-89743293D01*
X137477523Y-89758863D01*
X137377718Y-89826049D01*
X137333843Y-89881624D01*
X137333840Y-89881629D01*
X137102127Y-90282970D01*
X137075933Y-90348755D01*
X137075931Y-90348760D01*
X137068564Y-90455535D01*
X137067650Y-90468788D01*
X137086699Y-90539879D01*
X137098789Y-90585002D01*
X137143279Y-90651092D01*
X137155678Y-90701015D01*
X137133085Y-90747228D01*
X137086074Y-90768108D01*
X137075721Y-90768108D01*
X136996240Y-90762624D01*
X136996239Y-90762624D01*
X136996238Y-90762624D01*
X136938131Y-90778193D01*
X136880023Y-90793763D01*
X136780218Y-90860949D01*
X136736343Y-90916524D01*
X136736340Y-90916529D01*
X136504627Y-91317870D01*
X136478433Y-91383655D01*
X136478432Y-91383658D01*
X136470149Y-91503687D01*
X136470150Y-91503689D01*
X136475433Y-91523409D01*
X136470948Y-91574653D01*
X136455969Y-91596043D01*
X136307478Y-91744534D01*
X136292419Y-91754978D01*
X136292693Y-91755384D01*
X136187716Y-91826050D01*
X136143839Y-91881628D01*
X135887127Y-92326270D01*
X135860933Y-92392055D01*
X135860931Y-92392060D01*
X135852729Y-92510943D01*
X135852650Y-92512088D01*
X135883061Y-92625584D01*
X135883561Y-92627450D01*
X135879077Y-92678694D01*
X135842703Y-92715068D01*
X135830387Y-92719550D01*
X135715025Y-92750462D01*
X135615221Y-92817647D01*
X135610936Y-92821619D01*
X135610621Y-92821279D01*
X135594660Y-92835080D01*
X135525033Y-92875279D01*
X135413233Y-92987079D01*
X135413229Y-92987085D01*
X135334173Y-93124014D01*
X135317515Y-93186186D01*
X135293250Y-93276743D01*
X135293250Y-93276745D01*
X135293250Y-93357137D01*
X135289276Y-93377861D01*
X135289729Y-93377965D01*
X135288431Y-93383660D01*
X135280500Y-93498616D01*
X135280150Y-93503688D01*
X135299514Y-93575955D01*
X135311289Y-93619903D01*
X135378474Y-93719707D01*
X135378475Y-93719708D01*
X135378476Y-93719709D01*
X135434055Y-93763585D01*
X135468650Y-93783558D01*
X135484217Y-93795503D01*
X135525034Y-93836320D01*
X135661966Y-93915377D01*
X135717716Y-93930314D01*
X135735851Y-93937826D01*
X135739615Y-93939999D01*
X135770445Y-93957799D01*
X135836233Y-93983995D01*
X135954934Y-93992185D01*
X136001946Y-94013064D01*
X136024539Y-94059277D01*
X136012141Y-94109201D01*
X136002932Y-94120381D01*
X135615840Y-94507474D01*
X135569220Y-94529214D01*
X135562666Y-94529500D01*
X134733072Y-94529500D01*
X134694412Y-94539859D01*
X134661729Y-94548616D01*
X134627419Y-94568426D01*
X134623196Y-94570864D01*
X134615256Y-94575448D01*
X134597766Y-94585545D01*
X134594978Y-94587685D01*
X134545917Y-94603147D01*
X134498395Y-94583456D01*
X134474648Y-94537826D01*
X134477801Y-94504435D01*
X134482350Y-94490665D01*
X134483565Y-94487270D01*
X134773846Y-93734744D01*
X134775239Y-93731381D01*
X135102098Y-92993998D01*
X135103659Y-92990698D01*
X135466281Y-92270294D01*
X135468013Y-92267053D01*
X135491645Y-92225337D01*
X135865563Y-91565278D01*
X135867438Y-91562150D01*
X136298949Y-90880720D01*
X136300964Y-90877705D01*
X136765396Y-90218262D01*
X136767550Y-90215358D01*
X137263787Y-89579487D01*
X137266082Y-89576691D01*
X137673965Y-89103842D01*
X138820000Y-89103842D01*
X138820000Y-89132500D01*
X139380000Y-89132500D01*
X139380000Y-88517270D01*
X139880000Y-88517270D01*
X139880000Y-89132500D01*
X140302564Y-89132500D01*
X140323395Y-89122786D01*
X140329949Y-89122500D01*
X140930000Y-89122500D01*
X141430000Y-89122500D01*
X141990000Y-89122500D01*
X141990000Y-89093851D01*
X141989999Y-89093842D01*
X141987079Y-89056729D01*
X141987077Y-89056718D01*
X141977847Y-89024948D01*
X141969104Y-88994855D01*
X147707110Y-88994855D01*
X147971505Y-89452801D01*
X147971506Y-89452802D01*
X148451722Y-89175548D01*
X148341843Y-89070178D01*
X148200964Y-88990798D01*
X148044771Y-88948946D01*
X147883076Y-88947252D01*
X147726052Y-88985821D01*
X147726046Y-88985823D01*
X147707110Y-88994855D01*
X141969104Y-88994855D01*
X141940907Y-88897802D01*
X141856664Y-88755354D01*
X141856658Y-88755347D01*
X141739652Y-88638341D01*
X141739645Y-88638335D01*
X141597197Y-88554092D01*
X141438284Y-88507923D01*
X141438279Y-88507922D01*
X141430000Y-88507270D01*
X141430000Y-89122500D01*
X140930000Y-89122500D01*
X140930000Y-88507270D01*
X140921720Y-88507922D01*
X140921715Y-88507923D01*
X140762802Y-88554092D01*
X140620354Y-88638335D01*
X140620347Y-88638341D01*
X140503341Y-88755347D01*
X140503333Y-88755357D01*
X140466769Y-88817183D01*
X140427019Y-88849833D01*
X140375582Y-88849293D01*
X140337314Y-88817181D01*
X140306666Y-88765357D01*
X140306658Y-88765347D01*
X140189652Y-88648341D01*
X140189645Y-88648335D01*
X140047197Y-88564092D01*
X139888284Y-88517923D01*
X139888279Y-88517922D01*
X139880000Y-88517270D01*
X139380000Y-88517270D01*
X139371720Y-88517922D01*
X139371715Y-88517923D01*
X139212802Y-88564092D01*
X139070354Y-88648335D01*
X139070347Y-88648341D01*
X138953341Y-88765347D01*
X138953335Y-88765354D01*
X138869092Y-88907802D01*
X138822922Y-89066718D01*
X138822920Y-89066729D01*
X138820000Y-89103842D01*
X137673965Y-89103842D01*
X137792937Y-88965920D01*
X137795362Y-88963245D01*
X138351504Y-88379111D01*
X138354113Y-88376503D01*
X138377782Y-88353968D01*
X138938245Y-87820362D01*
X138940920Y-87817937D01*
X139551691Y-87291082D01*
X139554487Y-87288787D01*
X140190358Y-86792550D01*
X140193262Y-86790396D01*
X140852705Y-86325964D01*
X140855720Y-86323949D01*
X141537150Y-85892438D01*
X141540278Y-85890563D01*
X142242066Y-85493006D01*
X142245294Y-85491281D01*
X142965698Y-85128659D01*
X142968998Y-85127098D01*
X143706381Y-84800239D01*
X143709744Y-84798846D01*
X144462250Y-84508572D01*
X144465663Y-84507351D01*
X145231549Y-84254337D01*
X145235023Y-84253283D01*
X146012364Y-84038164D01*
X146015891Y-84037280D01*
X146444939Y-83940934D01*
X146495953Y-83947509D01*
G37*
%TD.AperFunction*%
%TD*%
%TA.AperFunction,Conductor*%
%TO.N,GND*%
G36*
X146500900Y-85542300D02*
G01*
X146497532Y-85550432D01*
X146489400Y-85553800D01*
X146425700Y-85553800D01*
X146438758Y-85552658D01*
X146483307Y-85526938D01*
X146500900Y-85478600D01*
X146500900Y-85542300D01*
G37*
%TD.AperFunction*%
%TD*%
M02*
