%TF.GenerationSoftware,KiCad,Pcbnew,10.0.6*%
%TF.CreationDate,2026-09-26T10:38:17+05:30*%
%TF.ProjectId,electrophy_2,656c6563-7472-46f7-9068-795f322e6b69,rev?*%
%TF.SameCoordinates,Original*%
%TF.FileFunction,Copper,L2,Inr*%
%TF.FilePolarity,Positive*%
%FSLAX46Y46*%
G04 Gerber Fmt 4.6, Leading zero omitted, Abs format (unit mm)*
G04 Created by KiCad (PCBNEW 10.0.6) date 2026-09-26 10:38:17*
%MOMM*%
%LPD*%
G01*
G04 APERTURE LIST*
G04 Aperture macros list*
%AMHorizOval*
0 Thick line with rounded ends*
0 $1 width*
0 $2 $3 position (X,Y) of the first rounded end (center of the circle)*
0 $4 $5 position (X,Y) of the second rounded end (center of the circle)*
0 Add line between two ends*
20,1,$1,$2,$3,$4,$5,0*
0 Add two circle primitives to create the rounded ends*
1,1,$1,$2,$3*
1,1,$1,$4,$5*%
G04 Aperture macros list end*
%TA.AperFunction,ComponentPad*%
%ADD10HorizOval,1.000000X-0.388909X-0.388909X0.388909X0.388909X0*%
%TD*%
%TA.AperFunction,ComponentPad*%
%ADD11HorizOval,1.000000X-0.212132X-0.212132X0.212132X0.212132X0*%
%TD*%
%TA.AperFunction,ComponentPad*%
%ADD12C,0.700000*%
%TD*%
%TA.AperFunction,ComponentPad*%
%ADD13C,4.400000*%
%TD*%
%TA.AperFunction,ViaPad*%
%ADD14C,0.800000*%
%TD*%
G04 APERTURE END LIST*
D10*
%TO.N,GND*%
%TO.C,J1*%
X140126303Y-103894891D03*
D11*
X137170597Y-106850597D03*
D10*
X146235706Y-110004294D03*
D11*
X143280000Y-112960000D03*
%TD*%
D12*
%TO.N,N/C*%
%TO.C,H1*%
X148400000Y-115025000D03*
X148883274Y-113858274D03*
X148883274Y-116191726D03*
X150050000Y-113375000D03*
D13*
X150050000Y-115025000D03*
D12*
X150050000Y-116675000D03*
X151216726Y-113858274D03*
X151216726Y-116191726D03*
X151700000Y-115025000D03*
%TD*%
D14*
%TO.N,*%
X163200000Y-97840000D03*
X163710000Y-104180000D03*
X153140000Y-99130000D03*
X152870000Y-104040000D03*
X153257600Y-98136936D03*
X158170000Y-94800000D03*
%TO.N,GND*%
X145740000Y-90710000D03*
X154250000Y-87250000D03*
X161200000Y-104250000D03*
X143950000Y-88610000D03*
X150370000Y-88720000D03*
X153250000Y-88750000D03*
X151840000Y-89690000D03*
X146750000Y-90250000D03*
X151433593Y-106445000D03*
X141490000Y-96540000D03*
X145840000Y-87550000D03*
X144790000Y-89440000D03*
X142860000Y-108420000D03*
X146250000Y-88750000D03*
X145780000Y-85030000D03*
X154250000Y-86250000D03*
X145037817Y-93255544D03*
X145800000Y-86300000D03*
X146793270Y-94055770D03*
X150384130Y-109855196D03*
X147241600Y-104539999D03*
X148000000Y-91750000D03*
X154014000Y-88040000D03*
X153202308Y-90419358D03*
X147250000Y-92250000D03*
X149100000Y-91490000D03*
X143320000Y-87650000D03*
X143160000Y-90100000D03*
X161070000Y-100910000D03*
X148910000Y-89110000D03*
X143770000Y-91970000D03*
X154210000Y-84930000D03*
X159460000Y-111400000D03*
X149900000Y-91020000D03*
X146000000Y-92750000D03*
X151190000Y-90320000D03*
X152470000Y-112490000D03*
X143150000Y-92680000D03*
X142790000Y-89160000D03*
X160948154Y-94528153D03*
X147630000Y-88720000D03*
X152440000Y-88800000D03*
%TO.N,+3.3V*%
X150220000Y-102130000D03*
X142961851Y-91098149D03*
X137502496Y-101880000D03*
X145702500Y-94100000D03*
X154760000Y-101620000D03*
X137482500Y-93170000D03*
X137872708Y-95620000D03*
X147460000Y-111230000D03*
X139297500Y-91820000D03*
X154630000Y-92080000D03*
%TO.N,BAT_V*%
X151467500Y-110900000D03*
X154990000Y-105840000D03*
X163150000Y-107957500D03*
X147241600Y-105540002D03*
X139860000Y-107500000D03*
%TO.N,Net-(BAT1-Pin_1)*%
X155772500Y-110190000D03*
X153656235Y-107573765D03*
%TO.N,POWER_HOLD*%
X149980000Y-103230000D03*
X155950000Y-103230000D03*
%TO.N,SCL*%
X151480000Y-91560000D03*
X157356052Y-90936052D03*
X140260000Y-92590000D03*
%TO.N,SCLK*%
X136977327Y-94592051D03*
X149451378Y-97158622D03*
%TO.N,CS*%
X151580000Y-97870000D03*
X134820000Y-95920000D03*
%TO.N,MOSI*%
X148140833Y-97229167D03*
X137220000Y-96687554D03*
%TO.N,MISO*%
X137190000Y-97790000D03*
X147152020Y-97080000D03*
%TO.N,Net-(IC1-GPIO8)*%
X135500000Y-97058019D03*
X135893750Y-93355800D03*
%TO.N,SDA*%
X138260882Y-99370000D03*
%TO.N,INT1*%
X138471290Y-100870000D03*
X148090000Y-101690000D03*
%TO.N,Net-(J1-CC1)*%
X141610000Y-106690000D03*
X147500000Y-108390000D03*
%TD*%
%TA.AperFunction,Conductor*%
%TO.N,GND*%
G36*
X153705672Y-83963527D02*
G01*
X154034089Y-84037276D01*
X154037644Y-84038166D01*
X154814964Y-84253280D01*
X154818461Y-84254340D01*
X155584323Y-84507346D01*
X155587762Y-84508577D01*
X156340240Y-84798841D01*
X156343632Y-84800245D01*
X157080983Y-85127090D01*
X157084320Y-85128669D01*
X157804691Y-85491274D01*
X157807946Y-85493013D01*
X158509702Y-85890552D01*
X158512868Y-85892450D01*
X159194252Y-86323932D01*
X159197313Y-86325977D01*
X159856717Y-86790382D01*
X159859670Y-86792572D01*
X160495482Y-87288764D01*
X160498336Y-87291106D01*
X161109049Y-87817911D01*
X161111783Y-87820390D01*
X161695886Y-88376503D01*
X161698496Y-88379113D01*
X162254609Y-88963216D01*
X162257088Y-88965950D01*
X162783893Y-89576663D01*
X162786235Y-89579517D01*
X163282427Y-90215329D01*
X163284622Y-90218289D01*
X163510191Y-90538572D01*
X163749016Y-90877678D01*
X163751067Y-90880747D01*
X164182549Y-91562131D01*
X164184447Y-91565297D01*
X164581986Y-92267053D01*
X164583725Y-92270308D01*
X164946330Y-92990679D01*
X164947909Y-92994016D01*
X165274750Y-93731358D01*
X165276162Y-93734768D01*
X165566415Y-94487219D01*
X165567659Y-94490694D01*
X165820653Y-95256520D01*
X165821724Y-95260052D01*
X166036829Y-96037342D01*
X166037726Y-96040923D01*
X166214434Y-96827841D01*
X166215154Y-96831461D01*
X166353039Y-97626110D01*
X166353580Y-97629761D01*
X166452304Y-98430192D01*
X166452666Y-98433865D01*
X166511998Y-99238200D01*
X166512179Y-99241887D01*
X166524965Y-99762735D01*
X166508563Y-99811489D01*
X166464660Y-99838295D01*
X166413798Y-99830608D01*
X166379776Y-99792026D01*
X166375514Y-99776344D01*
X166373360Y-99762742D01*
X166370696Y-99745925D01*
X166302342Y-99535552D01*
X166201920Y-99338463D01*
X166195928Y-99330216D01*
X166107901Y-99209057D01*
X166071902Y-99159509D01*
X166071900Y-99159507D01*
X166071893Y-99159499D01*
X165915500Y-99003106D01*
X165915492Y-99003099D01*
X165912995Y-99001285D01*
X165771134Y-98898216D01*
X165736538Y-98873080D01*
X165539447Y-98772657D01*
X165329079Y-98704305D01*
X165329067Y-98704302D01*
X165110601Y-98669700D01*
X165110599Y-98669700D01*
X164889401Y-98669700D01*
X164889398Y-98669700D01*
X164670932Y-98704302D01*
X164670920Y-98704305D01*
X164460552Y-98772657D01*
X164263461Y-98873080D01*
X164084507Y-99003099D01*
X164084499Y-99003106D01*
X163928106Y-99159499D01*
X163928099Y-99159507D01*
X163798080Y-99338461D01*
X163697657Y-99535552D01*
X163629305Y-99745920D01*
X163629302Y-99745932D01*
X163594700Y-99964398D01*
X163594700Y-100185601D01*
X163629302Y-100404067D01*
X163629305Y-100404079D01*
X163697657Y-100614447D01*
X163798080Y-100811538D01*
X163928099Y-100990492D01*
X163928106Y-100990500D01*
X164084499Y-101146893D01*
X164084507Y-101146900D01*
X164084509Y-101146902D01*
X164170639Y-101209479D01*
X164263461Y-101276919D01*
X164275227Y-101282914D01*
X164460552Y-101377342D01*
X164670925Y-101445696D01*
X164889401Y-101480300D01*
X164889405Y-101480300D01*
X165110595Y-101480300D01*
X165110599Y-101480300D01*
X165329075Y-101445696D01*
X165539448Y-101377342D01*
X165736537Y-101276920D01*
X165915491Y-101146902D01*
X166071902Y-100990491D01*
X166201920Y-100811537D01*
X166302342Y-100614448D01*
X166370696Y-100404075D01*
X166374061Y-100382827D01*
X166398998Y-100337837D01*
X166447021Y-100319401D01*
X166495658Y-100336147D01*
X166522153Y-100380239D01*
X166523512Y-100396435D01*
X166512179Y-100858112D01*
X166511998Y-100861799D01*
X166452666Y-101666134D01*
X166452304Y-101669807D01*
X166353580Y-102470238D01*
X166353039Y-102473889D01*
X166215154Y-103268538D01*
X166214434Y-103272158D01*
X166037726Y-104059076D01*
X166036829Y-104062657D01*
X165821724Y-104839947D01*
X165820653Y-104843479D01*
X165567659Y-105609305D01*
X165566415Y-105612780D01*
X165276162Y-106365231D01*
X165274750Y-106368641D01*
X164947909Y-107105983D01*
X164946330Y-107109320D01*
X164583725Y-107829691D01*
X164581986Y-107832946D01*
X164184447Y-108534702D01*
X164182549Y-108537868D01*
X163751067Y-109219252D01*
X163749016Y-109222321D01*
X163284625Y-109881706D01*
X163282427Y-109884670D01*
X162786235Y-110520482D01*
X162783893Y-110523336D01*
X162257088Y-111134049D01*
X162254609Y-111136783D01*
X161698496Y-111720886D01*
X161695886Y-111723496D01*
X161111783Y-112279609D01*
X161109049Y-112282088D01*
X160498336Y-112808893D01*
X160495482Y-112811235D01*
X159859670Y-113307427D01*
X159856706Y-113309625D01*
X159197321Y-113774016D01*
X159194252Y-113776067D01*
X158512868Y-114207549D01*
X158509702Y-114209447D01*
X157807946Y-114606986D01*
X157804691Y-114608725D01*
X157084320Y-114971330D01*
X157080983Y-114972909D01*
X156343641Y-115299750D01*
X156340231Y-115301162D01*
X155587780Y-115591415D01*
X155584305Y-115592659D01*
X154818479Y-115845653D01*
X154814947Y-115846724D01*
X154037657Y-116061829D01*
X154034076Y-116062726D01*
X153247158Y-116239434D01*
X153243538Y-116240154D01*
X152448889Y-116378039D01*
X152445238Y-116378580D01*
X152157117Y-116414116D01*
X152106989Y-116402572D01*
X152076010Y-116361507D01*
X152078674Y-116310137D01*
X152084234Y-116299479D01*
X152154284Y-116187997D01*
X152271267Y-115945079D01*
X152360316Y-115690591D01*
X152420312Y-115427732D01*
X152450500Y-115159809D01*
X152450500Y-114890191D01*
X152420312Y-114622268D01*
X152360316Y-114359409D01*
X152271267Y-114104921D01*
X152154284Y-113862003D01*
X152010838Y-113633711D01*
X151842734Y-113422915D01*
X151652085Y-113232266D01*
X151441289Y-113064162D01*
X151212997Y-112920716D01*
X150970079Y-112803733D01*
X150715591Y-112714684D01*
X150452732Y-112654688D01*
X150452728Y-112654687D01*
X150452726Y-112654687D01*
X150294719Y-112636884D01*
X150184809Y-112624500D01*
X149915191Y-112624500D01*
X149823988Y-112634776D01*
X149647273Y-112654687D01*
X149647269Y-112654687D01*
X149647268Y-112654688D01*
X149412064Y-112708372D01*
X149384405Y-112714685D01*
X149384404Y-112714685D01*
X149176704Y-112787363D01*
X149129921Y-112803733D01*
X148887003Y-112920716D01*
X148824485Y-112959999D01*
X148658706Y-113064165D01*
X148447917Y-113232264D01*
X148447911Y-113232269D01*
X148257269Y-113422911D01*
X148257264Y-113422917D01*
X148089165Y-113633706D01*
X148089162Y-113633711D01*
X147945716Y-113862003D01*
X147845448Y-114070213D01*
X147828735Y-114104917D01*
X147828731Y-114104927D01*
X147739685Y-114359404D01*
X147739685Y-114359405D01*
X147679687Y-114622273D01*
X147649500Y-114890193D01*
X147649500Y-115159806D01*
X147676652Y-115400792D01*
X147679688Y-115427732D01*
X147739684Y-115690591D01*
X147828733Y-115945079D01*
X147945716Y-116187997D01*
X148019962Y-116306158D01*
X148030782Y-116356447D01*
X148006746Y-116401926D01*
X147959100Y-116421314D01*
X147947083Y-116420801D01*
X147604761Y-116378580D01*
X147601110Y-116378039D01*
X146806461Y-116240154D01*
X146802841Y-116239434D01*
X146015923Y-116062726D01*
X146012342Y-116061829D01*
X145235052Y-115846724D01*
X145231520Y-115845653D01*
X144465694Y-115592659D01*
X144462219Y-115591415D01*
X143709768Y-115301162D01*
X143706358Y-115299750D01*
X142969016Y-114972909D01*
X142965679Y-114971330D01*
X142245308Y-114608725D01*
X142242053Y-114606986D01*
X141540297Y-114209447D01*
X141537131Y-114207549D01*
X141320254Y-114070213D01*
X140855747Y-113776067D01*
X140852678Y-113774016D01*
X140412239Y-113463824D01*
X140193289Y-113309622D01*
X140190329Y-113307427D01*
X139961992Y-113129231D01*
X139890759Y-113073640D01*
X142067868Y-113073640D01*
X142067868Y-113270623D01*
X142106297Y-113463823D01*
X142106298Y-113463824D01*
X142181678Y-113645808D01*
X142181680Y-113645812D01*
X142205293Y-113681150D01*
X142205294Y-113681151D01*
X142773012Y-113113433D01*
X142767867Y-113132637D01*
X142767867Y-113211627D01*
X142788312Y-113287928D01*
X142827808Y-113356336D01*
X142883664Y-113412192D01*
X142952072Y-113451688D01*
X143028373Y-113472133D01*
X143107363Y-113472133D01*
X143126565Y-113466987D01*
X142558848Y-114034704D01*
X142594192Y-114058321D01*
X142594191Y-114058321D01*
X142776175Y-114133701D01*
X142776176Y-114133702D01*
X142969376Y-114172132D01*
X143166360Y-114172132D01*
X143359559Y-114133702D01*
X143359560Y-114133701D01*
X143541548Y-114058319D01*
X143705324Y-113948887D01*
X143705332Y-113948880D01*
X143810329Y-113843884D01*
X143810329Y-113843882D01*
X143315355Y-113348908D01*
X143668908Y-112995355D01*
X144163882Y-113490329D01*
X144163883Y-113490329D01*
X144268882Y-113385331D01*
X144378321Y-113221544D01*
X144453701Y-113039560D01*
X144453702Y-113039559D01*
X144492132Y-112846359D01*
X144492132Y-112649375D01*
X144453702Y-112456176D01*
X144453701Y-112456175D01*
X144378320Y-112274188D01*
X144354705Y-112238846D01*
X143786988Y-112806563D01*
X143792133Y-112787363D01*
X143792133Y-112708372D01*
X143771688Y-112632072D01*
X143732192Y-112563664D01*
X143676336Y-112507808D01*
X143607928Y-112468312D01*
X143531628Y-112447867D01*
X143452637Y-112447867D01*
X143433434Y-112453012D01*
X144001151Y-111885294D01*
X144001151Y-111885293D01*
X143965808Y-111861678D01*
X143783824Y-111786298D01*
X143783823Y-111786297D01*
X143590625Y-111747868D01*
X143393640Y-111747868D01*
X143200440Y-111786297D01*
X143200439Y-111786298D01*
X143018455Y-111861678D01*
X142854666Y-111971119D01*
X142854663Y-111971121D01*
X142749670Y-112076115D01*
X142749670Y-112076117D01*
X143244644Y-112571091D01*
X142891091Y-112924644D01*
X142396117Y-112429670D01*
X142396116Y-112429670D01*
X142291114Y-112534672D01*
X142181680Y-112698451D01*
X142106298Y-112880439D01*
X142106297Y-112880440D01*
X142067868Y-113073640D01*
X139890759Y-113073640D01*
X139643194Y-112880439D01*
X139554512Y-112811231D01*
X139551663Y-112808893D01*
X138940943Y-112282082D01*
X138938216Y-112279609D01*
X138932522Y-112274188D01*
X138354111Y-111723495D01*
X138351503Y-111720886D01*
X137908680Y-111255775D01*
X137795381Y-111136774D01*
X137792911Y-111134049D01*
X137659211Y-110979054D01*
X137266099Y-110523327D01*
X137263764Y-110520482D01*
X137186740Y-110421785D01*
X136767564Y-109884660D01*
X136765374Y-109881706D01*
X136764659Y-109880691D01*
X136344847Y-109284604D01*
X144240690Y-109284604D01*
X144240690Y-109408763D01*
X144264912Y-109530538D01*
X144264913Y-109530539D01*
X144306286Y-109630423D01*
X144312425Y-109645243D01*
X144381404Y-109748477D01*
X144381406Y-109748479D01*
X144381408Y-109748482D01*
X144469191Y-109836265D01*
X144469194Y-109836267D01*
X144469197Y-109836270D01*
X144572431Y-109905249D01*
X144687134Y-109952760D01*
X144687135Y-109952761D01*
X144687136Y-109952761D01*
X144687138Y-109952762D01*
X144768685Y-109968982D01*
X144808910Y-109976984D01*
X144824263Y-109976984D01*
X144872601Y-109994577D01*
X144898321Y-110039126D01*
X144893739Y-110080962D01*
X144885226Y-110101512D01*
X144846797Y-110294711D01*
X144846797Y-110491694D01*
X144885226Y-110684894D01*
X144885227Y-110684895D01*
X144960609Y-110866883D01*
X144984222Y-110902222D01*
X144984223Y-110902223D01*
X145551941Y-110334504D01*
X145546796Y-110353708D01*
X145546796Y-110432698D01*
X145567241Y-110508999D01*
X145606737Y-110577407D01*
X145662593Y-110633263D01*
X145731001Y-110672759D01*
X145807302Y-110693204D01*
X145886292Y-110693204D01*
X145905491Y-110688059D01*
X145337775Y-111255775D01*
X145337776Y-111255776D01*
X145373116Y-111279390D01*
X145555104Y-111354772D01*
X145555105Y-111354773D01*
X145748305Y-111393203D01*
X145945289Y-111393203D01*
X146138488Y-111354773D01*
X146138489Y-111354772D01*
X146320477Y-111279390D01*
X146484256Y-111169956D01*
X146830412Y-110823800D01*
X146877033Y-110802060D01*
X146926720Y-110815374D01*
X146956225Y-110857511D01*
X146951741Y-110908755D01*
X146948713Y-110914573D01*
X146900423Y-110998215D01*
X146900423Y-110998216D01*
X146859500Y-111150943D01*
X146859500Y-111309057D01*
X146882047Y-111393203D01*
X146900423Y-111461785D01*
X146979479Y-111598714D01*
X146979483Y-111598720D01*
X147091279Y-111710516D01*
X147091282Y-111710518D01*
X147091284Y-111710520D01*
X147199278Y-111772870D01*
X147222536Y-111786298D01*
X147228216Y-111789577D01*
X147380943Y-111830500D01*
X147380946Y-111830500D01*
X147539054Y-111830500D01*
X147539057Y-111830500D01*
X147691784Y-111789577D01*
X147828716Y-111710520D01*
X147940520Y-111598716D01*
X148019577Y-111461784D01*
X148060500Y-111309057D01*
X148060500Y-111150943D01*
X148019577Y-110998216D01*
X147940520Y-110861284D01*
X147940519Y-110861283D01*
X147940518Y-110861281D01*
X147900180Y-110820943D01*
X150867000Y-110820943D01*
X150867000Y-110979057D01*
X150872134Y-110998216D01*
X150907923Y-111131785D01*
X150986979Y-111268714D01*
X150986983Y-111268720D01*
X151098779Y-111380516D01*
X151098782Y-111380518D01*
X151098784Y-111380520D01*
X151235716Y-111459577D01*
X151388443Y-111500500D01*
X151388446Y-111500500D01*
X151546554Y-111500500D01*
X151546557Y-111500500D01*
X151699284Y-111459577D01*
X151836216Y-111380520D01*
X151948020Y-111268716D01*
X152027077Y-111131784D01*
X152068000Y-110979057D01*
X152068000Y-110820943D01*
X152027077Y-110668216D01*
X152018630Y-110653586D01*
X152006897Y-110633263D01*
X151948020Y-110531284D01*
X151948018Y-110531282D01*
X151948016Y-110531279D01*
X151836220Y-110419483D01*
X151836214Y-110419479D01*
X151699285Y-110340423D01*
X151661102Y-110330192D01*
X151546557Y-110299500D01*
X151388443Y-110299500D01*
X151296806Y-110324053D01*
X151235714Y-110340423D01*
X151098785Y-110419479D01*
X151098779Y-110419483D01*
X150986983Y-110531279D01*
X150986979Y-110531285D01*
X150907923Y-110668214D01*
X150891999Y-110727644D01*
X150867000Y-110820943D01*
X147900180Y-110820943D01*
X147828720Y-110749483D01*
X147828714Y-110749479D01*
X147691785Y-110670423D01*
X147628947Y-110653586D01*
X147539057Y-110629500D01*
X147380943Y-110629500D01*
X147304579Y-110649961D01*
X147228213Y-110670423D01*
X147144575Y-110718712D01*
X147093916Y-110727644D01*
X147049368Y-110701924D01*
X147031775Y-110653586D01*
X147049369Y-110605249D01*
X147053801Y-110600412D01*
X147401364Y-110252849D01*
X147496183Y-110110943D01*
X155172000Y-110110943D01*
X155172000Y-110269057D01*
X155194682Y-110353708D01*
X155212923Y-110421785D01*
X155291979Y-110558714D01*
X155291983Y-110558720D01*
X155403779Y-110670516D01*
X155403782Y-110670518D01*
X155403784Y-110670520D01*
X155540716Y-110749577D01*
X155693443Y-110790500D01*
X155693446Y-110790500D01*
X155851554Y-110790500D01*
X155851557Y-110790500D01*
X156004284Y-110749577D01*
X156141216Y-110670520D01*
X156253020Y-110558716D01*
X156332077Y-110421784D01*
X156373000Y-110269057D01*
X156373000Y-110110943D01*
X156332077Y-109958216D01*
X156253020Y-109821284D01*
X156253018Y-109821282D01*
X156253016Y-109821279D01*
X156141220Y-109709483D01*
X156141214Y-109709479D01*
X156004285Y-109630423D01*
X155966102Y-109620192D01*
X155851557Y-109589500D01*
X155693443Y-109589500D01*
X155601806Y-109614053D01*
X155540714Y-109630423D01*
X155403785Y-109709479D01*
X155403779Y-109709483D01*
X155291983Y-109821279D01*
X155291979Y-109821285D01*
X155212923Y-109958214D01*
X155207894Y-109976984D01*
X155172000Y-110110943D01*
X147496183Y-110110943D01*
X147510806Y-110089058D01*
X147515702Y-110077237D01*
X147515703Y-110077236D01*
X147586184Y-109907077D01*
X147586185Y-109907076D01*
X147624615Y-109713876D01*
X147624615Y-109516892D01*
X147586185Y-109323693D01*
X147586184Y-109323692D01*
X147510804Y-109141708D01*
X147487933Y-109107479D01*
X147475707Y-109057513D01*
X147498458Y-109011378D01*
X147545542Y-108990661D01*
X147550460Y-108990500D01*
X147579054Y-108990500D01*
X147579057Y-108990500D01*
X147731784Y-108949577D01*
X147868716Y-108870520D01*
X147980520Y-108758716D01*
X148059577Y-108621784D01*
X148100500Y-108469057D01*
X148100500Y-108310943D01*
X148059577Y-108158216D01*
X147980520Y-108021284D01*
X147980518Y-108021282D01*
X147980516Y-108021279D01*
X147868720Y-107909483D01*
X147868714Y-107909479D01*
X147731785Y-107830423D01*
X147693602Y-107820192D01*
X147579057Y-107789500D01*
X147420943Y-107789500D01*
X147329306Y-107814053D01*
X147268214Y-107830423D01*
X147131285Y-107909479D01*
X147131279Y-107909483D01*
X147019483Y-108021279D01*
X147019479Y-108021285D01*
X146940423Y-108158214D01*
X146932098Y-108189284D01*
X146899500Y-108310943D01*
X146899500Y-108469057D01*
X146911162Y-108512581D01*
X146919547Y-108543875D01*
X146915063Y-108595119D01*
X146878689Y-108631492D01*
X146832238Y-108637092D01*
X146723108Y-108615385D01*
X146526123Y-108615385D01*
X146332923Y-108653814D01*
X146332922Y-108653815D01*
X146150938Y-108729195D01*
X145987149Y-108838636D01*
X145987146Y-108838638D01*
X145607390Y-109218395D01*
X145560770Y-109240135D01*
X145511083Y-109226821D01*
X145481578Y-109184684D01*
X145480461Y-109179891D01*
X145477068Y-109162832D01*
X145429555Y-109048125D01*
X145360576Y-108944891D01*
X145360573Y-108944888D01*
X145360571Y-108944885D01*
X145272788Y-108857102D01*
X145272785Y-108857100D01*
X145272783Y-108857098D01*
X145169549Y-108788119D01*
X145111772Y-108764187D01*
X145054845Y-108740607D01*
X145054844Y-108740606D01*
X144933070Y-108716384D01*
X144933069Y-108716384D01*
X144808911Y-108716384D01*
X144808910Y-108716384D01*
X144687135Y-108740606D01*
X144687134Y-108740607D01*
X144572432Y-108788118D01*
X144469194Y-108857100D01*
X144469191Y-108857102D01*
X144381408Y-108944885D01*
X144381406Y-108944888D01*
X144312424Y-109048126D01*
X144264913Y-109162828D01*
X144264912Y-109162829D01*
X144240690Y-109284604D01*
X136344847Y-109284604D01*
X136300977Y-109222313D01*
X136298932Y-109219252D01*
X136298389Y-109218395D01*
X135867449Y-108537867D01*
X135865552Y-108534702D01*
X135525454Y-107934343D01*
X135525453Y-107934340D01*
X135468014Y-107832946D01*
X135466274Y-107829691D01*
X135103669Y-107109320D01*
X135102090Y-107105983D01*
X135051130Y-106991018D01*
X135039259Y-106964237D01*
X135958465Y-106964237D01*
X135958465Y-107161220D01*
X135996894Y-107354420D01*
X135996895Y-107354421D01*
X136072275Y-107536405D01*
X136072277Y-107536409D01*
X136095890Y-107571747D01*
X136095891Y-107571748D01*
X136663609Y-107004030D01*
X136658464Y-107023234D01*
X136658464Y-107102224D01*
X136678909Y-107178525D01*
X136718405Y-107246933D01*
X136774261Y-107302789D01*
X136842669Y-107342285D01*
X136918970Y-107362730D01*
X136997960Y-107362730D01*
X137017162Y-107357584D01*
X136449445Y-107925301D01*
X136484789Y-107948918D01*
X136484788Y-107948918D01*
X136666772Y-108024298D01*
X136666773Y-108024299D01*
X136859973Y-108062729D01*
X137056957Y-108062729D01*
X137250156Y-108024299D01*
X137250157Y-108024298D01*
X137432145Y-107948916D01*
X137595921Y-107839484D01*
X137595929Y-107839477D01*
X137700926Y-107734481D01*
X137700926Y-107734479D01*
X137387390Y-107420943D01*
X139259500Y-107420943D01*
X139259500Y-107579057D01*
X139290192Y-107693602D01*
X139300423Y-107731785D01*
X139379479Y-107868714D01*
X139379483Y-107868720D01*
X139491279Y-107980516D01*
X139491282Y-107980518D01*
X139491284Y-107980520D01*
X139628216Y-108059577D01*
X139780943Y-108100500D01*
X139780946Y-108100500D01*
X139939054Y-108100500D01*
X139939057Y-108100500D01*
X140091784Y-108059577D01*
X140228716Y-107980520D01*
X140340520Y-107868716D01*
X140419577Y-107731784D01*
X140460500Y-107579057D01*
X140460500Y-107494708D01*
X153055735Y-107494708D01*
X153055735Y-107652822D01*
X153086427Y-107767367D01*
X153096658Y-107805550D01*
X153175714Y-107942479D01*
X153175718Y-107942485D01*
X153287514Y-108054281D01*
X153287517Y-108054283D01*
X153287519Y-108054285D01*
X153424451Y-108133342D01*
X153577178Y-108174265D01*
X153577181Y-108174265D01*
X153735289Y-108174265D01*
X153735292Y-108174265D01*
X153888019Y-108133342D01*
X154024951Y-108054285D01*
X154136755Y-107942481D01*
X154173727Y-107878443D01*
X162549500Y-107878443D01*
X162549500Y-108036557D01*
X162580192Y-108151102D01*
X162590423Y-108189285D01*
X162669479Y-108326214D01*
X162669483Y-108326220D01*
X162781279Y-108438016D01*
X162781282Y-108438018D01*
X162781284Y-108438020D01*
X162918216Y-108517077D01*
X163070943Y-108558000D01*
X163070946Y-108558000D01*
X163229054Y-108558000D01*
X163229057Y-108558000D01*
X163381784Y-108517077D01*
X163518716Y-108438020D01*
X163630520Y-108326216D01*
X163709577Y-108189284D01*
X163750500Y-108036557D01*
X163750500Y-107878443D01*
X163709577Y-107725716D01*
X163630520Y-107588784D01*
X163630518Y-107588782D01*
X163630516Y-107588779D01*
X163518720Y-107476983D01*
X163518714Y-107476979D01*
X163381785Y-107397923D01*
X163318350Y-107380926D01*
X163229057Y-107357000D01*
X163070943Y-107357000D01*
X162981650Y-107380926D01*
X162918214Y-107397923D01*
X162781285Y-107476979D01*
X162781279Y-107476983D01*
X162669483Y-107588779D01*
X162669479Y-107588785D01*
X162590423Y-107725714D01*
X162588074Y-107734481D01*
X162549500Y-107878443D01*
X154173727Y-107878443D01*
X154199995Y-107832946D01*
X154215811Y-107805550D01*
X154215812Y-107805549D01*
X154256735Y-107652822D01*
X154256735Y-107494708D01*
X154215812Y-107341981D01*
X154136755Y-107205049D01*
X154136753Y-107205047D01*
X154136751Y-107205044D01*
X154024955Y-107093248D01*
X154024949Y-107093244D01*
X153888020Y-107014188D01*
X153849837Y-107003957D01*
X153735292Y-106973265D01*
X153577178Y-106973265D01*
X153485541Y-106997818D01*
X153424449Y-107014188D01*
X153287520Y-107093244D01*
X153287514Y-107093248D01*
X153175718Y-107205044D01*
X153175714Y-107205050D01*
X153096658Y-107341979D01*
X153081668Y-107397923D01*
X153055735Y-107494708D01*
X140460500Y-107494708D01*
X140460500Y-107420943D01*
X140419577Y-107268216D01*
X140340520Y-107131284D01*
X140340518Y-107131282D01*
X140340516Y-107131279D01*
X140228720Y-107019483D01*
X140228714Y-107019479D01*
X140091785Y-106940423D01*
X140053467Y-106930156D01*
X139939057Y-106899500D01*
X139780943Y-106899500D01*
X139697778Y-106921784D01*
X139628214Y-106940423D01*
X139491285Y-107019479D01*
X139491279Y-107019483D01*
X139379483Y-107131279D01*
X139379479Y-107131285D01*
X139300423Y-107268214D01*
X139294452Y-107290500D01*
X139259500Y-107420943D01*
X137387390Y-107420943D01*
X137205952Y-107239505D01*
X137559505Y-106885952D01*
X138054479Y-107380926D01*
X138054480Y-107380926D01*
X138072567Y-107362839D01*
X138159479Y-107275928D01*
X138268918Y-107112141D01*
X138344298Y-106930157D01*
X138344299Y-106930156D01*
X138382729Y-106736956D01*
X138382729Y-106610943D01*
X141009500Y-106610943D01*
X141009500Y-106769057D01*
X141031349Y-106850597D01*
X141050423Y-106921785D01*
X141129479Y-107058714D01*
X141129483Y-107058720D01*
X141241279Y-107170516D01*
X141241282Y-107170518D01*
X141241284Y-107170520D01*
X141378216Y-107249577D01*
X141530943Y-107290500D01*
X141530946Y-107290500D01*
X141689054Y-107290500D01*
X141689057Y-107290500D01*
X141841784Y-107249577D01*
X141978716Y-107170520D01*
X142090520Y-107058716D01*
X142169577Y-106921784D01*
X142210500Y-106769057D01*
X142210500Y-106610943D01*
X142169577Y-106458216D01*
X142090520Y-106321284D01*
X142090518Y-106321282D01*
X142090516Y-106321279D01*
X141978720Y-106209483D01*
X141978714Y-106209479D01*
X141977399Y-106208720D01*
X141949778Y-106192773D01*
X141841785Y-106130423D01*
X141803602Y-106120192D01*
X141689057Y-106089500D01*
X141530943Y-106089500D01*
X141439306Y-106114053D01*
X141378214Y-106130423D01*
X141241285Y-106209479D01*
X141241279Y-106209483D01*
X141129483Y-106321279D01*
X141129479Y-106321285D01*
X141050423Y-106458214D01*
X141040019Y-106497043D01*
X141009500Y-106610943D01*
X138382729Y-106610943D01*
X138382729Y-106539972D01*
X138344299Y-106346773D01*
X138344298Y-106346772D01*
X138268917Y-106164785D01*
X138245302Y-106129443D01*
X137677585Y-106697160D01*
X137682730Y-106677960D01*
X137682730Y-106598969D01*
X137662285Y-106522669D01*
X137622789Y-106454261D01*
X137566933Y-106398405D01*
X137498525Y-106358909D01*
X137422225Y-106338464D01*
X137343234Y-106338464D01*
X137324031Y-106343609D01*
X137891748Y-105775891D01*
X137891748Y-105775890D01*
X137856405Y-105752275D01*
X137674421Y-105676895D01*
X137674420Y-105676894D01*
X137481222Y-105638465D01*
X137284237Y-105638465D01*
X137091037Y-105676894D01*
X137091036Y-105676895D01*
X136909052Y-105752275D01*
X136745263Y-105861716D01*
X136745260Y-105861718D01*
X136640267Y-105966712D01*
X136640267Y-105966714D01*
X137135241Y-106461688D01*
X136781688Y-106815241D01*
X136286714Y-106320267D01*
X136286713Y-106320267D01*
X136181711Y-106425269D01*
X136072277Y-106589048D01*
X135996895Y-106771036D01*
X135996894Y-106771037D01*
X135958465Y-106964237D01*
X135039259Y-106964237D01*
X134807102Y-106440500D01*
X134775245Y-106368632D01*
X134773837Y-106365231D01*
X134756492Y-106320267D01*
X134483577Y-105612762D01*
X134482346Y-105609323D01*
X134229340Y-104843461D01*
X134228275Y-104839947D01*
X134215233Y-104792820D01*
X134047112Y-104185308D01*
X138737394Y-104185308D01*
X138737394Y-104382291D01*
X138775823Y-104575491D01*
X138775824Y-104575492D01*
X138851206Y-104757480D01*
X138874819Y-104792819D01*
X138874820Y-104792820D01*
X139442538Y-104225102D01*
X139437393Y-104244305D01*
X139437393Y-104323295D01*
X139457838Y-104399596D01*
X139497334Y-104468004D01*
X139553190Y-104523860D01*
X139621598Y-104563356D01*
X139697899Y-104583801D01*
X139776889Y-104583801D01*
X139796092Y-104578655D01*
X139228373Y-105146373D01*
X139263713Y-105169987D01*
X139445701Y-105245369D01*
X139445702Y-105245370D01*
X139638902Y-105283800D01*
X139835886Y-105283800D01*
X140029080Y-105245371D01*
X140029087Y-105245369D01*
X140049634Y-105236858D01*
X140101025Y-105234613D01*
X140141836Y-105265927D01*
X140153613Y-105306333D01*
X140153613Y-105321686D01*
X140177835Y-105443461D01*
X140177836Y-105443462D01*
X140225348Y-105558166D01*
X140294327Y-105661400D01*
X140294329Y-105661402D01*
X140294331Y-105661405D01*
X140382114Y-105749188D01*
X140382117Y-105749190D01*
X140382120Y-105749193D01*
X140485354Y-105818172D01*
X140600057Y-105865683D01*
X140600058Y-105865684D01*
X140600059Y-105865684D01*
X140600061Y-105865685D01*
X140681608Y-105881905D01*
X140721833Y-105889907D01*
X140721834Y-105889907D01*
X140845993Y-105889907D01*
X140876229Y-105883892D01*
X140967765Y-105865685D01*
X141082472Y-105818172D01*
X141185706Y-105749193D01*
X141273499Y-105661400D01*
X141342478Y-105558166D01*
X141382748Y-105460945D01*
X146641100Y-105460945D01*
X146641100Y-105619059D01*
X146652446Y-105661402D01*
X146682023Y-105771787D01*
X146761079Y-105908716D01*
X146761083Y-105908722D01*
X146872879Y-106020518D01*
X146872882Y-106020520D01*
X146872884Y-106020522D01*
X147009816Y-106099579D01*
X147162543Y-106140502D01*
X147162546Y-106140502D01*
X147320654Y-106140502D01*
X147320657Y-106140502D01*
X147473384Y-106099579D01*
X147610316Y-106020522D01*
X147722120Y-105908718D01*
X147801177Y-105771786D01*
X147804082Y-105760943D01*
X154389500Y-105760943D01*
X154389500Y-105919057D01*
X154420192Y-106033602D01*
X154430423Y-106071785D01*
X154509479Y-106208714D01*
X154509483Y-106208720D01*
X154621279Y-106320516D01*
X154621282Y-106320518D01*
X154621284Y-106320520D01*
X154758216Y-106399577D01*
X154910943Y-106440500D01*
X154910946Y-106440500D01*
X155069054Y-106440500D01*
X155069057Y-106440500D01*
X155221784Y-106399577D01*
X155358716Y-106320520D01*
X155470520Y-106208716D01*
X155549577Y-106071784D01*
X155590500Y-105919057D01*
X155590500Y-105760943D01*
X155549577Y-105608216D01*
X155470520Y-105471284D01*
X155470518Y-105471282D01*
X155470516Y-105471279D01*
X155358720Y-105359483D01*
X155358714Y-105359479D01*
X155221785Y-105280423D01*
X155167684Y-105265927D01*
X155069057Y-105239500D01*
X154910943Y-105239500D01*
X154819306Y-105264053D01*
X154758214Y-105280423D01*
X154621285Y-105359479D01*
X154621279Y-105359483D01*
X154509483Y-105471279D01*
X154509479Y-105471285D01*
X154430423Y-105608214D01*
X154409961Y-105684579D01*
X154389500Y-105760943D01*
X147804082Y-105760943D01*
X147842100Y-105619059D01*
X147842100Y-105460945D01*
X147801177Y-105308218D01*
X147722120Y-105171286D01*
X147722118Y-105171284D01*
X147722116Y-105171281D01*
X147610320Y-105059485D01*
X147610314Y-105059481D01*
X147473385Y-104980425D01*
X147435202Y-104970194D01*
X147320657Y-104939502D01*
X147162543Y-104939502D01*
X147070906Y-104964055D01*
X147009814Y-104980425D01*
X146872885Y-105059481D01*
X146872879Y-105059485D01*
X146761083Y-105171281D01*
X146761079Y-105171287D01*
X146682023Y-105308216D01*
X146661561Y-105384581D01*
X146641100Y-105460945D01*
X141382748Y-105460945D01*
X141389991Y-105443459D01*
X141414213Y-105321686D01*
X141414213Y-105197528D01*
X141389991Y-105075755D01*
X141342478Y-104961048D01*
X141273499Y-104857814D01*
X141273496Y-104857811D01*
X141273494Y-104857808D01*
X141185711Y-104770025D01*
X141185708Y-104770023D01*
X141185706Y-104770021D01*
X141082472Y-104701042D01*
X140984643Y-104660520D01*
X140967768Y-104653530D01*
X140967766Y-104653529D01*
X140967765Y-104653529D01*
X140950701Y-104650134D01*
X140906726Y-104623448D01*
X140890192Y-104574738D01*
X140908837Y-104526796D01*
X140912200Y-104523205D01*
X141291961Y-104143446D01*
X141401403Y-103979655D01*
X141401404Y-103979653D01*
X141409154Y-103960943D01*
X152269500Y-103960943D01*
X152269500Y-104119057D01*
X152287252Y-104185308D01*
X152310423Y-104271785D01*
X152389479Y-104408714D01*
X152389483Y-104408720D01*
X152501279Y-104520516D01*
X152501282Y-104520518D01*
X152501284Y-104520520D01*
X152638216Y-104599577D01*
X152790943Y-104640500D01*
X152790946Y-104640500D01*
X152949054Y-104640500D01*
X152949057Y-104640500D01*
X153101784Y-104599577D01*
X153238716Y-104520520D01*
X153350520Y-104408716D01*
X153429577Y-104271784D01*
X153470500Y-104119057D01*
X153470500Y-104100943D01*
X163109500Y-104100943D01*
X163109500Y-104259057D01*
X163140166Y-104373504D01*
X163150423Y-104411785D01*
X163229479Y-104548714D01*
X163229483Y-104548720D01*
X163341279Y-104660516D01*
X163341282Y-104660518D01*
X163341284Y-104660520D01*
X163478216Y-104739577D01*
X163630943Y-104780500D01*
X163630946Y-104780500D01*
X163789054Y-104780500D01*
X163789057Y-104780500D01*
X163941784Y-104739577D01*
X164078716Y-104660520D01*
X164190520Y-104548716D01*
X164269577Y-104411784D01*
X164310500Y-104259057D01*
X164310500Y-104100943D01*
X164269577Y-103948216D01*
X164190520Y-103811284D01*
X164190518Y-103811282D01*
X164190516Y-103811279D01*
X164078720Y-103699483D01*
X164078714Y-103699479D01*
X163941785Y-103620423D01*
X163903602Y-103610192D01*
X163789057Y-103579500D01*
X163630943Y-103579500D01*
X163539306Y-103604053D01*
X163478214Y-103620423D01*
X163341285Y-103699479D01*
X163341279Y-103699483D01*
X163229483Y-103811279D01*
X163229479Y-103811285D01*
X163150423Y-103948214D01*
X163147012Y-103960945D01*
X163109500Y-104100943D01*
X153470500Y-104100943D01*
X153470500Y-103960943D01*
X153429577Y-103808216D01*
X153350520Y-103671284D01*
X153350518Y-103671282D01*
X153350516Y-103671279D01*
X153238720Y-103559483D01*
X153238714Y-103559479D01*
X153101785Y-103480423D01*
X153049770Y-103466486D01*
X152949057Y-103439500D01*
X152790943Y-103439500D01*
X152707778Y-103461784D01*
X152638214Y-103480423D01*
X152501285Y-103559479D01*
X152501279Y-103559483D01*
X152389483Y-103671279D01*
X152389479Y-103671285D01*
X152310423Y-103808214D01*
X152304452Y-103830500D01*
X152269500Y-103960943D01*
X141409154Y-103960943D01*
X141423115Y-103927239D01*
X141423116Y-103927236D01*
X141476781Y-103797674D01*
X141476782Y-103797673D01*
X141515212Y-103604473D01*
X141515212Y-103407489D01*
X141476782Y-103214290D01*
X141476779Y-103214280D01*
X141460423Y-103174795D01*
X141460421Y-103174792D01*
X141450542Y-103150943D01*
X149379500Y-103150943D01*
X149379500Y-103309057D01*
X149405875Y-103407489D01*
X149420423Y-103461785D01*
X149499479Y-103598714D01*
X149499483Y-103598720D01*
X149611279Y-103710516D01*
X149611282Y-103710518D01*
X149611284Y-103710520D01*
X149748216Y-103789577D01*
X149900943Y-103830500D01*
X149900946Y-103830500D01*
X150059054Y-103830500D01*
X150059057Y-103830500D01*
X150211784Y-103789577D01*
X150348716Y-103710520D01*
X150460520Y-103598716D01*
X150539577Y-103461784D01*
X150580500Y-103309057D01*
X150580500Y-103150943D01*
X155349500Y-103150943D01*
X155349500Y-103309057D01*
X155375875Y-103407489D01*
X155390423Y-103461785D01*
X155469479Y-103598714D01*
X155469483Y-103598720D01*
X155581279Y-103710516D01*
X155581282Y-103710518D01*
X155581284Y-103710520D01*
X155718216Y-103789577D01*
X155870943Y-103830500D01*
X155870946Y-103830500D01*
X156029054Y-103830500D01*
X156029057Y-103830500D01*
X156181784Y-103789577D01*
X156318716Y-103710520D01*
X156430520Y-103598716D01*
X156509577Y-103461784D01*
X156550500Y-103309057D01*
X156550500Y-103150943D01*
X156509577Y-102998216D01*
X156508852Y-102996961D01*
X156462440Y-102916572D01*
X156430520Y-102861284D01*
X156430518Y-102861282D01*
X156430516Y-102861279D01*
X156318720Y-102749483D01*
X156318714Y-102749479D01*
X156181785Y-102670423D01*
X156143602Y-102660192D01*
X156029057Y-102629500D01*
X155870943Y-102629500D01*
X155779306Y-102654053D01*
X155718214Y-102670423D01*
X155581285Y-102749479D01*
X155581279Y-102749483D01*
X155469483Y-102861279D01*
X155469479Y-102861285D01*
X155390423Y-102998214D01*
X155386995Y-103011008D01*
X155349500Y-103150943D01*
X150580500Y-103150943D01*
X150539577Y-102998216D01*
X150538852Y-102996961D01*
X150492440Y-102916572D01*
X150460520Y-102861284D01*
X150460518Y-102861282D01*
X150460516Y-102861279D01*
X150415354Y-102816117D01*
X150393614Y-102769497D01*
X150406928Y-102719810D01*
X150447272Y-102691560D01*
X150447232Y-102691463D01*
X150447670Y-102691281D01*
X150449063Y-102690305D01*
X150451784Y-102689577D01*
X150588716Y-102610520D01*
X150700520Y-102498716D01*
X150779577Y-102361784D01*
X150820500Y-102209057D01*
X150820500Y-102050943D01*
X150779577Y-101898216D01*
X150700520Y-101761284D01*
X150700518Y-101761282D01*
X150700516Y-101761279D01*
X150588720Y-101649483D01*
X150588714Y-101649479D01*
X150586526Y-101648216D01*
X150521971Y-101610945D01*
X150504987Y-101601139D01*
X150451786Y-101570423D01*
X150390693Y-101554053D01*
X150341764Y-101540943D01*
X154159500Y-101540943D01*
X154159500Y-101699057D01*
X154186800Y-101800943D01*
X154200423Y-101851785D01*
X154279479Y-101988714D01*
X154279483Y-101988720D01*
X154391279Y-102100516D01*
X154391282Y-102100518D01*
X154391284Y-102100520D01*
X154528216Y-102179577D01*
X154680943Y-102220500D01*
X154680946Y-102220500D01*
X154839054Y-102220500D01*
X154839057Y-102220500D01*
X154991784Y-102179577D01*
X155128716Y-102100520D01*
X155240520Y-101988716D01*
X155319577Y-101851784D01*
X155360500Y-101699057D01*
X155360500Y-101540943D01*
X155319577Y-101388216D01*
X155240520Y-101251284D01*
X155240518Y-101251282D01*
X155240516Y-101251279D01*
X155128720Y-101139483D01*
X155128714Y-101139479D01*
X154991785Y-101060423D01*
X154953602Y-101050192D01*
X154839057Y-101019500D01*
X154680943Y-101019500D01*
X154589306Y-101044053D01*
X154528214Y-101060423D01*
X154391285Y-101139479D01*
X154391279Y-101139483D01*
X154279483Y-101251279D01*
X154279479Y-101251285D01*
X154200423Y-101388214D01*
X154189340Y-101429577D01*
X154159500Y-101540943D01*
X150341764Y-101540943D01*
X150299057Y-101529500D01*
X150140943Y-101529500D01*
X150049306Y-101554053D01*
X149988214Y-101570423D01*
X149851285Y-101649479D01*
X149851279Y-101649483D01*
X149739483Y-101761279D01*
X149739479Y-101761285D01*
X149660423Y-101898214D01*
X149644121Y-101959057D01*
X149619500Y-102050943D01*
X149619500Y-102209057D01*
X149641323Y-102290500D01*
X149660423Y-102361785D01*
X149739479Y-102498714D01*
X149739483Y-102498720D01*
X149784645Y-102543882D01*
X149806385Y-102590502D01*
X149793071Y-102640189D01*
X149752728Y-102668440D01*
X149752768Y-102668537D01*
X149752334Y-102668716D01*
X149750943Y-102669691D01*
X149748218Y-102670421D01*
X149748217Y-102670421D01*
X149611285Y-102749479D01*
X149611279Y-102749483D01*
X149499483Y-102861279D01*
X149499479Y-102861285D01*
X149420423Y-102998214D01*
X149416995Y-103011008D01*
X149379500Y-103150943D01*
X141450542Y-103150943D01*
X141401399Y-103032301D01*
X141377785Y-102996961D01*
X140810067Y-103564680D01*
X140815213Y-103545477D01*
X140815213Y-103466486D01*
X140794768Y-103390186D01*
X140755272Y-103321778D01*
X140699416Y-103265922D01*
X140631008Y-103226426D01*
X140554708Y-103205981D01*
X140475717Y-103205981D01*
X140456514Y-103211126D01*
X141024232Y-102643408D01*
X141024231Y-102643407D01*
X140988892Y-102619794D01*
X140806904Y-102544412D01*
X140806903Y-102544411D01*
X140613705Y-102505982D01*
X140416720Y-102505982D01*
X140223520Y-102544411D01*
X140223519Y-102544412D01*
X140041535Y-102619792D01*
X139877746Y-102729233D01*
X139877743Y-102729235D01*
X139595973Y-103011006D01*
X139595973Y-103011008D01*
X140090947Y-103505982D01*
X139737394Y-103859535D01*
X139242420Y-103364561D01*
X139242419Y-103364561D01*
X138960640Y-103646340D01*
X138851206Y-103810119D01*
X138775824Y-103992107D01*
X138775823Y-103992108D01*
X138737394Y-104185308D01*
X134047112Y-104185308D01*
X134013166Y-104062644D01*
X134012273Y-104059076D01*
X133994438Y-103979655D01*
X133835565Y-103272158D01*
X133834845Y-103268538D01*
X133786985Y-102992714D01*
X133764179Y-102861279D01*
X133696956Y-102473867D01*
X133696422Y-102470260D01*
X133613869Y-101800943D01*
X136901996Y-101800943D01*
X136901996Y-101959057D01*
X136928701Y-102058720D01*
X136942919Y-102111785D01*
X137021975Y-102248714D01*
X137021979Y-102248720D01*
X137133775Y-102360516D01*
X137133778Y-102360518D01*
X137133780Y-102360520D01*
X137270712Y-102439577D01*
X137423439Y-102480500D01*
X137423442Y-102480500D01*
X137581550Y-102480500D01*
X137581553Y-102480500D01*
X137734280Y-102439577D01*
X137871212Y-102360520D01*
X137983016Y-102248716D01*
X138062073Y-102111784D01*
X138102996Y-101959057D01*
X138102996Y-101800943D01*
X138062073Y-101648216D01*
X138040554Y-101610943D01*
X147489500Y-101610943D01*
X147489500Y-101769057D01*
X147511667Y-101851784D01*
X147530423Y-101921785D01*
X147569066Y-101988716D01*
X147604993Y-102050945D01*
X147609479Y-102058714D01*
X147609483Y-102058720D01*
X147721279Y-102170516D01*
X147721282Y-102170518D01*
X147721284Y-102170520D01*
X147788033Y-102209057D01*
X147856731Y-102248720D01*
X147858216Y-102249577D01*
X148010943Y-102290500D01*
X148010946Y-102290500D01*
X148169054Y-102290500D01*
X148169057Y-102290500D01*
X148321784Y-102249577D01*
X148458716Y-102170520D01*
X148570520Y-102058716D01*
X148649577Y-101921784D01*
X148690500Y-101769057D01*
X148690500Y-101610943D01*
X148649577Y-101458216D01*
X148642347Y-101445694D01*
X148609163Y-101388216D01*
X148570520Y-101321284D01*
X148570518Y-101321282D01*
X148570516Y-101321279D01*
X148458720Y-101209483D01*
X148458714Y-101209479D01*
X148321785Y-101130423D01*
X148283602Y-101120192D01*
X148169057Y-101089500D01*
X148010943Y-101089500D01*
X147919306Y-101114053D01*
X147858214Y-101130423D01*
X147721285Y-101209479D01*
X147721279Y-101209483D01*
X147609483Y-101321279D01*
X147609479Y-101321285D01*
X147530423Y-101458214D01*
X147516205Y-101511279D01*
X147489500Y-101610943D01*
X138040554Y-101610943D01*
X137983016Y-101511284D01*
X137983014Y-101511282D01*
X137983012Y-101511279D01*
X137871216Y-101399483D01*
X137871210Y-101399479D01*
X137851698Y-101388214D01*
X137832868Y-101377342D01*
X137734281Y-101320423D01*
X137696098Y-101310192D01*
X137581553Y-101279500D01*
X137423439Y-101279500D01*
X137331802Y-101304053D01*
X137270710Y-101320423D01*
X137133781Y-101399479D01*
X137133775Y-101399483D01*
X137021979Y-101511279D01*
X137021975Y-101511285D01*
X136942919Y-101648214D01*
X136929297Y-101699054D01*
X136901996Y-101800943D01*
X133613869Y-101800943D01*
X133597693Y-101669788D01*
X133597333Y-101666134D01*
X133596105Y-101649483D01*
X133537999Y-100861775D01*
X133537821Y-100858136D01*
X133526487Y-100396434D01*
X133542889Y-100347681D01*
X133586792Y-100320875D01*
X133637655Y-100328562D01*
X133671676Y-100367144D01*
X133675938Y-100382825D01*
X133679303Y-100404069D01*
X133679305Y-100404079D01*
X133747657Y-100614447D01*
X133848080Y-100811538D01*
X133978099Y-100990492D01*
X133978106Y-100990500D01*
X134134499Y-101146893D01*
X134134507Y-101146900D01*
X134134509Y-101146902D01*
X134220639Y-101209479D01*
X134313461Y-101276919D01*
X134325227Y-101282914D01*
X134510552Y-101377342D01*
X134720925Y-101445696D01*
X134939401Y-101480300D01*
X134939405Y-101480300D01*
X135160595Y-101480300D01*
X135160599Y-101480300D01*
X135379075Y-101445696D01*
X135589448Y-101377342D01*
X135786537Y-101276920D01*
X135965491Y-101146902D01*
X136121902Y-100990491D01*
X136251920Y-100811537D01*
X136262413Y-100790943D01*
X137870790Y-100790943D01*
X137870790Y-100949057D01*
X137881895Y-100990500D01*
X137911713Y-101101785D01*
X137990769Y-101238714D01*
X137990773Y-101238720D01*
X138102569Y-101350516D01*
X138102572Y-101350518D01*
X138102574Y-101350520D01*
X138239506Y-101429577D01*
X138392233Y-101470500D01*
X138392236Y-101470500D01*
X138550344Y-101470500D01*
X138550347Y-101470500D01*
X138703074Y-101429577D01*
X138840006Y-101350520D01*
X138951810Y-101238716D01*
X139030867Y-101101784D01*
X139071790Y-100949057D01*
X139071790Y-100790943D01*
X139030867Y-100638216D01*
X138951810Y-100501284D01*
X138951808Y-100501282D01*
X138951806Y-100501279D01*
X138840010Y-100389483D01*
X138840004Y-100389479D01*
X138703075Y-100310423D01*
X138664892Y-100300192D01*
X138550347Y-100269500D01*
X138392233Y-100269500D01*
X138300596Y-100294053D01*
X138239504Y-100310423D01*
X138102575Y-100389479D01*
X138102569Y-100389483D01*
X137990773Y-100501279D01*
X137990769Y-100501285D01*
X137911713Y-100638214D01*
X137891251Y-100714579D01*
X137870790Y-100790943D01*
X136262413Y-100790943D01*
X136281215Y-100754043D01*
X136282321Y-100751873D01*
X136325517Y-100667095D01*
X136352342Y-100614448D01*
X136420696Y-100404075D01*
X136455300Y-100185599D01*
X136455300Y-99971751D01*
X149230536Y-99971751D01*
X149230536Y-100128248D01*
X149261067Y-100281738D01*
X149261068Y-100281740D01*
X149320956Y-100426322D01*
X149407896Y-100556437D01*
X149407904Y-100556446D01*
X149518553Y-100667095D01*
X149518562Y-100667103D01*
X149645429Y-100751873D01*
X149648680Y-100754045D01*
X149793263Y-100813933D01*
X149908638Y-100836882D01*
X149946751Y-100844464D01*
X149946752Y-100844464D01*
X150103249Y-100844464D01*
X150133780Y-100838390D01*
X150256737Y-100813933D01*
X150401320Y-100754045D01*
X150531441Y-100667100D01*
X150642100Y-100556441D01*
X150729045Y-100426320D01*
X150788933Y-100281737D01*
X150819464Y-100128248D01*
X150819464Y-99971752D01*
X150788933Y-99818263D01*
X150729045Y-99673680D01*
X150705696Y-99638736D01*
X150642103Y-99543562D01*
X150642095Y-99543553D01*
X150531446Y-99432904D01*
X150531437Y-99432896D01*
X150401322Y-99345956D01*
X150383232Y-99338463D01*
X150268509Y-99290943D01*
X150256740Y-99286068D01*
X150256738Y-99286067D01*
X150103249Y-99255536D01*
X150103248Y-99255536D01*
X149946752Y-99255536D01*
X149946751Y-99255536D01*
X149793261Y-99286067D01*
X149793259Y-99286068D01*
X149648677Y-99345956D01*
X149518562Y-99432896D01*
X149518553Y-99432904D01*
X149407904Y-99543553D01*
X149407896Y-99543562D01*
X149320956Y-99673677D01*
X149261068Y-99818259D01*
X149261067Y-99818261D01*
X149230536Y-99971751D01*
X136455300Y-99971751D01*
X136455300Y-99964401D01*
X136420696Y-99745925D01*
X136352342Y-99535552D01*
X136251920Y-99338463D01*
X136217395Y-99290943D01*
X137660382Y-99290943D01*
X137660382Y-99449057D01*
X137691074Y-99563602D01*
X137701305Y-99601785D01*
X137780361Y-99738714D01*
X137780365Y-99738720D01*
X137892161Y-99850516D01*
X137892164Y-99850518D01*
X137892166Y-99850520D01*
X138029098Y-99929577D01*
X138181825Y-99970500D01*
X138181828Y-99970500D01*
X138339936Y-99970500D01*
X138339939Y-99970500D01*
X138492666Y-99929577D01*
X138492668Y-99929576D01*
X138538816Y-99902933D01*
X138565072Y-99887773D01*
X138629598Y-99850520D01*
X138741402Y-99738716D01*
X138820459Y-99601784D01*
X138861382Y-99449057D01*
X138861382Y-99290943D01*
X138820459Y-99138216D01*
X138770072Y-99050943D01*
X152539500Y-99050943D01*
X152539500Y-99209057D01*
X152547309Y-99238200D01*
X152580423Y-99361785D01*
X152659479Y-99498714D01*
X152659483Y-99498720D01*
X152771279Y-99610516D01*
X152771282Y-99610518D01*
X152771284Y-99610520D01*
X152908216Y-99689577D01*
X153060943Y-99730500D01*
X153060946Y-99730500D01*
X153219054Y-99730500D01*
X153219057Y-99730500D01*
X153371784Y-99689577D01*
X153508716Y-99610520D01*
X153620520Y-99498716D01*
X153699577Y-99361784D01*
X153740500Y-99209057D01*
X153740500Y-99050943D01*
X153699577Y-98898216D01*
X153620520Y-98761284D01*
X153620518Y-98761282D01*
X153620516Y-98761279D01*
X153600756Y-98741519D01*
X153579016Y-98694899D01*
X153592330Y-98645212D01*
X153616331Y-98623220D01*
X153626316Y-98617456D01*
X153738120Y-98505652D01*
X153817177Y-98368720D01*
X153858100Y-98215993D01*
X153858100Y-98057879D01*
X153817177Y-97905152D01*
X153751239Y-97790943D01*
X153738123Y-97768224D01*
X153738116Y-97768215D01*
X153730844Y-97760943D01*
X162599500Y-97760943D01*
X162599500Y-97919057D01*
X162620671Y-97998068D01*
X162640423Y-98071785D01*
X162719479Y-98208714D01*
X162719483Y-98208720D01*
X162831279Y-98320516D01*
X162831282Y-98320518D01*
X162831284Y-98320520D01*
X162968216Y-98399577D01*
X163120943Y-98440500D01*
X163120946Y-98440500D01*
X163279054Y-98440500D01*
X163279057Y-98440500D01*
X163431784Y-98399577D01*
X163568716Y-98320520D01*
X163680520Y-98208716D01*
X163759577Y-98071784D01*
X163800500Y-97919057D01*
X163800500Y-97760943D01*
X163759577Y-97608216D01*
X163680520Y-97471284D01*
X163680518Y-97471282D01*
X163680516Y-97471279D01*
X163568720Y-97359483D01*
X163568714Y-97359479D01*
X163431785Y-97280423D01*
X163373295Y-97264751D01*
X163279057Y-97239500D01*
X163120943Y-97239500D01*
X163030250Y-97263801D01*
X162968214Y-97280423D01*
X162831285Y-97359479D01*
X162831279Y-97359483D01*
X162719483Y-97471279D01*
X162719479Y-97471285D01*
X162640423Y-97608214D01*
X162632137Y-97639138D01*
X162599500Y-97760943D01*
X153730844Y-97760943D01*
X153626320Y-97656419D01*
X153626314Y-97656415D01*
X153489385Y-97577359D01*
X153451202Y-97567128D01*
X153336657Y-97536436D01*
X153178543Y-97536436D01*
X153097259Y-97558216D01*
X153025814Y-97577359D01*
X152888885Y-97656415D01*
X152888879Y-97656419D01*
X152777083Y-97768215D01*
X152777079Y-97768221D01*
X152698023Y-97905150D01*
X152677561Y-97981515D01*
X152657100Y-98057879D01*
X152657100Y-98215993D01*
X152685107Y-98320516D01*
X152698023Y-98368721D01*
X152733527Y-98430215D01*
X152777080Y-98505652D01*
X152796842Y-98525414D01*
X152818583Y-98572033D01*
X152805270Y-98621721D01*
X152781273Y-98643712D01*
X152771285Y-98649479D01*
X152771279Y-98649483D01*
X152659483Y-98761279D01*
X152659479Y-98761285D01*
X152580423Y-98898214D01*
X152559961Y-98974579D01*
X152539500Y-99050943D01*
X138770072Y-99050943D01*
X138741402Y-99001284D01*
X138741400Y-99001282D01*
X138741398Y-99001279D01*
X138629602Y-98889483D01*
X138629596Y-98889479D01*
X138492667Y-98810423D01*
X138454484Y-98800192D01*
X138339939Y-98769500D01*
X138181825Y-98769500D01*
X138090188Y-98794053D01*
X138029096Y-98810423D01*
X137892167Y-98889479D01*
X137892161Y-98889483D01*
X137780365Y-99001279D01*
X137780361Y-99001285D01*
X137701305Y-99138214D01*
X137682324Y-99209054D01*
X137660382Y-99290943D01*
X136217395Y-99290943D01*
X136121902Y-99159509D01*
X136121900Y-99159507D01*
X136121893Y-99159499D01*
X135965500Y-99003106D01*
X135965492Y-99003099D01*
X135962995Y-99001285D01*
X135821134Y-98898216D01*
X135786538Y-98873080D01*
X135589447Y-98772657D01*
X135379079Y-98704305D01*
X135379067Y-98704302D01*
X135160601Y-98669700D01*
X135160599Y-98669700D01*
X134939401Y-98669700D01*
X134939398Y-98669700D01*
X134720932Y-98704302D01*
X134720920Y-98704305D01*
X134510552Y-98772657D01*
X134313461Y-98873080D01*
X134134507Y-99003099D01*
X134134499Y-99003106D01*
X133978106Y-99159499D01*
X133978099Y-99159507D01*
X133848080Y-99338461D01*
X133747657Y-99535552D01*
X133679305Y-99745920D01*
X133679303Y-99745929D01*
X133674485Y-99776346D01*
X133649545Y-99821336D01*
X133601521Y-99839769D01*
X133552885Y-99823020D01*
X133526392Y-99778927D01*
X133525034Y-99762742D01*
X133537821Y-99241861D01*
X133537999Y-99238226D01*
X133597335Y-98433842D01*
X133597692Y-98430215D01*
X133686407Y-97710943D01*
X136589500Y-97710943D01*
X136589500Y-97869057D01*
X136610935Y-97949054D01*
X136630423Y-98021785D01*
X136709479Y-98158714D01*
X136709483Y-98158720D01*
X136821279Y-98270516D01*
X136821282Y-98270518D01*
X136821284Y-98270520D01*
X136958216Y-98349577D01*
X137110943Y-98390500D01*
X137110946Y-98390500D01*
X137269054Y-98390500D01*
X137269057Y-98390500D01*
X137421784Y-98349577D01*
X137558716Y-98270520D01*
X137670520Y-98158716D01*
X137749577Y-98021784D01*
X137790500Y-97869057D01*
X137790500Y-97710943D01*
X137749577Y-97558216D01*
X137670520Y-97421284D01*
X137670518Y-97421282D01*
X137670516Y-97421279D01*
X137558720Y-97309483D01*
X137555725Y-97307185D01*
X137528086Y-97263801D01*
X137534799Y-97212801D01*
X137563903Y-97182399D01*
X137588716Y-97168074D01*
X137700520Y-97056270D01*
X137732463Y-97000943D01*
X146551520Y-97000943D01*
X146551520Y-97159057D01*
X146572586Y-97237676D01*
X146592443Y-97311785D01*
X146671499Y-97448714D01*
X146671503Y-97448720D01*
X146783299Y-97560516D01*
X146783302Y-97560518D01*
X146783304Y-97560520D01*
X146891298Y-97622870D01*
X146919482Y-97639142D01*
X146920236Y-97639577D01*
X147072963Y-97680500D01*
X147072966Y-97680500D01*
X147231074Y-97680500D01*
X147231077Y-97680500D01*
X147383804Y-97639577D01*
X147520736Y-97560520D01*
X147526248Y-97555007D01*
X147572866Y-97533266D01*
X147622554Y-97546576D01*
X147644548Y-97570578D01*
X147651300Y-97582272D01*
X147660313Y-97597884D01*
X147772112Y-97709683D01*
X147772115Y-97709685D01*
X147772117Y-97709687D01*
X147909049Y-97788744D01*
X148061776Y-97829667D01*
X148061779Y-97829667D01*
X148219887Y-97829667D01*
X148219890Y-97829667D01*
X148364410Y-97790943D01*
X150979500Y-97790943D01*
X150979500Y-97949057D01*
X151008659Y-98057879D01*
X151020423Y-98101785D01*
X151099479Y-98238714D01*
X151099483Y-98238720D01*
X151211279Y-98350516D01*
X151211282Y-98350518D01*
X151211284Y-98350520D01*
X151348216Y-98429577D01*
X151500943Y-98470500D01*
X151500946Y-98470500D01*
X151659054Y-98470500D01*
X151659057Y-98470500D01*
X151811784Y-98429577D01*
X151948716Y-98350520D01*
X152060520Y-98238716D01*
X152139577Y-98101784D01*
X152180500Y-97949057D01*
X152180500Y-97790943D01*
X152139577Y-97638216D01*
X152060520Y-97501284D01*
X152060518Y-97501282D01*
X152060516Y-97501279D01*
X151948720Y-97389483D01*
X151948714Y-97389479D01*
X151811785Y-97310423D01*
X151754795Y-97295153D01*
X151659057Y-97269500D01*
X151500943Y-97269500D01*
X151409306Y-97294053D01*
X151348214Y-97310423D01*
X151211285Y-97389479D01*
X151211279Y-97389483D01*
X151099483Y-97501279D01*
X151099479Y-97501285D01*
X151020423Y-97638214D01*
X151001272Y-97709687D01*
X150979500Y-97790943D01*
X148364410Y-97790943D01*
X148372617Y-97788744D01*
X148509549Y-97709687D01*
X148621353Y-97597883D01*
X148700410Y-97460951D01*
X148732920Y-97339620D01*
X148762423Y-97297487D01*
X148812109Y-97284173D01*
X148858730Y-97305912D01*
X148878193Y-97339622D01*
X148891801Y-97390406D01*
X148955816Y-97501285D01*
X148970857Y-97527336D01*
X148970861Y-97527342D01*
X149082657Y-97639138D01*
X149082660Y-97639140D01*
X149082662Y-97639142D01*
X149154297Y-97680500D01*
X149219590Y-97718197D01*
X149219594Y-97718199D01*
X149372321Y-97759122D01*
X149372324Y-97759122D01*
X149530432Y-97759122D01*
X149530435Y-97759122D01*
X149683162Y-97718199D01*
X149820094Y-97639142D01*
X149931898Y-97527338D01*
X150010955Y-97390406D01*
X150051878Y-97237679D01*
X150051878Y-97079565D01*
X150010955Y-96926838D01*
X150006625Y-96919339D01*
X149965562Y-96848214D01*
X149931898Y-96789906D01*
X149931896Y-96789904D01*
X149931894Y-96789901D01*
X149820098Y-96678105D01*
X149820092Y-96678101D01*
X149683163Y-96599045D01*
X149644980Y-96588814D01*
X149530435Y-96558122D01*
X149372321Y-96558122D01*
X149280684Y-96582675D01*
X149219592Y-96599045D01*
X149082663Y-96678101D01*
X149082657Y-96678105D01*
X148970861Y-96789901D01*
X148970857Y-96789907D01*
X148891801Y-96926836D01*
X148859292Y-97048164D01*
X148829787Y-97090301D01*
X148780100Y-97103615D01*
X148733480Y-97081875D01*
X148714017Y-97048166D01*
X148700410Y-96997383D01*
X148700409Y-96997382D01*
X148700409Y-96997380D01*
X148655351Y-96919338D01*
X148621353Y-96860451D01*
X148621351Y-96860449D01*
X148621349Y-96860446D01*
X148509553Y-96748650D01*
X148509547Y-96748646D01*
X148372618Y-96669590D01*
X148334435Y-96659359D01*
X148219890Y-96628667D01*
X148061776Y-96628667D01*
X147970139Y-96653220D01*
X147909047Y-96669590D01*
X147772118Y-96748646D01*
X147772110Y-96748652D01*
X147766599Y-96754163D01*
X147719978Y-96775900D01*
X147670292Y-96762584D01*
X147648303Y-96738586D01*
X147643569Y-96730387D01*
X147632540Y-96711284D01*
X147632538Y-96711282D01*
X147632536Y-96711279D01*
X147520740Y-96599483D01*
X147520734Y-96599479D01*
X147519982Y-96599045D01*
X147482669Y-96577502D01*
X147383805Y-96520423D01*
X147345622Y-96510192D01*
X147231077Y-96479500D01*
X147072963Y-96479500D01*
X146981326Y-96504053D01*
X146920234Y-96520423D01*
X146783305Y-96599479D01*
X146783299Y-96599483D01*
X146671503Y-96711279D01*
X146671499Y-96711285D01*
X146592443Y-96848214D01*
X146589164Y-96860452D01*
X146551520Y-97000943D01*
X137732463Y-97000943D01*
X137779577Y-96919338D01*
X137820500Y-96766611D01*
X137820500Y-96608497D01*
X137779577Y-96455770D01*
X137776180Y-96449887D01*
X137768243Y-96436139D01*
X137707082Y-96330204D01*
X137698150Y-96279549D01*
X137723870Y-96235001D01*
X137772208Y-96217407D01*
X137791669Y-96219969D01*
X137793651Y-96220500D01*
X137951762Y-96220500D01*
X137951765Y-96220500D01*
X138104492Y-96179577D01*
X138241424Y-96100520D01*
X138353228Y-95988716D01*
X138432285Y-95851784D01*
X138473208Y-95699057D01*
X138473208Y-95540943D01*
X138432285Y-95388216D01*
X138353228Y-95251284D01*
X138353226Y-95251282D01*
X138353224Y-95251279D01*
X138241428Y-95139483D01*
X138241422Y-95139479D01*
X138104493Y-95060423D01*
X138066310Y-95050192D01*
X137951765Y-95019500D01*
X137793651Y-95019500D01*
X137702014Y-95044053D01*
X137640922Y-95060423D01*
X137503993Y-95139479D01*
X137503987Y-95139483D01*
X137392191Y-95251279D01*
X137392187Y-95251285D01*
X137313131Y-95388214D01*
X137299395Y-95439479D01*
X137272208Y-95540943D01*
X137272208Y-95699057D01*
X137294835Y-95783501D01*
X137313131Y-95851785D01*
X137385624Y-95977346D01*
X137394557Y-96028004D01*
X137368837Y-96072553D01*
X137320499Y-96090146D01*
X137301046Y-96087586D01*
X137299060Y-96087054D01*
X137299057Y-96087054D01*
X137140943Y-96087054D01*
X137055975Y-96109821D01*
X136988214Y-96127977D01*
X136851285Y-96207033D01*
X136851279Y-96207037D01*
X136739483Y-96318833D01*
X136739479Y-96318839D01*
X136660423Y-96455768D01*
X136651051Y-96490745D01*
X136619500Y-96608497D01*
X136619500Y-96766611D01*
X136641366Y-96848216D01*
X136660423Y-96919339D01*
X136739479Y-97056268D01*
X136739483Y-97056274D01*
X136851277Y-97168068D01*
X136851280Y-97168070D01*
X136851284Y-97168074D01*
X136851287Y-97168075D01*
X136854273Y-97170367D01*
X136881913Y-97213751D01*
X136875200Y-97264751D01*
X136846097Y-97295153D01*
X136821288Y-97309477D01*
X136821279Y-97309483D01*
X136709483Y-97421279D01*
X136709479Y-97421285D01*
X136630423Y-97558214D01*
X136614512Y-97617595D01*
X136589500Y-97710943D01*
X133686407Y-97710943D01*
X133696423Y-97629733D01*
X133696955Y-97626138D01*
X133834846Y-96831453D01*
X133835565Y-96827841D01*
X133835926Y-96826233D01*
X134012278Y-96040900D01*
X134013164Y-96037364D01*
X134071824Y-95825394D01*
X134101673Y-95783501D01*
X134151467Y-95770594D01*
X134197908Y-95792714D01*
X134219265Y-95839511D01*
X134219500Y-95845452D01*
X134219500Y-95999057D01*
X134230712Y-96040900D01*
X134260423Y-96151785D01*
X134292321Y-96207034D01*
X134334187Y-96279549D01*
X134339479Y-96288714D01*
X134339483Y-96288720D01*
X134451279Y-96400516D01*
X134451282Y-96400518D01*
X134451284Y-96400520D01*
X134536791Y-96449887D01*
X134588082Y-96479500D01*
X134588216Y-96479577D01*
X134740943Y-96520500D01*
X134740946Y-96520500D01*
X134899054Y-96520500D01*
X134899057Y-96520500D01*
X135023061Y-96487273D01*
X135074303Y-96491757D01*
X135110676Y-96528130D01*
X135115160Y-96579374D01*
X135095697Y-96613085D01*
X135019480Y-96689302D01*
X135019479Y-96689304D01*
X134940423Y-96826233D01*
X134919961Y-96902598D01*
X134899500Y-96978962D01*
X134899500Y-97137076D01*
X134926944Y-97239500D01*
X134940423Y-97289804D01*
X134980652Y-97359483D01*
X135016333Y-97421285D01*
X135019479Y-97426733D01*
X135019483Y-97426739D01*
X135131279Y-97538535D01*
X135131282Y-97538537D01*
X135131284Y-97538539D01*
X135268216Y-97617596D01*
X135420943Y-97658519D01*
X135420946Y-97658519D01*
X135579054Y-97658519D01*
X135579057Y-97658519D01*
X135731784Y-97617596D01*
X135868716Y-97538539D01*
X135980520Y-97426735D01*
X136059577Y-97289803D01*
X136100500Y-97137076D01*
X136100500Y-96978962D01*
X136059577Y-96826235D01*
X135980520Y-96689303D01*
X135980518Y-96689301D01*
X135980516Y-96689298D01*
X135868720Y-96577502D01*
X135868714Y-96577498D01*
X135731785Y-96498442D01*
X135686324Y-96486261D01*
X135579057Y-96457519D01*
X135420943Y-96457519D01*
X135352971Y-96475731D01*
X135296940Y-96490745D01*
X135245696Y-96486261D01*
X135209322Y-96449887D01*
X135204840Y-96398643D01*
X135224301Y-96364934D01*
X135300520Y-96288716D01*
X135379577Y-96151784D01*
X135420500Y-95999057D01*
X135420500Y-95840943D01*
X135379577Y-95688216D01*
X135300520Y-95551284D01*
X135300518Y-95551282D01*
X135300516Y-95551279D01*
X135188720Y-95439483D01*
X135188714Y-95439479D01*
X135051785Y-95360423D01*
X135013602Y-95350192D01*
X134899057Y-95319500D01*
X134740943Y-95319500D01*
X134649306Y-95344053D01*
X134588214Y-95360423D01*
X134451285Y-95439479D01*
X134451279Y-95439483D01*
X134339483Y-95551279D01*
X134339479Y-95551285D01*
X134266032Y-95678499D01*
X134226627Y-95711564D01*
X134175187Y-95711564D01*
X134135782Y-95678499D01*
X134126849Y-95627841D01*
X134128427Y-95620855D01*
X134228283Y-95260023D01*
X134229337Y-95256549D01*
X134474974Y-94512994D01*
X136376827Y-94512994D01*
X136376827Y-94671108D01*
X136390181Y-94720945D01*
X136417750Y-94823836D01*
X136496806Y-94960765D01*
X136496810Y-94960771D01*
X136608606Y-95072567D01*
X136608609Y-95072569D01*
X136608611Y-95072571D01*
X136745543Y-95151628D01*
X136898270Y-95192551D01*
X136898273Y-95192551D01*
X137056381Y-95192551D01*
X137056384Y-95192551D01*
X137209111Y-95151628D01*
X137346043Y-95072571D01*
X137457847Y-94960767D01*
X137536904Y-94823835D01*
X137577827Y-94671108D01*
X137577827Y-94512994D01*
X137536904Y-94360267D01*
X137457847Y-94223335D01*
X137457845Y-94223333D01*
X137457843Y-94223330D01*
X137346047Y-94111534D01*
X137346041Y-94111530D01*
X137293402Y-94081139D01*
X137209112Y-94032474D01*
X137166077Y-94020943D01*
X145102000Y-94020943D01*
X145102000Y-94179057D01*
X145113865Y-94223336D01*
X145142923Y-94331785D01*
X145221979Y-94468714D01*
X145221983Y-94468720D01*
X145333779Y-94580516D01*
X145333782Y-94580518D01*
X145333784Y-94580520D01*
X145470716Y-94659577D01*
X145623443Y-94700500D01*
X145623446Y-94700500D01*
X145781554Y-94700500D01*
X145781557Y-94700500D01*
X145934284Y-94659577D01*
X146071216Y-94580520D01*
X146183020Y-94468716D01*
X146262077Y-94331784D01*
X146303000Y-94179057D01*
X146303000Y-94020943D01*
X146262077Y-93868216D01*
X146183020Y-93731284D01*
X146183018Y-93731282D01*
X146183016Y-93731279D01*
X146071220Y-93619483D01*
X146071214Y-93619479D01*
X145934285Y-93540423D01*
X145896102Y-93530192D01*
X145781557Y-93499500D01*
X145623443Y-93499500D01*
X145531806Y-93524053D01*
X145470714Y-93540423D01*
X145333785Y-93619479D01*
X145333779Y-93619483D01*
X145221983Y-93731279D01*
X145221979Y-93731285D01*
X145142923Y-93868214D01*
X145130286Y-93915377D01*
X145102000Y-94020943D01*
X137166077Y-94020943D01*
X137056384Y-93991551D01*
X136898270Y-93991551D01*
X136806633Y-94016104D01*
X136745541Y-94032474D01*
X136608612Y-94111530D01*
X136608606Y-94111534D01*
X136496810Y-94223330D01*
X136496806Y-94223336D01*
X136417750Y-94360265D01*
X136398722Y-94431279D01*
X136376827Y-94512994D01*
X134474974Y-94512994D01*
X134482351Y-94490663D01*
X134483575Y-94487243D01*
X134773846Y-93734744D01*
X134775239Y-93731381D01*
X134976766Y-93276743D01*
X135293250Y-93276743D01*
X135293250Y-93434857D01*
X135310571Y-93499500D01*
X135334173Y-93587585D01*
X135413229Y-93724514D01*
X135413233Y-93724520D01*
X135525029Y-93836316D01*
X135525032Y-93836318D01*
X135525034Y-93836320D01*
X135661966Y-93915377D01*
X135814693Y-93956300D01*
X135814696Y-93956300D01*
X135972804Y-93956300D01*
X135972807Y-93956300D01*
X136125534Y-93915377D01*
X136262466Y-93836320D01*
X136374270Y-93724516D01*
X136453327Y-93587584D01*
X136494250Y-93434857D01*
X136494250Y-93276743D01*
X136453327Y-93124016D01*
X136434232Y-93090943D01*
X136882000Y-93090943D01*
X136882000Y-93249057D01*
X136912692Y-93363602D01*
X136922923Y-93401785D01*
X137001979Y-93538714D01*
X137001983Y-93538720D01*
X137113779Y-93650516D01*
X137113782Y-93650518D01*
X137113784Y-93650520D01*
X137221778Y-93712870D01*
X137241946Y-93724514D01*
X137250716Y-93729577D01*
X137403443Y-93770500D01*
X137403446Y-93770500D01*
X137561554Y-93770500D01*
X137561557Y-93770500D01*
X137714284Y-93729577D01*
X137851216Y-93650520D01*
X137963020Y-93538716D01*
X138042077Y-93401784D01*
X138083000Y-93249057D01*
X138083000Y-93090943D01*
X138042077Y-92938216D01*
X137963020Y-92801284D01*
X137963018Y-92801282D01*
X137963016Y-92801279D01*
X137851220Y-92689483D01*
X137851214Y-92689479D01*
X137714285Y-92610423D01*
X137676102Y-92600192D01*
X137561557Y-92569500D01*
X137403443Y-92569500D01*
X137311806Y-92594053D01*
X137250714Y-92610423D01*
X137113785Y-92689479D01*
X137113779Y-92689483D01*
X137001983Y-92801279D01*
X137001979Y-92801285D01*
X136922923Y-92938214D01*
X136907976Y-92993998D01*
X136882000Y-93090943D01*
X136434232Y-93090943D01*
X136374270Y-92987084D01*
X136374268Y-92987082D01*
X136374266Y-92987079D01*
X136262470Y-92875283D01*
X136262464Y-92875279D01*
X136125535Y-92796223D01*
X136087352Y-92785992D01*
X135972807Y-92755300D01*
X135814693Y-92755300D01*
X135723056Y-92779853D01*
X135661964Y-92796223D01*
X135525035Y-92875279D01*
X135525029Y-92875283D01*
X135413233Y-92987079D01*
X135413229Y-92987085D01*
X135334173Y-93124014D01*
X135327324Y-93149576D01*
X135293250Y-93276743D01*
X134976766Y-93276743D01*
X135102098Y-92993998D01*
X135103659Y-92990698D01*
X135466281Y-92270294D01*
X135468013Y-92267053D01*
X135493941Y-92221285D01*
X135766050Y-91740943D01*
X138697000Y-91740943D01*
X138697000Y-91899057D01*
X138721234Y-91989500D01*
X138737923Y-92051785D01*
X138816979Y-92188714D01*
X138816983Y-92188720D01*
X138928779Y-92300516D01*
X138928782Y-92300518D01*
X138928784Y-92300520D01*
X139065716Y-92379577D01*
X139218443Y-92420500D01*
X139218446Y-92420500D01*
X139376554Y-92420500D01*
X139376557Y-92420500D01*
X139529284Y-92379577D01*
X139567746Y-92357370D01*
X139618404Y-92348438D01*
X139662952Y-92374158D01*
X139680546Y-92422496D01*
X139677984Y-92441958D01*
X139666777Y-92483783D01*
X139659500Y-92510943D01*
X139659500Y-92669057D01*
X139682609Y-92755300D01*
X139700423Y-92821785D01*
X139779479Y-92958714D01*
X139779483Y-92958720D01*
X139891279Y-93070516D01*
X139891282Y-93070518D01*
X139891284Y-93070520D01*
X140028216Y-93149577D01*
X140180943Y-93190500D01*
X140180946Y-93190500D01*
X140339054Y-93190500D01*
X140339057Y-93190500D01*
X140491784Y-93149577D01*
X140628716Y-93070520D01*
X140740520Y-92958716D01*
X140819577Y-92821784D01*
X140860500Y-92669057D01*
X140860500Y-92530000D01*
X147980000Y-92530000D01*
X147999999Y-96109821D01*
X148000000Y-96110241D01*
X148000000Y-96120000D01*
X150890000Y-96120000D01*
X150890000Y-94720943D01*
X157569500Y-94720943D01*
X157569500Y-94879057D01*
X157600192Y-94993602D01*
X157610423Y-95031785D01*
X157689479Y-95168714D01*
X157689483Y-95168720D01*
X157801279Y-95280516D01*
X157801282Y-95280518D01*
X157801284Y-95280520D01*
X157938216Y-95359577D01*
X158090943Y-95400500D01*
X158090946Y-95400500D01*
X158249054Y-95400500D01*
X158249057Y-95400500D01*
X158401784Y-95359577D01*
X158538716Y-95280520D01*
X158650520Y-95168716D01*
X158729577Y-95031784D01*
X158770500Y-94879057D01*
X158770500Y-94720943D01*
X158729577Y-94568216D01*
X158650520Y-94431284D01*
X158650518Y-94431282D01*
X158650516Y-94431279D01*
X158538720Y-94319483D01*
X158538714Y-94319479D01*
X158401785Y-94240423D01*
X158338014Y-94223336D01*
X158249057Y-94199500D01*
X158090943Y-94199500D01*
X158002008Y-94223330D01*
X157938214Y-94240423D01*
X157801285Y-94319479D01*
X157801279Y-94319483D01*
X157689483Y-94431279D01*
X157689479Y-94431285D01*
X157610423Y-94568214D01*
X157607127Y-94580516D01*
X157569500Y-94720943D01*
X150890000Y-94720943D01*
X150890000Y-92530000D01*
X147980000Y-92530000D01*
X140860500Y-92530000D01*
X140860500Y-92510943D01*
X140819577Y-92358216D01*
X140740520Y-92221284D01*
X140740518Y-92221282D01*
X140740516Y-92221279D01*
X140628720Y-92109483D01*
X140628714Y-92109479D01*
X140491785Y-92030423D01*
X140453602Y-92020192D01*
X140339057Y-91989500D01*
X140180943Y-91989500D01*
X140028216Y-92030423D01*
X140028215Y-92030423D01*
X140028213Y-92030424D01*
X139989751Y-92052629D01*
X139939093Y-92061560D01*
X139894545Y-92035839D01*
X139876953Y-91987501D01*
X139879513Y-91968049D01*
X139898000Y-91899057D01*
X139898000Y-91740943D01*
X139857077Y-91588216D01*
X139778020Y-91451284D01*
X139778018Y-91451282D01*
X139778016Y-91451279D01*
X139666220Y-91339483D01*
X139666214Y-91339479D01*
X139659864Y-91335813D01*
X139637278Y-91322773D01*
X139529285Y-91260423D01*
X139491102Y-91250192D01*
X139376557Y-91219500D01*
X139218443Y-91219500D01*
X139126806Y-91244053D01*
X139065714Y-91260423D01*
X138928785Y-91339479D01*
X138928779Y-91339483D01*
X138816983Y-91451279D01*
X138816979Y-91451285D01*
X138737923Y-91588214D01*
X138734904Y-91599483D01*
X138697000Y-91740943D01*
X135766050Y-91740943D01*
X135865563Y-91565278D01*
X135867438Y-91562150D01*
X136211326Y-91019092D01*
X142361351Y-91019092D01*
X142361351Y-91177206D01*
X142372684Y-91219500D01*
X142402274Y-91329934D01*
X142481330Y-91466863D01*
X142481334Y-91466869D01*
X142593130Y-91578665D01*
X142593133Y-91578667D01*
X142593135Y-91578669D01*
X142730067Y-91657726D01*
X142882794Y-91698649D01*
X142882797Y-91698649D01*
X143040905Y-91698649D01*
X143040908Y-91698649D01*
X143193635Y-91657726D01*
X143330567Y-91578669D01*
X143428293Y-91480943D01*
X150879500Y-91480943D01*
X150879500Y-91639057D01*
X150906800Y-91740943D01*
X150920423Y-91791785D01*
X150999479Y-91928714D01*
X150999483Y-91928720D01*
X151111279Y-92040516D01*
X151111282Y-92040518D01*
X151111284Y-92040520D01*
X151132258Y-92052629D01*
X151230732Y-92109483D01*
X151248216Y-92119577D01*
X151400943Y-92160500D01*
X151400946Y-92160500D01*
X151559054Y-92160500D01*
X151559057Y-92160500D01*
X151711784Y-92119577D01*
X151848716Y-92040520D01*
X151888293Y-92000943D01*
X154029500Y-92000943D01*
X154029500Y-92159057D01*
X154046174Y-92221284D01*
X154070423Y-92311785D01*
X154149479Y-92448714D01*
X154149483Y-92448720D01*
X154261279Y-92560516D01*
X154261282Y-92560518D01*
X154261284Y-92560520D01*
X154398216Y-92639577D01*
X154550943Y-92680500D01*
X154550946Y-92680500D01*
X154709054Y-92680500D01*
X154709057Y-92680500D01*
X154861784Y-92639577D01*
X154998716Y-92560520D01*
X155110520Y-92448716D01*
X155189577Y-92311784D01*
X155230500Y-92159057D01*
X155230500Y-92000943D01*
X155189577Y-91848216D01*
X155110520Y-91711284D01*
X155110518Y-91711282D01*
X155110516Y-91711279D01*
X154998720Y-91599483D01*
X154998714Y-91599479D01*
X154979202Y-91588214D01*
X154889721Y-91536552D01*
X154861785Y-91520423D01*
X154823602Y-91510192D01*
X154709057Y-91479500D01*
X154550943Y-91479500D01*
X154459306Y-91504053D01*
X154398214Y-91520423D01*
X154261285Y-91599479D01*
X154261279Y-91599483D01*
X154149483Y-91711279D01*
X154149479Y-91711285D01*
X154070423Y-91848214D01*
X154056801Y-91899053D01*
X154029500Y-92000943D01*
X151888293Y-92000943D01*
X151946397Y-91942840D01*
X151960516Y-91928720D01*
X151960520Y-91928716D01*
X152039577Y-91791784D01*
X152080500Y-91639057D01*
X152080500Y-91480943D01*
X152039577Y-91328216D01*
X151960520Y-91191284D01*
X151960518Y-91191282D01*
X151960516Y-91191279D01*
X151848720Y-91079483D01*
X151848714Y-91079479D01*
X151711785Y-91000423D01*
X151673602Y-90990192D01*
X151559057Y-90959500D01*
X151400943Y-90959500D01*
X151309306Y-90984053D01*
X151248214Y-91000423D01*
X151111285Y-91079479D01*
X151111279Y-91079483D01*
X150999483Y-91191279D01*
X150999479Y-91191285D01*
X150920423Y-91328214D01*
X150917404Y-91339483D01*
X150879500Y-91480943D01*
X143428293Y-91480943D01*
X143442371Y-91466865D01*
X143521428Y-91329933D01*
X143562351Y-91177206D01*
X143562351Y-91019092D01*
X143521428Y-90866365D01*
X143516018Y-90856995D01*
X156755552Y-90856995D01*
X156755552Y-91015109D01*
X156772800Y-91079479D01*
X156796475Y-91167837D01*
X156875531Y-91304766D01*
X156875535Y-91304772D01*
X156987331Y-91416568D01*
X156987334Y-91416570D01*
X156987336Y-91416572D01*
X157124268Y-91495629D01*
X157276995Y-91536552D01*
X157276998Y-91536552D01*
X157435106Y-91536552D01*
X157435109Y-91536552D01*
X157587836Y-91495629D01*
X157724768Y-91416572D01*
X157836572Y-91304768D01*
X157915629Y-91167836D01*
X157956552Y-91015109D01*
X157956552Y-90856995D01*
X157915629Y-90704268D01*
X157836572Y-90567336D01*
X157836570Y-90567334D01*
X157836568Y-90567331D01*
X157724772Y-90455535D01*
X157724766Y-90455531D01*
X157587837Y-90376475D01*
X157549654Y-90366244D01*
X157435109Y-90335552D01*
X157276995Y-90335552D01*
X157185358Y-90360105D01*
X157124266Y-90376475D01*
X156987337Y-90455531D01*
X156987331Y-90455535D01*
X156875535Y-90567331D01*
X156875531Y-90567337D01*
X156796475Y-90704266D01*
X156776013Y-90780631D01*
X156755552Y-90856995D01*
X143516018Y-90856995D01*
X143442371Y-90729433D01*
X143442369Y-90729431D01*
X143442367Y-90729428D01*
X143330571Y-90617632D01*
X143330565Y-90617628D01*
X143193636Y-90538572D01*
X143155453Y-90528341D01*
X143040908Y-90497649D01*
X142882794Y-90497649D01*
X142791157Y-90522202D01*
X142730065Y-90538572D01*
X142593136Y-90617628D01*
X142593130Y-90617632D01*
X142481334Y-90729428D01*
X142481330Y-90729434D01*
X142402274Y-90866363D01*
X142398420Y-90880747D01*
X142361351Y-91019092D01*
X136211326Y-91019092D01*
X136298949Y-90880720D01*
X136300964Y-90877705D01*
X136765396Y-90218262D01*
X136767550Y-90215358D01*
X137263787Y-89579487D01*
X137266082Y-89576691D01*
X137792937Y-88965920D01*
X137795362Y-88963245D01*
X138351504Y-88379111D01*
X138354113Y-88376503D01*
X138473330Y-88262999D01*
X138938245Y-87820362D01*
X138940920Y-87817937D01*
X139551691Y-87291082D01*
X139554487Y-87288787D01*
X140190358Y-86792550D01*
X140193262Y-86790396D01*
X140852705Y-86325964D01*
X140855720Y-86323949D01*
X141537150Y-85892438D01*
X141540278Y-85890563D01*
X142242066Y-85493006D01*
X142245294Y-85491281D01*
X142965698Y-85128659D01*
X142968998Y-85127098D01*
X143706381Y-84800239D01*
X143709744Y-84798846D01*
X144462250Y-84508572D01*
X144465663Y-84507351D01*
X145231549Y-84254337D01*
X145235023Y-84253283D01*
X146012364Y-84038164D01*
X146015900Y-84037278D01*
X146224441Y-83990449D01*
X146275459Y-83997024D01*
X146310314Y-84034855D01*
X146316117Y-84063677D01*
X146321370Y-86792550D01*
X146324200Y-88263000D01*
X146324201Y-88263000D01*
X153614000Y-88263000D01*
X153614000Y-84036901D01*
X153631593Y-83988563D01*
X153676142Y-83962843D01*
X153705672Y-83963527D01*
G37*
%TD.AperFunction*%
%TD*%
M02*
