%TF.GenerationSoftware,KiCad,Pcbnew,10.0.6*%
%TF.CreationDate,2026-09-26T10:38:17+05:30*%
%TF.ProjectId,electrophy_2,656c6563-7472-46f7-9068-795f322e6b69,rev?*%
%TF.SameCoordinates,Original*%
%TF.FileFunction,Legend,Top*%
%TF.FilePolarity,Positive*%
%FSLAX46Y46*%
G04 Gerber Fmt 4.6, Leading zero omitted, Abs format (unit mm)*
G04 Created by KiCad (PCBNEW 10.0.6) date 2026-09-26 10:38:17*
%MOMM*%
%LPD*%
G01*
G04 APERTURE LIST*
%ADD10C,0.150000*%
%ADD11C,0.304800*%
%ADD12C,0.429753*%
%ADD13C,0.152400*%
%ADD14C,0.100000*%
%ADD15C,0.155000*%
%ADD16C,0.200000*%
%ADD17C,0.120000*%
%ADD18C,0.000000*%
G04 APERTURE END LIST*
D10*
X132525000Y-100050000D02*
X167525000Y-100050000D01*
D11*
X135750000Y-94750000D02*
X135250000Y-95250000D01*
X135750000Y-94750000D02*
X135750000Y-96209431D01*
X135750000Y-94750000D02*
X136250000Y-95250000D01*
D12*
X135964876Y-97000000D02*
G75*
G02*
X135535124Y-97000000I-214876J0D01*
G01*
X135535124Y-97000000D02*
G75*
G02*
X135964876Y-97000000I214876J0D01*
G01*
D11*
X136540569Y-97000000D02*
G75*
G02*
X134959431Y-97000000I-790569J0D01*
G01*
X134959431Y-97000000D02*
G75*
G02*
X136540569Y-97000000I790569J0D01*
G01*
X136540569Y-97000000D02*
X138250000Y-97000000D01*
D10*
X137675000Y-112425000D02*
X137696213Y-112403787D01*
X138120477Y-111979523D02*
X138141690Y-111958310D01*
X138565955Y-111534045D02*
X138587168Y-111512832D01*
X139011432Y-111088568D02*
X139032645Y-111067355D01*
X139456909Y-110643091D02*
X139478122Y-110621878D01*
X139902386Y-110197614D02*
X139923600Y-110176400D01*
X140347864Y-109752136D02*
X140369077Y-109730923D01*
X140793341Y-109306659D02*
X140814554Y-109285446D01*
X141238818Y-108861182D02*
X141260031Y-108839969D01*
X141684295Y-108415705D02*
X141705509Y-108394491D01*
X142129773Y-107970227D02*
X142150986Y-107949014D01*
X142575250Y-107524750D02*
X142596463Y-107503537D01*
X143020727Y-107079273D02*
X143041940Y-107058060D01*
X143466205Y-106633795D02*
X143487418Y-106612582D01*
X143911682Y-106188318D02*
X143932895Y-106167105D01*
X144357159Y-105742841D02*
X144378372Y-105721628D01*
X144802636Y-105297364D02*
X144823850Y-105276150D01*
X145248114Y-104851886D02*
X145269327Y-104830673D01*
X145693591Y-104406409D02*
X145714804Y-104385196D01*
X146139068Y-103960932D02*
X146160281Y-103939719D01*
X146584545Y-103515455D02*
X146605759Y-103494241D01*
X147030023Y-103069977D02*
X147051236Y-103048764D01*
X147475500Y-102624500D02*
X147496713Y-102603287D01*
X147920977Y-102179023D02*
X147942190Y-102157810D01*
X148366455Y-101733545D02*
X148387668Y-101712332D01*
X148811932Y-101288068D02*
X148833145Y-101266855D01*
X149257409Y-100842591D02*
X149278622Y-100821378D01*
X149702886Y-100397114D02*
X149724100Y-100375900D01*
X150148364Y-99951636D02*
X150169577Y-99930423D01*
X150593841Y-99506159D02*
X150615054Y-99484946D01*
X151039318Y-99060682D02*
X151060531Y-99039469D01*
X151484795Y-98615205D02*
X151506009Y-98593991D01*
X151930273Y-98169727D02*
X151951486Y-98148514D01*
X152375750Y-97724250D02*
X152396963Y-97703037D01*
X152821227Y-97278773D02*
X152842440Y-97257560D01*
X153266705Y-96833295D02*
X153287918Y-96812082D01*
X153712182Y-96387818D02*
X153733395Y-96366605D01*
X154157659Y-95942341D02*
X154178872Y-95921128D01*
X154603136Y-95496864D02*
X154624350Y-95475650D01*
X155048614Y-95051386D02*
X155069827Y-95030173D01*
X155494091Y-94605909D02*
X155515304Y-94584696D01*
X155939568Y-94160432D02*
X155960781Y-94139219D01*
X156385045Y-93714955D02*
X156406259Y-93693741D01*
X156830523Y-93269477D02*
X156851736Y-93248264D01*
X157276000Y-92824000D02*
X157297213Y-92802787D01*
X157721477Y-92378523D02*
X157742690Y-92357310D01*
X158166955Y-91933045D02*
X158188168Y-91911832D01*
X158612432Y-91487568D02*
X158633645Y-91466355D01*
X159057909Y-91042091D02*
X159079122Y-91020878D01*
X159503386Y-90596614D02*
X159524600Y-90575400D01*
X159948864Y-90151136D02*
X159970077Y-90129923D01*
X160394341Y-89705659D02*
X160415554Y-89684446D01*
X160839818Y-89260182D02*
X160861031Y-89238969D01*
X161285295Y-88814705D02*
X161306509Y-88793491D01*
X161730773Y-88369227D02*
X161751986Y-88348014D01*
X162176250Y-87923750D02*
X162197463Y-87902537D01*
D13*
X137677500Y-112422500D02*
X139422500Y-110677500D01*
D11*
X138250000Y-97000000D02*
X137750000Y-96500000D01*
X138250000Y-97000000D02*
X137750000Y-97500000D01*
D14*
X166525000Y-100050000D02*
X166524372Y-100193988D01*
X166524372Y-100193988D02*
X166522487Y-100337965D01*
X166522487Y-100337965D02*
X166519346Y-100481920D01*
X166519346Y-100481920D02*
X166514949Y-100625842D01*
X166514949Y-100625842D02*
X166509296Y-100769720D01*
X166509296Y-100769720D02*
X166502387Y-100913543D01*
X166502387Y-100913543D02*
X166494224Y-101057301D01*
X166494224Y-101057301D02*
X166488347Y-101149185D01*
X166456865Y-101547935D02*
X166443168Y-101691271D01*
X166443168Y-101691271D02*
X166428220Y-101834482D01*
X166428220Y-101834482D02*
X166412023Y-101977558D01*
X166412023Y-101977558D02*
X166394578Y-102120486D01*
X166394578Y-102120486D02*
X166375887Y-102263257D01*
X166375887Y-102263257D02*
X166355950Y-102405859D01*
X166355950Y-102405859D02*
X166334770Y-102548282D01*
X166334770Y-102548282D02*
X166320575Y-102639254D01*
X166253023Y-103033498D02*
X166226370Y-103174999D01*
X166226370Y-103174999D02*
X166198482Y-103316262D01*
X166198482Y-103316262D02*
X166169363Y-103457276D01*
X166169363Y-103457276D02*
X166139015Y-103598031D01*
X166139015Y-103598031D02*
X166107439Y-103738515D01*
X166107439Y-103738515D02*
X166074639Y-103878719D01*
X166074639Y-103878719D02*
X166040616Y-104018631D01*
X166040616Y-104018631D02*
X166018222Y-104107938D01*
X165915158Y-104494422D02*
X165875768Y-104632919D01*
X165875768Y-104632919D02*
X165835172Y-104771067D01*
X165835172Y-104771067D02*
X165793371Y-104908855D01*
X165793371Y-104908855D02*
X165750370Y-105046273D01*
X165750370Y-105046273D02*
X165706171Y-105183311D01*
X165706171Y-105183311D02*
X165660778Y-105319958D01*
X165660778Y-105319958D02*
X165614194Y-105456203D01*
X165614194Y-105456203D02*
X165583784Y-105543108D01*
X165446059Y-105918640D02*
X165394259Y-106052989D01*
X165394259Y-106052989D02*
X165341288Y-106186881D01*
X165341288Y-106186881D02*
X165287152Y-106320305D01*
X165287152Y-106320305D02*
X165231852Y-106453252D01*
X165231852Y-106453252D02*
X165175395Y-106585712D01*
X165175395Y-106585712D02*
X165117784Y-106717673D01*
X165117784Y-106717673D02*
X165059024Y-106849127D01*
X165059024Y-106849127D02*
X165020850Y-106932913D01*
X164849601Y-107294390D02*
X164785818Y-107423482D01*
X164785818Y-107423482D02*
X164720911Y-107552012D01*
X164720911Y-107552012D02*
X164654885Y-107679971D01*
X164654885Y-107679971D02*
X164587745Y-107807349D01*
X164587745Y-107807349D02*
X164519496Y-107934135D01*
X164519496Y-107934135D02*
X164450143Y-108060322D01*
X164450143Y-108060322D02*
X164379691Y-108185898D01*
X164379691Y-108185898D02*
X164334068Y-108265873D01*
X164130711Y-108610311D02*
X164055472Y-108733079D01*
X164055472Y-108733079D02*
X163979164Y-108855186D01*
X163979164Y-108855186D02*
X163901794Y-108976622D01*
X163901794Y-108976622D02*
X163823367Y-109097379D01*
X163823367Y-109097379D02*
X163743890Y-109217446D01*
X163743890Y-109217446D02*
X163663367Y-109336815D01*
X163663367Y-109336815D02*
X163581806Y-109455477D01*
X163581806Y-109455477D02*
X163529112Y-109530979D01*
X163295324Y-109855534D02*
X163209251Y-109970965D01*
X163209251Y-109970965D02*
X163122173Y-110085640D01*
X163122173Y-110085640D02*
X163034098Y-110199550D01*
X163034098Y-110199550D02*
X162945032Y-110312688D01*
X162945032Y-110312688D02*
X162854982Y-110425045D01*
X162854982Y-110425045D02*
X162763956Y-110536611D01*
X162763956Y-110536611D02*
X162671959Y-110647379D01*
X162671959Y-110647379D02*
X162612627Y-110717785D01*
X162350341Y-111019775D02*
X162254144Y-111126915D01*
X162254144Y-111126915D02*
X162157015Y-111233211D01*
X162157015Y-111233211D02*
X162058962Y-111338656D01*
X162058962Y-111338656D02*
X161959993Y-111443241D01*
X161959993Y-111443241D02*
X161860115Y-111546958D01*
X161860115Y-111546958D02*
X161759336Y-111649800D01*
X161759336Y-111649800D02*
X161657663Y-111751758D01*
X161657663Y-111751758D02*
X161592185Y-111816488D01*
X161303566Y-112093420D02*
X161198039Y-112191384D01*
X161198039Y-112191384D02*
X161091661Y-112288423D01*
X161091661Y-112288423D02*
X160984441Y-112384531D01*
X160984441Y-112384531D02*
X160876386Y-112479699D01*
X160876386Y-112479699D02*
X160767504Y-112573921D01*
X160767504Y-112573921D02*
X160657805Y-112667189D01*
X160657805Y-112667189D02*
X160547296Y-112759496D01*
X160547296Y-112759496D02*
X160476211Y-112818014D01*
X160163643Y-113067600D02*
X160049659Y-113155580D01*
X160049659Y-113155580D02*
X159934911Y-113242561D01*
X159934911Y-113242561D02*
X159819408Y-113328538D01*
X159819408Y-113328538D02*
X159703159Y-113413504D01*
X159703159Y-113413504D02*
X159586174Y-113497452D01*
X159586174Y-113497452D02*
X159468460Y-113580376D01*
X159468460Y-113580376D02*
X159350027Y-113662269D01*
X159350027Y-113662269D02*
X159273924Y-113714092D01*
X158939988Y-113934271D02*
X158818487Y-114011540D01*
X158818487Y-114011540D02*
X158696316Y-114087745D01*
X158696316Y-114087745D02*
X158573485Y-114162881D01*
X158573485Y-114162881D02*
X158450003Y-114236942D01*
X158450003Y-114236942D02*
X158325880Y-114309923D01*
X158325880Y-114309923D02*
X158201124Y-114381818D01*
X158201124Y-114381818D02*
X158075745Y-114452621D01*
X158075745Y-114452621D02*
X157995252Y-114497321D01*
X157642706Y-114686275D02*
X157514692Y-114752194D01*
X157514692Y-114752194D02*
X157386108Y-114816993D01*
X157386108Y-114816993D02*
X157256963Y-114880668D01*
X157256963Y-114880668D02*
X157127267Y-114943213D01*
X157127267Y-114943213D02*
X156997030Y-115004625D01*
X156997030Y-115004625D02*
X156866263Y-115064897D01*
X156866263Y-115064897D02*
X156734974Y-115124026D01*
X156734974Y-115124026D02*
X156650755Y-115161233D01*
X156282511Y-115317402D02*
X156149041Y-115371427D01*
X156149041Y-115371427D02*
X156015105Y-115424285D01*
X156015105Y-115424285D02*
X155880713Y-115475973D01*
X155880713Y-115475973D02*
X155745875Y-115526485D01*
X155745875Y-115526485D02*
X155610601Y-115575819D01*
X155610601Y-115575819D02*
X155474901Y-115623971D01*
X155474901Y-115623971D02*
X155338787Y-115670937D01*
X155338787Y-115670937D02*
X155251538Y-115700345D01*
X154870637Y-115822438D02*
X154732813Y-115864123D01*
X154732813Y-115864123D02*
X154594632Y-115904604D01*
X154594632Y-115904604D02*
X154456102Y-115943877D01*
X154456102Y-115943877D02*
X154317235Y-115981940D01*
X154317235Y-115981940D02*
X154178041Y-116018790D01*
X154178041Y-116018790D02*
X154038530Y-116054424D01*
X154038530Y-116054424D02*
X153898714Y-116088838D01*
X153898714Y-116088838D02*
X153809155Y-116110204D01*
X153418743Y-116197214D02*
X153277705Y-116226214D01*
X153277705Y-116226214D02*
X153136419Y-116253983D01*
X153136419Y-116253983D02*
X152994896Y-116280518D01*
X152994896Y-116280518D02*
X152853146Y-116305817D01*
X152853146Y-116305817D02*
X152711182Y-116329878D01*
X152711182Y-116329878D02*
X152569013Y-116352699D01*
X152569013Y-116352699D02*
X152426650Y-116374279D01*
X152426650Y-116374279D02*
X152335521Y-116387426D01*
X151938822Y-116438633D02*
X151795733Y-116454710D01*
X151795733Y-116454710D02*
X151652509Y-116469538D01*
X151652509Y-116469538D02*
X151509162Y-116483115D01*
X151509162Y-116483115D02*
X151365701Y-116495441D01*
X151365701Y-116495441D02*
X151222138Y-116506514D01*
X151222138Y-116506514D02*
X151078484Y-116516334D01*
X151078484Y-116516334D02*
X150934750Y-116524901D01*
X150934750Y-116524901D02*
X150842804Y-116529721D01*
X150443095Y-116544702D02*
X150299137Y-116547723D01*
X150299137Y-116547723D02*
X150155159Y-116549487D01*
X150155159Y-116549487D02*
X150011170Y-116549994D01*
X150011170Y-116549994D02*
X149867183Y-116549245D01*
X149867183Y-116549245D02*
X149723208Y-116547240D01*
X149723208Y-116547240D02*
X149579256Y-116543978D01*
X149579256Y-116543978D02*
X149435337Y-116539460D01*
X149435337Y-116539460D02*
X149343333Y-116535913D01*
X148943914Y-116514545D02*
X148800277Y-116504484D01*
X148800277Y-116504484D02*
X148656733Y-116493170D01*
X148656733Y-116493170D02*
X148513293Y-116480604D01*
X148513293Y-116480604D02*
X148369969Y-116466786D01*
X148369969Y-116466786D02*
X148226770Y-116451718D01*
X148226770Y-116451718D02*
X148083708Y-116435402D01*
X148083708Y-116435402D02*
X147940794Y-116417837D01*
X147940794Y-116417837D02*
X147849492Y-116405952D01*
X147453663Y-116348412D02*
X147311532Y-116325352D01*
X147311532Y-116325352D02*
X147169608Y-116301053D01*
X147169608Y-116301053D02*
X147027901Y-116275517D01*
X147027901Y-116275517D02*
X146886423Y-116248745D01*
X146886423Y-116248745D02*
X146745183Y-116220739D01*
X146745183Y-116220739D02*
X146604194Y-116191502D01*
X146604194Y-116191502D02*
X146463464Y-116161035D01*
X146463464Y-116161035D02*
X146373618Y-116140911D01*
X145984647Y-116047673D02*
X145845196Y-116011806D01*
X145845196Y-116011806D02*
X145706064Y-115974723D01*
X145706064Y-115974723D02*
X145567261Y-115936427D01*
X145567261Y-115936427D02*
X145428797Y-115896922D01*
X145428797Y-115896922D02*
X145290684Y-115856209D01*
X145290684Y-115856209D02*
X145152931Y-115814293D01*
X145152931Y-115814293D02*
X145015548Y-115771177D01*
X145015548Y-115771177D02*
X144927900Y-115742979D01*
X144549000Y-115614813D02*
X144413381Y-115566434D01*
X144413381Y-115566434D02*
X144278190Y-115516873D01*
X144278190Y-115516873D02*
X144143437Y-115466135D01*
X144143437Y-115466135D02*
X144009131Y-115414222D01*
X144009131Y-115414222D02*
X143875284Y-115361139D01*
X143875284Y-115361139D02*
X143741905Y-115306891D01*
X143741905Y-115306891D02*
X143609004Y-115251480D01*
X143609004Y-115251480D02*
X143524278Y-115215441D01*
X143158577Y-115053408D02*
X143027911Y-114992916D01*
X143027911Y-114992916D02*
X142897777Y-114931287D01*
X142897777Y-114931287D02*
X142768187Y-114868524D01*
X142768187Y-114868524D02*
X142639149Y-114804633D01*
X142639149Y-114804633D02*
X142510673Y-114739618D01*
X142510673Y-114739618D02*
X142382770Y-114673485D01*
X142382770Y-114673485D02*
X142255448Y-114606238D01*
X142255448Y-114606238D02*
X142174344Y-114562656D01*
X141824863Y-114368092D02*
X141700228Y-114295988D01*
X141700228Y-114295988D02*
X141576227Y-114222799D01*
X141576227Y-114222799D02*
X141452869Y-114148531D01*
X141452869Y-114148531D02*
X141330164Y-114073189D01*
X141330164Y-114073189D02*
X141208121Y-113996779D01*
X141208121Y-113996779D02*
X141086750Y-113919307D01*
X141086750Y-113919307D02*
X140966059Y-113840779D01*
X140966059Y-113840779D02*
X140889246Y-113790015D01*
X140558872Y-113564526D02*
X140441298Y-113481405D01*
X140441298Y-113481405D02*
X140324453Y-113397261D01*
X140324453Y-113397261D02*
X140208347Y-113312101D01*
X140208347Y-113312101D02*
X140092988Y-113225931D01*
X140092988Y-113225931D02*
X139978386Y-113138757D01*
X139978386Y-113138757D02*
X139864549Y-113050586D01*
X139864549Y-113050586D02*
X139751486Y-112961426D01*
X139751486Y-112961426D02*
X139679599Y-112903897D01*
X139371060Y-112649347D02*
X139261517Y-112555896D01*
X139261517Y-112555896D02*
X139152793Y-112461492D01*
X139152793Y-112461492D02*
X139044898Y-112366142D01*
X139044898Y-112366142D02*
X138937839Y-112269855D01*
X138937839Y-112269855D02*
X138831624Y-112172637D01*
X138831624Y-112172637D02*
X138726262Y-112074496D01*
X138726262Y-112074496D02*
X138621760Y-111975440D01*
X138621760Y-111975440D02*
X138555392Y-111911623D01*
X138271236Y-111630113D02*
X138170629Y-111527103D01*
X138170629Y-111527103D02*
X138070925Y-111423218D01*
X138070925Y-111423218D02*
X137972131Y-111318467D01*
X137972131Y-111318467D02*
X137874256Y-111212859D01*
X137874256Y-111212859D02*
X137777305Y-111106400D01*
X137777305Y-111106400D02*
X137681288Y-110999099D01*
X137681288Y-110999099D02*
X137586210Y-110890964D01*
X137586210Y-110890964D02*
X137525910Y-110821385D01*
X137268483Y-110515242D02*
X137177644Y-110403523D01*
X137177644Y-110403523D02*
X137087783Y-110291016D01*
X137087783Y-110291016D02*
X136998907Y-110177729D01*
X136998907Y-110177729D02*
X136911023Y-110063671D01*
X136911023Y-110063671D02*
X136824137Y-109948850D01*
X136824137Y-109948850D02*
X136738257Y-109833275D01*
X136738257Y-109833275D02*
X136653389Y-109716955D01*
X136653389Y-109716955D02*
X136599655Y-109642190D01*
X136371084Y-109313940D02*
X136290762Y-109194436D01*
X136290762Y-109194436D02*
X136211486Y-109074235D01*
X136211486Y-109074235D02*
X136133261Y-108953348D01*
X136133261Y-108953348D02*
X136056095Y-108831782D01*
X136056095Y-108831782D02*
X135979992Y-108709547D01*
X135979992Y-108709547D02*
X135904959Y-108586653D01*
X135904959Y-108586653D02*
X135831002Y-108463109D01*
X135831002Y-108463109D02*
X135784276Y-108383774D01*
X135586450Y-108036130D02*
X135517308Y-107909827D01*
X135517308Y-107909827D02*
X135449272Y-107782926D01*
X135449272Y-107782926D02*
X135382345Y-107655436D01*
X135382345Y-107655436D02*
X135316533Y-107527367D01*
X135316533Y-107527367D02*
X135251842Y-107398728D01*
X135251842Y-107398728D02*
X135188276Y-107269530D01*
X135188276Y-107269530D02*
X135125839Y-107139782D01*
X135125839Y-107139782D02*
X135086509Y-107056532D01*
X134921060Y-106692364D02*
X134863670Y-106560306D01*
X134863670Y-106560306D02*
X134807435Y-106427752D01*
X134807435Y-106427752D02*
X134752359Y-106294712D01*
X134752359Y-106294712D02*
X134698446Y-106161197D01*
X134698446Y-106161197D02*
X134645700Y-106027217D01*
X134645700Y-106027217D02*
X134594125Y-105892781D01*
X134594125Y-105892781D02*
X134543725Y-105757901D01*
X134543725Y-105757901D02*
X134512116Y-105671425D01*
X134380410Y-105293740D02*
X134335246Y-105157017D01*
X134335246Y-105157017D02*
X134291277Y-105019905D01*
X134291277Y-105019905D02*
X134248506Y-104882415D01*
X134248506Y-104882415D02*
X134206936Y-104744557D01*
X134206936Y-104744557D02*
X134166572Y-104606341D01*
X134166572Y-104606341D02*
X134127414Y-104467779D01*
X134127414Y-104467779D02*
X134089468Y-104328880D01*
X134089468Y-104328880D02*
X134065839Y-104239891D01*
X133968965Y-103851809D02*
X133936400Y-103711551D01*
X133936400Y-103711551D02*
X133905060Y-103571014D01*
X133905060Y-103571014D02*
X133874948Y-103430208D01*
X133874948Y-103430208D02*
X133846065Y-103289146D01*
X133846065Y-103289146D02*
X133818415Y-103147836D01*
X133818415Y-103147836D02*
X133791998Y-103006291D01*
X133791998Y-103006291D02*
X133766818Y-102864520D01*
X133766818Y-102864520D02*
X133751366Y-102773754D01*
X133690124Y-102378480D02*
X133670426Y-102235845D01*
X133670426Y-102235845D02*
X133651974Y-102093043D01*
X133651974Y-102093043D02*
X133634769Y-101950085D01*
X133634769Y-101950085D02*
X133618812Y-101806983D01*
X133618812Y-101806983D02*
X133604104Y-101663747D01*
X133604104Y-101663747D02*
X133590647Y-101520388D01*
X133590647Y-101520388D02*
X133578441Y-101376917D01*
X133578441Y-101376917D02*
X133571293Y-101285122D01*
X133546188Y-100885921D02*
X133539521Y-100742086D01*
X133539521Y-100742086D02*
X133534109Y-100598199D01*
X133534109Y-100598199D02*
X133529953Y-100454269D01*
X133529953Y-100454269D02*
X133527053Y-100310309D01*
X133527053Y-100310309D02*
X133525410Y-100166330D01*
X133525410Y-100166330D02*
X133525023Y-100022341D01*
X133525023Y-100022341D02*
X133525893Y-99878354D01*
X133525893Y-99878354D02*
X133527107Y-99786290D01*
X133538347Y-99386458D02*
X133544766Y-99242612D01*
X133544766Y-99242612D02*
X133552439Y-99098827D01*
X133552439Y-99098827D02*
X133561367Y-98955115D01*
X133561367Y-98955115D02*
X133571548Y-98811486D01*
X133571548Y-98811486D02*
X133582982Y-98667952D01*
X133582982Y-98667952D02*
X133595669Y-98524522D01*
X133595669Y-98524522D02*
X133609607Y-98381209D01*
X133609607Y-98381209D02*
X133619174Y-98289636D01*
X133666666Y-97892475D02*
X133686117Y-97749805D01*
X133686117Y-97749805D02*
X133706812Y-97607311D01*
X133706812Y-97607311D02*
X133728749Y-97465003D01*
X133728749Y-97465003D02*
X133751928Y-97322891D01*
X133751928Y-97322891D02*
X133776346Y-97180988D01*
X133776346Y-97180988D02*
X133802001Y-97039303D01*
X133802001Y-97039303D02*
X133828892Y-96897847D01*
X133828892Y-96897847D02*
X133846733Y-96807520D01*
X133930085Y-96416310D02*
X133962407Y-96275996D01*
X133962407Y-96275996D02*
X133995953Y-96135969D01*
X133995953Y-96135969D02*
X134030719Y-95996240D01*
X134030719Y-95996240D02*
X134066703Y-95856819D01*
X134066703Y-95856819D02*
X134103903Y-95717718D01*
X134103903Y-95717718D02*
X134142315Y-95578947D01*
X134142315Y-95578947D02*
X134181936Y-95440517D01*
X134181936Y-95440517D02*
X134207904Y-95352182D01*
X134326427Y-94970156D02*
X134371355Y-94833355D01*
X134371355Y-94833355D02*
X134417474Y-94696951D01*
X134417474Y-94696951D02*
X134464782Y-94560956D01*
X134464782Y-94560956D02*
X134513275Y-94425378D01*
X134513275Y-94425378D02*
X134562949Y-94290228D01*
X134562949Y-94290228D02*
X134613800Y-94155518D01*
X134613800Y-94155518D02*
X134665825Y-94021256D01*
X134665825Y-94021256D02*
X134699706Y-93935644D01*
X134852421Y-93565954D02*
X134909582Y-93433797D01*
X134909582Y-93433797D02*
X134967894Y-93302144D01*
X134967894Y-93302144D02*
X135027353Y-93171004D01*
X135027353Y-93171004D02*
X135087954Y-93040389D01*
X135087954Y-93040389D02*
X135149692Y-92910307D01*
X135149692Y-92910307D02*
X135212563Y-92780769D01*
X135212563Y-92780769D02*
X135276563Y-92651785D01*
X135276563Y-92651785D02*
X135318075Y-92569602D01*
X135503722Y-92215303D02*
X135572644Y-92088881D01*
X135572644Y-92088881D02*
X135642668Y-91963065D01*
X135642668Y-91963065D02*
X135713786Y-91837865D01*
X135713786Y-91837865D02*
X135785995Y-91713291D01*
X135785995Y-91713291D02*
X135859287Y-91589351D01*
X135859287Y-91589351D02*
X135933659Y-91466055D01*
X135933659Y-91466055D02*
X136009104Y-91343414D01*
X136009104Y-91343414D02*
X136057905Y-91265339D01*
X136274950Y-90929357D02*
X136355065Y-90809714D01*
X136355065Y-90809714D02*
X136436221Y-90690775D01*
X136436221Y-90690775D02*
X136518413Y-90572548D01*
X136518413Y-90572548D02*
X136601632Y-90455043D01*
X136601632Y-90455043D02*
X136685874Y-90338269D01*
X136685874Y-90338269D02*
X136771132Y-90222235D01*
X136771132Y-90222235D02*
X136857399Y-90106948D01*
X136857399Y-90106948D02*
X136913087Y-90033626D01*
X137159737Y-89718736D02*
X137250383Y-89606860D01*
X137250383Y-89606860D02*
X137342002Y-89495780D01*
X137342002Y-89495780D02*
X137434587Y-89385503D01*
X137434587Y-89385503D02*
X137528130Y-89276039D01*
X137528130Y-89276039D02*
X137622625Y-89167394D01*
X137622625Y-89167394D02*
X137718065Y-89059579D01*
X137718065Y-89059579D02*
X137814442Y-88952601D01*
X137814442Y-88952601D02*
X137876557Y-88884637D01*
X138150775Y-88593439D02*
X138251204Y-88490254D01*
X138251204Y-88490254D02*
X138352528Y-88387950D01*
X138352528Y-88387950D02*
X138454742Y-88286534D01*
X138454742Y-88286534D02*
X138557837Y-88186014D01*
X138557837Y-88186014D02*
X138661805Y-88086397D01*
X138661805Y-88086397D02*
X138766639Y-87987691D01*
X138766639Y-87987691D02*
X138872330Y-87889904D01*
X138872330Y-87889904D02*
X138940358Y-87827860D01*
X139239880Y-87562759D02*
X139349261Y-87469118D01*
X139349261Y-87469118D02*
X139459455Y-87376434D01*
X139459455Y-87376434D02*
X139570454Y-87284716D01*
X139570454Y-87284716D02*
X139682249Y-87193970D01*
X139682249Y-87193970D02*
X139794831Y-87104204D01*
X139794831Y-87104204D02*
X139908193Y-87015423D01*
X139908193Y-87015423D02*
X140022325Y-86927634D01*
X140022325Y-86927634D02*
X140095705Y-86872022D01*
X140418057Y-86635208D02*
X140535487Y-86551883D01*
X140535487Y-86551883D02*
X140653641Y-86469587D01*
X140653641Y-86469587D02*
X140772507Y-86388324D01*
X140772507Y-86388324D02*
X140892079Y-86308102D01*
X140892079Y-86308102D02*
X141012346Y-86228927D01*
X141012346Y-86228927D02*
X141133299Y-86150804D01*
X141133299Y-86150804D02*
X141254929Y-86073739D01*
X141254929Y-86073739D02*
X141333055Y-86025019D01*
X141675575Y-85818447D02*
X141800085Y-85746127D01*
X141800085Y-85746127D02*
X141925222Y-85674897D01*
X141925222Y-85674897D02*
X142050975Y-85604761D01*
X142050975Y-85604761D02*
X142177335Y-85535726D01*
X142177335Y-85535726D02*
X142304294Y-85467795D01*
X142304294Y-85467795D02*
X142431840Y-85400976D01*
X142431840Y-85400976D02*
X142559964Y-85335271D01*
X142559964Y-85335271D02*
X142642190Y-85293845D01*
X143002049Y-85119221D02*
X143132611Y-85058503D01*
X143132611Y-85058503D02*
X143263697Y-84998928D01*
X143263697Y-84998928D02*
X143395298Y-84940498D01*
X143395298Y-84940498D02*
X143527404Y-84883219D01*
X143527404Y-84883219D02*
X143660005Y-84827095D01*
X143660005Y-84827095D02*
X143793091Y-84772130D01*
X143793091Y-84772130D02*
X143926651Y-84718329D01*
X143926651Y-84718329D02*
X144012298Y-84684538D01*
X144386525Y-84543305D02*
X144522059Y-84494691D01*
X144522059Y-84494691D02*
X144658012Y-84447262D01*
X144658012Y-84447262D02*
X144794375Y-84401021D01*
X144794375Y-84401021D02*
X144931135Y-84355971D01*
X144931135Y-84355971D02*
X145068284Y-84312117D01*
X145068284Y-84312117D02*
X145205810Y-84269461D01*
X145205810Y-84269461D02*
X145343703Y-84228007D01*
X145343703Y-84228007D02*
X145432064Y-84202131D01*
X145817567Y-84095455D02*
X145956955Y-84059346D01*
X145956955Y-84059346D02*
X146096653Y-84024455D01*
X146096653Y-84024455D02*
X146236650Y-83990785D01*
X146236650Y-83990785D02*
X146376935Y-83958337D01*
X146376935Y-83958337D02*
X146517499Y-83927115D01*
X146517499Y-83927115D02*
X146658329Y-83897120D01*
X146658329Y-83897120D02*
X146799416Y-83868356D01*
X146799416Y-83868356D02*
X146889762Y-83850609D01*
X147283357Y-83779370D02*
X147425448Y-83756065D01*
X147425448Y-83756065D02*
X147567736Y-83734000D01*
X147567736Y-83734000D02*
X147710212Y-83713178D01*
X147710212Y-83713178D02*
X147852864Y-83693600D01*
X147852864Y-83693600D02*
X147995681Y-83675267D01*
X147995681Y-83675267D02*
X148138653Y-83658182D01*
X148138653Y-83658182D02*
X148281769Y-83642345D01*
X148281769Y-83642345D02*
X148373353Y-83632873D01*
X148771790Y-83597661D02*
X148915410Y-83587351D01*
X148915410Y-83587351D02*
X149059114Y-83578295D01*
X149059114Y-83578295D02*
X149202891Y-83570493D01*
X149202891Y-83570493D02*
X149346732Y-83563947D01*
X149346732Y-83563947D02*
X149490624Y-83558656D01*
X149490624Y-83558656D02*
X149634556Y-83554620D01*
X149634556Y-83554620D02*
X149778519Y-83551841D01*
X149778519Y-83551841D02*
X149870584Y-83550723D01*
X150270573Y-83551828D02*
X150414535Y-83554599D01*
X150414535Y-83554599D02*
X150558468Y-83558626D01*
X150558468Y-83558626D02*
X150702360Y-83563909D01*
X150702360Y-83563909D02*
X150846201Y-83570448D01*
X150846201Y-83570448D02*
X150989979Y-83578242D01*
X150989979Y-83578242D02*
X151133684Y-83587290D01*
X151133684Y-83587290D02*
X151277304Y-83597592D01*
X151277304Y-83597592D02*
X151369091Y-83604836D01*
X151767328Y-83642249D02*
X151910444Y-83658078D01*
X151910444Y-83658078D02*
X152053417Y-83675156D01*
X152053417Y-83675156D02*
X152196235Y-83693480D01*
X152196235Y-83693480D02*
X152338888Y-83713050D01*
X152338888Y-83713050D02*
X152481365Y-83733865D01*
X152481365Y-83733865D02*
X152623655Y-83755922D01*
X152623655Y-83755922D02*
X152765747Y-83779219D01*
X152765747Y-83779219D02*
X152856497Y-83794766D01*
X153249693Y-83868178D02*
X153390781Y-83896935D01*
X153390781Y-83896935D02*
X153531613Y-83926921D01*
X153531613Y-83926921D02*
X153672178Y-83958136D01*
X153672178Y-83958136D02*
X153812466Y-83990576D01*
X153812466Y-83990576D02*
X153952465Y-84024239D01*
X153952465Y-84024239D02*
X154092165Y-84059122D01*
X154092165Y-84059122D02*
X154231555Y-84095223D01*
X154231555Y-84095223D02*
X154320519Y-84118945D01*
X154705426Y-84227749D02*
X154843321Y-84269196D01*
X154843321Y-84269196D02*
X154980850Y-84311844D01*
X154980850Y-84311844D02*
X155118000Y-84355691D01*
X155118000Y-84355691D02*
X155254763Y-84400732D01*
X155254763Y-84400732D02*
X155391128Y-84446966D01*
X155391128Y-84446966D02*
X155527084Y-84494388D01*
X155527084Y-84494388D02*
X155662621Y-84542994D01*
X155662621Y-84542994D02*
X155749064Y-84574694D01*
X156122505Y-84717993D02*
X156256068Y-84771787D01*
X156256068Y-84771787D02*
X156389156Y-84826744D01*
X156389156Y-84826744D02*
X156521760Y-84882861D01*
X156521760Y-84882861D02*
X156653870Y-84940133D01*
X156653870Y-84940133D02*
X156785474Y-84998555D01*
X156785474Y-84998555D02*
X156916564Y-85058124D01*
X156916564Y-85058124D02*
X157047128Y-85118834D01*
X157047128Y-85118834D02*
X157130337Y-85158251D01*
X157489226Y-85334860D02*
X157617354Y-85400557D01*
X157617354Y-85400557D02*
X157744903Y-85467370D01*
X157744903Y-85467370D02*
X157871865Y-85535293D01*
X157871865Y-85535293D02*
X157998230Y-85604322D01*
X157998230Y-85604322D02*
X158123987Y-85674451D01*
X158123987Y-85674451D02*
X158249127Y-85745674D01*
X158249127Y-85745674D02*
X158373641Y-85817987D01*
X158373641Y-85817987D02*
X158452927Y-85864795D01*
X158794301Y-86073256D02*
X158915936Y-86150314D01*
X158915936Y-86150314D02*
X159036893Y-86228431D01*
X159036893Y-86228431D02*
X159157164Y-86307599D01*
X159157164Y-86307599D02*
X159276740Y-86387815D01*
X159276740Y-86387815D02*
X159395612Y-86469071D01*
X159395612Y-86469071D02*
X159513769Y-86551361D01*
X159513769Y-86551361D02*
X159631204Y-86634679D01*
X159631204Y-86634679D02*
X159705914Y-86688491D01*
X160026953Y-86927083D02*
X160141090Y-87014865D01*
X160141090Y-87014865D02*
X160254456Y-87103640D01*
X160254456Y-87103640D02*
X160367043Y-87193401D01*
X160367043Y-87193401D02*
X160478843Y-87284141D01*
X160478843Y-87284141D02*
X160589847Y-87375853D01*
X160589847Y-87375853D02*
X160700046Y-87468530D01*
X160700046Y-87468530D02*
X160809432Y-87562165D01*
X160809432Y-87562165D02*
X160878948Y-87622538D01*
X161177001Y-87889289D02*
X161282697Y-87987071D01*
X161282697Y-87987071D02*
X161387536Y-88085771D01*
X161387536Y-88085771D02*
X161491509Y-88185382D01*
X161491509Y-88185382D02*
X161594610Y-88285897D01*
X161594610Y-88285897D02*
X161696829Y-88387307D01*
X161696829Y-88387307D02*
X161798160Y-88489606D01*
X161798160Y-88489606D02*
X161898594Y-88592785D01*
X161898594Y-88592785D02*
X161962341Y-88659219D01*
X162234947Y-88951928D02*
X162331330Y-89058901D01*
X162331330Y-89058901D02*
X162426775Y-89166711D01*
X162426775Y-89166711D02*
X162521276Y-89275350D01*
X162521276Y-89275350D02*
X162614826Y-89384810D01*
X162614826Y-89384810D02*
X162707417Y-89495081D01*
X162707417Y-89495081D02*
X162799042Y-89606157D01*
X162799042Y-89606157D02*
X162889694Y-89718028D01*
X162889694Y-89718028D02*
X162947147Y-89789975D01*
X163192054Y-90106223D02*
X163278327Y-90221505D01*
X163278327Y-90221505D02*
X163363591Y-90337534D01*
X163363591Y-90337534D02*
X163447839Y-90454304D01*
X163447839Y-90454304D02*
X163531066Y-90571804D01*
X163531066Y-90571804D02*
X163613263Y-90690026D01*
X163613263Y-90690026D02*
X163694426Y-90808961D01*
X163694426Y-90808961D02*
X163774548Y-90928600D01*
X163774548Y-90928600D02*
X163825232Y-91005466D01*
X164040417Y-91342642D02*
X164115868Y-91465279D01*
X164115868Y-91465279D02*
X164190247Y-91588571D01*
X164190247Y-91588571D02*
X164263546Y-91712506D01*
X164263546Y-91712506D02*
X164335762Y-91837077D01*
X164335762Y-91837077D02*
X164406887Y-91962273D01*
X164406887Y-91962273D02*
X164476917Y-92088085D01*
X164476917Y-92088085D02*
X164545847Y-92214503D01*
X164545847Y-92214503D02*
X164589344Y-92295653D01*
X164773030Y-92650972D02*
X164837036Y-92779953D01*
X164837036Y-92779953D02*
X164899915Y-92909488D01*
X164899915Y-92909488D02*
X164961660Y-93039566D01*
X164961660Y-93039566D02*
X165022268Y-93170178D01*
X165022268Y-93170178D02*
X165081734Y-93301315D01*
X165081734Y-93301315D02*
X165140054Y-93432965D01*
X165140054Y-93432965D02*
X165197222Y-93565119D01*
X165197222Y-93565119D02*
X165233172Y-93649882D01*
X165383842Y-94020410D02*
X165435875Y-94154669D01*
X165435875Y-94154669D02*
X165486734Y-94289377D01*
X165486734Y-94289377D02*
X165536416Y-94424524D01*
X165536416Y-94424524D02*
X165584916Y-94560099D01*
X165584916Y-94560099D02*
X165632231Y-94696092D01*
X165632231Y-94696092D02*
X165678358Y-94832493D01*
X165678358Y-94832493D02*
X165723293Y-94969291D01*
X165723293Y-94969291D02*
X165751399Y-95056968D01*
X165867810Y-95439644D02*
X165907439Y-95578073D01*
X165907439Y-95578073D02*
X165945859Y-95716842D01*
X165945859Y-95716842D02*
X165983066Y-95855941D01*
X165983066Y-95855941D02*
X166019058Y-95995359D01*
X166019058Y-95995359D02*
X166053832Y-96135086D01*
X166053832Y-96135086D02*
X166087385Y-96275111D01*
X166087385Y-96275111D02*
X166119715Y-96415424D01*
X166119715Y-96415424D02*
X166139746Y-96505291D01*
X166220935Y-96896955D02*
X166247833Y-97038409D01*
X166247833Y-97038409D02*
X166273496Y-97180093D01*
X166273496Y-97180093D02*
X166297922Y-97321995D01*
X166297922Y-97321995D02*
X166321108Y-97464105D01*
X166321108Y-97464105D02*
X166343054Y-97606412D01*
X166343054Y-97606412D02*
X166363757Y-97748906D01*
X166363757Y-97748906D02*
X166383215Y-97891574D01*
X166383215Y-97891574D02*
X166395005Y-97982888D01*
X166440301Y-98380305D02*
X166454247Y-98523618D01*
X166454247Y-98523618D02*
X166466941Y-98667046D01*
X166466941Y-98667046D02*
X166478384Y-98810580D01*
X166478384Y-98810580D02*
X166488573Y-98954208D01*
X166488573Y-98954208D02*
X166497509Y-99097920D01*
X166497509Y-99097920D02*
X166505190Y-99241704D01*
X166505190Y-99241704D02*
X166511616Y-99385550D01*
X166511616Y-99385550D02*
X166515067Y-99477557D01*
X166524098Y-99877446D02*
X166524975Y-100021432D01*
X166524975Y-100021432D02*
X166525000Y-100050000D01*
D10*
X150025000Y-117550000D02*
X150025000Y-91440000D01*
D13*
X155600001Y-108340000D02*
G75*
G02*
X154066117Y-108340000I-766942J0D01*
G01*
X154066117Y-108340000D02*
G75*
G02*
X155600001Y-108340000I766942J0D01*
G01*
X162440001Y-108380000D02*
G75*
G02*
X160906117Y-108380000I-766942J0D01*
G01*
X160906117Y-108380000D02*
G75*
G02*
X162440001Y-108380000I766942J0D01*
G01*
D10*
X162400000Y-112425000D02*
X162378787Y-112403787D01*
X161954523Y-111979523D02*
X161933310Y-111958310D01*
X161509045Y-111534045D02*
X161487832Y-111512832D01*
X161063568Y-111088568D02*
X161042355Y-111067355D01*
X160618091Y-110643091D02*
X160596878Y-110621878D01*
X160172614Y-110197614D02*
X160151400Y-110176400D01*
X159727136Y-109752136D02*
X159705923Y-109730923D01*
X159281659Y-109306659D02*
X159260446Y-109285446D01*
X158836182Y-108861182D02*
X158814969Y-108839969D01*
X158390705Y-108415705D02*
X158369491Y-108394491D01*
X157945227Y-107970227D02*
X157924014Y-107949014D01*
X157499750Y-107524750D02*
X157478537Y-107503537D01*
X157054273Y-107079273D02*
X157033060Y-107058060D01*
X156608795Y-106633795D02*
X156587582Y-106612582D01*
X156163318Y-106188318D02*
X156142105Y-106167105D01*
X155717841Y-105742841D02*
X155696628Y-105721628D01*
X155272364Y-105297364D02*
X155251150Y-105276150D01*
X154826886Y-104851886D02*
X154805673Y-104830673D01*
X154381409Y-104406409D02*
X154360196Y-104385196D01*
X153935932Y-103960932D02*
X153914719Y-103939719D01*
X153490455Y-103515455D02*
X153469241Y-103494241D01*
X153044977Y-103069977D02*
X153023764Y-103048764D01*
X152599500Y-102624500D02*
X152578287Y-102603287D01*
X152154023Y-102179023D02*
X152132810Y-102157810D01*
X151708545Y-101733545D02*
X151687332Y-101712332D01*
X151263068Y-101288068D02*
X151241855Y-101266855D01*
X150817591Y-100842591D02*
X150796378Y-100821378D01*
X150372114Y-100397114D02*
X150350900Y-100375900D01*
X149926636Y-99951636D02*
X149905423Y-99930423D01*
X149481159Y-99506159D02*
X149459946Y-99484946D01*
X149035682Y-99060682D02*
X149014469Y-99039469D01*
X148590205Y-98615205D02*
X148568991Y-98593991D01*
X148144727Y-98169727D02*
X148123514Y-98148514D01*
X147699250Y-97724250D02*
X147678037Y-97703037D01*
X147253773Y-97278773D02*
X147232560Y-97257560D01*
X146808295Y-96833295D02*
X146787082Y-96812082D01*
X146362818Y-96387818D02*
X146341605Y-96366605D01*
X145917341Y-95942341D02*
X145896128Y-95921128D01*
X145471864Y-95496864D02*
X145450650Y-95475650D01*
X145026386Y-95051386D02*
X145005173Y-95030173D01*
X144580909Y-94605909D02*
X144559696Y-94584696D01*
X144135432Y-94160432D02*
X144114219Y-94139219D01*
X143689955Y-93714955D02*
X143668741Y-93693741D01*
X143244477Y-93269477D02*
X143223264Y-93248264D01*
X142799000Y-92824000D02*
X142777787Y-92802787D01*
X142353523Y-92378523D02*
X142332310Y-92357310D01*
X141908045Y-91933045D02*
X141886832Y-91911832D01*
X141462568Y-91487568D02*
X141441355Y-91466355D01*
X141017091Y-91042091D02*
X140995878Y-91020878D01*
X140571614Y-90596614D02*
X140550400Y-90575400D01*
X140126136Y-90151136D02*
X140104923Y-90129923D01*
X139680659Y-89705659D02*
X139659446Y-89684446D01*
X139235182Y-89260182D02*
X139213969Y-89238969D01*
X138789705Y-88814705D02*
X138768491Y-88793491D01*
X138344227Y-88369227D02*
X138323014Y-88348014D01*
X137898750Y-87923750D02*
X137877537Y-87902537D01*
X134187255Y-97796323D02*
X134600588Y-97796323D01*
X134600588Y-97796323D02*
X134187255Y-98416323D01*
X134187255Y-98416323D02*
X134600588Y-98416323D01*
X136364398Y-94621085D02*
X136364398Y-94916323D01*
X136157731Y-94296323D02*
X136364398Y-94621085D01*
X136364398Y-94621085D02*
X136571064Y-94296323D01*
X137937255Y-98046323D02*
X138350588Y-98666323D01*
X138350588Y-98046323D02*
X137937255Y-98666323D01*
X141881064Y-105106323D02*
X141526779Y-105106323D01*
X141703922Y-105106323D02*
X141703922Y-104486323D01*
X141703922Y-104486323D02*
X141644874Y-104574895D01*
X141644874Y-104574895D02*
X141585826Y-104633942D01*
X141585826Y-104633942D02*
X141526779Y-104663466D01*
X145049180Y-88473220D02*
X145049180Y-88177982D01*
X145226323Y-88532268D02*
X144606323Y-88325601D01*
X144606323Y-88325601D02*
X145226323Y-88118935D01*
X145226323Y-87912267D02*
X144606323Y-87912267D01*
X144606323Y-87912267D02*
X145226323Y-87557982D01*
X145226323Y-87557982D02*
X144606323Y-87557982D01*
X144606323Y-87351315D02*
X144606323Y-86997029D01*
X145226323Y-87174172D02*
X144606323Y-87174172D01*
X144901561Y-86790362D02*
X144901561Y-86583696D01*
X145226323Y-86495124D02*
X145226323Y-86790362D01*
X145226323Y-86790362D02*
X144606323Y-86790362D01*
X144606323Y-86790362D02*
X144606323Y-86495124D01*
X145226323Y-86229410D02*
X144606323Y-86229410D01*
X144606323Y-86229410D02*
X145226323Y-85875125D01*
X145226323Y-85875125D02*
X144606323Y-85875125D01*
X145226323Y-85579886D02*
X144606323Y-85579886D01*
X144606323Y-85579886D02*
X145226323Y-85225601D01*
X145226323Y-85225601D02*
X144606323Y-85225601D01*
X145049180Y-84959886D02*
X145049180Y-84664648D01*
X145226323Y-85018934D02*
X144606323Y-84812267D01*
X144606323Y-84812267D02*
X145226323Y-84605601D01*
X155719107Y-91953958D02*
X155426836Y-92538500D01*
X155426836Y-92538500D02*
X156011378Y-92246229D01*
X155948748Y-93060412D02*
X155698231Y-92809895D01*
X155823490Y-92935154D02*
X156261896Y-92496747D01*
X156261896Y-92496747D02*
X156157513Y-92517624D01*
X156157513Y-92517624D02*
X156074007Y-92517624D01*
X156074007Y-92517624D02*
X156011378Y-92496747D01*
D15*
X162585901Y-109961889D02*
X162585901Y-110003642D01*
X162585901Y-110003642D02*
X162544148Y-110087148D01*
X162544148Y-110087148D02*
X162502395Y-110128901D01*
X162502395Y-110128901D02*
X162418889Y-110170653D01*
X162418889Y-110170653D02*
X162335383Y-110170653D01*
X162335383Y-110170653D02*
X162272753Y-110149777D01*
X162272753Y-110149777D02*
X162168371Y-110087148D01*
X162168371Y-110087148D02*
X162105742Y-110024518D01*
X162105742Y-110024518D02*
X162043112Y-109920136D01*
X162043112Y-109920136D02*
X162022236Y-109857506D01*
X162022236Y-109857506D02*
X162022236Y-109774000D01*
X162022236Y-109774000D02*
X162063989Y-109690494D01*
X162063989Y-109690494D02*
X162105742Y-109648741D01*
X162105742Y-109648741D02*
X162189248Y-109606988D01*
X162189248Y-109606988D02*
X162231000Y-109606988D01*
X162815542Y-109815753D02*
X162377136Y-109377347D01*
X162585901Y-109586112D02*
X162836419Y-109335594D01*
X163066060Y-109565235D02*
X162627654Y-109126829D01*
X153935481Y-88937495D02*
X154081616Y-89083630D01*
X153914604Y-89375901D02*
X153705840Y-89167136D01*
X153705840Y-89167136D02*
X154144246Y-88728730D01*
X154144246Y-88728730D02*
X154353011Y-88937495D01*
X154311257Y-89772554D02*
X154102493Y-89563789D01*
X154102493Y-89563789D02*
X154540899Y-89125383D01*
X154687034Y-89689048D02*
X154833170Y-89835183D01*
X154666158Y-90127454D02*
X154457393Y-89918689D01*
X154457393Y-89918689D02*
X154895799Y-89480283D01*
X154895799Y-89480283D02*
X155104564Y-89689048D01*
X155146317Y-90524107D02*
X155104564Y-90524107D01*
X155104564Y-90524107D02*
X155021058Y-90482354D01*
X155021058Y-90482354D02*
X154979305Y-90440601D01*
X154979305Y-90440601D02*
X154937552Y-90357095D01*
X154937552Y-90357095D02*
X154937552Y-90273589D01*
X154937552Y-90273589D02*
X154958428Y-90210960D01*
X154958428Y-90210960D02*
X155021058Y-90106577D01*
X155021058Y-90106577D02*
X155083687Y-90043948D01*
X155083687Y-90043948D02*
X155188070Y-89981318D01*
X155188070Y-89981318D02*
X155250699Y-89960442D01*
X155250699Y-89960442D02*
X155334205Y-89960442D01*
X155334205Y-89960442D02*
X155417711Y-90002195D01*
X155417711Y-90002195D02*
X155459464Y-90043948D01*
X155459464Y-90043948D02*
X155501217Y-90127454D01*
X155501217Y-90127454D02*
X155501217Y-90169207D01*
X155668229Y-90252713D02*
X155918747Y-90503231D01*
X155355082Y-90816378D02*
X155793488Y-90377972D01*
X155876994Y-91338290D02*
X155939623Y-90983390D01*
X155626476Y-91087772D02*
X156064882Y-90649366D01*
X156064882Y-90649366D02*
X156231894Y-90816378D01*
X156231894Y-90816378D02*
X156252771Y-90879007D01*
X156252771Y-90879007D02*
X156252771Y-90920760D01*
X156252771Y-90920760D02*
X156231894Y-90983390D01*
X156231894Y-90983390D02*
X156169265Y-91046019D01*
X156169265Y-91046019D02*
X156106635Y-91066896D01*
X156106635Y-91066896D02*
X156064882Y-91066896D01*
X156064882Y-91066896D02*
X156002253Y-91046019D01*
X156002253Y-91046019D02*
X155835241Y-90879007D01*
X156586794Y-91171278D02*
X156670300Y-91254784D01*
X156670300Y-91254784D02*
X156691177Y-91317414D01*
X156691177Y-91317414D02*
X156691177Y-91400920D01*
X156691177Y-91400920D02*
X156628547Y-91505302D01*
X156628547Y-91505302D02*
X156482412Y-91651437D01*
X156482412Y-91651437D02*
X156378029Y-91714067D01*
X156378029Y-91714067D02*
X156294523Y-91714067D01*
X156294523Y-91714067D02*
X156231894Y-91693190D01*
X156231894Y-91693190D02*
X156148388Y-91609684D01*
X156148388Y-91609684D02*
X156127512Y-91547055D01*
X156127512Y-91547055D02*
X156127512Y-91463549D01*
X156127512Y-91463549D02*
X156190141Y-91359167D01*
X156190141Y-91359167D02*
X156336276Y-91213031D01*
X156336276Y-91213031D02*
X156440659Y-91150402D01*
X156440659Y-91150402D02*
X156524165Y-91150402D01*
X156524165Y-91150402D02*
X156586794Y-91171278D01*
X156524165Y-91985461D02*
X156962571Y-91547055D01*
X156962571Y-91547055D02*
X157129583Y-91714067D01*
X157129583Y-91714067D02*
X157150460Y-91776696D01*
X157150460Y-91776696D02*
X157150460Y-91818449D01*
X157150460Y-91818449D02*
X157129583Y-91881079D01*
X157129583Y-91881079D02*
X157066954Y-91943708D01*
X157066954Y-91943708D02*
X157004324Y-91964585D01*
X157004324Y-91964585D02*
X156962571Y-91964585D01*
X156962571Y-91964585D02*
X156899942Y-91943708D01*
X156899942Y-91943708D02*
X156732930Y-91776696D01*
X156962571Y-92423867D02*
X157400977Y-91985461D01*
X157192213Y-92194226D02*
X157442730Y-92444744D01*
X157213089Y-92674385D02*
X157651495Y-92235979D01*
X157714125Y-92757891D02*
X157505360Y-92966656D01*
X157797631Y-92382115D02*
X157714125Y-92757891D01*
X157714125Y-92757891D02*
X158089902Y-92674385D01*
X158507432Y-93175421D02*
X158549185Y-93175421D01*
X158549185Y-93175421D02*
X158611814Y-93196298D01*
X158611814Y-93196298D02*
X158716196Y-93300680D01*
X158716196Y-93300680D02*
X158737073Y-93363310D01*
X158737073Y-93363310D02*
X158737073Y-93405063D01*
X158737073Y-93405063D02*
X158716196Y-93467692D01*
X158716196Y-93467692D02*
X158674443Y-93509445D01*
X158674443Y-93509445D02*
X158590938Y-93551198D01*
X158590938Y-93551198D02*
X158089902Y-93551198D01*
X158089902Y-93551198D02*
X158361296Y-93822593D01*
X158590937Y-93968728D02*
X158590937Y-94010481D01*
X158590937Y-94010481D02*
X158549184Y-94010481D01*
X158549184Y-94010481D02*
X158549184Y-93968728D01*
X158549184Y-93968728D02*
X158590937Y-93968728D01*
X158590937Y-93968728D02*
X158549184Y-94010481D01*
X159279861Y-93864345D02*
X159321614Y-93906098D01*
X159321614Y-93906098D02*
X159342491Y-93968728D01*
X159342491Y-93968728D02*
X159342491Y-94010481D01*
X159342491Y-94010481D02*
X159321614Y-94073110D01*
X159321614Y-94073110D02*
X159258985Y-94177493D01*
X159258985Y-94177493D02*
X159154602Y-94281875D01*
X159154602Y-94281875D02*
X159050220Y-94344504D01*
X159050220Y-94344504D02*
X158987591Y-94365381D01*
X158987591Y-94365381D02*
X158945838Y-94365381D01*
X158945838Y-94365381D02*
X158883208Y-94344504D01*
X158883208Y-94344504D02*
X158841455Y-94302751D01*
X158841455Y-94302751D02*
X158820579Y-94240122D01*
X158820579Y-94240122D02*
X158820579Y-94198369D01*
X158820579Y-94198369D02*
X158841455Y-94135740D01*
X158841455Y-94135740D02*
X158904085Y-94031357D01*
X158904085Y-94031357D02*
X159008467Y-93926975D01*
X159008467Y-93926975D02*
X159112849Y-93864345D01*
X159112849Y-93864345D02*
X159175479Y-93843469D01*
X159175479Y-93843469D02*
X159217232Y-93843469D01*
X159217232Y-93843469D02*
X159279861Y-93864345D01*
X156097752Y-85672236D02*
X156181258Y-85755742D01*
X156181258Y-85755742D02*
X156202134Y-85818371D01*
X156202134Y-85818371D02*
X156202134Y-85901877D01*
X156202134Y-85901877D02*
X156139505Y-86006259D01*
X156139505Y-86006259D02*
X155993369Y-86152395D01*
X155993369Y-86152395D02*
X155888987Y-86215024D01*
X155888987Y-86215024D02*
X155805481Y-86215024D01*
X155805481Y-86215024D02*
X155742851Y-86194148D01*
X155742851Y-86194148D02*
X155659346Y-86110642D01*
X155659346Y-86110642D02*
X155638469Y-86048012D01*
X155638469Y-86048012D02*
X155638469Y-85964506D01*
X155638469Y-85964506D02*
X155701098Y-85860124D01*
X155701098Y-85860124D02*
X155847234Y-85713989D01*
X155847234Y-85713989D02*
X155951616Y-85651359D01*
X155951616Y-85651359D02*
X156035122Y-85651359D01*
X156035122Y-85651359D02*
X156097752Y-85672236D01*
X156035122Y-86486419D02*
X156473529Y-86048013D01*
X156473529Y-86048013D02*
X156285640Y-86736937D01*
X156285640Y-86736937D02*
X156724046Y-86298530D01*
D16*
X154489673Y-108376266D02*
X155251578Y-108376266D01*
X161319673Y-108386266D02*
X162081578Y-108386266D01*
X161700625Y-108767219D02*
X161700625Y-108005314D01*
D10*
X147020498Y-89672171D02*
X147009692Y-89712501D01*
X147009692Y-89712501D02*
X146947749Y-89782355D01*
X146947749Y-89782355D02*
X146896612Y-89811879D01*
X146896612Y-89811879D02*
X146805145Y-89830597D01*
X146805145Y-89830597D02*
X146724484Y-89808984D01*
X146724484Y-89808984D02*
X146669392Y-89772609D01*
X146669392Y-89772609D02*
X146584776Y-89685097D01*
X146584776Y-89685097D02*
X146540491Y-89608392D01*
X146540491Y-89608392D02*
X146507011Y-89491357D01*
X146507011Y-89491357D02*
X146503056Y-89425458D01*
X146503056Y-89425458D02*
X146524669Y-89344798D01*
X146524669Y-89344798D02*
X146586612Y-89274944D01*
X146586612Y-89274944D02*
X146637749Y-89245420D01*
X146637749Y-89245420D02*
X146729216Y-89226702D01*
X146729216Y-89226702D02*
X146769546Y-89237509D01*
X147179700Y-89239345D02*
X147113801Y-89243300D01*
X147113801Y-89243300D02*
X147073471Y-89232494D01*
X147073471Y-89232494D02*
X147018379Y-89196119D01*
X147018379Y-89196119D02*
X147003617Y-89170550D01*
X147003617Y-89170550D02*
X146999661Y-89104652D01*
X146999661Y-89104652D02*
X147010468Y-89064321D01*
X147010468Y-89064321D02*
X147046843Y-89009229D01*
X147046843Y-89009229D02*
X147149116Y-88950182D01*
X147149116Y-88950182D02*
X147215015Y-88946226D01*
X147215015Y-88946226D02*
X147255345Y-88957033D01*
X147255345Y-88957033D02*
X147310437Y-88993407D01*
X147310437Y-88993407D02*
X147325199Y-89018976D01*
X147325199Y-89018976D02*
X147329155Y-89084874D01*
X147329155Y-89084874D02*
X147318348Y-89125205D01*
X147318348Y-89125205D02*
X147281973Y-89180297D01*
X147281973Y-89180297D02*
X147179700Y-89239345D01*
X147179700Y-89239345D02*
X147143325Y-89294437D01*
X147143325Y-89294437D02*
X147132518Y-89334767D01*
X147132518Y-89334767D02*
X147136474Y-89400666D01*
X147136474Y-89400666D02*
X147195522Y-89502939D01*
X147195522Y-89502939D02*
X147250614Y-89539314D01*
X147250614Y-89539314D02*
X147290944Y-89550120D01*
X147290944Y-89550120D02*
X147356843Y-89546165D01*
X147356843Y-89546165D02*
X147459116Y-89487117D01*
X147459116Y-89487117D02*
X147495491Y-89432025D01*
X147495491Y-89432025D02*
X147506297Y-89391695D01*
X147506297Y-89391695D02*
X147502342Y-89325796D01*
X147502342Y-89325796D02*
X147443294Y-89223523D01*
X147443294Y-89223523D02*
X147388202Y-89187148D01*
X147388202Y-89187148D02*
X147347872Y-89176341D01*
X147347872Y-89176341D02*
X147281973Y-89180297D01*
X138649975Y-91209001D02*
X138290958Y-91240360D01*
X138472832Y-91515821D02*
X137935896Y-91205821D01*
X137935896Y-91205821D02*
X138053991Y-91001274D01*
X138053991Y-91001274D02*
X138109083Y-90964899D01*
X138109083Y-90964899D02*
X138149414Y-90954093D01*
X138149414Y-90954093D02*
X138215312Y-90958048D01*
X138215312Y-90958048D02*
X138292017Y-91002334D01*
X138292017Y-91002334D02*
X138328392Y-91057426D01*
X138328392Y-91057426D02*
X138339199Y-91097756D01*
X138339199Y-91097756D02*
X138335243Y-91163655D01*
X138335243Y-91163655D02*
X138217148Y-91368202D01*
X138378753Y-90438770D02*
X138319706Y-90541043D01*
X138319706Y-90541043D02*
X138315750Y-90606942D01*
X138315750Y-90606942D02*
X138326557Y-90647272D01*
X138326557Y-90647272D02*
X138373738Y-90742695D01*
X138373738Y-90742695D02*
X138461249Y-90827311D01*
X138461249Y-90827311D02*
X138665796Y-90945406D01*
X138665796Y-90945406D02*
X138731695Y-90949361D01*
X138731695Y-90949361D02*
X138772025Y-90938555D01*
X138772025Y-90938555D02*
X138827117Y-90902180D01*
X138827117Y-90902180D02*
X138886165Y-90799907D01*
X138886165Y-90799907D02*
X138890121Y-90734008D01*
X138890121Y-90734008D02*
X138879314Y-90693678D01*
X138879314Y-90693678D02*
X138842939Y-90638586D01*
X138842939Y-90638586D02*
X138715097Y-90564776D01*
X138715097Y-90564776D02*
X138649199Y-90560821D01*
X138649199Y-90560821D02*
X138608868Y-90571627D01*
X138608868Y-90571627D02*
X138553776Y-90608002D01*
X138553776Y-90608002D02*
X138494729Y-90710275D01*
X138494729Y-90710275D02*
X138490773Y-90776174D01*
X138490773Y-90776174D02*
X138501580Y-90816504D01*
X138501580Y-90816504D02*
X138537955Y-90871597D01*
X144691385Y-114032478D02*
X144649632Y-114032478D01*
X144649632Y-114032478D02*
X144566126Y-113990725D01*
X144566126Y-113990725D02*
X144524373Y-113948972D01*
X144524373Y-113948972D02*
X144482620Y-113865466D01*
X144482620Y-113865466D02*
X144482620Y-113781960D01*
X144482620Y-113781960D02*
X144503497Y-113719330D01*
X144503497Y-113719330D02*
X144566126Y-113614948D01*
X144566126Y-113614948D02*
X144628756Y-113552318D01*
X144628756Y-113552318D02*
X144733138Y-113489689D01*
X144733138Y-113489689D02*
X144795768Y-113468812D01*
X144795768Y-113468812D02*
X144879274Y-113468812D01*
X144879274Y-113468812D02*
X144962780Y-113510565D01*
X144962780Y-113510565D02*
X145004532Y-113552318D01*
X145004532Y-113552318D02*
X145046285Y-113635824D01*
X145046285Y-113635824D02*
X145046285Y-113677577D01*
X145234174Y-113781960D02*
X145505568Y-114053354D01*
X145505568Y-114053354D02*
X145192421Y-114074230D01*
X145192421Y-114074230D02*
X145255050Y-114136860D01*
X145255050Y-114136860D02*
X145275927Y-114199489D01*
X145275927Y-114199489D02*
X145275927Y-114241242D01*
X145275927Y-114241242D02*
X145255050Y-114303872D01*
X145255050Y-114303872D02*
X145150668Y-114408254D01*
X145150668Y-114408254D02*
X145088038Y-114429131D01*
X145088038Y-114429131D02*
X145046285Y-114429131D01*
X145046285Y-114429131D02*
X144983656Y-114408254D01*
X144983656Y-114408254D02*
X144858397Y-114282995D01*
X144858397Y-114282995D02*
X144837521Y-114220366D01*
X144837521Y-114220366D02*
X144837521Y-114178613D01*
X135352758Y-106045028D02*
X135665905Y-106358175D01*
X135665905Y-106358175D02*
X135707658Y-106441681D01*
X135707658Y-106441681D02*
X135707658Y-106525187D01*
X135707658Y-106525187D02*
X135665905Y-106608693D01*
X135665905Y-106608693D02*
X135624152Y-106650446D01*
X136229570Y-106045028D02*
X135979053Y-106295546D01*
X136104311Y-106170287D02*
X135665905Y-105731881D01*
X135665905Y-105731881D02*
X135686782Y-105836263D01*
X135686782Y-105836263D02*
X135686782Y-105919769D01*
X135686782Y-105919769D02*
X135665905Y-105982398D01*
X153606666Y-92409976D02*
X153577142Y-92439500D01*
X153577142Y-92439500D02*
X153488571Y-92469023D01*
X153488571Y-92469023D02*
X153429523Y-92469023D01*
X153429523Y-92469023D02*
X153340952Y-92439500D01*
X153340952Y-92439500D02*
X153281904Y-92380452D01*
X153281904Y-92380452D02*
X153252381Y-92321404D01*
X153252381Y-92321404D02*
X153222857Y-92203309D01*
X153222857Y-92203309D02*
X153222857Y-92114738D01*
X153222857Y-92114738D02*
X153252381Y-91996642D01*
X153252381Y-91996642D02*
X153281904Y-91937595D01*
X153281904Y-91937595D02*
X153340952Y-91878547D01*
X153340952Y-91878547D02*
X153429523Y-91849023D01*
X153429523Y-91849023D02*
X153488571Y-91849023D01*
X153488571Y-91849023D02*
X153577142Y-91878547D01*
X153577142Y-91878547D02*
X153606666Y-91908071D01*
X154138095Y-92055690D02*
X154138095Y-92469023D01*
X153990476Y-91819500D02*
X153842857Y-92262357D01*
X153842857Y-92262357D02*
X154226666Y-92262357D01*
X142402262Y-91193785D02*
X142402262Y-91489023D01*
X142195595Y-90869023D02*
X142402262Y-91193785D01*
X142402262Y-91193785D02*
X142608928Y-90869023D01*
X142786072Y-90928071D02*
X142815596Y-90898547D01*
X142815596Y-90898547D02*
X142874643Y-90869023D01*
X142874643Y-90869023D02*
X143022262Y-90869023D01*
X143022262Y-90869023D02*
X143081310Y-90898547D01*
X143081310Y-90898547D02*
X143110834Y-90928071D01*
X143110834Y-90928071D02*
X143140357Y-90987119D01*
X143140357Y-90987119D02*
X143140357Y-91046166D01*
X143140357Y-91046166D02*
X143110834Y-91134738D01*
X143110834Y-91134738D02*
X142756548Y-91489023D01*
X142756548Y-91489023D02*
X143140357Y-91489023D01*
X150647619Y-111799023D02*
X150647619Y-112300928D01*
X150647619Y-112300928D02*
X150677142Y-112359976D01*
X150677142Y-112359976D02*
X150706666Y-112389500D01*
X150706666Y-112389500D02*
X150765714Y-112419023D01*
X150765714Y-112419023D02*
X150883809Y-112419023D01*
X150883809Y-112419023D02*
X150942857Y-112389500D01*
X150942857Y-112389500D02*
X150972380Y-112359976D01*
X150972380Y-112359976D02*
X151001904Y-112300928D01*
X151001904Y-112300928D02*
X151001904Y-111799023D01*
X151592381Y-111799023D02*
X151297143Y-111799023D01*
X151297143Y-111799023D02*
X151267619Y-112094261D01*
X151267619Y-112094261D02*
X151297143Y-112064738D01*
X151297143Y-112064738D02*
X151356190Y-112035214D01*
X151356190Y-112035214D02*
X151503809Y-112035214D01*
X151503809Y-112035214D02*
X151562857Y-112064738D01*
X151562857Y-112064738D02*
X151592381Y-112094261D01*
X151592381Y-112094261D02*
X151621904Y-112153309D01*
X151621904Y-112153309D02*
X151621904Y-112300928D01*
X151621904Y-112300928D02*
X151592381Y-112359976D01*
X151592381Y-112359976D02*
X151562857Y-112389500D01*
X151562857Y-112389500D02*
X151503809Y-112419023D01*
X151503809Y-112419023D02*
X151356190Y-112419023D01*
X151356190Y-112419023D02*
X151297143Y-112389500D01*
X151297143Y-112389500D02*
X151267619Y-112359976D01*
X140621428Y-100839976D02*
X140591904Y-100869500D01*
X140591904Y-100869500D02*
X140503333Y-100899023D01*
X140503333Y-100899023D02*
X140444285Y-100899023D01*
X140444285Y-100899023D02*
X140355714Y-100869500D01*
X140355714Y-100869500D02*
X140296666Y-100810452D01*
X140296666Y-100810452D02*
X140267143Y-100751404D01*
X140267143Y-100751404D02*
X140237619Y-100633309D01*
X140237619Y-100633309D02*
X140237619Y-100544738D01*
X140237619Y-100544738D02*
X140267143Y-100426642D01*
X140267143Y-100426642D02*
X140296666Y-100367595D01*
X140296666Y-100367595D02*
X140355714Y-100308547D01*
X140355714Y-100308547D02*
X140444285Y-100279023D01*
X140444285Y-100279023D02*
X140503333Y-100279023D01*
X140503333Y-100279023D02*
X140591904Y-100308547D01*
X140591904Y-100308547D02*
X140621428Y-100338071D01*
X141211904Y-100899023D02*
X140857619Y-100899023D01*
X141034762Y-100899023D02*
X141034762Y-100279023D01*
X141034762Y-100279023D02*
X140975714Y-100367595D01*
X140975714Y-100367595D02*
X140916666Y-100426642D01*
X140916666Y-100426642D02*
X140857619Y-100456166D01*
X141448095Y-100338071D02*
X141477619Y-100308547D01*
X141477619Y-100308547D02*
X141536666Y-100279023D01*
X141536666Y-100279023D02*
X141684285Y-100279023D01*
X141684285Y-100279023D02*
X141743333Y-100308547D01*
X141743333Y-100308547D02*
X141772857Y-100338071D01*
X141772857Y-100338071D02*
X141802380Y-100397119D01*
X141802380Y-100397119D02*
X141802380Y-100456166D01*
X141802380Y-100456166D02*
X141772857Y-100544738D01*
X141772857Y-100544738D02*
X141418571Y-100899023D01*
X141418571Y-100899023D02*
X141802380Y-100899023D01*
X148271428Y-102609023D02*
X148064762Y-102313785D01*
X147917143Y-102609023D02*
X147917143Y-101989023D01*
X147917143Y-101989023D02*
X148153333Y-101989023D01*
X148153333Y-101989023D02*
X148212381Y-102018547D01*
X148212381Y-102018547D02*
X148241904Y-102048071D01*
X148241904Y-102048071D02*
X148271428Y-102107119D01*
X148271428Y-102107119D02*
X148271428Y-102195690D01*
X148271428Y-102195690D02*
X148241904Y-102254738D01*
X148241904Y-102254738D02*
X148212381Y-102284261D01*
X148212381Y-102284261D02*
X148153333Y-102313785D01*
X148153333Y-102313785D02*
X147917143Y-102313785D01*
X148861904Y-102609023D02*
X148507619Y-102609023D01*
X148684762Y-102609023D02*
X148684762Y-101989023D01*
X148684762Y-101989023D02*
X148625714Y-102077595D01*
X148625714Y-102077595D02*
X148566666Y-102136642D01*
X148566666Y-102136642D02*
X148507619Y-102166166D01*
X149068571Y-101989023D02*
X149452380Y-101989023D01*
X149452380Y-101989023D02*
X149245714Y-102225214D01*
X149245714Y-102225214D02*
X149334285Y-102225214D01*
X149334285Y-102225214D02*
X149393333Y-102254738D01*
X149393333Y-102254738D02*
X149422857Y-102284261D01*
X149422857Y-102284261D02*
X149452380Y-102343309D01*
X149452380Y-102343309D02*
X149452380Y-102490928D01*
X149452380Y-102490928D02*
X149422857Y-102549976D01*
X149422857Y-102549976D02*
X149393333Y-102579500D01*
X149393333Y-102579500D02*
X149334285Y-102609023D01*
X149334285Y-102609023D02*
X149157142Y-102609023D01*
X149157142Y-102609023D02*
X149098095Y-102579500D01*
X149098095Y-102579500D02*
X149068571Y-102549976D01*
X141541428Y-88659976D02*
X141511904Y-88689500D01*
X141511904Y-88689500D02*
X141423333Y-88719023D01*
X141423333Y-88719023D02*
X141364285Y-88719023D01*
X141364285Y-88719023D02*
X141275714Y-88689500D01*
X141275714Y-88689500D02*
X141216666Y-88630452D01*
X141216666Y-88630452D02*
X141187143Y-88571404D01*
X141187143Y-88571404D02*
X141157619Y-88453309D01*
X141157619Y-88453309D02*
X141157619Y-88364738D01*
X141157619Y-88364738D02*
X141187143Y-88246642D01*
X141187143Y-88246642D02*
X141216666Y-88187595D01*
X141216666Y-88187595D02*
X141275714Y-88128547D01*
X141275714Y-88128547D02*
X141364285Y-88099023D01*
X141364285Y-88099023D02*
X141423333Y-88099023D01*
X141423333Y-88099023D02*
X141511904Y-88128547D01*
X141511904Y-88128547D02*
X141541428Y-88158071D01*
X142131904Y-88719023D02*
X141777619Y-88719023D01*
X141954762Y-88719023D02*
X141954762Y-88099023D01*
X141954762Y-88099023D02*
X141895714Y-88187595D01*
X141895714Y-88187595D02*
X141836666Y-88246642D01*
X141836666Y-88246642D02*
X141777619Y-88276166D01*
X142338571Y-88099023D02*
X142722380Y-88099023D01*
X142722380Y-88099023D02*
X142515714Y-88335214D01*
X142515714Y-88335214D02*
X142604285Y-88335214D01*
X142604285Y-88335214D02*
X142663333Y-88364738D01*
X142663333Y-88364738D02*
X142692857Y-88394261D01*
X142692857Y-88394261D02*
X142722380Y-88453309D01*
X142722380Y-88453309D02*
X142722380Y-88600928D01*
X142722380Y-88600928D02*
X142692857Y-88659976D01*
X142692857Y-88659976D02*
X142663333Y-88689500D01*
X142663333Y-88689500D02*
X142604285Y-88719023D01*
X142604285Y-88719023D02*
X142427142Y-88719023D01*
X142427142Y-88719023D02*
X142368095Y-88689500D01*
X142368095Y-88689500D02*
X142338571Y-88659976D01*
X144786666Y-99739023D02*
X144580000Y-99443785D01*
X144432381Y-99739023D02*
X144432381Y-99119023D01*
X144432381Y-99119023D02*
X144668571Y-99119023D01*
X144668571Y-99119023D02*
X144727619Y-99148547D01*
X144727619Y-99148547D02*
X144757142Y-99178071D01*
X144757142Y-99178071D02*
X144786666Y-99237119D01*
X144786666Y-99237119D02*
X144786666Y-99325690D01*
X144786666Y-99325690D02*
X144757142Y-99384738D01*
X144757142Y-99384738D02*
X144727619Y-99414261D01*
X144727619Y-99414261D02*
X144668571Y-99443785D01*
X144668571Y-99443785D02*
X144432381Y-99443785D01*
X144993333Y-99119023D02*
X145406666Y-99119023D01*
X145406666Y-99119023D02*
X145140952Y-99739023D01*
X146946666Y-98019023D02*
X146740000Y-97723785D01*
X146592381Y-98019023D02*
X146592381Y-97399023D01*
X146592381Y-97399023D02*
X146828571Y-97399023D01*
X146828571Y-97399023D02*
X146887619Y-97428547D01*
X146887619Y-97428547D02*
X146917142Y-97458071D01*
X146917142Y-97458071D02*
X146946666Y-97517119D01*
X146946666Y-97517119D02*
X146946666Y-97605690D01*
X146946666Y-97605690D02*
X146917142Y-97664738D01*
X146917142Y-97664738D02*
X146887619Y-97694261D01*
X146887619Y-97694261D02*
X146828571Y-97723785D01*
X146828571Y-97723785D02*
X146592381Y-97723785D01*
X147300952Y-97664738D02*
X147241904Y-97635214D01*
X147241904Y-97635214D02*
X147212381Y-97605690D01*
X147212381Y-97605690D02*
X147182857Y-97546642D01*
X147182857Y-97546642D02*
X147182857Y-97517119D01*
X147182857Y-97517119D02*
X147212381Y-97458071D01*
X147212381Y-97458071D02*
X147241904Y-97428547D01*
X147241904Y-97428547D02*
X147300952Y-97399023D01*
X147300952Y-97399023D02*
X147419047Y-97399023D01*
X147419047Y-97399023D02*
X147478095Y-97428547D01*
X147478095Y-97428547D02*
X147507619Y-97458071D01*
X147507619Y-97458071D02*
X147537142Y-97517119D01*
X147537142Y-97517119D02*
X147537142Y-97546642D01*
X147537142Y-97546642D02*
X147507619Y-97605690D01*
X147507619Y-97605690D02*
X147478095Y-97635214D01*
X147478095Y-97635214D02*
X147419047Y-97664738D01*
X147419047Y-97664738D02*
X147300952Y-97664738D01*
X147300952Y-97664738D02*
X147241904Y-97694261D01*
X147241904Y-97694261D02*
X147212381Y-97723785D01*
X147212381Y-97723785D02*
X147182857Y-97782833D01*
X147182857Y-97782833D02*
X147182857Y-97900928D01*
X147182857Y-97900928D02*
X147212381Y-97959976D01*
X147212381Y-97959976D02*
X147241904Y-97989500D01*
X147241904Y-97989500D02*
X147300952Y-98019023D01*
X147300952Y-98019023D02*
X147419047Y-98019023D01*
X147419047Y-98019023D02*
X147478095Y-97989500D01*
X147478095Y-97989500D02*
X147507619Y-97959976D01*
X147507619Y-97959976D02*
X147537142Y-97900928D01*
X147537142Y-97900928D02*
X147537142Y-97782833D01*
X147537142Y-97782833D02*
X147507619Y-97723785D01*
X147507619Y-97723785D02*
X147478095Y-97694261D01*
X147478095Y-97694261D02*
X147419047Y-97664738D01*
X153979976Y-101788571D02*
X154009500Y-101818095D01*
X154009500Y-101818095D02*
X154039023Y-101906666D01*
X154039023Y-101906666D02*
X154039023Y-101965714D01*
X154039023Y-101965714D02*
X154009500Y-102054285D01*
X154009500Y-102054285D02*
X153950452Y-102113333D01*
X153950452Y-102113333D02*
X153891404Y-102142856D01*
X153891404Y-102142856D02*
X153773309Y-102172380D01*
X153773309Y-102172380D02*
X153684738Y-102172380D01*
X153684738Y-102172380D02*
X153566642Y-102142856D01*
X153566642Y-102142856D02*
X153507595Y-102113333D01*
X153507595Y-102113333D02*
X153448547Y-102054285D01*
X153448547Y-102054285D02*
X153419023Y-101965714D01*
X153419023Y-101965714D02*
X153419023Y-101906666D01*
X153419023Y-101906666D02*
X153448547Y-101818095D01*
X153448547Y-101818095D02*
X153478071Y-101788571D01*
X154039023Y-101198095D02*
X154039023Y-101552380D01*
X154039023Y-101375237D02*
X153419023Y-101375237D01*
X153419023Y-101375237D02*
X153507595Y-101434285D01*
X153507595Y-101434285D02*
X153566642Y-101493333D01*
X153566642Y-101493333D02*
X153596166Y-101552380D01*
X153419023Y-100814285D02*
X153419023Y-100755238D01*
X153419023Y-100755238D02*
X153448547Y-100696190D01*
X153448547Y-100696190D02*
X153478071Y-100666666D01*
X153478071Y-100666666D02*
X153537119Y-100637142D01*
X153537119Y-100637142D02*
X153655214Y-100607619D01*
X153655214Y-100607619D02*
X153802833Y-100607619D01*
X153802833Y-100607619D02*
X153920928Y-100637142D01*
X153920928Y-100637142D02*
X153979976Y-100666666D01*
X153979976Y-100666666D02*
X154009500Y-100696190D01*
X154009500Y-100696190D02*
X154039023Y-100755238D01*
X154039023Y-100755238D02*
X154039023Y-100814285D01*
X154039023Y-100814285D02*
X154009500Y-100873333D01*
X154009500Y-100873333D02*
X153979976Y-100902857D01*
X153979976Y-100902857D02*
X153920928Y-100932380D01*
X153920928Y-100932380D02*
X153802833Y-100961904D01*
X153802833Y-100961904D02*
X153655214Y-100961904D01*
X153655214Y-100961904D02*
X153537119Y-100932380D01*
X153537119Y-100932380D02*
X153478071Y-100902857D01*
X153478071Y-100902857D02*
X153448547Y-100873333D01*
X153448547Y-100873333D02*
X153419023Y-100814285D01*
X137895467Y-105339132D02*
X137540566Y-105276502D01*
X137644949Y-105589649D02*
X137206543Y-105151243D01*
X137206543Y-105151243D02*
X137373555Y-104984231D01*
X137373555Y-104984231D02*
X137436184Y-104963355D01*
X137436184Y-104963355D02*
X137477937Y-104963355D01*
X137477937Y-104963355D02*
X137540566Y-104984231D01*
X137540566Y-104984231D02*
X137603196Y-105046861D01*
X137603196Y-105046861D02*
X137624072Y-105109490D01*
X137624072Y-105109490D02*
X137624072Y-105151243D01*
X137624072Y-105151243D02*
X137603196Y-105213873D01*
X137603196Y-105213873D02*
X137436184Y-105380885D01*
X138312996Y-104921602D02*
X138062479Y-105172120D01*
X138187738Y-105046861D02*
X137749331Y-104608455D01*
X137749331Y-104608455D02*
X137770208Y-104712837D01*
X137770208Y-104712837D02*
X137770208Y-104796343D01*
X137770208Y-104796343D02*
X137749331Y-104858972D01*
X138396502Y-104253554D02*
X138688773Y-104545825D01*
X138125108Y-104190925D02*
X138333873Y-104608455D01*
X138333873Y-104608455D02*
X138605267Y-104337060D01*
X150794762Y-97013785D02*
X150794762Y-97309023D01*
X150588095Y-96689023D02*
X150794762Y-97013785D01*
X150794762Y-97013785D02*
X151001428Y-96689023D01*
X151532857Y-97309023D02*
X151178572Y-97309023D01*
X151355715Y-97309023D02*
X151355715Y-96689023D01*
X151355715Y-96689023D02*
X151296667Y-96777595D01*
X151296667Y-96777595D02*
X151237619Y-96836642D01*
X151237619Y-96836642D02*
X151178572Y-96866166D01*
X153006666Y-108829023D02*
X152800000Y-108533785D01*
X152652381Y-108829023D02*
X152652381Y-108209023D01*
X152652381Y-108209023D02*
X152888571Y-108209023D01*
X152888571Y-108209023D02*
X152947619Y-108238547D01*
X152947619Y-108238547D02*
X152977142Y-108268071D01*
X152977142Y-108268071D02*
X153006666Y-108327119D01*
X153006666Y-108327119D02*
X153006666Y-108415690D01*
X153006666Y-108415690D02*
X152977142Y-108474738D01*
X152977142Y-108474738D02*
X152947619Y-108504261D01*
X152947619Y-108504261D02*
X152888571Y-108533785D01*
X152888571Y-108533785D02*
X152652381Y-108533785D01*
X153213333Y-108209023D02*
X153597142Y-108209023D01*
X153597142Y-108209023D02*
X153390476Y-108445214D01*
X153390476Y-108445214D02*
X153479047Y-108445214D01*
X153479047Y-108445214D02*
X153538095Y-108474738D01*
X153538095Y-108474738D02*
X153567619Y-108504261D01*
X153567619Y-108504261D02*
X153597142Y-108563309D01*
X153597142Y-108563309D02*
X153597142Y-108710928D01*
X153597142Y-108710928D02*
X153567619Y-108769976D01*
X153567619Y-108769976D02*
X153538095Y-108799500D01*
X153538095Y-108799500D02*
X153479047Y-108829023D01*
X153479047Y-108829023D02*
X153301904Y-108829023D01*
X153301904Y-108829023D02*
X153242857Y-108799500D01*
X153242857Y-108799500D02*
X153213333Y-108769976D01*
X142694869Y-101512917D02*
X143049769Y-101867817D01*
X143049769Y-101867817D02*
X143112399Y-101888693D01*
X143112399Y-101888693D02*
X143154152Y-101888693D01*
X143154152Y-101888693D02*
X143216781Y-101867817D01*
X143216781Y-101867817D02*
X143300287Y-101784311D01*
X143300287Y-101784311D02*
X143321164Y-101721682D01*
X143321164Y-101721682D02*
X143321164Y-101679929D01*
X143321164Y-101679929D02*
X143300287Y-101617299D01*
X143300287Y-101617299D02*
X142945387Y-101262399D01*
X143488176Y-101011881D02*
X143780447Y-101304152D01*
X143216781Y-100949251D02*
X143425546Y-101366781D01*
X143425546Y-101366781D02*
X143696941Y-101095387D01*
X138221428Y-92479976D02*
X138191904Y-92509500D01*
X138191904Y-92509500D02*
X138103333Y-92539023D01*
X138103333Y-92539023D02*
X138044285Y-92539023D01*
X138044285Y-92539023D02*
X137955714Y-92509500D01*
X137955714Y-92509500D02*
X137896666Y-92450452D01*
X137896666Y-92450452D02*
X137867143Y-92391404D01*
X137867143Y-92391404D02*
X137837619Y-92273309D01*
X137837619Y-92273309D02*
X137837619Y-92184738D01*
X137837619Y-92184738D02*
X137867143Y-92066642D01*
X137867143Y-92066642D02*
X137896666Y-92007595D01*
X137896666Y-92007595D02*
X137955714Y-91948547D01*
X137955714Y-91948547D02*
X138044285Y-91919023D01*
X138044285Y-91919023D02*
X138103333Y-91919023D01*
X138103333Y-91919023D02*
X138191904Y-91948547D01*
X138191904Y-91948547D02*
X138221428Y-91978071D01*
X138811904Y-92539023D02*
X138457619Y-92539023D01*
X138634762Y-92539023D02*
X138634762Y-91919023D01*
X138634762Y-91919023D02*
X138575714Y-92007595D01*
X138575714Y-92007595D02*
X138516666Y-92066642D01*
X138516666Y-92066642D02*
X138457619Y-92096166D01*
X139402380Y-92539023D02*
X139048095Y-92539023D01*
X139225238Y-92539023D02*
X139225238Y-91919023D01*
X139225238Y-91919023D02*
X139166190Y-92007595D01*
X139166190Y-92007595D02*
X139107142Y-92066642D01*
X139107142Y-92066642D02*
X139048095Y-92096166D01*
X139261428Y-88759976D02*
X139231904Y-88789500D01*
X139231904Y-88789500D02*
X139143333Y-88819023D01*
X139143333Y-88819023D02*
X139084285Y-88819023D01*
X139084285Y-88819023D02*
X138995714Y-88789500D01*
X138995714Y-88789500D02*
X138936666Y-88730452D01*
X138936666Y-88730452D02*
X138907143Y-88671404D01*
X138907143Y-88671404D02*
X138877619Y-88553309D01*
X138877619Y-88553309D02*
X138877619Y-88464738D01*
X138877619Y-88464738D02*
X138907143Y-88346642D01*
X138907143Y-88346642D02*
X138936666Y-88287595D01*
X138936666Y-88287595D02*
X138995714Y-88228547D01*
X138995714Y-88228547D02*
X139084285Y-88199023D01*
X139084285Y-88199023D02*
X139143333Y-88199023D01*
X139143333Y-88199023D02*
X139231904Y-88228547D01*
X139231904Y-88228547D02*
X139261428Y-88258071D01*
X139851904Y-88819023D02*
X139497619Y-88819023D01*
X139674762Y-88819023D02*
X139674762Y-88199023D01*
X139674762Y-88199023D02*
X139615714Y-88287595D01*
X139615714Y-88287595D02*
X139556666Y-88346642D01*
X139556666Y-88346642D02*
X139497619Y-88376166D01*
X140383333Y-88405690D02*
X140383333Y-88819023D01*
X140235714Y-88169500D02*
X140088095Y-88612357D01*
X140088095Y-88612357D02*
X140471904Y-88612357D01*
X147051428Y-107949023D02*
X146844762Y-107653785D01*
X146697143Y-107949023D02*
X146697143Y-107329023D01*
X146697143Y-107329023D02*
X146933333Y-107329023D01*
X146933333Y-107329023D02*
X146992381Y-107358547D01*
X146992381Y-107358547D02*
X147021904Y-107388071D01*
X147021904Y-107388071D02*
X147051428Y-107447119D01*
X147051428Y-107447119D02*
X147051428Y-107535690D01*
X147051428Y-107535690D02*
X147021904Y-107594738D01*
X147021904Y-107594738D02*
X146992381Y-107624261D01*
X146992381Y-107624261D02*
X146933333Y-107653785D01*
X146933333Y-107653785D02*
X146697143Y-107653785D01*
X147641904Y-107949023D02*
X147287619Y-107949023D01*
X147464762Y-107949023D02*
X147464762Y-107329023D01*
X147464762Y-107329023D02*
X147405714Y-107417595D01*
X147405714Y-107417595D02*
X147346666Y-107476642D01*
X147346666Y-107476642D02*
X147287619Y-107506166D01*
X147848571Y-107329023D02*
X148261904Y-107329023D01*
X148261904Y-107329023D02*
X147996190Y-107949023D01*
X164106666Y-106879976D02*
X164077142Y-106909500D01*
X164077142Y-106909500D02*
X163988571Y-106939023D01*
X163988571Y-106939023D02*
X163929523Y-106939023D01*
X163929523Y-106939023D02*
X163840952Y-106909500D01*
X163840952Y-106909500D02*
X163781904Y-106850452D01*
X163781904Y-106850452D02*
X163752381Y-106791404D01*
X163752381Y-106791404D02*
X163722857Y-106673309D01*
X163722857Y-106673309D02*
X163722857Y-106584738D01*
X163722857Y-106584738D02*
X163752381Y-106466642D01*
X163752381Y-106466642D02*
X163781904Y-106407595D01*
X163781904Y-106407595D02*
X163840952Y-106348547D01*
X163840952Y-106348547D02*
X163929523Y-106319023D01*
X163929523Y-106319023D02*
X163988571Y-106319023D01*
X163988571Y-106319023D02*
X164077142Y-106348547D01*
X164077142Y-106348547D02*
X164106666Y-106378071D01*
X164342857Y-106378071D02*
X164372381Y-106348547D01*
X164372381Y-106348547D02*
X164431428Y-106319023D01*
X164431428Y-106319023D02*
X164579047Y-106319023D01*
X164579047Y-106319023D02*
X164638095Y-106348547D01*
X164638095Y-106348547D02*
X164667619Y-106378071D01*
X164667619Y-106378071D02*
X164697142Y-106437119D01*
X164697142Y-106437119D02*
X164697142Y-106496166D01*
X164697142Y-106496166D02*
X164667619Y-106584738D01*
X164667619Y-106584738D02*
X164313333Y-106939023D01*
X164313333Y-106939023D02*
X164697142Y-106939023D01*
X150707619Y-104229023D02*
X150707619Y-104730928D01*
X150707619Y-104730928D02*
X150737142Y-104789976D01*
X150737142Y-104789976D02*
X150766666Y-104819500D01*
X150766666Y-104819500D02*
X150825714Y-104849023D01*
X150825714Y-104849023D02*
X150943809Y-104849023D01*
X150943809Y-104849023D02*
X151002857Y-104819500D01*
X151002857Y-104819500D02*
X151032380Y-104789976D01*
X151032380Y-104789976D02*
X151061904Y-104730928D01*
X151061904Y-104730928D02*
X151061904Y-104229023D01*
X151298095Y-104229023D02*
X151681904Y-104229023D01*
X151681904Y-104229023D02*
X151475238Y-104465214D01*
X151475238Y-104465214D02*
X151563809Y-104465214D01*
X151563809Y-104465214D02*
X151622857Y-104494738D01*
X151622857Y-104494738D02*
X151652381Y-104524261D01*
X151652381Y-104524261D02*
X151681904Y-104583309D01*
X151681904Y-104583309D02*
X151681904Y-104730928D01*
X151681904Y-104730928D02*
X151652381Y-104789976D01*
X151652381Y-104789976D02*
X151622857Y-104819500D01*
X151622857Y-104819500D02*
X151563809Y-104849023D01*
X151563809Y-104849023D02*
X151386666Y-104849023D01*
X151386666Y-104849023D02*
X151327619Y-104819500D01*
X151327619Y-104819500D02*
X151298095Y-104789976D01*
X151031428Y-102619023D02*
X150824762Y-102323785D01*
X150677143Y-102619023D02*
X150677143Y-101999023D01*
X150677143Y-101999023D02*
X150913333Y-101999023D01*
X150913333Y-101999023D02*
X150972381Y-102028547D01*
X150972381Y-102028547D02*
X151001904Y-102058071D01*
X151001904Y-102058071D02*
X151031428Y-102117119D01*
X151031428Y-102117119D02*
X151031428Y-102205690D01*
X151031428Y-102205690D02*
X151001904Y-102264738D01*
X151001904Y-102264738D02*
X150972381Y-102294261D01*
X150972381Y-102294261D02*
X150913333Y-102323785D01*
X150913333Y-102323785D02*
X150677143Y-102323785D01*
X151621904Y-102619023D02*
X151267619Y-102619023D01*
X151444762Y-102619023D02*
X151444762Y-101999023D01*
X151444762Y-101999023D02*
X151385714Y-102087595D01*
X151385714Y-102087595D02*
X151326666Y-102146642D01*
X151326666Y-102146642D02*
X151267619Y-102176166D01*
X151858095Y-102058071D02*
X151887619Y-102028547D01*
X151887619Y-102028547D02*
X151946666Y-101999023D01*
X151946666Y-101999023D02*
X152094285Y-101999023D01*
X152094285Y-101999023D02*
X152153333Y-102028547D01*
X152153333Y-102028547D02*
X152182857Y-102058071D01*
X152182857Y-102058071D02*
X152212380Y-102117119D01*
X152212380Y-102117119D02*
X152212380Y-102176166D01*
X152212380Y-102176166D02*
X152182857Y-102264738D01*
X152182857Y-102264738D02*
X151828571Y-102619023D01*
X151828571Y-102619023D02*
X152212380Y-102619023D01*
X141514762Y-93209023D02*
X141514762Y-92589023D01*
X142164285Y-93149976D02*
X142134761Y-93179500D01*
X142134761Y-93179500D02*
X142046190Y-93209023D01*
X142046190Y-93209023D02*
X141987142Y-93209023D01*
X141987142Y-93209023D02*
X141898571Y-93179500D01*
X141898571Y-93179500D02*
X141839523Y-93120452D01*
X141839523Y-93120452D02*
X141810000Y-93061404D01*
X141810000Y-93061404D02*
X141780476Y-92943309D01*
X141780476Y-92943309D02*
X141780476Y-92854738D01*
X141780476Y-92854738D02*
X141810000Y-92736642D01*
X141810000Y-92736642D02*
X141839523Y-92677595D01*
X141839523Y-92677595D02*
X141898571Y-92618547D01*
X141898571Y-92618547D02*
X141987142Y-92589023D01*
X141987142Y-92589023D02*
X142046190Y-92589023D01*
X142046190Y-92589023D02*
X142134761Y-92618547D01*
X142134761Y-92618547D02*
X142164285Y-92648071D01*
X142754761Y-93209023D02*
X142400476Y-93209023D01*
X142577619Y-93209023D02*
X142577619Y-92589023D01*
X142577619Y-92589023D02*
X142518571Y-92677595D01*
X142518571Y-92677595D02*
X142459523Y-92736642D01*
X142459523Y-92736642D02*
X142400476Y-92766166D01*
X135035467Y-103849132D02*
X134680566Y-103786502D01*
X134784949Y-104099649D02*
X134346543Y-103661243D01*
X134346543Y-103661243D02*
X134513555Y-103494231D01*
X134513555Y-103494231D02*
X134576184Y-103473355D01*
X134576184Y-103473355D02*
X134617937Y-103473355D01*
X134617937Y-103473355D02*
X134680566Y-103494231D01*
X134680566Y-103494231D02*
X134743196Y-103556861D01*
X134743196Y-103556861D02*
X134764072Y-103619490D01*
X134764072Y-103619490D02*
X134764072Y-103661243D01*
X134764072Y-103661243D02*
X134743196Y-103723873D01*
X134743196Y-103723873D02*
X134576184Y-103890885D01*
X135452996Y-103431602D02*
X135202479Y-103682120D01*
X135327738Y-103556861D02*
X134889331Y-103118455D01*
X134889331Y-103118455D02*
X134910208Y-103222837D01*
X134910208Y-103222837D02*
X134910208Y-103306343D01*
X134910208Y-103306343D02*
X134889331Y-103368972D01*
X135411243Y-102596543D02*
X135202478Y-102805307D01*
X135202478Y-102805307D02*
X135390367Y-103034949D01*
X135390367Y-103034949D02*
X135390367Y-102993196D01*
X135390367Y-102993196D02*
X135411243Y-102930566D01*
X135411243Y-102930566D02*
X135515626Y-102826184D01*
X135515626Y-102826184D02*
X135578255Y-102805307D01*
X135578255Y-102805307D02*
X135620008Y-102805307D01*
X135620008Y-102805307D02*
X135682638Y-102826184D01*
X135682638Y-102826184D02*
X135787020Y-102930566D01*
X135787020Y-102930566D02*
X135807897Y-102993196D01*
X135807897Y-102993196D02*
X135807897Y-103034949D01*
X135807897Y-103034949D02*
X135787020Y-103097578D01*
X135787020Y-103097578D02*
X135682638Y-103201961D01*
X135682638Y-103201961D02*
X135620008Y-103222837D01*
X135620008Y-103222837D02*
X135578255Y-103222837D01*
X146496666Y-93489976D02*
X146467142Y-93519500D01*
X146467142Y-93519500D02*
X146378571Y-93549023D01*
X146378571Y-93549023D02*
X146319523Y-93549023D01*
X146319523Y-93549023D02*
X146230952Y-93519500D01*
X146230952Y-93519500D02*
X146171904Y-93460452D01*
X146171904Y-93460452D02*
X146142381Y-93401404D01*
X146142381Y-93401404D02*
X146112857Y-93283309D01*
X146112857Y-93283309D02*
X146112857Y-93194738D01*
X146112857Y-93194738D02*
X146142381Y-93076642D01*
X146142381Y-93076642D02*
X146171904Y-93017595D01*
X146171904Y-93017595D02*
X146230952Y-92958547D01*
X146230952Y-92958547D02*
X146319523Y-92929023D01*
X146319523Y-92929023D02*
X146378571Y-92929023D01*
X146378571Y-92929023D02*
X146467142Y-92958547D01*
X146467142Y-92958547D02*
X146496666Y-92988071D01*
X147028095Y-92929023D02*
X146910000Y-92929023D01*
X146910000Y-92929023D02*
X146850952Y-92958547D01*
X146850952Y-92958547D02*
X146821428Y-92988071D01*
X146821428Y-92988071D02*
X146762381Y-93076642D01*
X146762381Y-93076642D02*
X146732857Y-93194738D01*
X146732857Y-93194738D02*
X146732857Y-93430928D01*
X146732857Y-93430928D02*
X146762381Y-93489976D01*
X146762381Y-93489976D02*
X146791904Y-93519500D01*
X146791904Y-93519500D02*
X146850952Y-93549023D01*
X146850952Y-93549023D02*
X146969047Y-93549023D01*
X146969047Y-93549023D02*
X147028095Y-93519500D01*
X147028095Y-93519500D02*
X147057619Y-93489976D01*
X147057619Y-93489976D02*
X147087142Y-93430928D01*
X147087142Y-93430928D02*
X147087142Y-93283309D01*
X147087142Y-93283309D02*
X147057619Y-93224261D01*
X147057619Y-93224261D02*
X147028095Y-93194738D01*
X147028095Y-93194738D02*
X146969047Y-93165214D01*
X146969047Y-93165214D02*
X146850952Y-93165214D01*
X146850952Y-93165214D02*
X146791904Y-93194738D01*
X146791904Y-93194738D02*
X146762381Y-93224261D01*
X146762381Y-93224261D02*
X146732857Y-93283309D01*
X153456666Y-115159023D02*
X153250000Y-114863785D01*
X153102381Y-115159023D02*
X153102381Y-114539023D01*
X153102381Y-114539023D02*
X153338571Y-114539023D01*
X153338571Y-114539023D02*
X153397619Y-114568547D01*
X153397619Y-114568547D02*
X153427142Y-114598071D01*
X153427142Y-114598071D02*
X153456666Y-114657119D01*
X153456666Y-114657119D02*
X153456666Y-114745690D01*
X153456666Y-114745690D02*
X153427142Y-114804738D01*
X153427142Y-114804738D02*
X153397619Y-114834261D01*
X153397619Y-114834261D02*
X153338571Y-114863785D01*
X153338571Y-114863785D02*
X153102381Y-114863785D01*
X153751904Y-115159023D02*
X153870000Y-115159023D01*
X153870000Y-115159023D02*
X153929047Y-115129500D01*
X153929047Y-115129500D02*
X153958571Y-115099976D01*
X153958571Y-115099976D02*
X154017619Y-115011404D01*
X154017619Y-115011404D02*
X154047142Y-114893309D01*
X154047142Y-114893309D02*
X154047142Y-114657119D01*
X154047142Y-114657119D02*
X154017619Y-114598071D01*
X154017619Y-114598071D02*
X153988095Y-114568547D01*
X153988095Y-114568547D02*
X153929047Y-114539023D01*
X153929047Y-114539023D02*
X153810952Y-114539023D01*
X153810952Y-114539023D02*
X153751904Y-114568547D01*
X153751904Y-114568547D02*
X153722381Y-114598071D01*
X153722381Y-114598071D02*
X153692857Y-114657119D01*
X153692857Y-114657119D02*
X153692857Y-114804738D01*
X153692857Y-114804738D02*
X153722381Y-114863785D01*
X153722381Y-114863785D02*
X153751904Y-114893309D01*
X153751904Y-114893309D02*
X153810952Y-114922833D01*
X153810952Y-114922833D02*
X153929047Y-114922833D01*
X153929047Y-114922833D02*
X153988095Y-114893309D01*
X153988095Y-114893309D02*
X154017619Y-114863785D01*
X154017619Y-114863785D02*
X154047142Y-114804738D01*
X148491919Y-97549022D02*
X148491919Y-98050927D01*
X148491919Y-98050927D02*
X148521442Y-98109975D01*
X148521442Y-98109975D02*
X148550966Y-98139499D01*
X148550966Y-98139499D02*
X148610014Y-98169022D01*
X148610014Y-98169022D02*
X148728109Y-98169022D01*
X148728109Y-98169022D02*
X148787157Y-98139499D01*
X148787157Y-98139499D02*
X148816680Y-98109975D01*
X148816680Y-98109975D02*
X148846204Y-98050927D01*
X148846204Y-98050927D02*
X148846204Y-97549022D01*
X149466204Y-98169022D02*
X149111919Y-98169022D01*
X149289062Y-98169022D02*
X149289062Y-97549022D01*
X149289062Y-97549022D02*
X149230014Y-97637594D01*
X149230014Y-97637594D02*
X149170966Y-97696641D01*
X149170966Y-97696641D02*
X149111919Y-97726165D01*
X147753700Y-98949022D02*
X147753700Y-99096641D01*
X147606081Y-99037594D02*
X147753700Y-99096641D01*
X147753700Y-99096641D02*
X147901319Y-99037594D01*
X147665129Y-99214737D02*
X147753700Y-99096641D01*
X147753700Y-99096641D02*
X147842271Y-99214737D01*
X147753700Y-98949022D02*
X147753700Y-99096641D01*
X147606081Y-99037594D02*
X147753700Y-99096641D01*
X147753700Y-99096641D02*
X147901319Y-99037594D01*
X147665129Y-99214737D02*
X147753700Y-99096641D01*
X147753700Y-99096641D02*
X147842271Y-99214737D01*
X152759023Y-106978571D02*
X152463785Y-107185237D01*
X152759023Y-107332856D02*
X152139023Y-107332856D01*
X152139023Y-107332856D02*
X152139023Y-107096666D01*
X152139023Y-107096666D02*
X152168547Y-107037618D01*
X152168547Y-107037618D02*
X152198071Y-107008095D01*
X152198071Y-107008095D02*
X152257119Y-106978571D01*
X152257119Y-106978571D02*
X152345690Y-106978571D01*
X152345690Y-106978571D02*
X152404738Y-107008095D01*
X152404738Y-107008095D02*
X152434261Y-107037618D01*
X152434261Y-107037618D02*
X152463785Y-107096666D01*
X152463785Y-107096666D02*
X152463785Y-107332856D01*
X152759023Y-106388095D02*
X152759023Y-106742380D01*
X152759023Y-106565237D02*
X152139023Y-106565237D01*
X152139023Y-106565237D02*
X152227595Y-106624285D01*
X152227595Y-106624285D02*
X152286642Y-106683333D01*
X152286642Y-106683333D02*
X152316166Y-106742380D01*
X152139023Y-105856666D02*
X152139023Y-105974761D01*
X152139023Y-105974761D02*
X152168547Y-106033809D01*
X152168547Y-106033809D02*
X152198071Y-106063333D01*
X152198071Y-106063333D02*
X152286642Y-106122380D01*
X152286642Y-106122380D02*
X152404738Y-106151904D01*
X152404738Y-106151904D02*
X152640928Y-106151904D01*
X152640928Y-106151904D02*
X152699976Y-106122380D01*
X152699976Y-106122380D02*
X152729500Y-106092857D01*
X152729500Y-106092857D02*
X152759023Y-106033809D01*
X152759023Y-106033809D02*
X152759023Y-105915714D01*
X152759023Y-105915714D02*
X152729500Y-105856666D01*
X152729500Y-105856666D02*
X152699976Y-105827142D01*
X152699976Y-105827142D02*
X152640928Y-105797619D01*
X152640928Y-105797619D02*
X152493309Y-105797619D01*
X152493309Y-105797619D02*
X152434261Y-105827142D01*
X152434261Y-105827142D02*
X152404738Y-105856666D01*
X152404738Y-105856666D02*
X152375214Y-105915714D01*
X152375214Y-105915714D02*
X152375214Y-106033809D01*
X152375214Y-106033809D02*
X152404738Y-106092857D01*
X152404738Y-106092857D02*
X152434261Y-106122380D01*
X152434261Y-106122380D02*
X152493309Y-106151904D01*
X144170498Y-90732171D02*
X144159692Y-90772501D01*
X144159692Y-90772501D02*
X144097749Y-90842355D01*
X144097749Y-90842355D02*
X144046612Y-90871879D01*
X144046612Y-90871879D02*
X143955145Y-90890597D01*
X143955145Y-90890597D02*
X143874484Y-90868984D01*
X143874484Y-90868984D02*
X143819392Y-90832609D01*
X143819392Y-90832609D02*
X143734776Y-90745097D01*
X143734776Y-90745097D02*
X143690491Y-90668392D01*
X143690491Y-90668392D02*
X143657011Y-90551357D01*
X143657011Y-90551357D02*
X143653056Y-90485458D01*
X143653056Y-90485458D02*
X143674669Y-90404798D01*
X143674669Y-90404798D02*
X143736612Y-90334944D01*
X143736612Y-90334944D02*
X143787749Y-90305420D01*
X143787749Y-90305420D02*
X143879216Y-90286702D01*
X143879216Y-90286702D02*
X143919546Y-90297509D01*
X144455706Y-90635689D02*
X144557979Y-90576641D01*
X144557979Y-90576641D02*
X144594354Y-90521549D01*
X144594354Y-90521549D02*
X144605161Y-90481219D01*
X144605161Y-90481219D02*
X144612012Y-90374990D01*
X144612012Y-90374990D02*
X144578532Y-90257954D01*
X144578532Y-90257954D02*
X144460437Y-90053407D01*
X144460437Y-90053407D02*
X144405345Y-90017033D01*
X144405345Y-90017033D02*
X144365015Y-90006226D01*
X144365015Y-90006226D02*
X144299116Y-90010182D01*
X144299116Y-90010182D02*
X144196843Y-90069229D01*
X144196843Y-90069229D02*
X144160468Y-90124321D01*
X144160468Y-90124321D02*
X144149661Y-90164652D01*
X144149661Y-90164652D02*
X144153617Y-90230550D01*
X144153617Y-90230550D02*
X144227426Y-90358392D01*
X144227426Y-90358392D02*
X144282518Y-90394767D01*
X144282518Y-90394767D02*
X144322849Y-90405573D01*
X144322849Y-90405573D02*
X144388747Y-90401618D01*
X144388747Y-90401618D02*
X144491021Y-90342570D01*
X144491021Y-90342570D02*
X144527396Y-90287478D01*
X144527396Y-90287478D02*
X144538202Y-90247148D01*
X144538202Y-90247148D02*
X144534247Y-90181249D01*
X155109023Y-110518571D02*
X154813785Y-110725237D01*
X155109023Y-110872856D02*
X154489023Y-110872856D01*
X154489023Y-110872856D02*
X154489023Y-110636666D01*
X154489023Y-110636666D02*
X154518547Y-110577618D01*
X154518547Y-110577618D02*
X154548071Y-110548095D01*
X154548071Y-110548095D02*
X154607119Y-110518571D01*
X154607119Y-110518571D02*
X154695690Y-110518571D01*
X154695690Y-110518571D02*
X154754738Y-110548095D01*
X154754738Y-110548095D02*
X154784261Y-110577618D01*
X154784261Y-110577618D02*
X154813785Y-110636666D01*
X154813785Y-110636666D02*
X154813785Y-110872856D01*
X155109023Y-109928095D02*
X155109023Y-110282380D01*
X155109023Y-110105237D02*
X154489023Y-110105237D01*
X154489023Y-110105237D02*
X154577595Y-110164285D01*
X154577595Y-110164285D02*
X154636642Y-110223333D01*
X154636642Y-110223333D02*
X154666166Y-110282380D01*
X155109023Y-109337619D02*
X155109023Y-109691904D01*
X155109023Y-109514761D02*
X154489023Y-109514761D01*
X154489023Y-109514761D02*
X154577595Y-109573809D01*
X154577595Y-109573809D02*
X154636642Y-109632857D01*
X154636642Y-109632857D02*
X154666166Y-109691904D01*
X153066666Y-95349976D02*
X153037142Y-95379500D01*
X153037142Y-95379500D02*
X152948571Y-95409023D01*
X152948571Y-95409023D02*
X152889523Y-95409023D01*
X152889523Y-95409023D02*
X152800952Y-95379500D01*
X152800952Y-95379500D02*
X152741904Y-95320452D01*
X152741904Y-95320452D02*
X152712381Y-95261404D01*
X152712381Y-95261404D02*
X152682857Y-95143309D01*
X152682857Y-95143309D02*
X152682857Y-95054738D01*
X152682857Y-95054738D02*
X152712381Y-94936642D01*
X152712381Y-94936642D02*
X152741904Y-94877595D01*
X152741904Y-94877595D02*
X152800952Y-94818547D01*
X152800952Y-94818547D02*
X152889523Y-94789023D01*
X152889523Y-94789023D02*
X152948571Y-94789023D01*
X152948571Y-94789023D02*
X153037142Y-94818547D01*
X153037142Y-94818547D02*
X153066666Y-94848071D01*
X153627619Y-94789023D02*
X153332381Y-94789023D01*
X153332381Y-94789023D02*
X153302857Y-95084261D01*
X153302857Y-95084261D02*
X153332381Y-95054738D01*
X153332381Y-95054738D02*
X153391428Y-95025214D01*
X153391428Y-95025214D02*
X153539047Y-95025214D01*
X153539047Y-95025214D02*
X153598095Y-95054738D01*
X153598095Y-95054738D02*
X153627619Y-95084261D01*
X153627619Y-95084261D02*
X153657142Y-95143309D01*
X153657142Y-95143309D02*
X153657142Y-95290928D01*
X153657142Y-95290928D02*
X153627619Y-95349976D01*
X153627619Y-95349976D02*
X153598095Y-95379500D01*
X153598095Y-95379500D02*
X153539047Y-95409023D01*
X153539047Y-95409023D02*
X153391428Y-95409023D01*
X153391428Y-95409023D02*
X153332381Y-95379500D01*
X153332381Y-95379500D02*
X153302857Y-95349976D01*
X146216666Y-96799023D02*
X146010000Y-96503785D01*
X145862381Y-96799023D02*
X145862381Y-96179023D01*
X145862381Y-96179023D02*
X146098571Y-96179023D01*
X146098571Y-96179023D02*
X146157619Y-96208547D01*
X146157619Y-96208547D02*
X146187142Y-96238071D01*
X146187142Y-96238071D02*
X146216666Y-96297119D01*
X146216666Y-96297119D02*
X146216666Y-96385690D01*
X146216666Y-96385690D02*
X146187142Y-96444738D01*
X146187142Y-96444738D02*
X146157619Y-96474261D01*
X146157619Y-96474261D02*
X146098571Y-96503785D01*
X146098571Y-96503785D02*
X145862381Y-96503785D01*
X146807142Y-96799023D02*
X146452857Y-96799023D01*
X146630000Y-96799023D02*
X146630000Y-96179023D01*
X146630000Y-96179023D02*
X146570952Y-96267595D01*
X146570952Y-96267595D02*
X146511904Y-96326642D01*
X146511904Y-96326642D02*
X146452857Y-96356166D01*
X135189882Y-94763843D02*
X135259737Y-94701900D01*
X135259737Y-94701900D02*
X135333546Y-94574058D01*
X135333546Y-94574058D02*
X135337502Y-94508160D01*
X135337502Y-94508160D02*
X135326695Y-94467829D01*
X135326695Y-94467829D02*
X135290320Y-94412737D01*
X135290320Y-94412737D02*
X135239183Y-94383213D01*
X135239183Y-94383213D02*
X135173285Y-94379258D01*
X135173285Y-94379258D02*
X135132955Y-94390064D01*
X135132955Y-94390064D02*
X135077862Y-94426439D01*
X135077862Y-94426439D02*
X134993246Y-94513951D01*
X134993246Y-94513951D02*
X134938154Y-94550326D01*
X134938154Y-94550326D02*
X134897824Y-94561132D01*
X134897824Y-94561132D02*
X134831925Y-94557177D01*
X134831925Y-94557177D02*
X134780789Y-94527653D01*
X134780789Y-94527653D02*
X134744414Y-94472561D01*
X134744414Y-94472561D02*
X134733607Y-94432230D01*
X134733607Y-94432230D02*
X134737563Y-94366332D01*
X134737563Y-94366332D02*
X134811372Y-94238490D01*
X134811372Y-94238490D02*
X134881226Y-94176547D01*
X135687832Y-93960417D02*
X135510689Y-94267238D01*
X135599260Y-94113828D02*
X135062325Y-93803828D01*
X135062325Y-93803828D02*
X135109506Y-93899250D01*
X135109506Y-93899250D02*
X135131119Y-93979911D01*
X135131119Y-93979911D02*
X135127163Y-94045809D01*
X146371385Y-114332479D02*
X146329632Y-114332479D01*
X146329632Y-114332479D02*
X146246126Y-114290726D01*
X146246126Y-114290726D02*
X146204373Y-114248973D01*
X146204373Y-114248973D02*
X146162620Y-114165467D01*
X146162620Y-114165467D02*
X146162620Y-114081961D01*
X146162620Y-114081961D02*
X146183497Y-114019331D01*
X146183497Y-114019331D02*
X146246126Y-113914949D01*
X146246126Y-113914949D02*
X146308756Y-113852319D01*
X146308756Y-113852319D02*
X146413138Y-113789690D01*
X146413138Y-113789690D02*
X146475768Y-113768813D01*
X146475768Y-113768813D02*
X146559274Y-113768813D01*
X146559274Y-113768813D02*
X146642780Y-113810566D01*
X146642780Y-113810566D02*
X146684532Y-113852319D01*
X146684532Y-113852319D02*
X146726285Y-113935825D01*
X146726285Y-113935825D02*
X146726285Y-113977578D01*
X146747162Y-114791761D02*
X146496644Y-114541243D01*
X146621903Y-114666502D02*
X147060309Y-114228096D01*
X147060309Y-114228096D02*
X146955927Y-114248973D01*
X146955927Y-114248973D02*
X146872421Y-114248973D01*
X146872421Y-114248973D02*
X146809791Y-114228096D01*
X145794269Y-91116550D02*
X145526692Y-91241323D01*
X145526692Y-91241323D02*
X145264669Y-90679412D01*
X146275907Y-90891959D02*
X145954815Y-91041686D01*
X146115361Y-90966823D02*
X145853337Y-90404912D01*
X145853337Y-90404912D02*
X145837254Y-90510139D01*
X145837254Y-90510139D02*
X145808693Y-90588609D01*
X145808693Y-90588609D02*
X145767655Y-90640322D01*
X158951428Y-110749023D02*
X158744762Y-110453785D01*
X158597143Y-110749023D02*
X158597143Y-110129023D01*
X158597143Y-110129023D02*
X158833333Y-110129023D01*
X158833333Y-110129023D02*
X158892381Y-110158547D01*
X158892381Y-110158547D02*
X158921904Y-110188071D01*
X158921904Y-110188071D02*
X158951428Y-110247119D01*
X158951428Y-110247119D02*
X158951428Y-110335690D01*
X158951428Y-110335690D02*
X158921904Y-110394738D01*
X158921904Y-110394738D02*
X158892381Y-110424261D01*
X158892381Y-110424261D02*
X158833333Y-110453785D01*
X158833333Y-110453785D02*
X158597143Y-110453785D01*
X159541904Y-110749023D02*
X159187619Y-110749023D01*
X159364762Y-110749023D02*
X159364762Y-110129023D01*
X159364762Y-110129023D02*
X159305714Y-110217595D01*
X159305714Y-110217595D02*
X159246666Y-110276642D01*
X159246666Y-110276642D02*
X159187619Y-110306166D01*
X159925714Y-110129023D02*
X159984761Y-110129023D01*
X159984761Y-110129023D02*
X160043809Y-110158547D01*
X160043809Y-110158547D02*
X160073333Y-110188071D01*
X160073333Y-110188071D02*
X160102857Y-110247119D01*
X160102857Y-110247119D02*
X160132380Y-110365214D01*
X160132380Y-110365214D02*
X160132380Y-110512833D01*
X160132380Y-110512833D02*
X160102857Y-110630928D01*
X160102857Y-110630928D02*
X160073333Y-110689976D01*
X160073333Y-110689976D02*
X160043809Y-110719500D01*
X160043809Y-110719500D02*
X159984761Y-110749023D01*
X159984761Y-110749023D02*
X159925714Y-110749023D01*
X159925714Y-110749023D02*
X159866666Y-110719500D01*
X159866666Y-110719500D02*
X159837142Y-110689976D01*
X159837142Y-110689976D02*
X159807619Y-110630928D01*
X159807619Y-110630928D02*
X159778095Y-110512833D01*
X159778095Y-110512833D02*
X159778095Y-110365214D01*
X159778095Y-110365214D02*
X159807619Y-110247119D01*
X159807619Y-110247119D02*
X159837142Y-110188071D01*
X159837142Y-110188071D02*
X159866666Y-110158547D01*
X159866666Y-110158547D02*
X159925714Y-110129023D01*
X138332479Y-102118614D02*
X138332479Y-102160367D01*
X138332479Y-102160367D02*
X138290726Y-102243873D01*
X138290726Y-102243873D02*
X138248973Y-102285626D01*
X138248973Y-102285626D02*
X138165467Y-102327379D01*
X138165467Y-102327379D02*
X138081961Y-102327379D01*
X138081961Y-102327379D02*
X138019331Y-102306502D01*
X138019331Y-102306502D02*
X137914949Y-102243873D01*
X137914949Y-102243873D02*
X137852319Y-102181243D01*
X137852319Y-102181243D02*
X137789690Y-102076861D01*
X137789690Y-102076861D02*
X137768813Y-102014231D01*
X137768813Y-102014231D02*
X137768813Y-101930725D01*
X137768813Y-101930725D02*
X137810566Y-101847219D01*
X137810566Y-101847219D02*
X137852319Y-101805467D01*
X137852319Y-101805467D02*
X137935825Y-101763714D01*
X137935825Y-101763714D02*
X137977578Y-101763714D01*
X138081961Y-101575825D02*
X138374231Y-101283554D01*
X138374231Y-101283554D02*
X138624749Y-101909849D01*
X155587619Y-114389023D02*
X155587619Y-114890928D01*
X155587619Y-114890928D02*
X155617142Y-114949976D01*
X155617142Y-114949976D02*
X155646666Y-114979500D01*
X155646666Y-114979500D02*
X155705714Y-115009023D01*
X155705714Y-115009023D02*
X155823809Y-115009023D01*
X155823809Y-115009023D02*
X155882857Y-114979500D01*
X155882857Y-114979500D02*
X155912380Y-114949976D01*
X155912380Y-114949976D02*
X155941904Y-114890928D01*
X155941904Y-114890928D02*
X155941904Y-114389023D01*
X156207619Y-114448071D02*
X156237143Y-114418547D01*
X156237143Y-114418547D02*
X156296190Y-114389023D01*
X156296190Y-114389023D02*
X156443809Y-114389023D01*
X156443809Y-114389023D02*
X156502857Y-114418547D01*
X156502857Y-114418547D02*
X156532381Y-114448071D01*
X156532381Y-114448071D02*
X156561904Y-114507119D01*
X156561904Y-114507119D02*
X156561904Y-114566166D01*
X156561904Y-114566166D02*
X156532381Y-114654738D01*
X156532381Y-114654738D02*
X156178095Y-115009023D01*
X156178095Y-115009023D02*
X156561904Y-115009023D01*
%TO.C,C8*%
D17*
X147862149Y-90483389D02*
X147754313Y-90296611D01*
X148485687Y-90123389D02*
X148377851Y-89936611D01*
%TO.C,R6*%
X136957099Y-90815164D02*
X137124720Y-90524835D01*
X137615280Y-91195165D02*
X137782901Y-90904836D01*
%TO.C,C3*%
X145997349Y-112453534D02*
X145833534Y-112617349D01*
X146506466Y-112962651D02*
X146342651Y-113126466D01*
%TO.C,J1*%
X135070490Y-108583009D02*
X136276107Y-107377392D01*
X139055036Y-104598462D02*
X137697391Y-105956107D01*
X141547588Y-115060107D02*
X135070490Y-108583009D01*
X142753205Y-113854490D02*
X141547588Y-115060107D01*
X144174490Y-112433206D02*
X145532135Y-111075561D01*
%TO.C,C4*%
X151650000Y-95335835D02*
X151650000Y-95104165D01*
X152370000Y-95335835D02*
X152370000Y-95104165D01*
%TO.C,L2*%
D10*
X146832200Y-83217000D02*
X153741000Y-83217000D01*
X153741000Y-87509600D01*
X146832200Y-87509600D01*
X146832200Y-83217000D01*
%TO.C,Y2*%
D17*
X141165121Y-91210000D02*
X140829879Y-91210000D01*
X141165121Y-91970000D02*
X140829879Y-91970000D01*
%TO.C,U5*%
X150330000Y-108390000D02*
X149530000Y-108390000D01*
X150330000Y-108390000D02*
X151130000Y-108390000D01*
X150330000Y-111510000D02*
X149530000Y-111510000D01*
X150330000Y-111510000D02*
X152130000Y-111510000D01*
%TO.C,C12*%
X140994165Y-101050000D02*
X141225835Y-101050000D01*
X140994165Y-101770000D02*
X141225835Y-101770000D01*
%TO.C,ON1*%
X156698106Y-89214401D02*
X159314401Y-86598106D01*
X159314401Y-86598106D02*
X163641894Y-90925599D01*
X161025599Y-93541894D02*
X156698106Y-89214401D01*
X163641894Y-90925599D02*
X161025599Y-93541894D01*
%TO.C,R13*%
X148102379Y-102840000D02*
X148437621Y-102840000D01*
X148102379Y-103600000D02*
X148437621Y-103600000D01*
%TO.C,C13*%
X140820000Y-90055835D02*
X140820000Y-89824165D01*
X141540000Y-90055835D02*
X141540000Y-89824165D01*
%TO.C,R7*%
X145570000Y-99417621D02*
X145570000Y-99082379D01*
X146330000Y-99417621D02*
X146330000Y-99082379D01*
%TO.C,R8*%
X146660000Y-99437621D02*
X146660000Y-99102379D01*
X147420000Y-99437621D02*
X147420000Y-99102379D01*
%TO.C,C10*%
X152470000Y-101264165D02*
X152470000Y-101495835D01*
X153190000Y-101264165D02*
X153190000Y-101495835D01*
%TO.C,R14*%
X136912773Y-104039825D02*
X137149825Y-103802773D01*
X137450175Y-104577227D02*
X137687227Y-104340175D01*
%TO.C,Y1*%
X147790000Y-96320000D02*
X151090000Y-96320000D01*
X151090000Y-96320000D02*
X151090000Y-92320000D01*
%TO.C,R3*%
X152740000Y-110257621D02*
X152740000Y-109922379D01*
X153500000Y-110257621D02*
X153500000Y-109922379D01*
%TO.C,U4*%
X143103446Y-102340381D02*
X144390381Y-101053446D01*
X143138802Y-102375736D02*
X143103446Y-102340381D01*
X144390381Y-101053446D02*
X144425736Y-101088802D01*
X145309619Y-104546554D02*
X145274264Y-104511198D01*
X146561198Y-103224264D02*
X146596554Y-103259619D01*
X146596554Y-103259619D02*
X145309619Y-104546554D01*
X142756964Y-102757574D02*
X142353913Y-102693934D01*
X142693324Y-102354523D01*
X142756964Y-102757574D01*
G36*
X142756964Y-102757574D02*
G01*
X142353913Y-102693934D01*
X142693324Y-102354523D01*
X142756964Y-102757574D01*
G37*
%TO.C,C11*%
X137934165Y-92810000D02*
X138165835Y-92810000D01*
X137934165Y-93530000D02*
X138165835Y-93530000D01*
%TO.C,C14*%
X139270000Y-90065835D02*
X139270000Y-89834165D01*
X139990000Y-90065835D02*
X139990000Y-89834165D01*
%TO.C,R17*%
X149302379Y-107320000D02*
X149637621Y-107320000D01*
X149302379Y-108080000D02*
X149637621Y-108080000D01*
%TO.C,C2*%
X162790000Y-107505835D02*
X162790000Y-107274165D01*
X163510000Y-107505835D02*
X163510000Y-107274165D01*
%TO.C,U3*%
D13*
X147533700Y-103966000D02*
X149286300Y-103966000D01*
X147533700Y-107014000D02*
X149286300Y-107014000D01*
X148591329Y-104210995D02*
G75*
G02*
X148228671Y-104210995I-181329J244993D01*
G01*
%TO.C,R12*%
D17*
X150409879Y-102850000D02*
X150745121Y-102850000D01*
X150409879Y-103610000D02*
X150745121Y-103610000D01*
%TO.C,IC1*%
X138880000Y-93940000D02*
X139355000Y-93940000D01*
X138880000Y-94415000D02*
X138880000Y-93940000D01*
X138880000Y-99160000D02*
X138880000Y-98685000D01*
X139355000Y-99160000D02*
X138880000Y-99160000D01*
X143625000Y-93940000D02*
X144100000Y-93940000D01*
X144100000Y-93940000D02*
X144100000Y-94415000D01*
X144100000Y-98685000D02*
X144100000Y-99160000D01*
X144100000Y-99160000D02*
X143625000Y-99160000D01*
X143240000Y-93440000D02*
X143000000Y-93110000D01*
X143480000Y-93110000D01*
X143240000Y-93440000D01*
G36*
X143240000Y-93440000D02*
G01*
X143000000Y-93110000D01*
X143480000Y-93110000D01*
X143240000Y-93440000D01*
G37*
%TO.C,R15*%
X136249825Y-103032773D02*
X136012773Y-103269825D01*
X136787227Y-103570175D02*
X136550175Y-103807227D01*
%TO.C,BAT1*%
X159002064Y-107290000D02*
X157547936Y-107290000D01*
X159002064Y-109110000D02*
X157547936Y-109110000D01*
%TO.C,C6*%
X146154165Y-93740000D02*
X146385835Y-93740000D01*
X146154165Y-94460000D02*
X146385835Y-94460000D01*
%TO.C,R9*%
X153260000Y-112892379D02*
X153260000Y-113227621D01*
X154020000Y-112892379D02*
X154020000Y-113227621D01*
%TO.C,CH1*%
D14*
X160395510Y-112094490D02*
G75*
G02*
X160295510Y-112094490I-50000J0D01*
G01*
X160295510Y-112094490D02*
G75*
G02*
X160395510Y-112094490I50000J0D01*
G01*
%TO.C,U1*%
D13*
X148363300Y-101436999D02*
X149106048Y-101436999D01*
X149106048Y-98642999D02*
X148363300Y-98642999D01*
X150922552Y-101436999D02*
X151665300Y-101436999D01*
X151665300Y-98642999D02*
X150922552Y-98642999D01*
D18*
G36*
X151995500Y-99980500D02*
G01*
X151741500Y-99980500D01*
X151741500Y-99599499D01*
X151995500Y-99599499D01*
X151995500Y-99980500D01*
G37*
%TO.C,R16*%
D17*
X151100000Y-107207621D02*
X151100000Y-106872379D01*
X151860000Y-107207621D02*
X151860000Y-106872379D01*
%TO.C,C9*%
X144528399Y-91981920D02*
X144420563Y-91795142D01*
X145151937Y-91621920D02*
X145044101Y-91435142D01*
%TO.C,R11*%
X156202379Y-109810000D02*
X156537621Y-109810000D01*
X156202379Y-110570000D02*
X156537621Y-110570000D01*
%TO.C,C5*%
X153514165Y-92770000D02*
X153745835Y-92770000D01*
X153514165Y-93490000D02*
X153745835Y-93490000D01*
%TO.C,R1*%
X146487621Y-95090000D02*
X146152379Y-95090000D01*
X146487621Y-95850000D02*
X146152379Y-95850000D01*
%TO.C,S1*%
D14*
X135597500Y-93955522D02*
G75*
G02*
X135497500Y-93955522I-50000J0D01*
G01*
X135497500Y-93955522D02*
G75*
G02*
X135597500Y-93955522I50000J0D01*
G01*
%TO.C,C1*%
D17*
X147627349Y-112573534D02*
X147463534Y-112737349D01*
X148136466Y-113082651D02*
X147972651Y-113246466D01*
%TO.C,R10*%
X159080000Y-112167621D02*
X159080000Y-111832379D01*
X159840000Y-112167621D02*
X159840000Y-111832379D01*
%TO.C,C7*%
X138777349Y-102193534D02*
X138613534Y-102357349D01*
X139286466Y-102702651D02*
X139122651Y-102866466D01*
%TO.C,U2*%
X155632500Y-110960000D02*
X157452500Y-110960000D01*
X155632500Y-111010000D02*
X155632500Y-110960000D01*
X155632500Y-114080000D02*
X155632500Y-114030000D01*
X157452500Y-110960000D02*
X157452500Y-111010000D01*
X157452500Y-114030000D02*
X157452500Y-114080000D01*
X157452500Y-114080000D02*
X155632500Y-114080000D01*
X157992500Y-114030000D02*
X158232500Y-114360000D01*
X157752500Y-114360000D01*
X157992500Y-114030000D01*
G36*
X158232500Y-114360000D02*
G01*
X157752500Y-114360000D01*
X157992500Y-114030000D01*
X158232500Y-114360000D01*
G37*
%TD*%
M02*
