%TF.GenerationSoftware,KiCad,Pcbnew,10.0.6*%
%TF.CreationDate,2026-09-26T10:38:17+05:30*%
%TF.ProjectId,electrophy_2,656c6563-7472-46f7-9068-795f322e6b69,rev?*%
%TF.SameCoordinates,Original*%
%TF.FileFunction,Copper,L4,Bot*%
%TF.FilePolarity,Positive*%
%FSLAX46Y46*%
G04 Gerber Fmt 4.6, Leading zero omitted, Abs format (unit mm)*
G04 Created by KiCad (PCBNEW 10.0.6) date 2026-09-26 10:38:17*
%MOMM*%
%LPD*%
G01*
G04 APERTURE LIST*
G04 Aperture macros list*
%AMHorizOval*
0 Thick line with rounded ends*
0 $1 width*
0 $2 $3 position (X,Y) of the first rounded end (center of the circle)*
0 $4 $5 position (X,Y) of the second rounded end (center of the circle)*
0 Add line between two ends*
20,1,$1,$2,$3,$4,$5,0*
0 Add two circle primitives to create the rounded ends*
1,1,$1,$2,$3*
1,1,$1,$4,$5*%
%AMRotRect*
0 Rectangle, with rotation*
0 The origin of the aperture is its center*
0 $1 length*
0 $2 width*
0 $3 Rotation angle, in degrees counterclockwise*
0 Add horizontal line*
21,1,$1,$2,0,0,$3*%
G04 Aperture macros list end*
%TA.AperFunction,ComponentPad*%
%ADD10HorizOval,1.000000X-0.388909X-0.388909X0.388909X0.388909X0*%
%TD*%
%TA.AperFunction,ComponentPad*%
%ADD11HorizOval,1.000000X-0.212132X-0.212132X0.212132X0.212132X0*%
%TD*%
%TA.AperFunction,ComponentPad*%
%ADD12C,0.700000*%
%TD*%
%TA.AperFunction,ComponentPad*%
%ADD13C,4.400000*%
%TD*%
%TA.AperFunction,SMDPad,CuDef*%
%ADD14RotRect,2.286000X2.286000X45.000000*%
%TD*%
%TA.AperFunction,SMDPad,CuDef*%
%ADD15C,2.286000*%
%TD*%
%TA.AperFunction,ViaPad*%
%ADD16C,0.800000*%
%TD*%
%TA.AperFunction,Conductor*%
%ADD17C,0.160000*%
%TD*%
%TA.AperFunction,Conductor*%
%ADD18C,0.250000*%
%TD*%
G04 APERTURE END LIST*
D10*
%TO.P,J1,SH,SHIELD_SH*%
%TO.N,GND*%
X140126303Y-103894891D03*
D11*
X137170597Y-106850597D03*
D10*
X146235706Y-110004294D03*
D11*
X143280000Y-112960000D03*
%TD*%
D12*
%TO.P,H1,1*%
%TO.N,N/C*%
X148400000Y-115025000D03*
X148883274Y-113858274D03*
X148883274Y-116191726D03*
X150050000Y-113375000D03*
D13*
X150050000Y-115025000D03*
D12*
X150050000Y-116675000D03*
X151216726Y-113858274D03*
X151216726Y-116191726D03*
X151700000Y-115025000D03*
%TD*%
D14*
%TO.P,J3,1,Pin_1_1*%
%TO.N,GND*%
X160948154Y-94528153D03*
D15*
%TO.P,J3,2,Pin_2_2*%
%TO.N,+3.3V*%
X159152103Y-92732102D03*
%TO.P,J3,3,Pin_3_3*%
%TO.N,SCL*%
X157356052Y-90936052D03*
%TO.P,J3,4,Pin_4_4*%
%TO.N,SDA*%
X155560000Y-89140000D03*
%TD*%
D16*
%TO.N,*%
X163200000Y-97840000D03*
X163710000Y-104180000D03*
X153140000Y-99130000D03*
X152870000Y-104040000D03*
X153257600Y-98136936D03*
X158170000Y-94800000D03*
%TO.N,GND*%
X145740000Y-90710000D03*
X154250000Y-87250000D03*
X161200000Y-104250000D03*
X143950000Y-88610000D03*
X150370000Y-88720000D03*
X153250000Y-88750000D03*
X151840000Y-89690000D03*
X146750000Y-90250000D03*
X151433593Y-106445000D03*
X141490000Y-96540000D03*
X145840000Y-87550000D03*
X144790000Y-89440000D03*
X142860000Y-108420000D03*
X146250000Y-88750000D03*
X145780000Y-85030000D03*
X154250000Y-86250000D03*
X145037817Y-93255544D03*
X145800000Y-86300000D03*
X146793270Y-94055770D03*
X150384130Y-109855196D03*
X147241600Y-104539999D03*
X148000000Y-91750000D03*
X154014000Y-88040000D03*
X153202308Y-90419358D03*
X147250000Y-92250000D03*
X149100000Y-91490000D03*
X143320000Y-87650000D03*
X143160000Y-90100000D03*
X161070000Y-100910000D03*
X148910000Y-89110000D03*
X143770000Y-91970000D03*
X154210000Y-84930000D03*
X159460000Y-111400000D03*
X149900000Y-91020000D03*
X146000000Y-92750000D03*
X151190000Y-90320000D03*
X152470000Y-112490000D03*
X143150000Y-92680000D03*
X142790000Y-89160000D03*
X160948154Y-94528153D03*
X147630000Y-88720000D03*
X152440000Y-88800000D03*
%TO.N,+3.3V*%
X150220000Y-102130000D03*
X142961851Y-91098149D03*
X137502496Y-101880000D03*
X145702500Y-94100000D03*
X154760000Y-101620000D03*
X137482500Y-93170000D03*
X137872708Y-95620000D03*
X147460000Y-111230000D03*
X139297500Y-91820000D03*
X154630000Y-92080000D03*
%TO.N,BAT_V*%
X151467500Y-110900000D03*
X154990000Y-105840000D03*
X163150000Y-107957500D03*
X147241600Y-105540002D03*
X139860000Y-107500000D03*
%TO.N,Net-(BAT1-Pin_1)*%
X155772500Y-110190000D03*
X153656235Y-107573765D03*
%TO.N,POWER_HOLD*%
X149980000Y-103230000D03*
X155950000Y-103230000D03*
%TO.N,SCL*%
X151480000Y-91560000D03*
X157356052Y-90936052D03*
X140260000Y-92590000D03*
%TO.N,SCLK*%
X136977327Y-94592051D03*
X149451378Y-97158622D03*
%TO.N,CS*%
X151580000Y-97870000D03*
X134820000Y-95920000D03*
%TO.N,MOSI*%
X148140833Y-97229167D03*
X137220000Y-96687554D03*
%TO.N,MISO*%
X137190000Y-97790000D03*
X147152020Y-97080000D03*
%TO.N,Net-(IC1-GPIO8)*%
X135500000Y-97058019D03*
X135893750Y-93355800D03*
%TO.N,SDA*%
X138260882Y-99370000D03*
%TO.N,INT1*%
X138471290Y-100870000D03*
X148090000Y-101690000D03*
%TO.N,Net-(J1-CC1)*%
X141610000Y-106690000D03*
X147500000Y-108390000D03*
%TD*%
%TO.N,+3.3V*%
D17*
X156212102Y-92732102D02*
X159152103Y-92732102D01*
X138191666Y-95620000D02*
X137872708Y-95620000D01*
X155560000Y-92080000D02*
X156212102Y-92732102D01*
X154630000Y-92080000D02*
X155560000Y-92080000D01*
%TO.N,BAT_V*%
X151467500Y-110900000D02*
X151467500Y-109765902D01*
X147241600Y-105540002D02*
X145281602Y-107500000D01*
X157107500Y-107957500D02*
X163150000Y-107957500D01*
X145281602Y-107500000D02*
X139860000Y-107500000D01*
X151467500Y-109765902D02*
X147241600Y-105540002D01*
X154990000Y-105840000D02*
X157107500Y-107957500D01*
%TO.N,Net-(BAT1-Pin_1)*%
X155772500Y-109690030D02*
X155772500Y-110190000D01*
X153656235Y-107573765D02*
X155772500Y-109690030D01*
%TO.N,POWER_HOLD*%
X155950000Y-103230000D02*
X149980000Y-103230000D01*
%TO.N,SCL*%
X136640000Y-98830000D02*
X137820000Y-98830000D01*
X135860000Y-94651216D02*
X135860000Y-96427501D01*
X140260000Y-92590000D02*
X139310000Y-92590000D01*
X136661216Y-93850000D02*
X135860000Y-94651216D01*
X137820000Y-98830000D02*
X137960000Y-98690000D01*
X138050000Y-93850000D02*
X136661216Y-93850000D01*
X138710000Y-98690000D02*
X139030000Y-99010000D01*
X139030000Y-99010000D02*
X139910000Y-99010000D01*
X136180000Y-97329218D02*
X136150000Y-97359218D01*
X137960000Y-98690000D02*
X138710000Y-98690000D01*
X136150000Y-98340000D02*
X136640000Y-98830000D01*
X139910000Y-99010000D02*
X140560000Y-99660000D01*
X139310000Y-92590000D02*
X138050000Y-93850000D01*
X148160795Y-99660000D02*
X151480000Y-96340795D01*
X140560000Y-99660000D02*
X148160795Y-99660000D01*
X151480000Y-96340795D02*
X151480000Y-91560000D01*
X136180000Y-96747501D02*
X136180000Y-97329218D01*
X135860000Y-96427501D02*
X136180000Y-96747501D01*
X136150000Y-97359218D02*
X136150000Y-98340000D01*
%TO.N,SCLK*%
X136540000Y-97478334D02*
X136510000Y-97508335D01*
X136510000Y-97508335D02*
X136510000Y-98071666D01*
X148950000Y-98250000D02*
X149451378Y-97748622D01*
X137471666Y-98470000D02*
X137691666Y-98250000D01*
X136977327Y-94592051D02*
X136960000Y-94609378D01*
X136510000Y-98071666D02*
X136908334Y-98470000D01*
X136220000Y-95360000D02*
X136220000Y-96278385D01*
X136220000Y-96278385D02*
X136540000Y-96598385D01*
X136960000Y-94620000D02*
X136220000Y-95360000D01*
X136960000Y-94609378D02*
X136960000Y-94620000D01*
X149451378Y-97748622D02*
X149451378Y-97158622D01*
X136908334Y-98470000D02*
X137471666Y-98470000D01*
X137691666Y-98250000D02*
X148950000Y-98250000D01*
X136540000Y-96598385D02*
X136540000Y-97478334D01*
%TO.N,CS*%
X134820000Y-97745176D02*
X137264824Y-100190000D01*
X149662992Y-99176036D02*
X150273964Y-99176036D01*
X138778334Y-100190000D02*
X139288334Y-100700000D01*
X150273964Y-99176036D02*
X151580000Y-97870000D01*
X139288334Y-100700000D02*
X148139028Y-100700000D01*
X134820000Y-95920000D02*
X134820000Y-97745176D01*
X137264824Y-100190000D02*
X138778334Y-100190000D01*
X148139028Y-100700000D02*
X149662992Y-99176036D01*
%TO.N,MOSI*%
X147191090Y-95860000D02*
X148140833Y-96809743D01*
X140588334Y-96480000D02*
X141208334Y-95860000D01*
X148140833Y-96809743D02*
X148140833Y-97229167D01*
X137427554Y-96480000D02*
X140588334Y-96480000D01*
X141208334Y-95860000D02*
X147191090Y-95860000D01*
X137220000Y-96687554D02*
X137427554Y-96480000D01*
%TO.N,MISO*%
X137350000Y-97630000D02*
X137190000Y-97790000D01*
X146602020Y-97630000D02*
X137350000Y-97630000D01*
X147152020Y-97080000D02*
X146602020Y-97630000D01*
%TO.N,Net-(IC1-GPIO8)*%
X135500000Y-97058019D02*
X135500000Y-93749550D01*
X135500000Y-93749550D02*
X135893750Y-93355800D01*
%TO.N,SDA*%
X139730782Y-99370000D02*
X138260882Y-99370000D01*
X155270000Y-89430000D02*
X153230000Y-89430000D01*
X155560000Y-89140000D02*
X155270000Y-89430000D01*
X150900000Y-97588334D02*
X150900000Y-98040884D01*
X152260000Y-90400000D02*
X152260000Y-96228334D01*
X152260000Y-96228334D02*
X150900000Y-97588334D01*
X150900000Y-98040884D02*
X150124848Y-98816036D01*
X149513875Y-98816036D02*
X148309912Y-100020000D01*
X153230000Y-89430000D02*
X152260000Y-90400000D01*
X140380782Y-100020000D02*
X139730782Y-99370000D01*
X150124848Y-98816036D02*
X149513875Y-98816036D01*
X148309912Y-100020000D02*
X140380782Y-100020000D01*
%TO.N,INT1*%
X147620000Y-101690000D02*
X146990000Y-101060000D01*
X138661290Y-101060000D02*
X138471290Y-100870000D01*
X148090000Y-101690000D02*
X147620000Y-101690000D01*
X146990000Y-101060000D02*
X138661290Y-101060000D01*
%TO.N,Net-(J1-CC1)*%
D18*
X143160305Y-109145000D02*
X140479695Y-109145000D01*
X140479695Y-109145000D02*
X139135000Y-107800305D01*
X139135000Y-107192139D02*
X139637139Y-106690000D01*
X139135000Y-107800305D02*
X139135000Y-107192139D01*
X147500000Y-108390000D02*
X143915305Y-108390000D01*
X139637139Y-106690000D02*
X141610000Y-106690000D01*
X143915305Y-108390000D02*
X143160305Y-109145000D01*
%TD*%
%TA.AperFunction,Conductor*%
%TO.N,GND*%
G36*
X147092094Y-96158093D02*
G01*
X147096930Y-96162526D01*
X147285530Y-96351126D01*
X147307270Y-96397746D01*
X147293956Y-96447433D01*
X147251819Y-96476938D01*
X147232356Y-96479500D01*
X147231077Y-96479500D01*
X147072963Y-96479500D01*
X146981326Y-96504053D01*
X146920234Y-96520423D01*
X146783305Y-96599479D01*
X146783299Y-96599483D01*
X146671503Y-96711279D01*
X146671499Y-96711285D01*
X146592443Y-96848214D01*
X146589164Y-96860452D01*
X146551520Y-97000943D01*
X146551520Y-97159057D01*
X146553935Y-97168070D01*
X146566647Y-97215513D01*
X146562163Y-97266757D01*
X146547184Y-97288149D01*
X146507860Y-97327474D01*
X146461240Y-97349214D01*
X146454685Y-97349500D01*
X137629885Y-97349500D01*
X137581547Y-97331907D01*
X137576711Y-97327474D01*
X137558720Y-97309483D01*
X137555725Y-97307185D01*
X137528086Y-97263801D01*
X137534799Y-97212801D01*
X137563903Y-97182399D01*
X137588716Y-97168074D01*
X137700520Y-97056270D01*
X137779577Y-96919338D01*
X137807203Y-96816235D01*
X137836707Y-96774100D01*
X137879840Y-96760500D01*
X140625261Y-96760500D01*
X140625263Y-96760500D01*
X140696603Y-96741384D01*
X140760565Y-96704456D01*
X140812790Y-96652231D01*
X140818974Y-96646047D01*
X140818981Y-96646037D01*
X141302496Y-96162525D01*
X141349116Y-96140786D01*
X141355670Y-96140500D01*
X147043756Y-96140500D01*
X147092094Y-96158093D01*
G37*
%TD.AperFunction*%
%TA.AperFunction,Conductor*%
G36*
X146275343Y-83937290D02*
G01*
X146310199Y-83975121D01*
X146316002Y-84003943D01*
X146323267Y-87778339D01*
X146324200Y-88263000D01*
X146324201Y-88263000D01*
X153614000Y-88263000D01*
X153614000Y-84012614D01*
X153631593Y-83964276D01*
X153676142Y-83938556D01*
X153705672Y-83939240D01*
X153955116Y-83995255D01*
X153958662Y-83996143D01*
X154735982Y-84211257D01*
X154739479Y-84212317D01*
X155505341Y-84465323D01*
X155508780Y-84466554D01*
X156261258Y-84756818D01*
X156264650Y-84758222D01*
X157002001Y-85085067D01*
X157005338Y-85086646D01*
X157725709Y-85449251D01*
X157728964Y-85450990D01*
X158430720Y-85848529D01*
X158433886Y-85850427D01*
X159115270Y-86281909D01*
X159118331Y-86283954D01*
X159777735Y-86748359D01*
X159780688Y-86750549D01*
X160416500Y-87246741D01*
X160419354Y-87249083D01*
X161030067Y-87775888D01*
X161032792Y-87778358D01*
X161155230Y-87894929D01*
X161616904Y-88334480D01*
X161619514Y-88337090D01*
X162175627Y-88921193D01*
X162178100Y-88923920D01*
X162635875Y-89454608D01*
X162704911Y-89534640D01*
X162707249Y-89537489D01*
X163080083Y-90015232D01*
X163203445Y-90173306D01*
X163205643Y-90176270D01*
X163670034Y-90835655D01*
X163672085Y-90838724D01*
X164103567Y-91520108D01*
X164105465Y-91523274D01*
X164503004Y-92225030D01*
X164504743Y-92228285D01*
X164867348Y-92948656D01*
X164868927Y-92951993D01*
X165195768Y-93689335D01*
X165197180Y-93692745D01*
X165487433Y-94445196D01*
X165488677Y-94448671D01*
X165741671Y-95214497D01*
X165742742Y-95218029D01*
X165957847Y-95995319D01*
X165958744Y-95998900D01*
X166135452Y-96785818D01*
X166136172Y-96789438D01*
X166274057Y-97584087D01*
X166274598Y-97587738D01*
X166373322Y-98388169D01*
X166373684Y-98391842D01*
X166433016Y-99196177D01*
X166433197Y-99199864D01*
X166440353Y-99491384D01*
X166423951Y-99540138D01*
X166380048Y-99566944D01*
X166329185Y-99559257D01*
X166298173Y-99527370D01*
X166201920Y-99338463D01*
X166189375Y-99321197D01*
X166107901Y-99209057D01*
X166071902Y-99159509D01*
X166071900Y-99159507D01*
X166071893Y-99159499D01*
X165915500Y-99003106D01*
X165915492Y-99003099D01*
X165736538Y-98873080D01*
X165539447Y-98772657D01*
X165329079Y-98704305D01*
X165329067Y-98704302D01*
X165110601Y-98669700D01*
X165110599Y-98669700D01*
X164889401Y-98669700D01*
X164889398Y-98669700D01*
X164670932Y-98704302D01*
X164670920Y-98704305D01*
X164460552Y-98772657D01*
X164263461Y-98873080D01*
X164084507Y-99003099D01*
X164084499Y-99003106D01*
X163928106Y-99159499D01*
X163928099Y-99159507D01*
X163798080Y-99338461D01*
X163697657Y-99535552D01*
X163629305Y-99745920D01*
X163629302Y-99745932D01*
X163594700Y-99964398D01*
X163594700Y-100185601D01*
X163629302Y-100404067D01*
X163629305Y-100404079D01*
X163697657Y-100614447D01*
X163798080Y-100811538D01*
X163880118Y-100924452D01*
X163906950Y-100961384D01*
X163928099Y-100990492D01*
X163928106Y-100990500D01*
X164084499Y-101146893D01*
X164084507Y-101146900D01*
X164084509Y-101146902D01*
X164170639Y-101209479D01*
X164263461Y-101276919D01*
X164275227Y-101282914D01*
X164460552Y-101377342D01*
X164670925Y-101445696D01*
X164889401Y-101480300D01*
X164889405Y-101480300D01*
X165110595Y-101480300D01*
X165110599Y-101480300D01*
X165329075Y-101445696D01*
X165539448Y-101377342D01*
X165736537Y-101276920D01*
X165915491Y-101146902D01*
X166071902Y-100990491D01*
X166201920Y-100811537D01*
X166294716Y-100629413D01*
X166332336Y-100594333D01*
X166383705Y-100591641D01*
X166424787Y-100622598D01*
X166436896Y-100665400D01*
X166433197Y-100816089D01*
X166433016Y-100819776D01*
X166373684Y-101624111D01*
X166373322Y-101627784D01*
X166274598Y-102428215D01*
X166274057Y-102431866D01*
X166136172Y-103226515D01*
X166135452Y-103230135D01*
X165958744Y-104017053D01*
X165957847Y-104020634D01*
X165742742Y-104797924D01*
X165741671Y-104801456D01*
X165488677Y-105567282D01*
X165487433Y-105570757D01*
X165197180Y-106323208D01*
X165195768Y-106326618D01*
X164868927Y-107063960D01*
X164867348Y-107067297D01*
X164504743Y-107787668D01*
X164503004Y-107790923D01*
X164105465Y-108492679D01*
X164103567Y-108495845D01*
X163672085Y-109177229D01*
X163670034Y-109180298D01*
X163205643Y-109839683D01*
X163203445Y-109842647D01*
X162707253Y-110478459D01*
X162704911Y-110481313D01*
X162178106Y-111092026D01*
X162175627Y-111094760D01*
X161619514Y-111678863D01*
X161616904Y-111681473D01*
X161032801Y-112237586D01*
X161030067Y-112240065D01*
X160419354Y-112766870D01*
X160416500Y-112769212D01*
X159780688Y-113265404D01*
X159777724Y-113267602D01*
X159118339Y-113731993D01*
X159115270Y-113734044D01*
X158433886Y-114165526D01*
X158430720Y-114167424D01*
X157728964Y-114564963D01*
X157725709Y-114566702D01*
X157005338Y-114929307D01*
X157002001Y-114930886D01*
X156264659Y-115257727D01*
X156261249Y-115259139D01*
X155508798Y-115549392D01*
X155505323Y-115550636D01*
X154739497Y-115803630D01*
X154735965Y-115804701D01*
X153958675Y-116019806D01*
X153955094Y-116020703D01*
X153168176Y-116197411D01*
X153164556Y-116198131D01*
X152369907Y-116336016D01*
X152366256Y-116336557D01*
X152192375Y-116358003D01*
X152142247Y-116346459D01*
X152111268Y-116305395D01*
X152113932Y-116254024D01*
X152119491Y-116243369D01*
X152154284Y-116187997D01*
X152271267Y-115945079D01*
X152360316Y-115690591D01*
X152420312Y-115427732D01*
X152450500Y-115159809D01*
X152450500Y-114890191D01*
X152420312Y-114622268D01*
X152360316Y-114359409D01*
X152271267Y-114104921D01*
X152154284Y-113862003D01*
X152010838Y-113633711D01*
X151842734Y-113422915D01*
X151652085Y-113232266D01*
X151441289Y-113064162D01*
X151212997Y-112920716D01*
X150970079Y-112803733D01*
X150715591Y-112714684D01*
X150452732Y-112654688D01*
X150452728Y-112654687D01*
X150452726Y-112654687D01*
X150294719Y-112636884D01*
X150184809Y-112624500D01*
X149915191Y-112624500D01*
X149823988Y-112634776D01*
X149647273Y-112654687D01*
X149647269Y-112654687D01*
X149647268Y-112654688D01*
X149412064Y-112708372D01*
X149384405Y-112714685D01*
X149384404Y-112714685D01*
X149176704Y-112787363D01*
X149129921Y-112803733D01*
X148887003Y-112920716D01*
X148824485Y-112959999D01*
X148658706Y-113064165D01*
X148447917Y-113232264D01*
X148447911Y-113232269D01*
X148257269Y-113422911D01*
X148257264Y-113422917D01*
X148089165Y-113633706D01*
X148089162Y-113633711D01*
X147945716Y-113862003D01*
X147845448Y-114070213D01*
X147828735Y-114104917D01*
X147828731Y-114104927D01*
X147739685Y-114359404D01*
X147739685Y-114359405D01*
X147679687Y-114622273D01*
X147649500Y-114890193D01*
X147649500Y-115159806D01*
X147676652Y-115400792D01*
X147679688Y-115427732D01*
X147739684Y-115690591D01*
X147828733Y-115945079D01*
X147864720Y-116019806D01*
X147945717Y-116187999D01*
X147997974Y-116271166D01*
X148008794Y-116321455D01*
X147984757Y-116366933D01*
X147937111Y-116386321D01*
X147925095Y-116385808D01*
X147525779Y-116336557D01*
X147522128Y-116336016D01*
X146727479Y-116198131D01*
X146723859Y-116197411D01*
X145936941Y-116020703D01*
X145933360Y-116019806D01*
X145156070Y-115804701D01*
X145152538Y-115803630D01*
X144386712Y-115550636D01*
X144383237Y-115549392D01*
X143630786Y-115259139D01*
X143627376Y-115257727D01*
X142890034Y-114930886D01*
X142886697Y-114929307D01*
X142166326Y-114566702D01*
X142163071Y-114564963D01*
X141461315Y-114167424D01*
X141458149Y-114165526D01*
X141307633Y-114070213D01*
X140776765Y-113734044D01*
X140773696Y-113731993D01*
X140334833Y-113422911D01*
X140114307Y-113267599D01*
X140111347Y-113265404D01*
X139865624Y-113073640D01*
X142067868Y-113073640D01*
X142067868Y-113270623D01*
X142106297Y-113463823D01*
X142106298Y-113463824D01*
X142181678Y-113645808D01*
X142181680Y-113645812D01*
X142205293Y-113681150D01*
X142205294Y-113681151D01*
X142773012Y-113113433D01*
X142767867Y-113132637D01*
X142767867Y-113211627D01*
X142788312Y-113287928D01*
X142827808Y-113356336D01*
X142883664Y-113412192D01*
X142952072Y-113451688D01*
X143028373Y-113472133D01*
X143107363Y-113472133D01*
X143126565Y-113466987D01*
X142558848Y-114034704D01*
X142594192Y-114058321D01*
X142594191Y-114058321D01*
X142776175Y-114133701D01*
X142776176Y-114133702D01*
X142969376Y-114172132D01*
X143166360Y-114172132D01*
X143359559Y-114133702D01*
X143359560Y-114133701D01*
X143541548Y-114058319D01*
X143705324Y-113948887D01*
X143705332Y-113948880D01*
X143810329Y-113843884D01*
X143810329Y-113843882D01*
X143315355Y-113348908D01*
X143668908Y-112995355D01*
X144163882Y-113490329D01*
X144163883Y-113490329D01*
X144268882Y-113385331D01*
X144378321Y-113221544D01*
X144453701Y-113039560D01*
X144453702Y-113039559D01*
X144492132Y-112846359D01*
X144492132Y-112649375D01*
X144453702Y-112456176D01*
X144453701Y-112456175D01*
X144378320Y-112274188D01*
X144354705Y-112238846D01*
X143786988Y-112806563D01*
X143792133Y-112787363D01*
X143792133Y-112708372D01*
X143771688Y-112632072D01*
X143732192Y-112563664D01*
X143676336Y-112507808D01*
X143607928Y-112468312D01*
X143531628Y-112447867D01*
X143452637Y-112447867D01*
X143433434Y-112453012D01*
X144001151Y-111885294D01*
X144001151Y-111885293D01*
X143965808Y-111861678D01*
X143783824Y-111786298D01*
X143783823Y-111786297D01*
X143590625Y-111747868D01*
X143393640Y-111747868D01*
X143200440Y-111786297D01*
X143200439Y-111786298D01*
X143018455Y-111861678D01*
X142854666Y-111971119D01*
X142854663Y-111971121D01*
X142749670Y-112076115D01*
X142749670Y-112076117D01*
X143244644Y-112571091D01*
X142891091Y-112924644D01*
X142396117Y-112429670D01*
X142396116Y-112429670D01*
X142291114Y-112534672D01*
X142181680Y-112698451D01*
X142106298Y-112880439D01*
X142106297Y-112880440D01*
X142067868Y-113073640D01*
X139865624Y-113073640D01*
X139475530Y-112769208D01*
X139472681Y-112766870D01*
X139412184Y-112714685D01*
X138861961Y-112240059D01*
X138859234Y-112237586D01*
X138714139Y-112099444D01*
X138275129Y-111681472D01*
X138272521Y-111678863D01*
X137716408Y-111094760D01*
X137713929Y-111092026D01*
X137633006Y-110998214D01*
X137187117Y-110481304D01*
X137184782Y-110478459D01*
X137140553Y-110421785D01*
X136688582Y-109842637D01*
X136686392Y-109839683D01*
X136683986Y-109836267D01*
X136221995Y-109180290D01*
X136219950Y-109177229D01*
X136210831Y-109162829D01*
X135788467Y-108495844D01*
X135786570Y-108492679D01*
X135683619Y-108310945D01*
X135389031Y-107790923D01*
X135387292Y-107787668D01*
X135090213Y-107197474D01*
X135024685Y-107067294D01*
X135023108Y-107063960D01*
X134990775Y-106991018D01*
X134978904Y-106964237D01*
X135958465Y-106964237D01*
X135958465Y-107161220D01*
X135996894Y-107354420D01*
X135996895Y-107354421D01*
X136072275Y-107536405D01*
X136072277Y-107536409D01*
X136095890Y-107571747D01*
X136095891Y-107571748D01*
X136663609Y-107004030D01*
X136658464Y-107023234D01*
X136658464Y-107102224D01*
X136678909Y-107178525D01*
X136718405Y-107246933D01*
X136774261Y-107302789D01*
X136842669Y-107342285D01*
X136918970Y-107362730D01*
X136997960Y-107362730D01*
X137017162Y-107357584D01*
X136449445Y-107925301D01*
X136484789Y-107948918D01*
X136484788Y-107948918D01*
X136666772Y-108024298D01*
X136666773Y-108024299D01*
X136859973Y-108062729D01*
X137056957Y-108062729D01*
X137250156Y-108024299D01*
X137250157Y-108024298D01*
X137432145Y-107948916D01*
X137595921Y-107839484D01*
X137595929Y-107839477D01*
X137700926Y-107734481D01*
X137700926Y-107734479D01*
X137205952Y-107239505D01*
X137559505Y-106885952D01*
X138054479Y-107380926D01*
X138054480Y-107380926D01*
X138159479Y-107275928D01*
X138244098Y-107149286D01*
X138809500Y-107149286D01*
X138809500Y-107757452D01*
X138809500Y-107843158D01*
X138831510Y-107925301D01*
X138831682Y-107925943D01*
X138831685Y-107925951D01*
X138874534Y-108000167D01*
X140279832Y-109405465D01*
X140279831Y-109405465D01*
X140354048Y-109448314D01*
X140354051Y-109448315D01*
X140354056Y-109448318D01*
X140436842Y-109470500D01*
X140436844Y-109470500D01*
X143203156Y-109470500D01*
X143203158Y-109470500D01*
X143285944Y-109448318D01*
X143360167Y-109405465D01*
X144028106Y-108737526D01*
X144074726Y-108715786D01*
X144081280Y-108715500D01*
X144433212Y-108715500D01*
X144481550Y-108733093D01*
X144507270Y-108777642D01*
X144498337Y-108828300D01*
X144474992Y-108853225D01*
X144472695Y-108854760D01*
X144469193Y-108857100D01*
X144381408Y-108944885D01*
X144381406Y-108944888D01*
X144312424Y-109048126D01*
X144264913Y-109162828D01*
X144264912Y-109162829D01*
X144240690Y-109284604D01*
X144240690Y-109408763D01*
X144264912Y-109530538D01*
X144264913Y-109530539D01*
X144312424Y-109645241D01*
X144312425Y-109645243D01*
X144381404Y-109748477D01*
X144381406Y-109748479D01*
X144381408Y-109748482D01*
X144469191Y-109836265D01*
X144469194Y-109836267D01*
X144469197Y-109836270D01*
X144572431Y-109905249D01*
X144687134Y-109952760D01*
X144687135Y-109952761D01*
X144687136Y-109952761D01*
X144687138Y-109952762D01*
X144768685Y-109968982D01*
X144808910Y-109976984D01*
X144824263Y-109976984D01*
X144872601Y-109994577D01*
X144898321Y-110039126D01*
X144893739Y-110080962D01*
X144885226Y-110101512D01*
X144846797Y-110294711D01*
X144846797Y-110491694D01*
X144885226Y-110684894D01*
X144885227Y-110684895D01*
X144960609Y-110866883D01*
X144984222Y-110902222D01*
X144984223Y-110902223D01*
X145551941Y-110334504D01*
X145546796Y-110353708D01*
X145546796Y-110432698D01*
X145567241Y-110508999D01*
X145606737Y-110577407D01*
X145662593Y-110633263D01*
X145731001Y-110672759D01*
X145807302Y-110693204D01*
X145886292Y-110693204D01*
X145905491Y-110688059D01*
X145337775Y-111255775D01*
X145337776Y-111255776D01*
X145373116Y-111279390D01*
X145555104Y-111354772D01*
X145555105Y-111354773D01*
X145748305Y-111393203D01*
X145945289Y-111393203D01*
X146138488Y-111354773D01*
X146138489Y-111354772D01*
X146320477Y-111279390D01*
X146484256Y-111169956D01*
X146830412Y-110823800D01*
X146877033Y-110802060D01*
X146926720Y-110815374D01*
X146956225Y-110857511D01*
X146951741Y-110908755D01*
X146948713Y-110914573D01*
X146900423Y-110998215D01*
X146900423Y-110998216D01*
X146859500Y-111150943D01*
X146859500Y-111309057D01*
X146882047Y-111393203D01*
X146900423Y-111461785D01*
X146979479Y-111598714D01*
X146979483Y-111598720D01*
X147091279Y-111710516D01*
X147091282Y-111710518D01*
X147091284Y-111710520D01*
X147199278Y-111772870D01*
X147222536Y-111786298D01*
X147228216Y-111789577D01*
X147380943Y-111830500D01*
X147380946Y-111830500D01*
X147539054Y-111830500D01*
X147539057Y-111830500D01*
X147691784Y-111789577D01*
X147828716Y-111710520D01*
X147940520Y-111598716D01*
X148019577Y-111461784D01*
X148060500Y-111309057D01*
X148060500Y-111150943D01*
X148019577Y-110998216D01*
X147940520Y-110861284D01*
X147940518Y-110861282D01*
X147940516Y-110861279D01*
X147828720Y-110749483D01*
X147828714Y-110749479D01*
X147691785Y-110670423D01*
X147628947Y-110653586D01*
X147539057Y-110629500D01*
X147380943Y-110629500D01*
X147304579Y-110649961D01*
X147228213Y-110670423D01*
X147144575Y-110718712D01*
X147093916Y-110727644D01*
X147049368Y-110701924D01*
X147031775Y-110653586D01*
X147049369Y-110605249D01*
X147053801Y-110600412D01*
X147401364Y-110252849D01*
X147510804Y-110089061D01*
X147586184Y-109907077D01*
X147586185Y-109907076D01*
X147624615Y-109713876D01*
X147624615Y-109516892D01*
X147586185Y-109323693D01*
X147586184Y-109323692D01*
X147510804Y-109141708D01*
X147487933Y-109107479D01*
X147475707Y-109057513D01*
X147498458Y-109011378D01*
X147545542Y-108990661D01*
X147550460Y-108990500D01*
X147579054Y-108990500D01*
X147579057Y-108990500D01*
X147731784Y-108949577D01*
X147868716Y-108870520D01*
X147980520Y-108758716D01*
X148059577Y-108621784D01*
X148100500Y-108469057D01*
X148100500Y-108310943D01*
X148059577Y-108158216D01*
X147980520Y-108021284D01*
X147980518Y-108021282D01*
X147980516Y-108021279D01*
X147868720Y-107909483D01*
X147868714Y-107909479D01*
X147731785Y-107830423D01*
X147685794Y-107818100D01*
X147579057Y-107789500D01*
X147420943Y-107789500D01*
X147329306Y-107814053D01*
X147268214Y-107830423D01*
X147131285Y-107909479D01*
X147131279Y-107909483D01*
X147019477Y-108021285D01*
X147016237Y-108026899D01*
X146976832Y-108059965D01*
X146951112Y-108064500D01*
X143958158Y-108064500D01*
X143872452Y-108064500D01*
X143789666Y-108086682D01*
X143789658Y-108086685D01*
X143715442Y-108129534D01*
X143047504Y-108797474D01*
X143000884Y-108819214D01*
X142994330Y-108819500D01*
X140645670Y-108819500D01*
X140597332Y-108801907D01*
X140592496Y-108797474D01*
X139996822Y-108201800D01*
X139975082Y-108155180D01*
X139988396Y-108105493D01*
X140030530Y-108075989D01*
X140091784Y-108059577D01*
X140228716Y-107980520D01*
X140340520Y-107868716D01*
X140369743Y-107818100D01*
X140409148Y-107785035D01*
X140434868Y-107780500D01*
X145318529Y-107780500D01*
X145318531Y-107780500D01*
X145389871Y-107761384D01*
X145453833Y-107724456D01*
X145506058Y-107672231D01*
X145512243Y-107666046D01*
X145512250Y-107666036D01*
X147033450Y-106144836D01*
X147080069Y-106123097D01*
X147106085Y-106125373D01*
X147122813Y-106129856D01*
X147162542Y-106140502D01*
X147162543Y-106140502D01*
X147320657Y-106140502D01*
X147377112Y-106125374D01*
X147428354Y-106129856D01*
X147449749Y-106144837D01*
X151164974Y-109860062D01*
X151186714Y-109906682D01*
X151187000Y-109913236D01*
X151187000Y-110325131D01*
X151169407Y-110373469D01*
X151149400Y-110390256D01*
X151098783Y-110419479D01*
X150986983Y-110531279D01*
X150986979Y-110531285D01*
X150907923Y-110668214D01*
X150891999Y-110727644D01*
X150867000Y-110820943D01*
X150867000Y-110979057D01*
X150872134Y-110998216D01*
X150907923Y-111131785D01*
X150986979Y-111268714D01*
X150986983Y-111268720D01*
X151098779Y-111380516D01*
X151098782Y-111380518D01*
X151098784Y-111380520D01*
X151235716Y-111459577D01*
X151388443Y-111500500D01*
X151388446Y-111500500D01*
X151546554Y-111500500D01*
X151546557Y-111500500D01*
X151699284Y-111459577D01*
X151836216Y-111380520D01*
X151948020Y-111268716D01*
X152027077Y-111131784D01*
X152068000Y-110979057D01*
X152068000Y-110820943D01*
X152027077Y-110668216D01*
X152018630Y-110653586D01*
X152006897Y-110633263D01*
X151948020Y-110531284D01*
X151948018Y-110531282D01*
X151948016Y-110531279D01*
X151836216Y-110419479D01*
X151785600Y-110390256D01*
X151752535Y-110350851D01*
X151748000Y-110325131D01*
X151748000Y-109728976D01*
X151748000Y-109728974D01*
X151728884Y-109657633D01*
X151691956Y-109593671D01*
X151691954Y-109593669D01*
X151691952Y-109593666D01*
X151637116Y-109538830D01*
X151637093Y-109538809D01*
X149592992Y-107494708D01*
X153055735Y-107494708D01*
X153055735Y-107652822D01*
X153084824Y-107761383D01*
X153096658Y-107805550D01*
X153118371Y-107843158D01*
X153166171Y-107925951D01*
X153175714Y-107942479D01*
X153175718Y-107942485D01*
X153287514Y-108054281D01*
X153287517Y-108054283D01*
X153287519Y-108054285D01*
X153376215Y-108105493D01*
X153418196Y-108129731D01*
X153424451Y-108133342D01*
X153577178Y-108174265D01*
X153577181Y-108174265D01*
X153735292Y-108174265D01*
X153791747Y-108159137D01*
X153842989Y-108163619D01*
X153864384Y-108178600D01*
X155346348Y-109660565D01*
X155368088Y-109707185D01*
X155354774Y-109756872D01*
X155346349Y-109766913D01*
X155291980Y-109821282D01*
X155291979Y-109821285D01*
X155212923Y-109958214D01*
X155207894Y-109976984D01*
X155172000Y-110110943D01*
X155172000Y-110269057D01*
X155199977Y-110373469D01*
X155212923Y-110421785D01*
X155291979Y-110558714D01*
X155291983Y-110558720D01*
X155403779Y-110670516D01*
X155403782Y-110670518D01*
X155403784Y-110670520D01*
X155540716Y-110749577D01*
X155693443Y-110790500D01*
X155693446Y-110790500D01*
X155851554Y-110790500D01*
X155851557Y-110790500D01*
X156004284Y-110749577D01*
X156141216Y-110670520D01*
X156253020Y-110558716D01*
X156332077Y-110421784D01*
X156373000Y-110269057D01*
X156373000Y-110110943D01*
X156332077Y-109958216D01*
X156253020Y-109821284D01*
X156253018Y-109821282D01*
X156253016Y-109821279D01*
X156141216Y-109709479D01*
X156141217Y-109709479D01*
X156081701Y-109675118D01*
X156048636Y-109635713D01*
X156046667Y-109629470D01*
X156033884Y-109581761D01*
X155996956Y-109517799D01*
X155944731Y-109465574D01*
X155944730Y-109465573D01*
X154261069Y-107781913D01*
X154239330Y-107735294D01*
X154241606Y-107709280D01*
X154256735Y-107652822D01*
X154256735Y-107494708D01*
X154215812Y-107341981D01*
X154136755Y-107205049D01*
X154136753Y-107205047D01*
X154136751Y-107205044D01*
X154024955Y-107093248D01*
X154024949Y-107093244D01*
X153888020Y-107014188D01*
X153849837Y-107003957D01*
X153735292Y-106973265D01*
X153577178Y-106973265D01*
X153485541Y-106997818D01*
X153424449Y-107014188D01*
X153287520Y-107093244D01*
X153287514Y-107093248D01*
X153175718Y-107205044D01*
X153175714Y-107205050D01*
X153096658Y-107341979D01*
X153081668Y-107397923D01*
X153055735Y-107494708D01*
X149592992Y-107494708D01*
X147859227Y-105760943D01*
X154389500Y-105760943D01*
X154389500Y-105919057D01*
X154402270Y-105966714D01*
X154430423Y-106071785D01*
X154509479Y-106208714D01*
X154509483Y-106208720D01*
X154621279Y-106320516D01*
X154621282Y-106320518D01*
X154621284Y-106320520D01*
X154758216Y-106399577D01*
X154910943Y-106440500D01*
X154910946Y-106440500D01*
X155069057Y-106440500D01*
X155125512Y-106425372D01*
X155176754Y-106429854D01*
X155198148Y-106444834D01*
X156883043Y-108129730D01*
X156883044Y-108129731D01*
X156935269Y-108181956D01*
X156999231Y-108218884D01*
X157070571Y-108238000D01*
X157070572Y-108238000D01*
X162575132Y-108238000D01*
X162623470Y-108255593D01*
X162640257Y-108275600D01*
X162669479Y-108326214D01*
X162669483Y-108326220D01*
X162781279Y-108438016D01*
X162781282Y-108438018D01*
X162781284Y-108438020D01*
X162918216Y-108517077D01*
X163070943Y-108558000D01*
X163070946Y-108558000D01*
X163229054Y-108558000D01*
X163229057Y-108558000D01*
X163381784Y-108517077D01*
X163518716Y-108438020D01*
X163630520Y-108326216D01*
X163709577Y-108189284D01*
X163750500Y-108036557D01*
X163750500Y-107878443D01*
X163709577Y-107725716D01*
X163630520Y-107588784D01*
X163630518Y-107588782D01*
X163630516Y-107588779D01*
X163518720Y-107476983D01*
X163518714Y-107476979D01*
X163381785Y-107397923D01*
X163318350Y-107380926D01*
X163229057Y-107357000D01*
X163070943Y-107357000D01*
X162981650Y-107380926D01*
X162918214Y-107397923D01*
X162781285Y-107476979D01*
X162781279Y-107476983D01*
X162669483Y-107588779D01*
X162669479Y-107588785D01*
X162640257Y-107639400D01*
X162600852Y-107672465D01*
X162575132Y-107677000D01*
X157254835Y-107677000D01*
X157206497Y-107659407D01*
X157201661Y-107654974D01*
X156410461Y-106863774D01*
X155594834Y-106048148D01*
X155573095Y-106001529D01*
X155575371Y-105975515D01*
X155590500Y-105919057D01*
X155590500Y-105760943D01*
X155549577Y-105608216D01*
X155470520Y-105471284D01*
X155470518Y-105471282D01*
X155470516Y-105471279D01*
X155358720Y-105359483D01*
X155358714Y-105359479D01*
X155221785Y-105280423D01*
X155167684Y-105265927D01*
X155069057Y-105239500D01*
X154910943Y-105239500D01*
X154819306Y-105264053D01*
X154758214Y-105280423D01*
X154621285Y-105359479D01*
X154621279Y-105359483D01*
X154509483Y-105471279D01*
X154509479Y-105471285D01*
X154430423Y-105608214D01*
X154409961Y-105684579D01*
X154389500Y-105760943D01*
X147859227Y-105760943D01*
X147846435Y-105748151D01*
X147824695Y-105701531D01*
X147826972Y-105675515D01*
X147842100Y-105619059D01*
X147842100Y-105460945D01*
X147801177Y-105308218D01*
X147722120Y-105171286D01*
X147722118Y-105171284D01*
X147722116Y-105171281D01*
X147610320Y-105059485D01*
X147610314Y-105059481D01*
X147473385Y-104980425D01*
X147435202Y-104970194D01*
X147320657Y-104939502D01*
X147162543Y-104939502D01*
X147070906Y-104964055D01*
X147009814Y-104980425D01*
X146872885Y-105059481D01*
X146872879Y-105059485D01*
X146761083Y-105171281D01*
X146761079Y-105171287D01*
X146682023Y-105308216D01*
X146661561Y-105384581D01*
X146641100Y-105460945D01*
X146641100Y-105619059D01*
X146646300Y-105638465D01*
X146656227Y-105675515D01*
X146651743Y-105726759D01*
X146636763Y-105748151D01*
X145187442Y-107197474D01*
X145140822Y-107219214D01*
X145134268Y-107219500D01*
X142111285Y-107219500D01*
X142062947Y-107201907D01*
X142037227Y-107157358D01*
X142046160Y-107106700D01*
X142058111Y-107091126D01*
X142090516Y-107058720D01*
X142090520Y-107058716D01*
X142169577Y-106921784D01*
X142210500Y-106769057D01*
X142210500Y-106610943D01*
X142169577Y-106458216D01*
X142090520Y-106321284D01*
X142090518Y-106321282D01*
X142090516Y-106321279D01*
X141978720Y-106209483D01*
X141978714Y-106209479D01*
X141977399Y-106208720D01*
X141949778Y-106192773D01*
X141841785Y-106130423D01*
X141803602Y-106120192D01*
X141689057Y-106089500D01*
X141530943Y-106089500D01*
X141439306Y-106114053D01*
X141378214Y-106130423D01*
X141241285Y-106209479D01*
X141241279Y-106209483D01*
X141129477Y-106321285D01*
X141126237Y-106326899D01*
X141086832Y-106359965D01*
X141061112Y-106364500D01*
X139679992Y-106364500D01*
X139594286Y-106364500D01*
X139539095Y-106379288D01*
X139511499Y-106386682D01*
X139511498Y-106386682D01*
X139489165Y-106399577D01*
X139437278Y-106429534D01*
X139437276Y-106429535D01*
X139421977Y-106444835D01*
X139376674Y-106490138D01*
X139376672Y-106490140D01*
X138874534Y-106992276D01*
X138831685Y-107066493D01*
X138831682Y-107066499D01*
X138831682Y-107066500D01*
X138823869Y-107095660D01*
X138823869Y-107095661D01*
X138823868Y-107095660D01*
X138812592Y-107137746D01*
X138809500Y-107149286D01*
X138244098Y-107149286D01*
X138268918Y-107112141D01*
X138344298Y-106930157D01*
X138344299Y-106930156D01*
X138382729Y-106736956D01*
X138382729Y-106539972D01*
X138344299Y-106346773D01*
X138344298Y-106346772D01*
X138268917Y-106164785D01*
X138245302Y-106129443D01*
X137677585Y-106697160D01*
X137682730Y-106677960D01*
X137682730Y-106598969D01*
X137662285Y-106522669D01*
X137622789Y-106454261D01*
X137566933Y-106398405D01*
X137498525Y-106358909D01*
X137422225Y-106338464D01*
X137343234Y-106338464D01*
X137324031Y-106343609D01*
X137891748Y-105775891D01*
X137891748Y-105775890D01*
X137856405Y-105752275D01*
X137674421Y-105676895D01*
X137674420Y-105676894D01*
X137481222Y-105638465D01*
X137284237Y-105638465D01*
X137091037Y-105676894D01*
X137091036Y-105676895D01*
X136909052Y-105752275D01*
X136745263Y-105861716D01*
X136745260Y-105861718D01*
X136640267Y-105966712D01*
X136640267Y-105966714D01*
X137135241Y-106461688D01*
X136781688Y-106815241D01*
X136286714Y-106320267D01*
X136286713Y-106320267D01*
X136181711Y-106425269D01*
X136072277Y-106589048D01*
X135996895Y-106771036D01*
X135996894Y-106771037D01*
X135958465Y-106964237D01*
X134978904Y-106964237D01*
X134878157Y-106736956D01*
X134696263Y-106326609D01*
X134694855Y-106323208D01*
X134650986Y-106209483D01*
X134404595Y-105570739D01*
X134403364Y-105567300D01*
X134150358Y-104801438D01*
X134149293Y-104797924D01*
X134147880Y-104792819D01*
X133979759Y-104185308D01*
X138737394Y-104185308D01*
X138737394Y-104382291D01*
X138775823Y-104575491D01*
X138775824Y-104575492D01*
X138851206Y-104757480D01*
X138874819Y-104792819D01*
X138874820Y-104792820D01*
X139442538Y-104225102D01*
X139437393Y-104244305D01*
X139437393Y-104323295D01*
X139457838Y-104399596D01*
X139497334Y-104468004D01*
X139553190Y-104523860D01*
X139621598Y-104563356D01*
X139697899Y-104583801D01*
X139776889Y-104583801D01*
X139796092Y-104578655D01*
X139228373Y-105146373D01*
X139263713Y-105169987D01*
X139445701Y-105245369D01*
X139445702Y-105245370D01*
X139638902Y-105283800D01*
X139835886Y-105283800D01*
X140029080Y-105245371D01*
X140029087Y-105245369D01*
X140049634Y-105236858D01*
X140101025Y-105234613D01*
X140141836Y-105265927D01*
X140153613Y-105306333D01*
X140153613Y-105321686D01*
X140177835Y-105443461D01*
X140177836Y-105443462D01*
X140225348Y-105558166D01*
X140294327Y-105661400D01*
X140294329Y-105661402D01*
X140294331Y-105661405D01*
X140382114Y-105749188D01*
X140382117Y-105749190D01*
X140382120Y-105749193D01*
X140485354Y-105818172D01*
X140600057Y-105865683D01*
X140600058Y-105865684D01*
X140600059Y-105865684D01*
X140600061Y-105865685D01*
X140681608Y-105881905D01*
X140721833Y-105889907D01*
X140721834Y-105889907D01*
X140845993Y-105889907D01*
X140876229Y-105883892D01*
X140967765Y-105865685D01*
X141082472Y-105818172D01*
X141185706Y-105749193D01*
X141273499Y-105661400D01*
X141342478Y-105558166D01*
X141389991Y-105443459D01*
X141414213Y-105321686D01*
X141414213Y-105197528D01*
X141389991Y-105075755D01*
X141342478Y-104961048D01*
X141273499Y-104857814D01*
X141273496Y-104857811D01*
X141273494Y-104857808D01*
X141185711Y-104770025D01*
X141185708Y-104770023D01*
X141185706Y-104770021D01*
X141082472Y-104701042D01*
X140984643Y-104660520D01*
X140967768Y-104653530D01*
X140967766Y-104653529D01*
X140967765Y-104653529D01*
X140950701Y-104650134D01*
X140906726Y-104623448D01*
X140890192Y-104574738D01*
X140908837Y-104526796D01*
X140912200Y-104523205D01*
X141291961Y-104143446D01*
X141401401Y-103979658D01*
X141476781Y-103797674D01*
X141476782Y-103797673D01*
X141515212Y-103604473D01*
X141515212Y-103407489D01*
X141476782Y-103214290D01*
X141476779Y-103214280D01*
X141460423Y-103174795D01*
X141460421Y-103174792D01*
X141450542Y-103150943D01*
X149379500Y-103150943D01*
X149379500Y-103309057D01*
X149405875Y-103407489D01*
X149420423Y-103461785D01*
X149499479Y-103598714D01*
X149499483Y-103598720D01*
X149611279Y-103710516D01*
X149611282Y-103710518D01*
X149611284Y-103710520D01*
X149748216Y-103789577D01*
X149900943Y-103830500D01*
X149900946Y-103830500D01*
X150059054Y-103830500D01*
X150059057Y-103830500D01*
X150211784Y-103789577D01*
X150348716Y-103710520D01*
X150460520Y-103598716D01*
X150489743Y-103548100D01*
X150529148Y-103515035D01*
X150554868Y-103510500D01*
X152368715Y-103510500D01*
X152417053Y-103528093D01*
X152442773Y-103572642D01*
X152433840Y-103623300D01*
X152421889Y-103638874D01*
X152389483Y-103671279D01*
X152389479Y-103671285D01*
X152310423Y-103808214D01*
X152304452Y-103830500D01*
X152269500Y-103960943D01*
X152269500Y-104119057D01*
X152287252Y-104185308D01*
X152310423Y-104271785D01*
X152389479Y-104408714D01*
X152389483Y-104408720D01*
X152501279Y-104520516D01*
X152501282Y-104520518D01*
X152501284Y-104520520D01*
X152638216Y-104599577D01*
X152790943Y-104640500D01*
X152790946Y-104640500D01*
X152949054Y-104640500D01*
X152949057Y-104640500D01*
X153101784Y-104599577D01*
X153238716Y-104520520D01*
X153350520Y-104408716D01*
X153429577Y-104271784D01*
X153470500Y-104119057D01*
X153470500Y-104100943D01*
X163109500Y-104100943D01*
X163109500Y-104259057D01*
X163140166Y-104373504D01*
X163150423Y-104411785D01*
X163229479Y-104548714D01*
X163229483Y-104548720D01*
X163341279Y-104660516D01*
X163341282Y-104660518D01*
X163341284Y-104660520D01*
X163478216Y-104739577D01*
X163630943Y-104780500D01*
X163630946Y-104780500D01*
X163789054Y-104780500D01*
X163789057Y-104780500D01*
X163941784Y-104739577D01*
X164078716Y-104660520D01*
X164190520Y-104548716D01*
X164269577Y-104411784D01*
X164310500Y-104259057D01*
X164310500Y-104100943D01*
X164269577Y-103948216D01*
X164190520Y-103811284D01*
X164190518Y-103811282D01*
X164190516Y-103811279D01*
X164078720Y-103699483D01*
X164078714Y-103699479D01*
X163941785Y-103620423D01*
X163903602Y-103610192D01*
X163789057Y-103579500D01*
X163630943Y-103579500D01*
X163539306Y-103604053D01*
X163478214Y-103620423D01*
X163341285Y-103699479D01*
X163341279Y-103699483D01*
X163229483Y-103811279D01*
X163229479Y-103811285D01*
X163150423Y-103948214D01*
X163147012Y-103960945D01*
X163109500Y-104100943D01*
X153470500Y-104100943D01*
X153470500Y-103960943D01*
X153429577Y-103808216D01*
X153350520Y-103671284D01*
X153350518Y-103671282D01*
X153350516Y-103671279D01*
X153318111Y-103638874D01*
X153296371Y-103592254D01*
X153309685Y-103542567D01*
X153351822Y-103513062D01*
X153371285Y-103510500D01*
X155375132Y-103510500D01*
X155423470Y-103528093D01*
X155440257Y-103548100D01*
X155469479Y-103598714D01*
X155469483Y-103598720D01*
X155581279Y-103710516D01*
X155581282Y-103710518D01*
X155581284Y-103710520D01*
X155718216Y-103789577D01*
X155870943Y-103830500D01*
X155870946Y-103830500D01*
X156029054Y-103830500D01*
X156029057Y-103830500D01*
X156181784Y-103789577D01*
X156318716Y-103710520D01*
X156430520Y-103598716D01*
X156509577Y-103461784D01*
X156550500Y-103309057D01*
X156550500Y-103150943D01*
X156509577Y-102998216D01*
X156508852Y-102996961D01*
X156459743Y-102911900D01*
X156430520Y-102861284D01*
X156430518Y-102861282D01*
X156430516Y-102861279D01*
X156318720Y-102749483D01*
X156318714Y-102749479D01*
X156181785Y-102670423D01*
X156143602Y-102660192D01*
X156029057Y-102629500D01*
X155870943Y-102629500D01*
X155779306Y-102654053D01*
X155718214Y-102670423D01*
X155581285Y-102749479D01*
X155581279Y-102749483D01*
X155469483Y-102861279D01*
X155469479Y-102861285D01*
X155440257Y-102911900D01*
X155400852Y-102944965D01*
X155375132Y-102949500D01*
X150554868Y-102949500D01*
X150506530Y-102931907D01*
X150489743Y-102911900D01*
X150483920Y-102901815D01*
X150460520Y-102861284D01*
X150460518Y-102861282D01*
X150460516Y-102861279D01*
X150415354Y-102816117D01*
X150393614Y-102769497D01*
X150406928Y-102719810D01*
X150447272Y-102691560D01*
X150447232Y-102691463D01*
X150447670Y-102691281D01*
X150449063Y-102690305D01*
X150451784Y-102689577D01*
X150588716Y-102610520D01*
X150700520Y-102498716D01*
X150779577Y-102361784D01*
X150820500Y-102209057D01*
X150820500Y-102050943D01*
X150779577Y-101898216D01*
X150700520Y-101761284D01*
X150700518Y-101761282D01*
X150700516Y-101761279D01*
X150588720Y-101649483D01*
X150588714Y-101649479D01*
X150586526Y-101648216D01*
X150551104Y-101627765D01*
X150504987Y-101601139D01*
X150451786Y-101570423D01*
X150390693Y-101554053D01*
X150341764Y-101540943D01*
X154159500Y-101540943D01*
X154159500Y-101699057D01*
X154186800Y-101800943D01*
X154200423Y-101851785D01*
X154279479Y-101988714D01*
X154279483Y-101988720D01*
X154391279Y-102100516D01*
X154391282Y-102100518D01*
X154391284Y-102100520D01*
X154528216Y-102179577D01*
X154680943Y-102220500D01*
X154680946Y-102220500D01*
X154839054Y-102220500D01*
X154839057Y-102220500D01*
X154991784Y-102179577D01*
X155128716Y-102100520D01*
X155240520Y-101988716D01*
X155319577Y-101851784D01*
X155360500Y-101699057D01*
X155360500Y-101540943D01*
X155319577Y-101388216D01*
X155240520Y-101251284D01*
X155240518Y-101251282D01*
X155240516Y-101251279D01*
X155128720Y-101139483D01*
X155128714Y-101139479D01*
X154991785Y-101060423D01*
X154925424Y-101042642D01*
X154839057Y-101019500D01*
X154680943Y-101019500D01*
X154594576Y-101042642D01*
X154528214Y-101060423D01*
X154391285Y-101139479D01*
X154391279Y-101139483D01*
X154279483Y-101251279D01*
X154279479Y-101251285D01*
X154200423Y-101388214D01*
X154189340Y-101429577D01*
X154159500Y-101540943D01*
X150341764Y-101540943D01*
X150299057Y-101529500D01*
X150140943Y-101529500D01*
X150049306Y-101554053D01*
X149988214Y-101570423D01*
X149851285Y-101649479D01*
X149851279Y-101649483D01*
X149739483Y-101761279D01*
X149739479Y-101761285D01*
X149660423Y-101898214D01*
X149644121Y-101959057D01*
X149619500Y-102050943D01*
X149619500Y-102209057D01*
X149641323Y-102290500D01*
X149660423Y-102361785D01*
X149739479Y-102498714D01*
X149739483Y-102498720D01*
X149784645Y-102543882D01*
X149806385Y-102590502D01*
X149793071Y-102640189D01*
X149752728Y-102668440D01*
X149752768Y-102668537D01*
X149752334Y-102668716D01*
X149750943Y-102669691D01*
X149748218Y-102670421D01*
X149748217Y-102670421D01*
X149611285Y-102749479D01*
X149611279Y-102749483D01*
X149499483Y-102861279D01*
X149499479Y-102861285D01*
X149420423Y-102998214D01*
X149416995Y-103011008D01*
X149379500Y-103150943D01*
X141450542Y-103150943D01*
X141401399Y-103032301D01*
X141377785Y-102996961D01*
X140810067Y-103564680D01*
X140815213Y-103545477D01*
X140815213Y-103466486D01*
X140794768Y-103390186D01*
X140755272Y-103321778D01*
X140699416Y-103265922D01*
X140631008Y-103226426D01*
X140554708Y-103205981D01*
X140475717Y-103205981D01*
X140456514Y-103211126D01*
X141024232Y-102643408D01*
X141024231Y-102643407D01*
X140988892Y-102619794D01*
X140806904Y-102544412D01*
X140806903Y-102544411D01*
X140613705Y-102505982D01*
X140416720Y-102505982D01*
X140223520Y-102544411D01*
X140223519Y-102544412D01*
X140041535Y-102619792D01*
X139877746Y-102729233D01*
X139877743Y-102729235D01*
X139595973Y-103011006D01*
X139595973Y-103011008D01*
X140090947Y-103505982D01*
X139737394Y-103859535D01*
X139242420Y-103364561D01*
X139242419Y-103364561D01*
X138960640Y-103646340D01*
X138851206Y-103810119D01*
X138775824Y-103992107D01*
X138775823Y-103992108D01*
X138737394Y-104185308D01*
X133979759Y-104185308D01*
X133934184Y-104020621D01*
X133933291Y-104017053D01*
X133927689Y-103992108D01*
X133756583Y-103230135D01*
X133755863Y-103226515D01*
X133715295Y-102992714D01*
X133673090Y-102749483D01*
X133617974Y-102431844D01*
X133617440Y-102428237D01*
X133540071Y-101800943D01*
X136901996Y-101800943D01*
X136901996Y-101959057D01*
X136928701Y-102058720D01*
X136942919Y-102111785D01*
X137021975Y-102248714D01*
X137021979Y-102248720D01*
X137133775Y-102360516D01*
X137133778Y-102360518D01*
X137133780Y-102360520D01*
X137270712Y-102439577D01*
X137423439Y-102480500D01*
X137423442Y-102480500D01*
X137581550Y-102480500D01*
X137581553Y-102480500D01*
X137734280Y-102439577D01*
X137871212Y-102360520D01*
X137983016Y-102248716D01*
X138062073Y-102111784D01*
X138102996Y-101959057D01*
X138102996Y-101800943D01*
X138062073Y-101648216D01*
X137983016Y-101511284D01*
X137983014Y-101511282D01*
X137983012Y-101511279D01*
X137871216Y-101399483D01*
X137871210Y-101399479D01*
X137851698Y-101388214D01*
X137832868Y-101377342D01*
X137734281Y-101320423D01*
X137696098Y-101310192D01*
X137581553Y-101279500D01*
X137423439Y-101279500D01*
X137339326Y-101302038D01*
X137270710Y-101320423D01*
X137133781Y-101399479D01*
X137133775Y-101399483D01*
X137021979Y-101511279D01*
X137021975Y-101511285D01*
X136942919Y-101648214D01*
X136929297Y-101699054D01*
X136901996Y-101800943D01*
X133540071Y-101800943D01*
X133518711Y-101627765D01*
X133518351Y-101624111D01*
X133517380Y-101610945D01*
X133459017Y-100819752D01*
X133458839Y-100816113D01*
X133439046Y-100009810D01*
X133439046Y-100006132D01*
X133439890Y-99971751D01*
X133440071Y-99964398D01*
X133644700Y-99964398D01*
X133644700Y-100185601D01*
X133679302Y-100404067D01*
X133679305Y-100404079D01*
X133747657Y-100614447D01*
X133848080Y-100811538D01*
X133930118Y-100924452D01*
X133956950Y-100961384D01*
X133978099Y-100990492D01*
X133978106Y-100990500D01*
X134134499Y-101146893D01*
X134134507Y-101146900D01*
X134134509Y-101146902D01*
X134220639Y-101209479D01*
X134313461Y-101276919D01*
X134325227Y-101282914D01*
X134510552Y-101377342D01*
X134720925Y-101445696D01*
X134939401Y-101480300D01*
X134939405Y-101480300D01*
X135160595Y-101480300D01*
X135160599Y-101480300D01*
X135379075Y-101445696D01*
X135589448Y-101377342D01*
X135786537Y-101276920D01*
X135965491Y-101146902D01*
X136121902Y-100990491D01*
X136251920Y-100811537D01*
X136352342Y-100614448D01*
X136420696Y-100404075D01*
X136455300Y-100185599D01*
X136455300Y-99964401D01*
X136455298Y-99964386D01*
X136455300Y-99964378D01*
X136455300Y-99961446D01*
X136456113Y-99961446D01*
X136469040Y-99914815D01*
X136511429Y-99885674D01*
X136562633Y-99890599D01*
X136583440Y-99905303D01*
X137040367Y-100362230D01*
X137040368Y-100362231D01*
X137075612Y-100397475D01*
X137092592Y-100414455D01*
X137092597Y-100414459D01*
X137134439Y-100438616D01*
X137134440Y-100438616D01*
X137156555Y-100451384D01*
X137227895Y-100470500D01*
X137227896Y-100470500D01*
X137878293Y-100470500D01*
X137926631Y-100488093D01*
X137952351Y-100532642D01*
X137943418Y-100583300D01*
X137911713Y-100638213D01*
X137887159Y-100729852D01*
X137870790Y-100790943D01*
X137870790Y-100949057D01*
X137889665Y-101019500D01*
X137911713Y-101101785D01*
X137990769Y-101238714D01*
X137990773Y-101238720D01*
X138102569Y-101350516D01*
X138102572Y-101350518D01*
X138102574Y-101350520D01*
X138239506Y-101429577D01*
X138392233Y-101470500D01*
X138392236Y-101470500D01*
X138550344Y-101470500D01*
X138550347Y-101470500D01*
X138703074Y-101429577D01*
X138839911Y-101350575D01*
X138877511Y-101340500D01*
X146842666Y-101340500D01*
X146891004Y-101358093D01*
X146895839Y-101362525D01*
X147395543Y-101862230D01*
X147395544Y-101862231D01*
X147447769Y-101914456D01*
X147511731Y-101951384D01*
X147523970Y-101954663D01*
X147566108Y-101984166D01*
X147569634Y-101989701D01*
X147609479Y-102058716D01*
X147721279Y-102170516D01*
X147721282Y-102170518D01*
X147721284Y-102170520D01*
X147788033Y-102209057D01*
X147856731Y-102248720D01*
X147858216Y-102249577D01*
X148010943Y-102290500D01*
X148010946Y-102290500D01*
X148169054Y-102290500D01*
X148169057Y-102290500D01*
X148321784Y-102249577D01*
X148458716Y-102170520D01*
X148570520Y-102058716D01*
X148649577Y-101921784D01*
X148690500Y-101769057D01*
X148690500Y-101610943D01*
X148649577Y-101458216D01*
X148642347Y-101445694D01*
X148609163Y-101388216D01*
X148570520Y-101321284D01*
X148570518Y-101321282D01*
X148570516Y-101321279D01*
X148458720Y-101209483D01*
X148458714Y-101209479D01*
X148321785Y-101130423D01*
X148288954Y-101121626D01*
X148240195Y-101108561D01*
X148198059Y-101079057D01*
X148184745Y-101029370D01*
X148206484Y-100982750D01*
X148240197Y-100963286D01*
X148247297Y-100961384D01*
X148264015Y-100951732D01*
X148311259Y-100924456D01*
X148363484Y-100872231D01*
X148369669Y-100866046D01*
X148369676Y-100866036D01*
X149110636Y-100125077D01*
X149157255Y-100103338D01*
X149206942Y-100116652D01*
X149236447Y-100158789D01*
X149237564Y-100163581D01*
X149253651Y-100244455D01*
X149261067Y-100281737D01*
X149316040Y-100414455D01*
X149320956Y-100426322D01*
X149407896Y-100556437D01*
X149407904Y-100556446D01*
X149518553Y-100667095D01*
X149518562Y-100667103D01*
X149648677Y-100754043D01*
X149648680Y-100754045D01*
X149793263Y-100813933D01*
X149908638Y-100836882D01*
X149946751Y-100844464D01*
X149946752Y-100844464D01*
X150103249Y-100844464D01*
X150133780Y-100838390D01*
X150256737Y-100813933D01*
X150401320Y-100754045D01*
X150531441Y-100667100D01*
X150642100Y-100556441D01*
X150729045Y-100426320D01*
X150788933Y-100281737D01*
X150819464Y-100128248D01*
X150819464Y-99971752D01*
X150788933Y-99818263D01*
X150729045Y-99673680D01*
X150715045Y-99652728D01*
X150642103Y-99543562D01*
X150642095Y-99543553D01*
X150531446Y-99432904D01*
X150530962Y-99432507D01*
X150530835Y-99432293D01*
X150528829Y-99430287D01*
X150529343Y-99429772D01*
X150504752Y-99388246D01*
X150513125Y-99337492D01*
X150525483Y-99321201D01*
X150795741Y-99050943D01*
X152539500Y-99050943D01*
X152539500Y-99209057D01*
X152561441Y-99290943D01*
X152580423Y-99361785D01*
X152659479Y-99498714D01*
X152659483Y-99498720D01*
X152771279Y-99610516D01*
X152771282Y-99610518D01*
X152771284Y-99610520D01*
X152840532Y-99650500D01*
X152905657Y-99688100D01*
X152908216Y-99689577D01*
X153060943Y-99730500D01*
X153060946Y-99730500D01*
X153219054Y-99730500D01*
X153219057Y-99730500D01*
X153371784Y-99689577D01*
X153508716Y-99610520D01*
X153620520Y-99498716D01*
X153699577Y-99361784D01*
X153740500Y-99209057D01*
X153740500Y-99050943D01*
X153699577Y-98898216D01*
X153620520Y-98761284D01*
X153620518Y-98761282D01*
X153620516Y-98761279D01*
X153600756Y-98741519D01*
X153579016Y-98694899D01*
X153592330Y-98645212D01*
X153616331Y-98623220D01*
X153626316Y-98617456D01*
X153738120Y-98505652D01*
X153817177Y-98368720D01*
X153858100Y-98215993D01*
X153858100Y-98057879D01*
X153817177Y-97905152D01*
X153789203Y-97856700D01*
X153752781Y-97793614D01*
X153752780Y-97793612D01*
X153738123Y-97768224D01*
X153738116Y-97768215D01*
X153730844Y-97760943D01*
X162599500Y-97760943D01*
X162599500Y-97919057D01*
X162614202Y-97973924D01*
X162640423Y-98071785D01*
X162719479Y-98208714D01*
X162719483Y-98208720D01*
X162831279Y-98320516D01*
X162831282Y-98320518D01*
X162831284Y-98320520D01*
X162928988Y-98376929D01*
X162954778Y-98391819D01*
X162968216Y-98399577D01*
X163120943Y-98440500D01*
X163120946Y-98440500D01*
X163279054Y-98440500D01*
X163279057Y-98440500D01*
X163431784Y-98399577D01*
X163568716Y-98320520D01*
X163680520Y-98208716D01*
X163759577Y-98071784D01*
X163800500Y-97919057D01*
X163800500Y-97760943D01*
X163759577Y-97608216D01*
X163756687Y-97603211D01*
X163732040Y-97560520D01*
X163680520Y-97471284D01*
X163680518Y-97471282D01*
X163680516Y-97471279D01*
X163568720Y-97359483D01*
X163568714Y-97359479D01*
X163550934Y-97349214D01*
X163520958Y-97331907D01*
X163431785Y-97280423D01*
X163391019Y-97269500D01*
X163279057Y-97239500D01*
X163120943Y-97239500D01*
X163030250Y-97263801D01*
X162968214Y-97280423D01*
X162831285Y-97359479D01*
X162831279Y-97359483D01*
X162719483Y-97471279D01*
X162719479Y-97471285D01*
X162640423Y-97608214D01*
X162621055Y-97680500D01*
X162599500Y-97760943D01*
X153730844Y-97760943D01*
X153626320Y-97656419D01*
X153626314Y-97656415D01*
X153489385Y-97577359D01*
X153451202Y-97567128D01*
X153336657Y-97536436D01*
X153178543Y-97536436D01*
X153088660Y-97560520D01*
X153025814Y-97577359D01*
X152888885Y-97656415D01*
X152888879Y-97656419D01*
X152777083Y-97768215D01*
X152777079Y-97768221D01*
X152698023Y-97905150D01*
X152685495Y-97951907D01*
X152657100Y-98057879D01*
X152657100Y-98215993D01*
X152685107Y-98320516D01*
X152698023Y-98368721D01*
X152715838Y-98399577D01*
X152777080Y-98505652D01*
X152796842Y-98525414D01*
X152818583Y-98572033D01*
X152805270Y-98621721D01*
X152781273Y-98643712D01*
X152771285Y-98649479D01*
X152771279Y-98649483D01*
X152659483Y-98761279D01*
X152659479Y-98761285D01*
X152580423Y-98898214D01*
X152559961Y-98974579D01*
X152539500Y-99050943D01*
X150795741Y-99050943D01*
X151371850Y-98474834D01*
X151418469Y-98453095D01*
X151444485Y-98455371D01*
X151472979Y-98463006D01*
X151500942Y-98470500D01*
X151500943Y-98470500D01*
X151659054Y-98470500D01*
X151659057Y-98470500D01*
X151811784Y-98429577D01*
X151948716Y-98350520D01*
X152060520Y-98238716D01*
X152139577Y-98101784D01*
X152180500Y-97949057D01*
X152180500Y-97790943D01*
X152139577Y-97638216D01*
X152060520Y-97501284D01*
X152060518Y-97501282D01*
X152060516Y-97501279D01*
X151948720Y-97389483D01*
X151948714Y-97389479D01*
X151811785Y-97310423D01*
X151786965Y-97303772D01*
X151750531Y-97294010D01*
X151708395Y-97264506D01*
X151695081Y-97214819D01*
X151716819Y-97168201D01*
X152484455Y-96400566D01*
X152490057Y-96390864D01*
X152521384Y-96336603D01*
X152526400Y-96317885D01*
X152540500Y-96265263D01*
X152540500Y-96191406D01*
X152540500Y-95866705D01*
X159963154Y-95866705D01*
X159963154Y-95866707D01*
X160628412Y-96531965D01*
X160675052Y-96569550D01*
X160675053Y-96569551D01*
X160805835Y-96629278D01*
X160948154Y-96649740D01*
X161090472Y-96629278D01*
X161221254Y-96569551D01*
X161221255Y-96569550D01*
X161267880Y-96531977D01*
X161267898Y-96531961D01*
X161933153Y-95866707D01*
X161933153Y-95866704D01*
X160948155Y-94881706D01*
X160948153Y-94881706D01*
X159963154Y-95866705D01*
X152540500Y-95866705D01*
X152540500Y-90547334D01*
X152558093Y-90498996D01*
X152562526Y-90494160D01*
X153324161Y-89732526D01*
X153370781Y-89710786D01*
X153377335Y-89710500D01*
X154296756Y-89710500D01*
X154345094Y-89728093D01*
X154363759Y-89751559D01*
X154410935Y-89844145D01*
X154535237Y-90015232D01*
X154535244Y-90015240D01*
X154684759Y-90164755D01*
X154684767Y-90164762D01*
X154684769Y-90164764D01*
X154700606Y-90176270D01*
X154855851Y-90289063D01*
X155044275Y-90385070D01*
X155245396Y-90450418D01*
X155454264Y-90483500D01*
X155454268Y-90483500D01*
X155665732Y-90483500D01*
X155665736Y-90483500D01*
X155874604Y-90450418D01*
X155987588Y-90413707D01*
X156038995Y-90415502D01*
X156077223Y-90449921D01*
X156084382Y-90500861D01*
X156082345Y-90508464D01*
X156045632Y-90621454D01*
X156045632Y-90621455D01*
X156012552Y-90830313D01*
X156012552Y-91041790D01*
X156045632Y-91250648D01*
X156045635Y-91250660D01*
X156110981Y-91451776D01*
X156206988Y-91640200D01*
X156331289Y-91811284D01*
X156331296Y-91811292D01*
X156480811Y-91960807D01*
X156480819Y-91960814D01*
X156480821Y-91960816D01*
X156536051Y-92000943D01*
X156651903Y-92085115D01*
X156651905Y-92085116D01*
X156840327Y-92181122D01*
X157041448Y-92246470D01*
X157250316Y-92279552D01*
X157250320Y-92279552D01*
X157461784Y-92279552D01*
X157461788Y-92279552D01*
X157670656Y-92246470D01*
X157783637Y-92209760D01*
X157835044Y-92211555D01*
X157873272Y-92245974D01*
X157880431Y-92296914D01*
X157878394Y-92304516D01*
X157858731Y-92365035D01*
X157850023Y-92391838D01*
X157847488Y-92399639D01*
X157815819Y-92440175D01*
X157775968Y-92451602D01*
X156359437Y-92451602D01*
X156311099Y-92434009D01*
X156306263Y-92429576D01*
X155788748Y-91912062D01*
X155788736Y-91912048D01*
X155732235Y-91855547D01*
X155732229Y-91855543D01*
X155668270Y-91818616D01*
X155640906Y-91811284D01*
X155596929Y-91799500D01*
X155596928Y-91799500D01*
X155596927Y-91799500D01*
X155204868Y-91799500D01*
X155156530Y-91781907D01*
X155139743Y-91761900D01*
X155131421Y-91747486D01*
X155110520Y-91711284D01*
X155110518Y-91711282D01*
X155110516Y-91711279D01*
X154998720Y-91599483D01*
X154998714Y-91599479D01*
X154979202Y-91588214D01*
X154867386Y-91523657D01*
X154861785Y-91520423D01*
X154823602Y-91510192D01*
X154709057Y-91479500D01*
X154550943Y-91479500D01*
X154459306Y-91504053D01*
X154398214Y-91520423D01*
X154261285Y-91599479D01*
X154261279Y-91599483D01*
X154149483Y-91711279D01*
X154149479Y-91711285D01*
X154070423Y-91848214D01*
X154049961Y-91924579D01*
X154029500Y-92000943D01*
X154029500Y-92159057D01*
X154060192Y-92273602D01*
X154070423Y-92311785D01*
X154116284Y-92391218D01*
X154145982Y-92442658D01*
X154149479Y-92448714D01*
X154149483Y-92448720D01*
X154261279Y-92560516D01*
X154261282Y-92560518D01*
X154261284Y-92560520D01*
X154398216Y-92639577D01*
X154550943Y-92680500D01*
X154550946Y-92680500D01*
X154709054Y-92680500D01*
X154709057Y-92680500D01*
X154861784Y-92639577D01*
X154998716Y-92560520D01*
X155110520Y-92448716D01*
X155139743Y-92398100D01*
X155179148Y-92365035D01*
X155204868Y-92360500D01*
X155412666Y-92360500D01*
X155461004Y-92378093D01*
X155465839Y-92382525D01*
X155987645Y-92904332D01*
X155987646Y-92904333D01*
X156039871Y-92956558D01*
X156071748Y-92974962D01*
X156092735Y-92987079D01*
X156103833Y-92993486D01*
X156175173Y-93012602D01*
X156175174Y-93012602D01*
X157775968Y-93012602D01*
X157824306Y-93030195D01*
X157847487Y-93064564D01*
X157907032Y-93247826D01*
X158003039Y-93436250D01*
X158065189Y-93521791D01*
X158127339Y-93607333D01*
X158127343Y-93607337D01*
X158127347Y-93607342D01*
X158276862Y-93756857D01*
X158276870Y-93756864D01*
X158276872Y-93756866D01*
X158370438Y-93824845D01*
X158447954Y-93881165D01*
X158447956Y-93881166D01*
X158636378Y-93977172D01*
X158837499Y-94042520D01*
X158927172Y-94056723D01*
X158972162Y-94081661D01*
X158990597Y-94129685D01*
X158973849Y-94178322D01*
X158968582Y-94184171D01*
X158944341Y-94208411D01*
X158906756Y-94255051D01*
X158906755Y-94255052D01*
X158847028Y-94385834D01*
X158833538Y-94479658D01*
X158809244Y-94525000D01*
X158761489Y-94544118D01*
X158712617Y-94528067D01*
X158693978Y-94506556D01*
X158660540Y-94448640D01*
X158650520Y-94431284D01*
X158650518Y-94431282D01*
X158650516Y-94431279D01*
X158538720Y-94319483D01*
X158538714Y-94319479D01*
X158401785Y-94240423D01*
X158363602Y-94230192D01*
X158249057Y-94199500D01*
X158090943Y-94199500D01*
X158001989Y-94223335D01*
X157938214Y-94240423D01*
X157801285Y-94319479D01*
X157801279Y-94319483D01*
X157689483Y-94431279D01*
X157689479Y-94431285D01*
X157610423Y-94568214D01*
X157607127Y-94580516D01*
X157569500Y-94720943D01*
X157569500Y-94879057D01*
X157600192Y-94993602D01*
X157610423Y-95031785D01*
X157633969Y-95072567D01*
X157689315Y-95168431D01*
X157689479Y-95168714D01*
X157689483Y-95168720D01*
X157801279Y-95280516D01*
X157801282Y-95280518D01*
X157801284Y-95280520D01*
X157938216Y-95359577D01*
X158090943Y-95400500D01*
X158090946Y-95400500D01*
X158249054Y-95400500D01*
X158249057Y-95400500D01*
X158401784Y-95359577D01*
X158538716Y-95280520D01*
X158650520Y-95168716D01*
X158729577Y-95031784D01*
X158770500Y-94879057D01*
X158770500Y-94845335D01*
X158788093Y-94796997D01*
X158832642Y-94771277D01*
X158883300Y-94780210D01*
X158904254Y-94798149D01*
X158944341Y-94847894D01*
X159609599Y-95513152D01*
X159609601Y-95513152D01*
X160594601Y-94528152D01*
X161301707Y-94528152D01*
X161301707Y-94528153D01*
X162286706Y-95513152D01*
X162286708Y-95513152D01*
X162951962Y-94847897D01*
X162951978Y-94847879D01*
X162989551Y-94801254D01*
X162989552Y-94801253D01*
X163049279Y-94670471D01*
X163069741Y-94528153D01*
X163049279Y-94385834D01*
X162989552Y-94255052D01*
X162989551Y-94255051D01*
X162951966Y-94208411D01*
X162286708Y-93543153D01*
X162286706Y-93543153D01*
X161301707Y-94528152D01*
X160594601Y-94528152D01*
X161933153Y-93189600D01*
X161933153Y-93189598D01*
X161267895Y-92524340D01*
X161221255Y-92486755D01*
X161221254Y-92486754D01*
X161090472Y-92427027D01*
X160948154Y-92406565D01*
X160805835Y-92427027D01*
X160675053Y-92486754D01*
X160675052Y-92486755D01*
X160628412Y-92524340D01*
X160604172Y-92548581D01*
X160557552Y-92570321D01*
X160507865Y-92557007D01*
X160478360Y-92514870D01*
X160476724Y-92507171D01*
X160467466Y-92448720D01*
X160462521Y-92417498D01*
X160397173Y-92216377D01*
X160360548Y-92144496D01*
X160301166Y-92027953D01*
X160229068Y-91928720D01*
X160176867Y-91856871D01*
X160176865Y-91856869D01*
X160176858Y-91856861D01*
X160027343Y-91707346D01*
X160027335Y-91707339D01*
X160015374Y-91698649D01*
X159934927Y-91640200D01*
X159856251Y-91583038D01*
X159667827Y-91487031D01*
X159466711Y-91421685D01*
X159466699Y-91421682D01*
X159257841Y-91388602D01*
X159257839Y-91388602D01*
X159046367Y-91388602D01*
X159046364Y-91388602D01*
X158837506Y-91421682D01*
X158837501Y-91421683D01*
X158724516Y-91458394D01*
X158673108Y-91456598D01*
X158634881Y-91422178D01*
X158627722Y-91371238D01*
X158629756Y-91363647D01*
X158666470Y-91250656D01*
X158699552Y-91041788D01*
X158699552Y-90830316D01*
X158666470Y-90621448D01*
X158601122Y-90420327D01*
X158505116Y-90231905D01*
X158502110Y-90227768D01*
X158448795Y-90154387D01*
X158380816Y-90060821D01*
X158380814Y-90060819D01*
X158380807Y-90060811D01*
X158231292Y-89911296D01*
X158231284Y-89911289D01*
X158060200Y-89786988D01*
X157871776Y-89690981D01*
X157670660Y-89625635D01*
X157670648Y-89625632D01*
X157461790Y-89592552D01*
X157461788Y-89592552D01*
X157250316Y-89592552D01*
X157250313Y-89592552D01*
X157041455Y-89625632D01*
X157041454Y-89625632D01*
X157027917Y-89630030D01*
X156928462Y-89662344D01*
X156877055Y-89660549D01*
X156838828Y-89626129D01*
X156831669Y-89575190D01*
X156833703Y-89567599D01*
X156870418Y-89454604D01*
X156903500Y-89245736D01*
X156903500Y-89034264D01*
X156870418Y-88825396D01*
X156805070Y-88624275D01*
X156709064Y-88435853D01*
X156584764Y-88264769D01*
X156584762Y-88264767D01*
X156584755Y-88264759D01*
X156435240Y-88115244D01*
X156435232Y-88115237D01*
X156264148Y-87990936D01*
X156075724Y-87894929D01*
X155874608Y-87829583D01*
X155874596Y-87829580D01*
X155665738Y-87796500D01*
X155665736Y-87796500D01*
X155454264Y-87796500D01*
X155454261Y-87796500D01*
X155245403Y-87829580D01*
X155245391Y-87829583D01*
X155044275Y-87894929D01*
X154855851Y-87990936D01*
X154684767Y-88115237D01*
X154684759Y-88115244D01*
X154535244Y-88264759D01*
X154535237Y-88264767D01*
X154410936Y-88435851D01*
X154314929Y-88624275D01*
X154249583Y-88825391D01*
X154249580Y-88825403D01*
X154216500Y-89034261D01*
X154216500Y-89074300D01*
X154198907Y-89122638D01*
X154154358Y-89148358D01*
X154141300Y-89149500D01*
X153266929Y-89149500D01*
X153193071Y-89149500D01*
X153157401Y-89159058D01*
X153121729Y-89168616D01*
X153057770Y-89205543D01*
X153057769Y-89205544D01*
X153057768Y-89205545D01*
X152087771Y-90175542D01*
X152087769Y-90175544D01*
X152061656Y-90201656D01*
X152035544Y-90227768D01*
X152035543Y-90227770D01*
X151998616Y-90291729D01*
X151989058Y-90327401D01*
X151979500Y-90363072D01*
X151979500Y-90363074D01*
X151979500Y-91028715D01*
X151961907Y-91077053D01*
X151917358Y-91102773D01*
X151866700Y-91093840D01*
X151851126Y-91081889D01*
X151848720Y-91079483D01*
X151848714Y-91079479D01*
X151711785Y-91000423D01*
X151673602Y-90990192D01*
X151559057Y-90959500D01*
X151400943Y-90959500D01*
X151309306Y-90984053D01*
X151248214Y-91000423D01*
X151111285Y-91079479D01*
X151111279Y-91079483D01*
X150999483Y-91191279D01*
X150999479Y-91191285D01*
X150920423Y-91328214D01*
X150917404Y-91339483D01*
X150879500Y-91480943D01*
X150879500Y-91639057D01*
X150906800Y-91740943D01*
X150920423Y-91791785D01*
X150999479Y-91928714D01*
X150999483Y-91928720D01*
X151111279Y-92040516D01*
X151111282Y-92040518D01*
X151111284Y-92040520D01*
X151161901Y-92069743D01*
X151194964Y-92109146D01*
X151199500Y-92134867D01*
X151199500Y-96193460D01*
X151181907Y-96241798D01*
X151177474Y-96246634D01*
X150180252Y-97243856D01*
X150133632Y-97265596D01*
X150083945Y-97252282D01*
X150054440Y-97210145D01*
X150051878Y-97190682D01*
X150051878Y-97079567D01*
X150051878Y-97079565D01*
X150010955Y-96926838D01*
X149931898Y-96789906D01*
X149931896Y-96789904D01*
X149931894Y-96789901D01*
X149820098Y-96678105D01*
X149820092Y-96678101D01*
X149683163Y-96599045D01*
X149631816Y-96585287D01*
X149530435Y-96558122D01*
X149372321Y-96558122D01*
X149280684Y-96582675D01*
X149219592Y-96599045D01*
X149082663Y-96678101D01*
X149082657Y-96678105D01*
X148970861Y-96789901D01*
X148970857Y-96789907D01*
X148891801Y-96926836D01*
X148859292Y-97048164D01*
X148829787Y-97090301D01*
X148780100Y-97103615D01*
X148733480Y-97081875D01*
X148714017Y-97048166D01*
X148700410Y-96997383D01*
X148700409Y-96997382D01*
X148700409Y-96997380D01*
X148655351Y-96919338D01*
X148621353Y-96860451D01*
X148621351Y-96860449D01*
X148621349Y-96860446D01*
X148509553Y-96748650D01*
X148509547Y-96748646D01*
X148406855Y-96689357D01*
X148379328Y-96661829D01*
X148374624Y-96653681D01*
X148372349Y-96649740D01*
X148365289Y-96637512D01*
X148313064Y-96585287D01*
X148313063Y-96585286D01*
X147861949Y-96134173D01*
X147419838Y-95692062D01*
X147419826Y-95692048D01*
X147363325Y-95635547D01*
X147363319Y-95635543D01*
X147299360Y-95598616D01*
X147275579Y-95592244D01*
X147228019Y-95579500D01*
X147228018Y-95579500D01*
X141245262Y-95579500D01*
X141171405Y-95579500D01*
X141135735Y-95589058D01*
X141100063Y-95598616D01*
X141036104Y-95635543D01*
X141036102Y-95635545D01*
X140494174Y-96177474D01*
X140447554Y-96199214D01*
X140441000Y-96199500D01*
X138323993Y-96199500D01*
X138275655Y-96181907D01*
X138249935Y-96137358D01*
X138258868Y-96086700D01*
X138270819Y-96071126D01*
X138353224Y-95988720D01*
X138353228Y-95988716D01*
X138432285Y-95851784D01*
X138473208Y-95699057D01*
X138473208Y-95540943D01*
X138432285Y-95388216D01*
X138353228Y-95251284D01*
X138353226Y-95251282D01*
X138353224Y-95251279D01*
X138241428Y-95139483D01*
X138241422Y-95139479D01*
X138104493Y-95060423D01*
X138066310Y-95050192D01*
X137951765Y-95019500D01*
X137793651Y-95019500D01*
X137706642Y-95042814D01*
X137640922Y-95060423D01*
X137503993Y-95139479D01*
X137503987Y-95139483D01*
X137392191Y-95251279D01*
X137392187Y-95251285D01*
X137313131Y-95388214D01*
X137309689Y-95401061D01*
X137272208Y-95540943D01*
X137272208Y-95699057D01*
X137302900Y-95813602D01*
X137313131Y-95851785D01*
X137385624Y-95977346D01*
X137394557Y-96028004D01*
X137368837Y-96072553D01*
X137320499Y-96090146D01*
X137301046Y-96087586D01*
X137299060Y-96087054D01*
X137299057Y-96087054D01*
X137140943Y-96087054D01*
X137055307Y-96110000D01*
X136988214Y-96127977D01*
X136851285Y-96207033D01*
X136851283Y-96207034D01*
X136751483Y-96306834D01*
X136704863Y-96328573D01*
X136655176Y-96315259D01*
X136645135Y-96306833D01*
X136522526Y-96184224D01*
X136500786Y-96137604D01*
X136500500Y-96131050D01*
X136500500Y-95507334D01*
X136518093Y-95458996D01*
X136522514Y-95454171D01*
X136777555Y-95199130D01*
X136824174Y-95177391D01*
X136850189Y-95179667D01*
X136898270Y-95192551D01*
X137056381Y-95192551D01*
X137056384Y-95192551D01*
X137209111Y-95151628D01*
X137346043Y-95072571D01*
X137457847Y-94960767D01*
X137536904Y-94823835D01*
X137577827Y-94671108D01*
X137577827Y-94512994D01*
X137536904Y-94360267D01*
X137536903Y-94360266D01*
X137536903Y-94360264D01*
X137469374Y-94243300D01*
X137460442Y-94192641D01*
X137486162Y-94148093D01*
X137534499Y-94130500D01*
X138086927Y-94130500D01*
X138086929Y-94130500D01*
X138158269Y-94111384D01*
X138222231Y-94074456D01*
X138274456Y-94022231D01*
X138275744Y-94020943D01*
X145102000Y-94020943D01*
X145102000Y-94179057D01*
X145122363Y-94255052D01*
X145142923Y-94331785D01*
X145221979Y-94468714D01*
X145221983Y-94468720D01*
X145333779Y-94580516D01*
X145333782Y-94580518D01*
X145333784Y-94580520D01*
X145441778Y-94642870D01*
X145458920Y-94652767D01*
X145470716Y-94659577D01*
X145623443Y-94700500D01*
X145623446Y-94700500D01*
X145781554Y-94700500D01*
X145781557Y-94700500D01*
X145934284Y-94659577D01*
X146071216Y-94580520D01*
X146183020Y-94468716D01*
X146262077Y-94331784D01*
X146303000Y-94179057D01*
X146303000Y-94020943D01*
X146262077Y-93868216D01*
X146183020Y-93731284D01*
X146183018Y-93731282D01*
X146183016Y-93731279D01*
X146071220Y-93619483D01*
X146071214Y-93619479D01*
X145934285Y-93540423D01*
X145896102Y-93530192D01*
X145781557Y-93499500D01*
X145623443Y-93499500D01*
X145531806Y-93524053D01*
X145470714Y-93540423D01*
X145333785Y-93619479D01*
X145333779Y-93619483D01*
X145221983Y-93731279D01*
X145221979Y-93731285D01*
X145142923Y-93868214D01*
X145139453Y-93881165D01*
X145102000Y-94020943D01*
X138275744Y-94020943D01*
X138280641Y-94016046D01*
X138280648Y-94016036D01*
X139404160Y-92892526D01*
X139450780Y-92870786D01*
X139457334Y-92870500D01*
X139685132Y-92870500D01*
X139733470Y-92888093D01*
X139750257Y-92908100D01*
X139779479Y-92958714D01*
X139779483Y-92958720D01*
X139891279Y-93070516D01*
X139891282Y-93070518D01*
X139891284Y-93070520D01*
X140028216Y-93149577D01*
X140180943Y-93190500D01*
X140180946Y-93190500D01*
X140339054Y-93190500D01*
X140339057Y-93190500D01*
X140491784Y-93149577D01*
X140628716Y-93070520D01*
X140740520Y-92958716D01*
X140819577Y-92821784D01*
X140860500Y-92669057D01*
X140860500Y-92530000D01*
X147980000Y-92530000D01*
X147999541Y-96028004D01*
X148000000Y-96110000D01*
X148000000Y-96120000D01*
X148060473Y-96120000D01*
X150890000Y-96120000D01*
X150890000Y-92530000D01*
X147980000Y-92530000D01*
X140860500Y-92530000D01*
X140860500Y-92510943D01*
X140819577Y-92358216D01*
X140740520Y-92221284D01*
X140740518Y-92221282D01*
X140740516Y-92221279D01*
X140628720Y-92109483D01*
X140628714Y-92109479D01*
X140491785Y-92030423D01*
X140439341Y-92016371D01*
X140339057Y-91989500D01*
X140180943Y-91989500D01*
X140028216Y-92030423D01*
X140028215Y-92030423D01*
X140028213Y-92030424D01*
X139989751Y-92052629D01*
X139939093Y-92061560D01*
X139894545Y-92035839D01*
X139876953Y-91987501D01*
X139879513Y-91968049D01*
X139898000Y-91899057D01*
X139898000Y-91740943D01*
X139857077Y-91588216D01*
X139778020Y-91451284D01*
X139778018Y-91451282D01*
X139778016Y-91451279D01*
X139666220Y-91339483D01*
X139666214Y-91339479D01*
X139659864Y-91335813D01*
X139637278Y-91322773D01*
X139529285Y-91260423D01*
X139491102Y-91250192D01*
X139376557Y-91219500D01*
X139218443Y-91219500D01*
X139126806Y-91244053D01*
X139065714Y-91260423D01*
X138928785Y-91339479D01*
X138928779Y-91339483D01*
X138816983Y-91451279D01*
X138816979Y-91451285D01*
X138737923Y-91588214D01*
X138734904Y-91599483D01*
X138697000Y-91740943D01*
X138697000Y-91899057D01*
X138721234Y-91989500D01*
X138737923Y-92051785D01*
X138816979Y-92188714D01*
X138816983Y-92188720D01*
X138928779Y-92300516D01*
X138928782Y-92300518D01*
X138928784Y-92300520D01*
X138948296Y-92311785D01*
X139017626Y-92351813D01*
X139050691Y-92391218D01*
X139050691Y-92442658D01*
X139033200Y-92470112D01*
X138211374Y-93291939D01*
X138164754Y-93313679D01*
X138115067Y-93300365D01*
X138085562Y-93258228D01*
X138083000Y-93238765D01*
X138083000Y-93090945D01*
X138083000Y-93090943D01*
X138042077Y-92938216D01*
X137963020Y-92801284D01*
X137963018Y-92801282D01*
X137963016Y-92801279D01*
X137851220Y-92689483D01*
X137851214Y-92689479D01*
X137714285Y-92610423D01*
X137676102Y-92600192D01*
X137561557Y-92569500D01*
X137403443Y-92569500D01*
X137311806Y-92594053D01*
X137250714Y-92610423D01*
X137113785Y-92689479D01*
X137113779Y-92689483D01*
X137001983Y-92801279D01*
X137001979Y-92801285D01*
X136922923Y-92938214D01*
X136908114Y-92993485D01*
X136882000Y-93090943D01*
X136882000Y-93249057D01*
X136906553Y-93340693D01*
X136922923Y-93401786D01*
X136954628Y-93456700D01*
X136963560Y-93507359D01*
X136937840Y-93551907D01*
X136889503Y-93569500D01*
X136624288Y-93569500D01*
X136610265Y-93573257D01*
X136571134Y-93583742D01*
X136519890Y-93579258D01*
X136483517Y-93542884D01*
X136479034Y-93491643D01*
X136494250Y-93434857D01*
X136494250Y-93276743D01*
X136453327Y-93124016D01*
X136374270Y-92987084D01*
X136374268Y-92987082D01*
X136374266Y-92987079D01*
X136262470Y-92875283D01*
X136262464Y-92875279D01*
X136125535Y-92796223D01*
X136087352Y-92785992D01*
X135972807Y-92755300D01*
X135814693Y-92755300D01*
X135723056Y-92779853D01*
X135661964Y-92796223D01*
X135525035Y-92875279D01*
X135525029Y-92875283D01*
X135413233Y-92987079D01*
X135413229Y-92987085D01*
X135334173Y-93124014D01*
X135327324Y-93149576D01*
X135293250Y-93276743D01*
X135293250Y-93434857D01*
X135308377Y-93491311D01*
X135303893Y-93542555D01*
X135288915Y-93563947D01*
X135275545Y-93577317D01*
X135271836Y-93583742D01*
X135258216Y-93607333D01*
X135258211Y-93607342D01*
X135238615Y-93641281D01*
X135229502Y-93675298D01*
X135229501Y-93675301D01*
X135219500Y-93712622D01*
X135219500Y-95327003D01*
X135201907Y-95375341D01*
X135157358Y-95401061D01*
X135106700Y-95392128D01*
X135051786Y-95360423D01*
X134990693Y-95344053D01*
X134899057Y-95319500D01*
X134740943Y-95319500D01*
X134649306Y-95344053D01*
X134588214Y-95360423D01*
X134451285Y-95439479D01*
X134451279Y-95439483D01*
X134339483Y-95551279D01*
X134339479Y-95551285D01*
X134260423Y-95688214D01*
X134259396Y-95692048D01*
X134219500Y-95840943D01*
X134219500Y-95999057D01*
X134235627Y-96059243D01*
X134260423Y-96151785D01*
X134339479Y-96288714D01*
X134339483Y-96288720D01*
X134451279Y-96400516D01*
X134451282Y-96400518D01*
X134451284Y-96400520D01*
X134501901Y-96429743D01*
X134534964Y-96469146D01*
X134539500Y-96494867D01*
X134539500Y-97782104D01*
X134547049Y-97810282D01*
X134558614Y-97853443D01*
X134595543Y-97917405D01*
X134595547Y-97917411D01*
X134652048Y-97973912D01*
X134652062Y-97973924D01*
X135219697Y-98541559D01*
X135241437Y-98588179D01*
X135228123Y-98637866D01*
X135185986Y-98667371D01*
X135163554Y-98669434D01*
X135163554Y-98669700D01*
X135160662Y-98669700D01*
X135160640Y-98669702D01*
X135160615Y-98669700D01*
X135160599Y-98669700D01*
X134939401Y-98669700D01*
X134939398Y-98669700D01*
X134720932Y-98704302D01*
X134720920Y-98704305D01*
X134510552Y-98772657D01*
X134313461Y-98873080D01*
X134134507Y-99003099D01*
X134134499Y-99003106D01*
X133978106Y-99159499D01*
X133978099Y-99159507D01*
X133848080Y-99338461D01*
X133747657Y-99535552D01*
X133679305Y-99745920D01*
X133679302Y-99745932D01*
X133644700Y-99964398D01*
X133440071Y-99964398D01*
X133458839Y-99199838D01*
X133459017Y-99196203D01*
X133518353Y-98391819D01*
X133518710Y-98388192D01*
X133617441Y-97587710D01*
X133617973Y-97584115D01*
X133755864Y-96789430D01*
X133756583Y-96785818D01*
X133933296Y-95998877D01*
X133934182Y-95995341D01*
X134149301Y-95218000D01*
X134150355Y-95214526D01*
X134403369Y-94448640D01*
X134404590Y-94445227D01*
X134694864Y-93692721D01*
X134696257Y-93689358D01*
X135023116Y-92951975D01*
X135024677Y-92948675D01*
X135387299Y-92228271D01*
X135389031Y-92225030D01*
X135393933Y-92216377D01*
X135786581Y-91523255D01*
X135788456Y-91520127D01*
X136105733Y-91019092D01*
X142361351Y-91019092D01*
X142361351Y-91177206D01*
X142372684Y-91219500D01*
X142402274Y-91329934D01*
X142455531Y-91422178D01*
X142472619Y-91451776D01*
X142481330Y-91466863D01*
X142481334Y-91466869D01*
X142593130Y-91578665D01*
X142593133Y-91578667D01*
X142593135Y-91578669D01*
X142730067Y-91657726D01*
X142882794Y-91698649D01*
X142882797Y-91698649D01*
X143040905Y-91698649D01*
X143040908Y-91698649D01*
X143193635Y-91657726D01*
X143330567Y-91578669D01*
X143442371Y-91466865D01*
X143521428Y-91329933D01*
X143562351Y-91177206D01*
X143562351Y-91019092D01*
X143521428Y-90866365D01*
X143442371Y-90729433D01*
X143442369Y-90729431D01*
X143442367Y-90729428D01*
X143330571Y-90617632D01*
X143330565Y-90617628D01*
X143193636Y-90538572D01*
X143155453Y-90528341D01*
X143040908Y-90497649D01*
X142882794Y-90497649D01*
X142791157Y-90522202D01*
X142730065Y-90538572D01*
X142593136Y-90617628D01*
X142593130Y-90617632D01*
X142481334Y-90729428D01*
X142481330Y-90729434D01*
X142402274Y-90866363D01*
X142381812Y-90942728D01*
X142361351Y-91019092D01*
X136105733Y-91019092D01*
X136219967Y-90838697D01*
X136221982Y-90835682D01*
X136686414Y-90176239D01*
X136688568Y-90173335D01*
X137184805Y-89537464D01*
X137187100Y-89534668D01*
X137713955Y-88923897D01*
X137716380Y-88921222D01*
X138272522Y-88337088D01*
X138275131Y-88334480D01*
X138350210Y-88262999D01*
X138859263Y-87778339D01*
X138861938Y-87775914D01*
X139472709Y-87249059D01*
X139475505Y-87246764D01*
X140111376Y-86750527D01*
X140114280Y-86748373D01*
X140773723Y-86283941D01*
X140776738Y-86281926D01*
X141458168Y-85850415D01*
X141461296Y-85848540D01*
X142163084Y-85450983D01*
X142166312Y-85449258D01*
X142886716Y-85086636D01*
X142890016Y-85085075D01*
X143627399Y-84758216D01*
X143630762Y-84756823D01*
X144383268Y-84466549D01*
X144386681Y-84465328D01*
X145152567Y-84212314D01*
X145156041Y-84211260D01*
X145933382Y-83996141D01*
X145936909Y-83995257D01*
X146224328Y-83930715D01*
X146275343Y-83937290D01*
G37*
%TD.AperFunction*%
%TD*%
M02*
