%TF.GenerationSoftware,KiCad,Pcbnew,10.0.6*%
%TF.CreationDate,2026-09-26T10:38:17+05:30*%
%TF.ProjectId,electrophy_2,656c6563-7472-46f7-9068-795f322e6b69,rev?*%
%TF.SameCoordinates,Original*%
%TF.FileFunction,Copper,L3,Inr*%
%TF.FilePolarity,Positive*%
%FSLAX46Y46*%
G04 Gerber Fmt 4.6, Leading zero omitted, Abs format (unit mm)*
G04 Created by KiCad (PCBNEW 10.0.6) date 2026-09-26 10:38:17*
%MOMM*%
%LPD*%
G01*
G04 APERTURE LIST*
G04 Aperture macros list*
%AMHorizOval*
0 Thick line with rounded ends*
0 $1 width*
0 $2 $3 position (X,Y) of the first rounded end (center of the circle)*
0 $4 $5 position (X,Y) of the second rounded end (center of the circle)*
0 Add line between two ends*
20,1,$1,$2,$3,$4,$5,0*
0 Add two circle primitives to create the rounded ends*
1,1,$1,$2,$3*
1,1,$1,$4,$5*%
G04 Aperture macros list end*
%TA.AperFunction,ComponentPad*%
%ADD10HorizOval,1.000000X-0.388909X-0.388909X0.388909X0.388909X0*%
%TD*%
%TA.AperFunction,ComponentPad*%
%ADD11HorizOval,1.000000X-0.212132X-0.212132X0.212132X0.212132X0*%
%TD*%
%TA.AperFunction,ComponentPad*%
%ADD12C,0.700000*%
%TD*%
%TA.AperFunction,ComponentPad*%
%ADD13C,4.400000*%
%TD*%
%TA.AperFunction,ViaPad*%
%ADD14C,0.800000*%
%TD*%
%TA.AperFunction,Conductor*%
%ADD15C,0.160000*%
%TD*%
G04 APERTURE END LIST*
D10*
%TO.N,GND*%
%TO.C,J1*%
X140126303Y-103894891D03*
D11*
X137170597Y-106850597D03*
D10*
X146235706Y-110004294D03*
D11*
X143280000Y-112960000D03*
%TD*%
D12*
%TO.N,N/C*%
%TO.C,H1*%
X148400000Y-115025000D03*
X148883274Y-113858274D03*
X148883274Y-116191726D03*
X150050000Y-113375000D03*
D13*
X150050000Y-115025000D03*
D12*
X150050000Y-116675000D03*
X151216726Y-113858274D03*
X151216726Y-116191726D03*
X151700000Y-115025000D03*
%TD*%
D14*
%TO.N,*%
X163200000Y-97840000D03*
X163710000Y-104180000D03*
X153140000Y-99130000D03*
X152870000Y-104040000D03*
X153257600Y-98136936D03*
X158170000Y-94800000D03*
%TO.N,GND*%
X145740000Y-90710000D03*
X154250000Y-87250000D03*
X161200000Y-104250000D03*
X143950000Y-88610000D03*
X150370000Y-88720000D03*
X153250000Y-88750000D03*
X151840000Y-89690000D03*
X146750000Y-90250000D03*
X151433593Y-106445000D03*
X141490000Y-96540000D03*
X145840000Y-87550000D03*
X144790000Y-89440000D03*
X142860000Y-108420000D03*
X146250000Y-88750000D03*
X145780000Y-85030000D03*
X154250000Y-86250000D03*
X145037817Y-93255544D03*
X145800000Y-86300000D03*
X146793270Y-94055770D03*
X150384130Y-109855196D03*
X147241600Y-104539999D03*
X148000000Y-91750000D03*
X154014000Y-88040000D03*
X153202308Y-90419358D03*
X147250000Y-92250000D03*
X149100000Y-91490000D03*
X143320000Y-87650000D03*
X143160000Y-90100000D03*
X161070000Y-100910000D03*
X148910000Y-89110000D03*
X143770000Y-91970000D03*
X154210000Y-84930000D03*
X159460000Y-111400000D03*
X149900000Y-91020000D03*
X146000000Y-92750000D03*
X151190000Y-90320000D03*
X152470000Y-112490000D03*
X143150000Y-92680000D03*
X142790000Y-89160000D03*
X160948154Y-94528153D03*
X147630000Y-88720000D03*
X152440000Y-88800000D03*
%TO.N,+3.3V*%
X150220000Y-102130000D03*
X142961851Y-91098149D03*
X137502496Y-101880000D03*
X145702500Y-94100000D03*
X154760000Y-101620000D03*
X137482500Y-93170000D03*
X137872708Y-95620000D03*
X147460000Y-111230000D03*
X139297500Y-91820000D03*
X154630000Y-92080000D03*
%TO.N,BAT_V*%
X151467500Y-110900000D03*
X154990000Y-105840000D03*
X163150000Y-107957500D03*
X147241600Y-105540002D03*
X139860000Y-107500000D03*
%TO.N,Net-(BAT1-Pin_1)*%
X155772500Y-110190000D03*
X153656235Y-107573765D03*
%TO.N,POWER_HOLD*%
X149980000Y-103230000D03*
X155950000Y-103230000D03*
%TO.N,SCL*%
X151480000Y-91560000D03*
X157356052Y-90936052D03*
X140260000Y-92590000D03*
%TO.N,SCLK*%
X136977327Y-94592051D03*
X149451378Y-97158622D03*
%TO.N,CS*%
X151580000Y-97870000D03*
X134820000Y-95920000D03*
%TO.N,MOSI*%
X148140833Y-97229167D03*
X137220000Y-96687554D03*
%TO.N,MISO*%
X137190000Y-97790000D03*
X147152020Y-97080000D03*
%TO.N,Net-(IC1-GPIO8)*%
X135500000Y-97058019D03*
X135893750Y-93355800D03*
%TO.N,SDA*%
X138260882Y-99370000D03*
%TO.N,INT1*%
X138471290Y-100870000D03*
X148090000Y-101690000D03*
%TO.N,Net-(J1-CC1)*%
X141610000Y-106690000D03*
X147500000Y-108390000D03*
%TD*%
%TO.N,+3.3V*%
D15*
X145682314Y-94120186D02*
X145702500Y-94100000D01*
%TD*%
%TA.AperFunction,Conductor*%
%TO.N,+3.3V*%
G36*
X153705670Y-83945088D02*
G01*
X154067015Y-84026231D01*
X154070560Y-84027119D01*
X154847880Y-84242233D01*
X154851377Y-84243293D01*
X155617239Y-84496299D01*
X155620678Y-84497530D01*
X156373156Y-84787794D01*
X156376548Y-84789198D01*
X157098132Y-85109054D01*
X157113899Y-85116043D01*
X157117236Y-85117622D01*
X157837607Y-85480227D01*
X157840862Y-85481966D01*
X158542618Y-85879505D01*
X158545783Y-85881402D01*
X158840790Y-86068214D01*
X159227168Y-86312885D01*
X159230229Y-86314930D01*
X159889633Y-86779335D01*
X159892576Y-86781517D01*
X160404831Y-87181285D01*
X160528398Y-87277717D01*
X160531243Y-87280052D01*
X161053458Y-87730518D01*
X161141965Y-87806864D01*
X161144690Y-87809334D01*
X161303931Y-87960945D01*
X161728802Y-88365456D01*
X161731412Y-88368066D01*
X162087322Y-88741889D01*
X162217913Y-88879054D01*
X162287525Y-88952169D01*
X162289998Y-88954896D01*
X162724163Y-89458214D01*
X162816809Y-89565616D01*
X162819147Y-89568465D01*
X163295655Y-90179054D01*
X163315343Y-90204282D01*
X163317538Y-90207242D01*
X163656629Y-90688714D01*
X163781932Y-90866631D01*
X163783983Y-90869700D01*
X164215465Y-91551084D01*
X164217363Y-91554250D01*
X164614902Y-92256006D01*
X164616641Y-92259261D01*
X164979246Y-92979632D01*
X164980825Y-92982969D01*
X165307666Y-93720311D01*
X165309078Y-93723721D01*
X165599331Y-94476172D01*
X165600575Y-94479647D01*
X165853569Y-95245473D01*
X165854640Y-95249005D01*
X166069745Y-96026295D01*
X166070642Y-96029876D01*
X166247350Y-96816794D01*
X166248070Y-96820414D01*
X166385955Y-97615063D01*
X166386496Y-97618714D01*
X166485220Y-98419145D01*
X166485582Y-98422818D01*
X166544914Y-99227153D01*
X166545095Y-99230840D01*
X166564887Y-100037108D01*
X166564887Y-100040798D01*
X166545095Y-100847065D01*
X166544914Y-100850752D01*
X166485582Y-101655087D01*
X166485220Y-101658760D01*
X166386496Y-102459191D01*
X166385955Y-102462842D01*
X166248070Y-103257491D01*
X166247350Y-103261111D01*
X166070642Y-104048029D01*
X166069745Y-104051610D01*
X165854640Y-104828900D01*
X165853569Y-104832432D01*
X165600575Y-105598258D01*
X165599331Y-105601733D01*
X165309078Y-106354184D01*
X165307666Y-106357594D01*
X164980825Y-107094936D01*
X164979246Y-107098273D01*
X164616641Y-107818644D01*
X164614902Y-107821899D01*
X164217363Y-108523655D01*
X164215465Y-108526821D01*
X163783983Y-109208205D01*
X163781932Y-109211274D01*
X163317541Y-109870659D01*
X163315343Y-109873623D01*
X162819151Y-110509435D01*
X162816809Y-110512289D01*
X162290004Y-111123002D01*
X162287525Y-111125736D01*
X161731412Y-111709839D01*
X161728802Y-111712449D01*
X161144699Y-112268562D01*
X161141965Y-112271041D01*
X160531252Y-112797846D01*
X160528398Y-112800188D01*
X159892586Y-113296380D01*
X159889622Y-113298578D01*
X159230237Y-113762969D01*
X159227168Y-113765020D01*
X158545784Y-114196502D01*
X158542618Y-114198400D01*
X157840862Y-114595939D01*
X157837607Y-114597678D01*
X157117236Y-114960283D01*
X157113899Y-114961862D01*
X156376557Y-115288703D01*
X156373147Y-115290115D01*
X155620696Y-115580368D01*
X155617221Y-115581612D01*
X154851395Y-115834606D01*
X154847863Y-115835677D01*
X154070573Y-116050782D01*
X154066992Y-116051679D01*
X153280074Y-116228387D01*
X153276454Y-116229107D01*
X152481805Y-116366992D01*
X152478154Y-116367533D01*
X152161875Y-116406542D01*
X152111747Y-116394998D01*
X152080768Y-116353934D01*
X152083432Y-116302563D01*
X152088993Y-116291906D01*
X152154284Y-116187997D01*
X152271267Y-115945079D01*
X152360316Y-115690591D01*
X152420312Y-115427732D01*
X152450500Y-115159809D01*
X152450500Y-114890191D01*
X152420312Y-114622268D01*
X152360316Y-114359409D01*
X152271267Y-114104921D01*
X152154284Y-113862003D01*
X152010838Y-113633711D01*
X151842734Y-113422915D01*
X151652085Y-113232266D01*
X151441289Y-113064162D01*
X151212997Y-112920716D01*
X150970079Y-112803733D01*
X150715591Y-112714684D01*
X150452732Y-112654688D01*
X150452728Y-112654687D01*
X150452726Y-112654687D01*
X150294719Y-112636884D01*
X150184809Y-112624500D01*
X149915191Y-112624500D01*
X149823988Y-112634776D01*
X149647273Y-112654687D01*
X149647269Y-112654687D01*
X149647268Y-112654688D01*
X149384409Y-112714684D01*
X149384405Y-112714685D01*
X149384404Y-112714685D01*
X149159744Y-112793297D01*
X149129921Y-112803733D01*
X148887003Y-112920716D01*
X148812063Y-112967804D01*
X148658706Y-113064165D01*
X148447917Y-113232264D01*
X148447911Y-113232269D01*
X148257269Y-113422911D01*
X148257264Y-113422917D01*
X148089165Y-113633706D01*
X148089162Y-113633711D01*
X147955953Y-113845712D01*
X147945715Y-113862005D01*
X147828735Y-114104917D01*
X147828731Y-114104927D01*
X147739685Y-114359404D01*
X147739685Y-114359405D01*
X147739684Y-114359409D01*
X147685698Y-114595939D01*
X147679687Y-114622273D01*
X147649500Y-114890193D01*
X147649500Y-115159806D01*
X147676652Y-115400792D01*
X147679688Y-115427732D01*
X147739684Y-115690591D01*
X147828733Y-115945079D01*
X147945716Y-116187997D01*
X148007248Y-116285924D01*
X148009672Y-116289782D01*
X148020492Y-116340071D01*
X147996456Y-116385550D01*
X147948810Y-116404938D01*
X147936793Y-116404425D01*
X147637677Y-116367533D01*
X147634026Y-116366992D01*
X146839377Y-116229107D01*
X146835757Y-116228387D01*
X146048839Y-116051679D01*
X146045258Y-116050782D01*
X145267968Y-115835677D01*
X145264436Y-115834606D01*
X144498610Y-115581612D01*
X144495135Y-115580368D01*
X143742684Y-115290115D01*
X143739274Y-115288703D01*
X143001932Y-114961862D01*
X142998595Y-114960283D01*
X142278224Y-114597678D01*
X142274969Y-114595939D01*
X141573213Y-114198400D01*
X141570047Y-114196502D01*
X140888663Y-113765020D01*
X140885594Y-113762969D01*
X140402757Y-113422917D01*
X140226205Y-113298575D01*
X140223245Y-113296380D01*
X140046860Y-113158728D01*
X139975625Y-113103136D01*
X142367368Y-113103136D01*
X142367368Y-113241127D01*
X142394288Y-113376461D01*
X142394289Y-113376463D01*
X142413530Y-113422915D01*
X142447093Y-113503943D01*
X142523754Y-113618675D01*
X142523755Y-113618676D01*
X142523758Y-113618680D01*
X142621319Y-113716241D01*
X142621322Y-113716243D01*
X142621325Y-113716246D01*
X142736057Y-113792907D01*
X142863540Y-113845712D01*
X142945032Y-113861922D01*
X142998872Y-113872632D01*
X142998874Y-113872632D01*
X143136864Y-113872632D01*
X143181770Y-113863698D01*
X143272196Y-113845712D01*
X143399679Y-113792907D01*
X143514411Y-113716246D01*
X144036246Y-113194411D01*
X144112907Y-113079679D01*
X144165712Y-112952196D01*
X144192632Y-112816862D01*
X144192632Y-112678874D01*
X144165712Y-112543540D01*
X144112907Y-112416057D01*
X144109490Y-112410943D01*
X151869500Y-112410943D01*
X151869500Y-112569057D01*
X151892445Y-112654688D01*
X151910423Y-112721785D01*
X151989479Y-112858714D01*
X151989483Y-112858720D01*
X152101279Y-112970516D01*
X152101282Y-112970518D01*
X152101284Y-112970520D01*
X152238216Y-113049577D01*
X152390943Y-113090500D01*
X152390946Y-113090500D01*
X152549054Y-113090500D01*
X152549057Y-113090500D01*
X152701784Y-113049577D01*
X152838716Y-112970520D01*
X152950520Y-112858716D01*
X153029577Y-112721784D01*
X153070500Y-112569057D01*
X153070500Y-112410943D01*
X153029577Y-112258216D01*
X152950520Y-112121284D01*
X152950518Y-112121282D01*
X152950516Y-112121279D01*
X152838720Y-112009483D01*
X152838714Y-112009479D01*
X152701785Y-111930423D01*
X152663602Y-111920192D01*
X152549057Y-111889500D01*
X152390943Y-111889500D01*
X152299306Y-111914053D01*
X152238214Y-111930423D01*
X152101285Y-112009479D01*
X152101279Y-112009483D01*
X151989483Y-112121279D01*
X151989479Y-112121285D01*
X151910423Y-112258214D01*
X151898872Y-112301325D01*
X151869500Y-112410943D01*
X144109490Y-112410943D01*
X144036246Y-112301325D01*
X144036243Y-112301322D01*
X144036241Y-112301319D01*
X143938680Y-112203758D01*
X143938676Y-112203755D01*
X143938675Y-112203754D01*
X143823943Y-112127093D01*
X143823941Y-112127092D01*
X143696463Y-112074289D01*
X143696461Y-112074288D01*
X143561128Y-112047368D01*
X143561126Y-112047368D01*
X143423138Y-112047368D01*
X143423136Y-112047368D01*
X143287802Y-112074288D01*
X143287800Y-112074289D01*
X143160322Y-112127092D01*
X143045583Y-112203758D01*
X142523758Y-112725583D01*
X142447092Y-112840322D01*
X142394289Y-112967800D01*
X142394288Y-112967802D01*
X142367368Y-113103136D01*
X139975625Y-113103136D01*
X139587428Y-112800184D01*
X139584579Y-112797846D01*
X139496403Y-112721785D01*
X138973859Y-112271035D01*
X138971132Y-112268562D01*
X138960263Y-112258214D01*
X138563559Y-111880520D01*
X138387029Y-111712449D01*
X138384419Y-111709839D01*
X137964433Y-111268714D01*
X137828297Y-111125727D01*
X137825827Y-111123002D01*
X137800553Y-111093703D01*
X137299015Y-110512280D01*
X137296680Y-110509435D01*
X137228277Y-110421785D01*
X136800480Y-109873613D01*
X136798290Y-109870659D01*
X136774068Y-109836267D01*
X136385543Y-109284604D01*
X144240690Y-109284604D01*
X144240690Y-109408763D01*
X144264912Y-109530538D01*
X144264913Y-109530539D01*
X144312424Y-109645241D01*
X144312425Y-109645243D01*
X144381404Y-109748477D01*
X144381406Y-109748479D01*
X144381408Y-109748482D01*
X144469191Y-109836265D01*
X144469194Y-109836267D01*
X144469197Y-109836270D01*
X144572431Y-109905249D01*
X144687134Y-109952760D01*
X144687135Y-109952761D01*
X144687136Y-109952761D01*
X144687138Y-109952762D01*
X144768685Y-109968982D01*
X144808910Y-109976984D01*
X144808911Y-109976984D01*
X144933070Y-109976984D01*
X144963306Y-109970969D01*
X145054842Y-109952762D01*
X145054845Y-109952760D01*
X145054854Y-109952758D01*
X145162859Y-109908020D01*
X145214249Y-109905775D01*
X145255060Y-109937089D01*
X145266194Y-109987310D01*
X145254164Y-110019273D01*
X145226022Y-110061390D01*
X145173218Y-110188871D01*
X145173217Y-110188873D01*
X145146297Y-110324207D01*
X145146297Y-110462198D01*
X145173217Y-110597532D01*
X145173218Y-110597534D01*
X145203448Y-110670516D01*
X145226022Y-110725014D01*
X145302683Y-110839746D01*
X145302684Y-110839747D01*
X145302687Y-110839751D01*
X145400248Y-110937312D01*
X145400251Y-110937314D01*
X145400254Y-110937317D01*
X145514986Y-111013978D01*
X145642469Y-111066783D01*
X145723961Y-111082993D01*
X145777801Y-111093703D01*
X145777803Y-111093703D01*
X145915793Y-111093703D01*
X145960699Y-111084769D01*
X146051125Y-111066783D01*
X146178608Y-111013978D01*
X146293340Y-110937317D01*
X146311178Y-110919479D01*
X146409715Y-110820943D01*
X150867000Y-110820943D01*
X150867000Y-110979057D01*
X150890506Y-111066781D01*
X150907923Y-111131785D01*
X150986979Y-111268714D01*
X150986983Y-111268720D01*
X151098779Y-111380516D01*
X151098782Y-111380518D01*
X151098784Y-111380520D01*
X151235716Y-111459577D01*
X151388443Y-111500500D01*
X151388446Y-111500500D01*
X151546554Y-111500500D01*
X151546557Y-111500500D01*
X151699284Y-111459577D01*
X151836216Y-111380520D01*
X151895793Y-111320943D01*
X158859500Y-111320943D01*
X158859500Y-111479057D01*
X158865246Y-111500500D01*
X158900423Y-111631785D01*
X158979479Y-111768714D01*
X158979483Y-111768720D01*
X159091279Y-111880516D01*
X159091282Y-111880518D01*
X159091284Y-111880520D01*
X159228216Y-111959577D01*
X159380943Y-112000500D01*
X159380946Y-112000500D01*
X159539054Y-112000500D01*
X159539057Y-112000500D01*
X159691784Y-111959577D01*
X159828716Y-111880520D01*
X159940520Y-111768716D01*
X160019577Y-111631784D01*
X160060500Y-111479057D01*
X160060500Y-111320943D01*
X160019577Y-111168216D01*
X159940520Y-111031284D01*
X159940518Y-111031282D01*
X159940516Y-111031279D01*
X159828720Y-110919483D01*
X159828714Y-110919479D01*
X159691785Y-110840423D01*
X159653602Y-110830192D01*
X159539057Y-110799500D01*
X159380943Y-110799500D01*
X159300909Y-110820945D01*
X159228214Y-110840423D01*
X159091285Y-110919479D01*
X159091279Y-110919483D01*
X158979483Y-111031279D01*
X158979479Y-111031285D01*
X158900423Y-111168214D01*
X158879961Y-111244579D01*
X158859500Y-111320943D01*
X151895793Y-111320943D01*
X151948020Y-111268716D01*
X152027077Y-111131784D01*
X152068000Y-110979057D01*
X152068000Y-110820943D01*
X152027077Y-110668216D01*
X151948020Y-110531284D01*
X151948018Y-110531282D01*
X151948016Y-110531279D01*
X151836220Y-110419483D01*
X151836214Y-110419479D01*
X151699285Y-110340423D01*
X151638772Y-110324209D01*
X151546557Y-110299500D01*
X151388443Y-110299500D01*
X151296806Y-110324053D01*
X151235714Y-110340423D01*
X151098785Y-110419479D01*
X151098779Y-110419483D01*
X150986983Y-110531279D01*
X150986979Y-110531285D01*
X150907923Y-110668214D01*
X150892704Y-110725014D01*
X150867000Y-110820943D01*
X146409715Y-110820943D01*
X146467818Y-110762840D01*
X147168723Y-110061934D01*
X147168724Y-110061933D01*
X147168729Y-110061928D01*
X147245390Y-109947196D01*
X147298195Y-109819713D01*
X147306863Y-109776139D01*
X149783630Y-109776139D01*
X149783630Y-109934253D01*
X149790051Y-109958216D01*
X149824553Y-110086981D01*
X149903609Y-110223910D01*
X149903613Y-110223916D01*
X150015409Y-110335712D01*
X150015412Y-110335714D01*
X150015414Y-110335716D01*
X150152346Y-110414773D01*
X150305073Y-110455696D01*
X150305076Y-110455696D01*
X150463184Y-110455696D01*
X150463187Y-110455696D01*
X150615914Y-110414773D01*
X150752846Y-110335716D01*
X150864650Y-110223912D01*
X150929872Y-110110943D01*
X155172000Y-110110943D01*
X155172000Y-110269057D01*
X155202692Y-110383602D01*
X155212923Y-110421785D01*
X155291979Y-110558714D01*
X155291983Y-110558720D01*
X155403779Y-110670516D01*
X155403782Y-110670518D01*
X155403784Y-110670520D01*
X155540716Y-110749577D01*
X155693443Y-110790500D01*
X155693446Y-110790500D01*
X155851554Y-110790500D01*
X155851557Y-110790500D01*
X156004284Y-110749577D01*
X156141216Y-110670520D01*
X156253020Y-110558716D01*
X156332077Y-110421784D01*
X156373000Y-110269057D01*
X156373000Y-110110943D01*
X156332077Y-109958216D01*
X156253020Y-109821284D01*
X156253018Y-109821282D01*
X156253016Y-109821279D01*
X156141220Y-109709483D01*
X156141214Y-109709479D01*
X156004285Y-109630423D01*
X155966102Y-109620192D01*
X155851557Y-109589500D01*
X155693443Y-109589500D01*
X155601806Y-109614053D01*
X155540714Y-109630423D01*
X155403785Y-109709479D01*
X155403779Y-109709483D01*
X155291983Y-109821279D01*
X155291979Y-109821285D01*
X155212923Y-109958214D01*
X155207894Y-109976984D01*
X155172000Y-110110943D01*
X150929872Y-110110943D01*
X150943707Y-110086980D01*
X150984630Y-109934253D01*
X150984630Y-109776139D01*
X150943707Y-109623412D01*
X150864650Y-109486480D01*
X150864648Y-109486478D01*
X150864646Y-109486475D01*
X150752850Y-109374679D01*
X150752844Y-109374675D01*
X150615915Y-109295619D01*
X150570961Y-109283574D01*
X150463187Y-109254696D01*
X150305073Y-109254696D01*
X150213436Y-109279249D01*
X150152344Y-109295619D01*
X150015415Y-109374675D01*
X150015409Y-109374679D01*
X149903613Y-109486475D01*
X149903609Y-109486481D01*
X149824553Y-109623410D01*
X149818704Y-109645241D01*
X149783630Y-109776139D01*
X147306863Y-109776139D01*
X147325115Y-109684379D01*
X147325115Y-109546391D01*
X147321961Y-109530536D01*
X147303897Y-109439722D01*
X147298195Y-109411056D01*
X147245390Y-109283574D01*
X147168729Y-109168842D01*
X147168726Y-109168839D01*
X147168724Y-109168836D01*
X147071163Y-109071275D01*
X147071159Y-109071272D01*
X147071158Y-109071271D01*
X146956426Y-108994610D01*
X146828944Y-108941805D01*
X146828941Y-108941804D01*
X146828940Y-108941804D01*
X146693611Y-108914885D01*
X146693609Y-108914885D01*
X146555621Y-108914885D01*
X146555619Y-108914885D01*
X146420285Y-108941805D01*
X146420283Y-108941806D01*
X146292805Y-108994609D01*
X146178066Y-109071275D01*
X145573459Y-109675882D01*
X145526839Y-109697622D01*
X145477152Y-109684308D01*
X145447647Y-109642171D01*
X145450809Y-109593930D01*
X145452644Y-109589500D01*
X145477068Y-109530536D01*
X145501290Y-109408763D01*
X145501290Y-109284605D01*
X145477068Y-109162832D01*
X145429555Y-109048125D01*
X145360576Y-108944891D01*
X145360573Y-108944888D01*
X145360571Y-108944885D01*
X145272788Y-108857102D01*
X145272785Y-108857100D01*
X145272783Y-108857098D01*
X145169549Y-108788119D01*
X145111772Y-108764187D01*
X145054845Y-108740607D01*
X145054844Y-108740606D01*
X144933070Y-108716384D01*
X144933069Y-108716384D01*
X144808911Y-108716384D01*
X144808910Y-108716384D01*
X144687135Y-108740606D01*
X144687134Y-108740607D01*
X144572432Y-108788118D01*
X144469194Y-108857100D01*
X144469191Y-108857102D01*
X144381408Y-108944885D01*
X144381406Y-108944888D01*
X144312424Y-109048126D01*
X144264913Y-109162828D01*
X144264912Y-109162829D01*
X144240690Y-109284604D01*
X136385543Y-109284604D01*
X136333893Y-109211266D01*
X136331848Y-109208205D01*
X136303113Y-109162828D01*
X135900365Y-108526820D01*
X135898468Y-108523655D01*
X135813169Y-108373080D01*
X135794964Y-108340943D01*
X142259500Y-108340943D01*
X142259500Y-108499057D01*
X142275294Y-108558000D01*
X142300423Y-108651785D01*
X142379479Y-108788714D01*
X142379483Y-108788720D01*
X142491279Y-108900516D01*
X142491282Y-108900518D01*
X142491284Y-108900520D01*
X142628216Y-108979577D01*
X142780943Y-109020500D01*
X142780946Y-109020500D01*
X142939054Y-109020500D01*
X142939057Y-109020500D01*
X143091784Y-108979577D01*
X143228716Y-108900520D01*
X143340520Y-108788716D01*
X143419577Y-108651784D01*
X143460500Y-108499057D01*
X143460500Y-108340943D01*
X143452462Y-108310943D01*
X146899500Y-108310943D01*
X146899500Y-108469057D01*
X146914978Y-108526820D01*
X146940423Y-108621785D01*
X147019479Y-108758714D01*
X147019483Y-108758720D01*
X147131279Y-108870516D01*
X147131282Y-108870518D01*
X147131284Y-108870520D01*
X147208127Y-108914885D01*
X147260099Y-108944891D01*
X147268216Y-108949577D01*
X147420943Y-108990500D01*
X147420946Y-108990500D01*
X147579054Y-108990500D01*
X147579057Y-108990500D01*
X147731784Y-108949577D01*
X147868716Y-108870520D01*
X147980520Y-108758716D01*
X148059577Y-108621784D01*
X148100500Y-108469057D01*
X148100500Y-108310943D01*
X148059577Y-108158216D01*
X147980520Y-108021284D01*
X147980518Y-108021282D01*
X147980516Y-108021279D01*
X147868720Y-107909483D01*
X147868714Y-107909479D01*
X147731785Y-107830423D01*
X147687824Y-107818644D01*
X147579057Y-107789500D01*
X147420943Y-107789500D01*
X147329306Y-107814053D01*
X147268214Y-107830423D01*
X147131285Y-107909479D01*
X147131279Y-107909483D01*
X147019483Y-108021279D01*
X147019479Y-108021285D01*
X146940423Y-108158214D01*
X146932098Y-108189284D01*
X146899500Y-108310943D01*
X143452462Y-108310943D01*
X143419577Y-108188216D01*
X143419576Y-108188214D01*
X143419576Y-108188213D01*
X143340520Y-108051284D01*
X143340516Y-108051279D01*
X143228720Y-107939483D01*
X143228714Y-107939479D01*
X143091785Y-107860423D01*
X143053602Y-107850192D01*
X142939057Y-107819500D01*
X142780943Y-107819500D01*
X142689306Y-107844053D01*
X142628214Y-107860423D01*
X142491285Y-107939479D01*
X142491279Y-107939483D01*
X142379483Y-108051279D01*
X142379480Y-108051284D01*
X142300423Y-108188214D01*
X142279961Y-108264579D01*
X142259500Y-108340943D01*
X135794964Y-108340943D01*
X135500929Y-107821899D01*
X135499190Y-107818644D01*
X135269757Y-107362840D01*
X135136583Y-107098270D01*
X135135007Y-107094936D01*
X135102019Y-107020518D01*
X135102018Y-107020517D01*
X135090145Y-106993733D01*
X136257965Y-106993733D01*
X136257965Y-107131724D01*
X136284885Y-107267058D01*
X136284886Y-107267060D01*
X136315919Y-107341981D01*
X136337690Y-107394540D01*
X136414351Y-107509272D01*
X136414352Y-107509273D01*
X136414355Y-107509277D01*
X136511916Y-107606838D01*
X136511919Y-107606840D01*
X136511922Y-107606843D01*
X136626654Y-107683504D01*
X136754137Y-107736309D01*
X136835629Y-107752519D01*
X136889469Y-107763229D01*
X136889471Y-107763229D01*
X137027461Y-107763229D01*
X137072367Y-107754295D01*
X137162793Y-107736309D01*
X137290276Y-107683504D01*
X137405008Y-107606843D01*
X137517143Y-107494708D01*
X137590909Y-107420943D01*
X139259500Y-107420943D01*
X139259500Y-107579057D01*
X139290192Y-107693602D01*
X139300423Y-107731785D01*
X139379479Y-107868714D01*
X139379483Y-107868720D01*
X139491279Y-107980516D01*
X139491282Y-107980518D01*
X139491284Y-107980520D01*
X139628216Y-108059577D01*
X139780943Y-108100500D01*
X139780946Y-108100500D01*
X139939054Y-108100500D01*
X139939057Y-108100500D01*
X140091784Y-108059577D01*
X140228716Y-107980520D01*
X140340520Y-107868716D01*
X140419577Y-107731784D01*
X140460500Y-107579057D01*
X140460500Y-107494708D01*
X153055735Y-107494708D01*
X153055735Y-107652822D01*
X153075267Y-107725716D01*
X153096658Y-107805550D01*
X153114189Y-107835914D01*
X153173982Y-107939480D01*
X153175714Y-107942479D01*
X153175718Y-107942485D01*
X153287514Y-108054281D01*
X153287517Y-108054283D01*
X153287519Y-108054285D01*
X153424451Y-108133342D01*
X153577178Y-108174265D01*
X153577181Y-108174265D01*
X153735289Y-108174265D01*
X153735292Y-108174265D01*
X153888019Y-108133342D01*
X154024951Y-108054285D01*
X154136755Y-107942481D01*
X154173727Y-107878443D01*
X162549500Y-107878443D01*
X162549500Y-108036557D01*
X162580192Y-108151102D01*
X162590423Y-108189285D01*
X162669479Y-108326214D01*
X162669483Y-108326220D01*
X162781279Y-108438016D01*
X162781282Y-108438018D01*
X162781284Y-108438020D01*
X162918216Y-108517077D01*
X163070943Y-108558000D01*
X163070946Y-108558000D01*
X163229054Y-108558000D01*
X163229057Y-108558000D01*
X163381784Y-108517077D01*
X163518716Y-108438020D01*
X163630520Y-108326216D01*
X163709577Y-108189284D01*
X163750500Y-108036557D01*
X163750500Y-107878443D01*
X163709577Y-107725716D01*
X163630520Y-107588784D01*
X163630518Y-107588782D01*
X163630516Y-107588779D01*
X163518720Y-107476983D01*
X163518714Y-107476979D01*
X163381785Y-107397923D01*
X163343602Y-107387692D01*
X163229057Y-107357000D01*
X163070943Y-107357000D01*
X162979306Y-107381553D01*
X162918214Y-107397923D01*
X162781285Y-107476979D01*
X162781279Y-107476983D01*
X162669483Y-107588779D01*
X162669479Y-107588785D01*
X162590423Y-107725714D01*
X162580371Y-107763229D01*
X162549500Y-107878443D01*
X154173727Y-107878443D01*
X154215812Y-107805549D01*
X154256735Y-107652822D01*
X154256735Y-107494708D01*
X154215812Y-107341981D01*
X154136755Y-107205049D01*
X154136753Y-107205047D01*
X154136751Y-107205044D01*
X154024955Y-107093248D01*
X154024949Y-107093244D01*
X154010692Y-107085013D01*
X153996013Y-107076538D01*
X153888020Y-107014188D01*
X153849837Y-107003957D01*
X153735292Y-106973265D01*
X153577178Y-106973265D01*
X153500783Y-106993735D01*
X153424449Y-107014188D01*
X153287520Y-107093244D01*
X153287514Y-107093248D01*
X153175718Y-107205044D01*
X153175714Y-107205050D01*
X153096658Y-107341979D01*
X153082575Y-107394538D01*
X153055735Y-107494708D01*
X140460500Y-107494708D01*
X140460500Y-107420943D01*
X140419577Y-107268216D01*
X140418908Y-107267058D01*
X140383105Y-107205044D01*
X140340520Y-107131284D01*
X140340518Y-107131282D01*
X140340516Y-107131279D01*
X140228720Y-107019483D01*
X140228714Y-107019479D01*
X140091785Y-106940423D01*
X140036150Y-106925516D01*
X139939057Y-106899500D01*
X139780943Y-106899500D01*
X139697778Y-106921784D01*
X139628214Y-106940423D01*
X139491285Y-107019479D01*
X139491279Y-107019483D01*
X139379483Y-107131279D01*
X139379479Y-107131285D01*
X139300423Y-107268214D01*
X139294452Y-107290500D01*
X139259500Y-107420943D01*
X137590909Y-107420943D01*
X137649012Y-107362840D01*
X137926837Y-107085014D01*
X137926838Y-107085013D01*
X137926843Y-107085008D01*
X138003504Y-106970276D01*
X138056309Y-106842793D01*
X138083229Y-106707459D01*
X138083229Y-106610943D01*
X141009500Y-106610943D01*
X141009500Y-106769057D01*
X141033439Y-106858397D01*
X141050423Y-106921785D01*
X141129479Y-107058714D01*
X141129483Y-107058720D01*
X141241279Y-107170516D01*
X141241282Y-107170518D01*
X141241284Y-107170520D01*
X141378216Y-107249577D01*
X141530943Y-107290500D01*
X141530946Y-107290500D01*
X141689054Y-107290500D01*
X141689057Y-107290500D01*
X141841784Y-107249577D01*
X141978716Y-107170520D01*
X142090520Y-107058716D01*
X142169577Y-106921784D01*
X142210500Y-106769057D01*
X142210500Y-106610943D01*
X142169577Y-106458216D01*
X142116304Y-106365943D01*
X150833093Y-106365943D01*
X150833093Y-106524057D01*
X150845262Y-106569471D01*
X150874016Y-106676785D01*
X150953072Y-106813714D01*
X150953076Y-106813720D01*
X151064872Y-106925516D01*
X151064875Y-106925518D01*
X151064877Y-106925520D01*
X151201809Y-107004577D01*
X151354536Y-107045500D01*
X151354539Y-107045500D01*
X151512647Y-107045500D01*
X151512650Y-107045500D01*
X151665377Y-107004577D01*
X151802309Y-106925520D01*
X151914113Y-106813716D01*
X151993170Y-106676784D01*
X152034093Y-106524057D01*
X152034093Y-106365943D01*
X151993170Y-106213216D01*
X151991012Y-106209479D01*
X151927562Y-106099579D01*
X151914113Y-106076284D01*
X151914111Y-106076282D01*
X151914109Y-106076279D01*
X151802313Y-105964483D01*
X151802307Y-105964479D01*
X151665378Y-105885423D01*
X151627195Y-105875192D01*
X151512650Y-105844500D01*
X151354536Y-105844500D01*
X151262899Y-105869053D01*
X151201807Y-105885423D01*
X151064878Y-105964479D01*
X151064872Y-105964483D01*
X150953076Y-106076279D01*
X150953072Y-106076285D01*
X150874016Y-106213214D01*
X150853554Y-106289579D01*
X150833093Y-106365943D01*
X142116304Y-106365943D01*
X142090520Y-106321284D01*
X142090518Y-106321282D01*
X142090516Y-106321279D01*
X141978720Y-106209483D01*
X141978714Y-106209479D01*
X141977399Y-106208720D01*
X141859242Y-106140502D01*
X141841785Y-106130423D01*
X141803602Y-106120192D01*
X141689057Y-106089500D01*
X141530943Y-106089500D01*
X141439306Y-106114053D01*
X141378214Y-106130423D01*
X141241285Y-106209479D01*
X141241279Y-106209483D01*
X141129483Y-106321279D01*
X141129479Y-106321285D01*
X141050423Y-106458214D01*
X141032782Y-106524054D01*
X141009500Y-106610943D01*
X138083229Y-106610943D01*
X138083229Y-106569471D01*
X138074195Y-106524057D01*
X138072519Y-106515629D01*
X138056309Y-106434137D01*
X138003504Y-106306654D01*
X137926843Y-106191922D01*
X137926840Y-106191919D01*
X137926838Y-106191916D01*
X137829277Y-106094355D01*
X137829273Y-106094352D01*
X137829272Y-106094351D01*
X137714540Y-106017690D01*
X137714538Y-106017689D01*
X137587060Y-105964886D01*
X137587058Y-105964885D01*
X137451725Y-105937965D01*
X137451723Y-105937965D01*
X137313735Y-105937965D01*
X137313733Y-105937965D01*
X137178399Y-105964885D01*
X137178397Y-105964886D01*
X137050919Y-106017689D01*
X136936180Y-106094355D01*
X136414355Y-106616180D01*
X136337689Y-106730919D01*
X136284886Y-106858397D01*
X136284885Y-106858399D01*
X136257965Y-106993733D01*
X135090145Y-106993733D01*
X134808161Y-106357585D01*
X134806753Y-106354184D01*
X134516493Y-105601715D01*
X134515262Y-105598276D01*
X134262256Y-104832414D01*
X134261191Y-104828900D01*
X134255843Y-104809576D01*
X134091247Y-104214804D01*
X139036894Y-104214804D01*
X139036894Y-104352795D01*
X139063814Y-104488129D01*
X139063815Y-104488131D01*
X139110358Y-104600495D01*
X139116619Y-104615611D01*
X139193280Y-104730343D01*
X139193281Y-104730344D01*
X139193284Y-104730348D01*
X139290845Y-104827909D01*
X139290848Y-104827911D01*
X139290851Y-104827914D01*
X139405583Y-104904575D01*
X139533066Y-104957380D01*
X139614558Y-104973590D01*
X139668398Y-104984300D01*
X139668400Y-104984300D01*
X139806390Y-104984300D01*
X139851296Y-104975366D01*
X139941722Y-104957380D01*
X140069205Y-104904575D01*
X140111323Y-104876432D01*
X140161287Y-104864206D01*
X140207422Y-104886957D01*
X140228140Y-104934040D01*
X140222577Y-104967737D01*
X140177836Y-105075751D01*
X140177835Y-105075752D01*
X140153613Y-105197527D01*
X140153613Y-105321686D01*
X140177835Y-105443461D01*
X140177836Y-105443462D01*
X140225348Y-105558166D01*
X140294327Y-105661400D01*
X140294329Y-105661402D01*
X140294331Y-105661405D01*
X140382114Y-105749188D01*
X140382117Y-105749190D01*
X140382120Y-105749193D01*
X140485354Y-105818172D01*
X140600057Y-105865683D01*
X140600058Y-105865684D01*
X140600059Y-105865684D01*
X140600061Y-105865685D01*
X140681608Y-105881905D01*
X140721833Y-105889907D01*
X140721834Y-105889907D01*
X140845993Y-105889907D01*
X140876229Y-105883892D01*
X140967765Y-105865685D01*
X141082472Y-105818172D01*
X141185706Y-105749193D01*
X141273499Y-105661400D01*
X141342478Y-105558166D01*
X141389991Y-105443459D01*
X141414213Y-105321686D01*
X141414213Y-105197528D01*
X141389991Y-105075755D01*
X141342478Y-104961048D01*
X141273499Y-104857814D01*
X141273496Y-104857811D01*
X141273494Y-104857808D01*
X141185711Y-104770025D01*
X141185708Y-104770023D01*
X141185706Y-104770021D01*
X141082472Y-104701042D01*
X140984643Y-104660520D01*
X140967768Y-104653530D01*
X140967767Y-104653529D01*
X140845993Y-104629307D01*
X140845992Y-104629307D01*
X140721834Y-104629307D01*
X140721833Y-104629307D01*
X140600058Y-104653529D01*
X140600053Y-104653531D01*
X140536665Y-104679787D01*
X140485274Y-104682030D01*
X140444465Y-104650715D01*
X140433331Y-104600495D01*
X140454714Y-104557137D01*
X140550909Y-104460942D01*
X146641100Y-104460942D01*
X146641100Y-104619056D01*
X146657373Y-104679787D01*
X146682023Y-104771784D01*
X146761079Y-104908713D01*
X146761083Y-104908719D01*
X146839190Y-104986826D01*
X146860930Y-105033446D01*
X146847616Y-105083133D01*
X146839191Y-105093174D01*
X146761080Y-105171285D01*
X146761079Y-105171287D01*
X146682023Y-105308216D01*
X146661561Y-105384581D01*
X146641100Y-105460945D01*
X146641100Y-105619059D01*
X146652446Y-105661402D01*
X146682023Y-105771787D01*
X146761079Y-105908716D01*
X146761083Y-105908722D01*
X146872879Y-106020518D01*
X146872882Y-106020520D01*
X146872884Y-106020522D01*
X146961673Y-106071784D01*
X147000767Y-106094355D01*
X147009816Y-106099579D01*
X147162543Y-106140502D01*
X147162546Y-106140502D01*
X147320654Y-106140502D01*
X147320657Y-106140502D01*
X147473384Y-106099579D01*
X147610316Y-106020522D01*
X147722120Y-105908718D01*
X147801177Y-105771786D01*
X147804082Y-105760943D01*
X154389500Y-105760943D01*
X154389500Y-105919057D01*
X154420192Y-106033602D01*
X154430423Y-106071785D01*
X154509479Y-106208714D01*
X154509483Y-106208720D01*
X154621279Y-106320516D01*
X154621282Y-106320518D01*
X154621284Y-106320520D01*
X154758216Y-106399577D01*
X154910943Y-106440500D01*
X154910946Y-106440500D01*
X155069054Y-106440500D01*
X155069057Y-106440500D01*
X155221784Y-106399577D01*
X155358716Y-106320520D01*
X155470520Y-106208716D01*
X155549577Y-106071784D01*
X155590500Y-105919057D01*
X155590500Y-105760943D01*
X155549577Y-105608216D01*
X155470520Y-105471284D01*
X155470518Y-105471282D01*
X155470516Y-105471279D01*
X155358720Y-105359483D01*
X155358714Y-105359479D01*
X155221785Y-105280423D01*
X155183602Y-105270192D01*
X155069057Y-105239500D01*
X154910943Y-105239500D01*
X154819306Y-105264053D01*
X154758214Y-105280423D01*
X154621285Y-105359479D01*
X154621279Y-105359483D01*
X154509483Y-105471279D01*
X154509479Y-105471285D01*
X154430423Y-105608214D01*
X154416172Y-105661400D01*
X154389500Y-105760943D01*
X147804082Y-105760943D01*
X147842100Y-105619059D01*
X147842100Y-105460945D01*
X147801177Y-105308218D01*
X147722120Y-105171286D01*
X147722118Y-105171284D01*
X147722116Y-105171281D01*
X147644009Y-105093174D01*
X147622269Y-105046554D01*
X147635583Y-104996867D01*
X147644003Y-104986831D01*
X147722120Y-104908715D01*
X147801177Y-104771783D01*
X147842100Y-104619056D01*
X147842100Y-104460942D01*
X147801177Y-104308215D01*
X147722120Y-104171283D01*
X147722118Y-104171281D01*
X147722116Y-104171278D01*
X147610320Y-104059482D01*
X147610314Y-104059478D01*
X147543909Y-104021139D01*
X147473386Y-103980422D01*
X147412293Y-103964052D01*
X147400690Y-103960943D01*
X152269500Y-103960943D01*
X152269500Y-104119057D01*
X152295155Y-104214804D01*
X152310423Y-104271785D01*
X152389479Y-104408714D01*
X152389483Y-104408720D01*
X152501279Y-104520516D01*
X152501282Y-104520518D01*
X152501284Y-104520520D01*
X152638216Y-104599577D01*
X152790943Y-104640500D01*
X152790946Y-104640500D01*
X152949054Y-104640500D01*
X152949057Y-104640500D01*
X153101784Y-104599577D01*
X153238716Y-104520520D01*
X153350520Y-104408716D01*
X153429577Y-104271784D01*
X153456597Y-104170943D01*
X160599500Y-104170943D01*
X160599500Y-104329057D01*
X160605861Y-104352795D01*
X160640423Y-104481785D01*
X160719479Y-104618714D01*
X160719483Y-104618720D01*
X160831279Y-104730516D01*
X160831282Y-104730518D01*
X160831284Y-104730520D01*
X160968216Y-104809577D01*
X161120943Y-104850500D01*
X161120946Y-104850500D01*
X161279054Y-104850500D01*
X161279057Y-104850500D01*
X161431784Y-104809577D01*
X161568716Y-104730520D01*
X161680520Y-104618716D01*
X161759577Y-104481784D01*
X161800500Y-104329057D01*
X161800500Y-104170943D01*
X161781744Y-104100943D01*
X163109500Y-104100943D01*
X163109500Y-104259057D01*
X163134617Y-104352794D01*
X163150423Y-104411785D01*
X163229479Y-104548714D01*
X163229483Y-104548720D01*
X163341279Y-104660516D01*
X163341282Y-104660518D01*
X163341284Y-104660520D01*
X163478216Y-104739577D01*
X163630943Y-104780500D01*
X163630946Y-104780500D01*
X163789054Y-104780500D01*
X163789057Y-104780500D01*
X163941784Y-104739577D01*
X164078716Y-104660520D01*
X164190520Y-104548716D01*
X164269577Y-104411784D01*
X164310500Y-104259057D01*
X164310500Y-104100943D01*
X164269577Y-103948216D01*
X164190520Y-103811284D01*
X164190518Y-103811282D01*
X164190516Y-103811279D01*
X164078720Y-103699483D01*
X164078714Y-103699479D01*
X163941785Y-103620423D01*
X163903602Y-103610192D01*
X163789057Y-103579500D01*
X163630943Y-103579500D01*
X163539306Y-103604053D01*
X163478214Y-103620423D01*
X163341285Y-103699479D01*
X163341279Y-103699483D01*
X163229483Y-103811279D01*
X163229479Y-103811285D01*
X163150423Y-103948214D01*
X163147012Y-103960945D01*
X163109500Y-104100943D01*
X161781744Y-104100943D01*
X161759577Y-104018216D01*
X161759576Y-104018214D01*
X161759576Y-104018213D01*
X161714130Y-103939499D01*
X161680520Y-103881284D01*
X161680518Y-103881282D01*
X161680516Y-103881279D01*
X161568720Y-103769483D01*
X161568714Y-103769479D01*
X161431785Y-103690423D01*
X161393602Y-103680192D01*
X161279057Y-103649500D01*
X161120943Y-103649500D01*
X161039663Y-103671279D01*
X160968214Y-103690423D01*
X160831285Y-103769479D01*
X160831279Y-103769483D01*
X160719483Y-103881279D01*
X160719479Y-103881285D01*
X160640423Y-104018214D01*
X160619961Y-104094579D01*
X160599500Y-104170943D01*
X153456597Y-104170943D01*
X153470500Y-104119057D01*
X153470500Y-103960943D01*
X153429577Y-103808216D01*
X153350520Y-103671284D01*
X153350518Y-103671282D01*
X153350516Y-103671279D01*
X153238720Y-103559483D01*
X153238714Y-103559479D01*
X153101785Y-103480423D01*
X153063602Y-103470192D01*
X152949057Y-103439500D01*
X152790943Y-103439500D01*
X152707778Y-103461784D01*
X152638214Y-103480423D01*
X152501285Y-103559479D01*
X152501279Y-103559483D01*
X152389483Y-103671279D01*
X152389479Y-103671285D01*
X152310423Y-103808214D01*
X152302498Y-103837791D01*
X152269500Y-103960943D01*
X147400690Y-103960943D01*
X147320657Y-103939499D01*
X147162543Y-103939499D01*
X147070906Y-103964052D01*
X147009814Y-103980422D01*
X146872885Y-104059478D01*
X146872879Y-104059482D01*
X146761083Y-104171278D01*
X146761079Y-104171284D01*
X146682023Y-104308213D01*
X146676439Y-104329054D01*
X146641100Y-104460942D01*
X140550909Y-104460942D01*
X141059321Y-103952530D01*
X141059326Y-103952525D01*
X141135987Y-103837793D01*
X141188792Y-103710310D01*
X141215712Y-103574976D01*
X141215712Y-103436988D01*
X141188792Y-103301653D01*
X141135987Y-103174171D01*
X141120467Y-103150943D01*
X149379500Y-103150943D01*
X149379500Y-103309057D01*
X149410192Y-103423602D01*
X149420423Y-103461785D01*
X149499479Y-103598714D01*
X149499483Y-103598720D01*
X149611279Y-103710516D01*
X149611282Y-103710518D01*
X149611284Y-103710520D01*
X149748216Y-103789577D01*
X149900943Y-103830500D01*
X149900946Y-103830500D01*
X150059054Y-103830500D01*
X150059057Y-103830500D01*
X150211784Y-103789577D01*
X150348716Y-103710520D01*
X150460520Y-103598716D01*
X150539577Y-103461784D01*
X150580500Y-103309057D01*
X150580500Y-103150943D01*
X155349500Y-103150943D01*
X155349500Y-103309057D01*
X155380192Y-103423602D01*
X155390423Y-103461785D01*
X155469479Y-103598714D01*
X155469483Y-103598720D01*
X155581279Y-103710516D01*
X155581282Y-103710518D01*
X155581284Y-103710520D01*
X155718216Y-103789577D01*
X155870943Y-103830500D01*
X155870946Y-103830500D01*
X156029054Y-103830500D01*
X156029057Y-103830500D01*
X156181784Y-103789577D01*
X156318716Y-103710520D01*
X156430520Y-103598716D01*
X156509577Y-103461784D01*
X156550500Y-103309057D01*
X156550500Y-103150943D01*
X156509577Y-102998216D01*
X156430520Y-102861284D01*
X156430518Y-102861282D01*
X156430516Y-102861279D01*
X156318720Y-102749483D01*
X156318714Y-102749479D01*
X156181785Y-102670423D01*
X156143602Y-102660192D01*
X156029057Y-102629500D01*
X155870943Y-102629500D01*
X155779306Y-102654053D01*
X155718214Y-102670423D01*
X155581285Y-102749479D01*
X155581279Y-102749483D01*
X155469483Y-102861279D01*
X155469479Y-102861285D01*
X155390423Y-102998214D01*
X155374020Y-103059433D01*
X155349500Y-103150943D01*
X150580500Y-103150943D01*
X150539577Y-102998216D01*
X150460520Y-102861284D01*
X150460518Y-102861282D01*
X150460516Y-102861279D01*
X150348720Y-102749483D01*
X150348714Y-102749479D01*
X150211785Y-102670423D01*
X150173602Y-102660192D01*
X150059057Y-102629500D01*
X149900943Y-102629500D01*
X149809306Y-102654053D01*
X149748214Y-102670423D01*
X149611285Y-102749479D01*
X149611279Y-102749483D01*
X149499483Y-102861279D01*
X149499479Y-102861285D01*
X149420423Y-102998214D01*
X149404020Y-103059433D01*
X149379500Y-103150943D01*
X141120467Y-103150943D01*
X141059326Y-103059439D01*
X141059323Y-103059436D01*
X141059321Y-103059433D01*
X140961760Y-102961872D01*
X140961756Y-102961869D01*
X140961755Y-102961868D01*
X140847023Y-102885207D01*
X140719541Y-102832402D01*
X140719538Y-102832401D01*
X140719537Y-102832401D01*
X140584208Y-102805482D01*
X140584206Y-102805482D01*
X140446218Y-102805482D01*
X140446216Y-102805482D01*
X140310882Y-102832402D01*
X140310880Y-102832403D01*
X140183402Y-102885206D01*
X140068663Y-102961872D01*
X139193284Y-103837251D01*
X139116618Y-103951990D01*
X139063815Y-104079468D01*
X139063814Y-104079470D01*
X139036894Y-104214804D01*
X134091247Y-104214804D01*
X134046082Y-104051597D01*
X134045189Y-104048029D01*
X134030007Y-103980422D01*
X133868481Y-103261111D01*
X133867761Y-103257491D01*
X133853304Y-103174174D01*
X133729872Y-102462820D01*
X133729338Y-102459213D01*
X133630609Y-101658741D01*
X133630249Y-101655087D01*
X133626993Y-101610943D01*
X147489500Y-101610943D01*
X147489500Y-101769057D01*
X147520192Y-101883602D01*
X147530423Y-101921785D01*
X147609479Y-102058714D01*
X147609483Y-102058720D01*
X147721279Y-102170516D01*
X147721282Y-102170518D01*
X147721284Y-102170520D01*
X147858216Y-102249577D01*
X148010943Y-102290500D01*
X148010946Y-102290500D01*
X148169054Y-102290500D01*
X148169057Y-102290500D01*
X148321784Y-102249577D01*
X148458716Y-102170520D01*
X148570520Y-102058716D01*
X148649577Y-101921784D01*
X148690500Y-101769057D01*
X148690500Y-101610943D01*
X148649577Y-101458216D01*
X148642347Y-101445694D01*
X148587397Y-101350516D01*
X148570520Y-101321284D01*
X148570518Y-101321282D01*
X148570516Y-101321279D01*
X148458720Y-101209483D01*
X148458714Y-101209479D01*
X148321785Y-101130423D01*
X148283602Y-101120192D01*
X148169057Y-101089500D01*
X148010943Y-101089500D01*
X147919306Y-101114053D01*
X147858214Y-101130423D01*
X147721285Y-101209479D01*
X147721279Y-101209483D01*
X147609483Y-101321279D01*
X147609479Y-101321285D01*
X147530423Y-101458214D01*
X147509961Y-101534579D01*
X147489500Y-101610943D01*
X133626993Y-101610943D01*
X133570915Y-100850728D01*
X133570737Y-100847089D01*
X133562755Y-100521940D01*
X133579157Y-100473188D01*
X133623060Y-100446382D01*
X133673922Y-100454069D01*
X133707944Y-100492651D01*
X133709451Y-100496859D01*
X133747657Y-100614447D01*
X133848080Y-100811538D01*
X133978099Y-100990492D01*
X133978106Y-100990500D01*
X134134499Y-101146893D01*
X134134507Y-101146900D01*
X134134509Y-101146902D01*
X134220639Y-101209479D01*
X134313461Y-101276919D01*
X134313463Y-101276920D01*
X134510552Y-101377342D01*
X134720925Y-101445696D01*
X134939401Y-101480300D01*
X134939405Y-101480300D01*
X135160595Y-101480300D01*
X135160599Y-101480300D01*
X135379075Y-101445696D01*
X135589448Y-101377342D01*
X135786537Y-101276920D01*
X135965491Y-101146902D01*
X136121902Y-100990491D01*
X136251920Y-100811537D01*
X136262413Y-100790943D01*
X137870790Y-100790943D01*
X137870790Y-100949057D01*
X137881895Y-100990500D01*
X137911713Y-101101785D01*
X137990769Y-101238714D01*
X137990773Y-101238720D01*
X138102569Y-101350516D01*
X138102572Y-101350518D01*
X138102574Y-101350520D01*
X138239506Y-101429577D01*
X138392233Y-101470500D01*
X138392236Y-101470500D01*
X138550344Y-101470500D01*
X138550347Y-101470500D01*
X138703074Y-101429577D01*
X138840006Y-101350520D01*
X138951810Y-101238716D01*
X139030867Y-101101784D01*
X139071790Y-100949057D01*
X139071790Y-100790943D01*
X139030867Y-100638216D01*
X138951810Y-100501284D01*
X138951808Y-100501282D01*
X138951806Y-100501279D01*
X138840010Y-100389483D01*
X138840004Y-100389479D01*
X138703075Y-100310423D01*
X138664892Y-100300192D01*
X138550347Y-100269500D01*
X138392233Y-100269500D01*
X138300596Y-100294053D01*
X138239504Y-100310423D01*
X138102575Y-100389479D01*
X138102569Y-100389483D01*
X137990773Y-100501279D01*
X137990769Y-100501285D01*
X137911713Y-100638214D01*
X137900995Y-100678216D01*
X137870790Y-100790943D01*
X136262413Y-100790943D01*
X136270688Y-100774701D01*
X136282321Y-100751873D01*
X136325517Y-100667095D01*
X136352342Y-100614448D01*
X136420696Y-100404075D01*
X136455300Y-100185599D01*
X136455300Y-99971751D01*
X149230536Y-99971751D01*
X149230536Y-100128248D01*
X149261067Y-100281738D01*
X149261068Y-100281740D01*
X149320956Y-100426322D01*
X149407896Y-100556437D01*
X149407904Y-100556446D01*
X149518553Y-100667095D01*
X149518562Y-100667103D01*
X149645429Y-100751873D01*
X149648680Y-100754045D01*
X149793263Y-100813933D01*
X149878778Y-100830943D01*
X149946751Y-100844464D01*
X149946752Y-100844464D01*
X150103249Y-100844464D01*
X150133780Y-100838390D01*
X150171220Y-100830943D01*
X160469500Y-100830943D01*
X160469500Y-100989057D01*
X160469885Y-100990492D01*
X160510423Y-101141785D01*
X160589479Y-101278714D01*
X160589483Y-101278720D01*
X160701279Y-101390516D01*
X160701282Y-101390518D01*
X160701284Y-101390520D01*
X160796849Y-101445694D01*
X160818534Y-101458214D01*
X160838216Y-101469577D01*
X160990943Y-101510500D01*
X160990946Y-101510500D01*
X161149054Y-101510500D01*
X161149057Y-101510500D01*
X161301784Y-101469577D01*
X161438716Y-101390520D01*
X161550520Y-101278716D01*
X161629577Y-101141784D01*
X161670500Y-100989057D01*
X161670500Y-100830943D01*
X161629577Y-100678216D01*
X161550520Y-100541284D01*
X161550518Y-100541282D01*
X161550516Y-100541279D01*
X161438720Y-100429483D01*
X161438714Y-100429479D01*
X161433242Y-100426320D01*
X161369439Y-100389483D01*
X161301785Y-100350423D01*
X161263602Y-100340192D01*
X161149057Y-100309500D01*
X160990943Y-100309500D01*
X160899306Y-100334053D01*
X160838214Y-100350423D01*
X160701285Y-100429479D01*
X160701279Y-100429483D01*
X160589483Y-100541279D01*
X160589479Y-100541285D01*
X160510423Y-100678214D01*
X160490687Y-100751873D01*
X160469500Y-100830943D01*
X150171220Y-100830943D01*
X150256737Y-100813933D01*
X150401320Y-100754045D01*
X150531441Y-100667100D01*
X150642100Y-100556441D01*
X150729045Y-100426320D01*
X150788933Y-100281737D01*
X150819464Y-100128248D01*
X150819464Y-99971752D01*
X150818001Y-99964398D01*
X163594700Y-99964398D01*
X163594700Y-100185601D01*
X163629302Y-100404067D01*
X163629305Y-100404079D01*
X163697657Y-100614447D01*
X163798080Y-100811538D01*
X163928099Y-100990492D01*
X163928106Y-100990500D01*
X164084499Y-101146893D01*
X164084507Y-101146900D01*
X164084509Y-101146902D01*
X164170639Y-101209479D01*
X164263461Y-101276919D01*
X164263463Y-101276920D01*
X164460552Y-101377342D01*
X164670925Y-101445696D01*
X164889401Y-101480300D01*
X164889405Y-101480300D01*
X165110595Y-101480300D01*
X165110599Y-101480300D01*
X165329075Y-101445696D01*
X165539448Y-101377342D01*
X165736537Y-101276920D01*
X165915491Y-101146902D01*
X166071902Y-100990491D01*
X166201920Y-100811537D01*
X166302342Y-100614448D01*
X166370696Y-100404075D01*
X166405300Y-100185599D01*
X166405300Y-99964401D01*
X166370696Y-99745925D01*
X166302342Y-99535552D01*
X166201920Y-99338463D01*
X166195928Y-99330216D01*
X166107901Y-99209057D01*
X166071902Y-99159509D01*
X166071900Y-99159507D01*
X166071893Y-99159499D01*
X165915500Y-99003106D01*
X165915492Y-99003099D01*
X165912995Y-99001285D01*
X165771134Y-98898216D01*
X165736538Y-98873080D01*
X165539447Y-98772657D01*
X165329079Y-98704305D01*
X165329067Y-98704302D01*
X165110601Y-98669700D01*
X165110599Y-98669700D01*
X164889401Y-98669700D01*
X164889398Y-98669700D01*
X164670932Y-98704302D01*
X164670920Y-98704305D01*
X164460552Y-98772657D01*
X164263461Y-98873080D01*
X164084507Y-99003099D01*
X164084499Y-99003106D01*
X163928106Y-99159499D01*
X163928099Y-99159507D01*
X163798080Y-99338461D01*
X163697657Y-99535552D01*
X163629305Y-99745920D01*
X163629302Y-99745932D01*
X163594700Y-99964398D01*
X150818001Y-99964398D01*
X150788933Y-99818263D01*
X150729045Y-99673680D01*
X150729043Y-99673677D01*
X150642103Y-99543562D01*
X150642095Y-99543553D01*
X150531446Y-99432904D01*
X150531437Y-99432896D01*
X150401322Y-99345956D01*
X150383232Y-99338463D01*
X150268509Y-99290943D01*
X150256740Y-99286068D01*
X150256738Y-99286067D01*
X150103249Y-99255536D01*
X150103248Y-99255536D01*
X149946752Y-99255536D01*
X149946751Y-99255536D01*
X149793261Y-99286067D01*
X149793259Y-99286068D01*
X149648677Y-99345956D01*
X149518562Y-99432896D01*
X149518553Y-99432904D01*
X149407904Y-99543553D01*
X149407896Y-99543562D01*
X149320956Y-99673677D01*
X149261068Y-99818259D01*
X149261067Y-99818261D01*
X149230536Y-99971751D01*
X136455300Y-99971751D01*
X136455300Y-99964401D01*
X136420696Y-99745925D01*
X136352342Y-99535552D01*
X136251920Y-99338463D01*
X136217395Y-99290943D01*
X137660382Y-99290943D01*
X137660382Y-99449057D01*
X137691074Y-99563602D01*
X137701305Y-99601785D01*
X137780361Y-99738714D01*
X137780365Y-99738720D01*
X137892161Y-99850516D01*
X137892164Y-99850518D01*
X137892166Y-99850520D01*
X138029098Y-99929577D01*
X138181825Y-99970500D01*
X138181828Y-99970500D01*
X138339936Y-99970500D01*
X138339939Y-99970500D01*
X138492666Y-99929577D01*
X138492668Y-99929576D01*
X138538816Y-99902933D01*
X138565072Y-99887773D01*
X138629598Y-99850520D01*
X138741402Y-99738716D01*
X138820459Y-99601784D01*
X138861382Y-99449057D01*
X138861382Y-99290943D01*
X138820459Y-99138216D01*
X138770072Y-99050943D01*
X152539500Y-99050943D01*
X152539500Y-99209057D01*
X152544349Y-99227153D01*
X152580423Y-99361785D01*
X152659479Y-99498714D01*
X152659483Y-99498720D01*
X152771279Y-99610516D01*
X152771282Y-99610518D01*
X152771284Y-99610520D01*
X152908216Y-99689577D01*
X153060943Y-99730500D01*
X153060946Y-99730500D01*
X153219054Y-99730500D01*
X153219057Y-99730500D01*
X153371784Y-99689577D01*
X153508716Y-99610520D01*
X153620520Y-99498716D01*
X153699577Y-99361784D01*
X153740500Y-99209057D01*
X153740500Y-99050943D01*
X153699577Y-98898216D01*
X153620520Y-98761284D01*
X153620518Y-98761282D01*
X153620516Y-98761279D01*
X153600756Y-98741519D01*
X153579016Y-98694899D01*
X153592330Y-98645212D01*
X153616331Y-98623220D01*
X153626316Y-98617456D01*
X153738120Y-98505652D01*
X153817177Y-98368720D01*
X153858100Y-98215993D01*
X153858100Y-98057879D01*
X153817177Y-97905152D01*
X153751239Y-97790943D01*
X153738123Y-97768224D01*
X153738116Y-97768215D01*
X153730844Y-97760943D01*
X162599500Y-97760943D01*
X162599500Y-97919057D01*
X162620671Y-97998068D01*
X162640423Y-98071785D01*
X162719479Y-98208714D01*
X162719483Y-98208720D01*
X162831279Y-98320516D01*
X162831282Y-98320518D01*
X162831284Y-98320520D01*
X162968216Y-98399577D01*
X163120943Y-98440500D01*
X163120946Y-98440500D01*
X163279054Y-98440500D01*
X163279057Y-98440500D01*
X163431784Y-98399577D01*
X163568716Y-98320520D01*
X163680520Y-98208716D01*
X163759577Y-98071784D01*
X163800500Y-97919057D01*
X163800500Y-97760943D01*
X163759577Y-97608216D01*
X163680520Y-97471284D01*
X163680518Y-97471282D01*
X163680516Y-97471279D01*
X163568720Y-97359483D01*
X163568714Y-97359479D01*
X163431785Y-97280423D01*
X163373295Y-97264751D01*
X163279057Y-97239500D01*
X163120943Y-97239500D01*
X163030250Y-97263801D01*
X162968214Y-97280423D01*
X162831285Y-97359479D01*
X162831279Y-97359483D01*
X162719483Y-97471279D01*
X162719479Y-97471285D01*
X162640423Y-97608214D01*
X162632137Y-97639138D01*
X162599500Y-97760943D01*
X153730844Y-97760943D01*
X153626320Y-97656419D01*
X153626314Y-97656415D01*
X153489385Y-97577359D01*
X153451202Y-97567128D01*
X153336657Y-97536436D01*
X153178543Y-97536436D01*
X153097259Y-97558216D01*
X153025814Y-97577359D01*
X152888885Y-97656415D01*
X152888879Y-97656419D01*
X152777083Y-97768215D01*
X152777079Y-97768221D01*
X152698023Y-97905150D01*
X152677561Y-97981515D01*
X152657100Y-98057879D01*
X152657100Y-98215993D01*
X152685107Y-98320516D01*
X152698023Y-98368721D01*
X152727149Y-98419168D01*
X152777080Y-98505652D01*
X152796842Y-98525414D01*
X152818583Y-98572033D01*
X152805270Y-98621721D01*
X152781273Y-98643712D01*
X152771285Y-98649479D01*
X152771279Y-98649483D01*
X152659483Y-98761279D01*
X152659479Y-98761285D01*
X152580423Y-98898214D01*
X152559961Y-98974579D01*
X152539500Y-99050943D01*
X138770072Y-99050943D01*
X138741402Y-99001284D01*
X138741400Y-99001282D01*
X138741398Y-99001279D01*
X138629602Y-98889483D01*
X138629596Y-98889479D01*
X138492667Y-98810423D01*
X138454484Y-98800192D01*
X138339939Y-98769500D01*
X138181825Y-98769500D01*
X138090188Y-98794053D01*
X138029096Y-98810423D01*
X137892167Y-98889479D01*
X137892161Y-98889483D01*
X137780365Y-99001279D01*
X137780361Y-99001285D01*
X137701305Y-99138214D01*
X137682324Y-99209054D01*
X137660382Y-99290943D01*
X136217395Y-99290943D01*
X136121902Y-99159509D01*
X136121900Y-99159507D01*
X136121893Y-99159499D01*
X135965500Y-99003106D01*
X135965492Y-99003099D01*
X135962995Y-99001285D01*
X135821134Y-98898216D01*
X135786538Y-98873080D01*
X135589447Y-98772657D01*
X135379079Y-98704305D01*
X135379067Y-98704302D01*
X135160601Y-98669700D01*
X135160599Y-98669700D01*
X134939401Y-98669700D01*
X134939398Y-98669700D01*
X134720932Y-98704302D01*
X134720920Y-98704305D01*
X134510552Y-98772657D01*
X134313461Y-98873080D01*
X134134507Y-99003099D01*
X134134499Y-99003106D01*
X133978106Y-99159499D01*
X133978099Y-99159507D01*
X133848080Y-99338461D01*
X133747657Y-99535552D01*
X133707537Y-99659032D01*
X133675868Y-99699567D01*
X133625552Y-99710262D01*
X133580134Y-99686113D01*
X133560864Y-99638419D01*
X133560841Y-99633949D01*
X133563060Y-99543553D01*
X133570737Y-99230814D01*
X133570915Y-99227179D01*
X133630251Y-98422795D01*
X133630608Y-98419168D01*
X133717960Y-97710943D01*
X136589500Y-97710943D01*
X136589500Y-97869057D01*
X136610935Y-97949054D01*
X136630423Y-98021785D01*
X136709479Y-98158714D01*
X136709483Y-98158720D01*
X136821279Y-98270516D01*
X136821282Y-98270518D01*
X136821284Y-98270520D01*
X136958216Y-98349577D01*
X137110943Y-98390500D01*
X137110946Y-98390500D01*
X137269054Y-98390500D01*
X137269057Y-98390500D01*
X137421784Y-98349577D01*
X137558716Y-98270520D01*
X137670520Y-98158716D01*
X137749577Y-98021784D01*
X137790500Y-97869057D01*
X137790500Y-97710943D01*
X137749577Y-97558216D01*
X137670520Y-97421284D01*
X137670518Y-97421282D01*
X137670516Y-97421279D01*
X137558720Y-97309483D01*
X137555725Y-97307185D01*
X137528086Y-97263801D01*
X137534799Y-97212801D01*
X137563903Y-97182399D01*
X137588716Y-97168074D01*
X137700520Y-97056270D01*
X137779577Y-96919338D01*
X137820500Y-96766611D01*
X137820500Y-96608497D01*
X137780963Y-96460943D01*
X140889500Y-96460943D01*
X140889500Y-96619057D01*
X140920192Y-96733602D01*
X140930423Y-96771785D01*
X141009479Y-96908714D01*
X141009483Y-96908720D01*
X141121279Y-97020516D01*
X141121282Y-97020518D01*
X141121284Y-97020520D01*
X141258216Y-97099577D01*
X141410943Y-97140500D01*
X141410946Y-97140500D01*
X141569054Y-97140500D01*
X141569057Y-97140500D01*
X141721784Y-97099577D01*
X141858716Y-97020520D01*
X141878293Y-97000943D01*
X146551520Y-97000943D01*
X146551520Y-97159057D01*
X146572586Y-97237676D01*
X146592443Y-97311785D01*
X146671499Y-97448714D01*
X146671503Y-97448720D01*
X146783299Y-97560516D01*
X146783302Y-97560518D01*
X146783304Y-97560520D01*
X146884051Y-97618686D01*
X146919482Y-97639142D01*
X146920236Y-97639577D01*
X147072963Y-97680500D01*
X147072966Y-97680500D01*
X147231074Y-97680500D01*
X147231077Y-97680500D01*
X147383804Y-97639577D01*
X147520736Y-97560520D01*
X147526248Y-97555007D01*
X147572866Y-97533266D01*
X147622554Y-97546576D01*
X147644548Y-97570578D01*
X147651300Y-97582272D01*
X147660313Y-97597884D01*
X147772112Y-97709683D01*
X147772115Y-97709685D01*
X147772117Y-97709687D01*
X147909049Y-97788744D01*
X148061776Y-97829667D01*
X148061779Y-97829667D01*
X148219887Y-97829667D01*
X148219890Y-97829667D01*
X148364410Y-97790943D01*
X150979500Y-97790943D01*
X150979500Y-97949057D01*
X151008659Y-98057879D01*
X151020423Y-98101785D01*
X151099479Y-98238714D01*
X151099483Y-98238720D01*
X151211279Y-98350516D01*
X151211282Y-98350518D01*
X151211284Y-98350520D01*
X151348216Y-98429577D01*
X151500943Y-98470500D01*
X151500946Y-98470500D01*
X151659054Y-98470500D01*
X151659057Y-98470500D01*
X151811784Y-98429577D01*
X151948716Y-98350520D01*
X152060520Y-98238716D01*
X152139577Y-98101784D01*
X152180500Y-97949057D01*
X152180500Y-97790943D01*
X152139577Y-97638216D01*
X152128301Y-97618686D01*
X152116293Y-97597887D01*
X152060520Y-97501284D01*
X152060518Y-97501282D01*
X152060516Y-97501279D01*
X151948720Y-97389483D01*
X151948714Y-97389479D01*
X151811785Y-97310423D01*
X151754795Y-97295153D01*
X151659057Y-97269500D01*
X151500943Y-97269500D01*
X151409306Y-97294053D01*
X151348214Y-97310423D01*
X151211285Y-97389479D01*
X151211279Y-97389483D01*
X151099483Y-97501279D01*
X151099479Y-97501285D01*
X151020423Y-97638214D01*
X151001272Y-97709687D01*
X150979500Y-97790943D01*
X148364410Y-97790943D01*
X148372617Y-97788744D01*
X148509549Y-97709687D01*
X148621353Y-97597883D01*
X148700410Y-97460951D01*
X148732920Y-97339620D01*
X148762423Y-97297487D01*
X148812109Y-97284173D01*
X148858730Y-97305912D01*
X148878193Y-97339622D01*
X148891801Y-97390406D01*
X148955816Y-97501285D01*
X148970857Y-97527336D01*
X148970861Y-97527342D01*
X149082657Y-97639138D01*
X149082660Y-97639140D01*
X149082662Y-97639142D01*
X149154297Y-97680500D01*
X149219590Y-97718197D01*
X149219594Y-97718199D01*
X149372321Y-97759122D01*
X149372324Y-97759122D01*
X149530432Y-97759122D01*
X149530435Y-97759122D01*
X149683162Y-97718199D01*
X149820094Y-97639142D01*
X149931898Y-97527338D01*
X150010955Y-97390406D01*
X150051878Y-97237679D01*
X150051878Y-97079565D01*
X150010955Y-96926838D01*
X150006625Y-96919339D01*
X149952871Y-96826233D01*
X149931898Y-96789906D01*
X149931896Y-96789904D01*
X149931894Y-96789901D01*
X149820098Y-96678105D01*
X149820092Y-96678101D01*
X149683163Y-96599045D01*
X149644980Y-96588814D01*
X149530435Y-96558122D01*
X149372321Y-96558122D01*
X149280684Y-96582675D01*
X149219592Y-96599045D01*
X149082663Y-96678101D01*
X149082657Y-96678105D01*
X148970861Y-96789901D01*
X148970857Y-96789907D01*
X148891801Y-96926836D01*
X148859292Y-97048164D01*
X148829787Y-97090301D01*
X148780100Y-97103615D01*
X148733480Y-97081875D01*
X148714017Y-97048166D01*
X148700410Y-96997383D01*
X148700409Y-96997382D01*
X148700409Y-96997380D01*
X148649221Y-96908720D01*
X148621353Y-96860451D01*
X148621351Y-96860449D01*
X148621349Y-96860446D01*
X148509553Y-96748650D01*
X148509547Y-96748646D01*
X148372618Y-96669590D01*
X148334435Y-96659359D01*
X148219890Y-96628667D01*
X148061776Y-96628667D01*
X147970139Y-96653220D01*
X147909047Y-96669590D01*
X147772118Y-96748646D01*
X147772110Y-96748652D01*
X147766599Y-96754163D01*
X147719978Y-96775900D01*
X147670292Y-96762584D01*
X147648303Y-96738586D01*
X147643569Y-96730387D01*
X147632540Y-96711284D01*
X147632538Y-96711282D01*
X147632536Y-96711279D01*
X147520740Y-96599483D01*
X147520734Y-96599479D01*
X147519982Y-96599045D01*
X147482669Y-96577502D01*
X147383805Y-96520423D01*
X147345622Y-96510192D01*
X147231077Y-96479500D01*
X147072963Y-96479500D01*
X146981326Y-96504053D01*
X146920234Y-96520423D01*
X146783305Y-96599479D01*
X146783299Y-96599483D01*
X146671503Y-96711279D01*
X146671499Y-96711285D01*
X146592443Y-96848214D01*
X146589164Y-96860452D01*
X146551520Y-97000943D01*
X141878293Y-97000943D01*
X141881856Y-96997380D01*
X141936397Y-96942840D01*
X141970516Y-96908720D01*
X141970520Y-96908716D01*
X142049577Y-96771784D01*
X142090500Y-96619057D01*
X142090500Y-96460943D01*
X142049577Y-96308216D01*
X141970520Y-96171284D01*
X141970518Y-96171282D01*
X141970516Y-96171279D01*
X141858720Y-96059483D01*
X141858714Y-96059479D01*
X141721785Y-95980423D01*
X141683602Y-95970192D01*
X141569057Y-95939500D01*
X141410943Y-95939500D01*
X141319306Y-95964053D01*
X141258214Y-95980423D01*
X141121285Y-96059479D01*
X141121279Y-96059483D01*
X141009483Y-96171279D01*
X141009479Y-96171285D01*
X140930423Y-96308214D01*
X140909961Y-96384579D01*
X140889500Y-96460943D01*
X137780963Y-96460943D01*
X137779577Y-96455770D01*
X137779576Y-96455768D01*
X137779576Y-96455767D01*
X137727132Y-96364932D01*
X137700520Y-96318838D01*
X137700518Y-96318836D01*
X137700516Y-96318833D01*
X137588720Y-96207037D01*
X137588714Y-96207033D01*
X137451785Y-96127977D01*
X137413602Y-96117746D01*
X137299057Y-96087054D01*
X137140943Y-96087054D01*
X137055975Y-96109821D01*
X136988214Y-96127977D01*
X136851285Y-96207033D01*
X136851279Y-96207037D01*
X136739483Y-96318833D01*
X136739479Y-96318839D01*
X136660423Y-96455768D01*
X136651051Y-96490745D01*
X136619500Y-96608497D01*
X136619500Y-96766611D01*
X136641366Y-96848216D01*
X136660423Y-96919339D01*
X136739479Y-97056268D01*
X136739483Y-97056274D01*
X136851277Y-97168068D01*
X136851280Y-97168070D01*
X136851284Y-97168074D01*
X136851287Y-97168075D01*
X136854273Y-97170367D01*
X136881913Y-97213751D01*
X136875200Y-97264751D01*
X136846097Y-97295153D01*
X136821288Y-97309477D01*
X136821279Y-97309483D01*
X136709483Y-97421279D01*
X136709479Y-97421285D01*
X136630423Y-97558214D01*
X136615191Y-97615063D01*
X136589500Y-97710943D01*
X133717960Y-97710943D01*
X133729339Y-97618686D01*
X133729871Y-97615091D01*
X133867762Y-96820406D01*
X133868481Y-96816794D01*
X133899625Y-96678105D01*
X134045194Y-96029853D01*
X134046080Y-96026317D01*
X134071824Y-95933290D01*
X134101673Y-95891397D01*
X134151467Y-95878490D01*
X134197908Y-95900611D01*
X134219265Y-95947407D01*
X134219500Y-95953348D01*
X134219500Y-95999057D01*
X134235691Y-96059483D01*
X134260423Y-96151785D01*
X134339479Y-96288714D01*
X134339483Y-96288720D01*
X134451279Y-96400516D01*
X134451282Y-96400518D01*
X134451284Y-96400520D01*
X134546977Y-96455768D01*
X134588082Y-96479500D01*
X134588216Y-96479577D01*
X134740943Y-96520500D01*
X134740946Y-96520500D01*
X134899054Y-96520500D01*
X134899057Y-96520500D01*
X135023061Y-96487273D01*
X135074303Y-96491757D01*
X135110676Y-96528130D01*
X135115160Y-96579374D01*
X135095697Y-96613085D01*
X135019480Y-96689302D01*
X135019479Y-96689304D01*
X134940423Y-96826233D01*
X134919961Y-96902598D01*
X134899500Y-96978962D01*
X134899500Y-97137076D01*
X134926944Y-97239500D01*
X134940423Y-97289804D01*
X134980652Y-97359483D01*
X135016333Y-97421285D01*
X135019479Y-97426733D01*
X135019483Y-97426739D01*
X135131279Y-97538535D01*
X135131282Y-97538537D01*
X135131284Y-97538539D01*
X135198523Y-97577359D01*
X135263828Y-97615063D01*
X135268216Y-97617596D01*
X135420943Y-97658519D01*
X135420946Y-97658519D01*
X135579054Y-97658519D01*
X135579057Y-97658519D01*
X135731784Y-97617596D01*
X135736172Y-97615063D01*
X135765928Y-97597883D01*
X135868716Y-97538539D01*
X135980520Y-97426735D01*
X136059577Y-97289803D01*
X136100500Y-97137076D01*
X136100500Y-96978962D01*
X136059577Y-96826235D01*
X135980520Y-96689303D01*
X135980518Y-96689301D01*
X135980516Y-96689298D01*
X135868720Y-96577502D01*
X135868714Y-96577498D01*
X135731785Y-96498442D01*
X135686324Y-96486261D01*
X135579057Y-96457519D01*
X135420943Y-96457519D01*
X135353923Y-96475477D01*
X135296940Y-96490745D01*
X135245696Y-96486261D01*
X135209322Y-96449887D01*
X135204840Y-96398643D01*
X135224301Y-96364934D01*
X135300520Y-96288716D01*
X135379577Y-96151784D01*
X135420500Y-95999057D01*
X135420500Y-95840943D01*
X135379577Y-95688216D01*
X135300520Y-95551284D01*
X135300518Y-95551282D01*
X135300516Y-95551279D01*
X135188720Y-95439483D01*
X135188714Y-95439479D01*
X135051785Y-95360423D01*
X135013602Y-95350192D01*
X134899057Y-95319500D01*
X134740943Y-95319500D01*
X134649306Y-95344053D01*
X134588214Y-95360423D01*
X134451285Y-95439479D01*
X134451279Y-95439483D01*
X134339483Y-95551279D01*
X134339478Y-95551285D01*
X134323379Y-95579171D01*
X134283973Y-95612236D01*
X134232534Y-95612236D01*
X134193129Y-95579171D01*
X134184197Y-95528512D01*
X134185778Y-95521514D01*
X134230358Y-95360423D01*
X134261199Y-95248976D01*
X134262253Y-95245502D01*
X134504239Y-94512994D01*
X136376827Y-94512994D01*
X136376827Y-94671108D01*
X136390181Y-94720945D01*
X136417750Y-94823836D01*
X136496806Y-94960765D01*
X136496810Y-94960771D01*
X136608606Y-95072567D01*
X136608609Y-95072569D01*
X136608611Y-95072571D01*
X136745543Y-95151628D01*
X136898270Y-95192551D01*
X136898273Y-95192551D01*
X137056381Y-95192551D01*
X137056384Y-95192551D01*
X137209111Y-95151628D01*
X137346043Y-95072571D01*
X137457847Y-94960767D01*
X137536904Y-94823835D01*
X137577827Y-94671108D01*
X137577827Y-94512994D01*
X137536904Y-94360267D01*
X137457847Y-94223335D01*
X137457845Y-94223333D01*
X137457843Y-94223330D01*
X137346047Y-94111534D01*
X137346041Y-94111530D01*
X137216793Y-94036909D01*
X137209112Y-94032474D01*
X137170929Y-94022243D01*
X137056384Y-93991551D01*
X136898270Y-93991551D01*
X136806633Y-94016104D01*
X136745541Y-94032474D01*
X136608612Y-94111530D01*
X136608606Y-94111534D01*
X136496810Y-94223330D01*
X136496806Y-94223336D01*
X136417750Y-94360265D01*
X136398722Y-94431279D01*
X136376827Y-94512994D01*
X134504239Y-94512994D01*
X134515261Y-94479631D01*
X134516488Y-94476203D01*
X134709163Y-93976713D01*
X146192770Y-93976713D01*
X146192770Y-94134827D01*
X146210099Y-94199500D01*
X146233693Y-94287555D01*
X146312749Y-94424484D01*
X146312753Y-94424490D01*
X146424549Y-94536286D01*
X146424552Y-94536288D01*
X146424554Y-94536290D01*
X146561486Y-94615347D01*
X146714213Y-94656270D01*
X146714216Y-94656270D01*
X146872324Y-94656270D01*
X146872327Y-94656270D01*
X147025054Y-94615347D01*
X147161986Y-94536290D01*
X147273790Y-94424486D01*
X147352847Y-94287554D01*
X147393770Y-94134827D01*
X147393770Y-93976713D01*
X147352847Y-93823986D01*
X147273790Y-93687054D01*
X147273788Y-93687052D01*
X147273786Y-93687049D01*
X147161990Y-93575253D01*
X147161984Y-93575249D01*
X147025055Y-93496193D01*
X146986872Y-93485962D01*
X146872327Y-93455270D01*
X146714213Y-93455270D01*
X146622576Y-93479823D01*
X146561484Y-93496193D01*
X146424555Y-93575249D01*
X146424549Y-93575253D01*
X146312753Y-93687049D01*
X146312749Y-93687055D01*
X146233693Y-93823984D01*
X146230389Y-93836316D01*
X146192770Y-93976713D01*
X134709163Y-93976713D01*
X134806762Y-93723697D01*
X134808155Y-93720334D01*
X135004785Y-93276743D01*
X135293250Y-93276743D01*
X135293250Y-93434857D01*
X135309685Y-93496193D01*
X135334173Y-93587585D01*
X135413229Y-93724514D01*
X135413233Y-93724520D01*
X135525029Y-93836316D01*
X135525032Y-93836318D01*
X135525034Y-93836320D01*
X135661966Y-93915377D01*
X135814693Y-93956300D01*
X135814696Y-93956300D01*
X135972804Y-93956300D01*
X135972807Y-93956300D01*
X136125534Y-93915377D01*
X136262466Y-93836320D01*
X136374270Y-93724516D01*
X136453327Y-93587584D01*
X136494250Y-93434857D01*
X136494250Y-93276743D01*
X136453327Y-93124016D01*
X136450269Y-93118720D01*
X136409852Y-93048714D01*
X136374270Y-92987084D01*
X136374268Y-92987082D01*
X136374266Y-92987079D01*
X136262470Y-92875283D01*
X136262464Y-92875279D01*
X136125535Y-92796223D01*
X136087352Y-92785992D01*
X135972807Y-92755300D01*
X135814693Y-92755300D01*
X135741086Y-92775023D01*
X135661964Y-92796223D01*
X135525035Y-92875279D01*
X135525029Y-92875283D01*
X135413233Y-92987079D01*
X135413229Y-92987085D01*
X135334173Y-93124014D01*
X135327324Y-93149576D01*
X135293250Y-93276743D01*
X135004785Y-93276743D01*
X135135014Y-92982951D01*
X135136575Y-92979651D01*
X135372503Y-92510943D01*
X139659500Y-92510943D01*
X139659500Y-92669057D01*
X139687894Y-92775024D01*
X139700423Y-92821785D01*
X139779479Y-92958714D01*
X139779483Y-92958720D01*
X139891279Y-93070516D01*
X139891282Y-93070518D01*
X139891284Y-93070520D01*
X140028216Y-93149577D01*
X140180943Y-93190500D01*
X140180946Y-93190500D01*
X140339054Y-93190500D01*
X140339057Y-93190500D01*
X140491784Y-93149577D01*
X140628716Y-93070520D01*
X140740520Y-92958716D01*
X140819577Y-92821784D01*
X140860500Y-92669057D01*
X140860500Y-92600943D01*
X142549500Y-92600943D01*
X142549500Y-92759057D01*
X142574002Y-92850500D01*
X142590423Y-92911785D01*
X142669479Y-93048714D01*
X142669483Y-93048720D01*
X142781279Y-93160516D01*
X142781282Y-93160518D01*
X142781284Y-93160520D01*
X142918216Y-93239577D01*
X143070943Y-93280500D01*
X143070946Y-93280500D01*
X143229054Y-93280500D01*
X143229057Y-93280500D01*
X143381784Y-93239577D01*
X143491060Y-93176487D01*
X144437317Y-93176487D01*
X144437317Y-93334601D01*
X144468009Y-93449146D01*
X144478240Y-93487329D01*
X144557296Y-93624258D01*
X144557300Y-93624264D01*
X144669096Y-93736060D01*
X144669099Y-93736062D01*
X144669101Y-93736064D01*
X144806033Y-93815121D01*
X144958760Y-93856044D01*
X144958763Y-93856044D01*
X145116871Y-93856044D01*
X145116874Y-93856044D01*
X145269601Y-93815121D01*
X145406533Y-93736064D01*
X145518337Y-93624260D01*
X145597394Y-93487328D01*
X145636162Y-93342640D01*
X145665666Y-93300506D01*
X145715353Y-93287192D01*
X145746399Y-93296981D01*
X145752504Y-93300506D01*
X145768216Y-93309577D01*
X145920943Y-93350500D01*
X145920946Y-93350500D01*
X146079054Y-93350500D01*
X146079057Y-93350500D01*
X146231784Y-93309577D01*
X146368716Y-93230520D01*
X146480520Y-93118716D01*
X146559577Y-92981784D01*
X146600500Y-92829057D01*
X146600500Y-92670943D01*
X146559577Y-92518216D01*
X146516013Y-92442761D01*
X146480523Y-92381288D01*
X146480516Y-92381279D01*
X146368720Y-92269483D01*
X146368714Y-92269479D01*
X146231785Y-92190423D01*
X146193602Y-92180192D01*
X146159084Y-92170943D01*
X146649500Y-92170943D01*
X146649500Y-92329057D01*
X146660561Y-92370338D01*
X146673006Y-92416785D01*
X146673007Y-92416789D01*
X146690423Y-92481784D01*
X146716426Y-92526823D01*
X146716427Y-92526825D01*
X146769479Y-92618714D01*
X146769483Y-92618720D01*
X146881279Y-92730516D01*
X146881282Y-92730518D01*
X146881284Y-92730520D01*
X147018216Y-92809577D01*
X147170943Y-92850500D01*
X147170946Y-92850500D01*
X147329054Y-92850500D01*
X147329057Y-92850500D01*
X147481784Y-92809577D01*
X147618716Y-92730520D01*
X147730520Y-92618716D01*
X147781740Y-92530000D01*
X147980000Y-92530000D01*
X147999999Y-96109821D01*
X148000000Y-96110241D01*
X148000000Y-96120000D01*
X150890000Y-96120000D01*
X150890000Y-94720943D01*
X157569500Y-94720943D01*
X157569500Y-94879057D01*
X157600192Y-94993602D01*
X157610423Y-95031785D01*
X157689479Y-95168714D01*
X157689483Y-95168720D01*
X157801279Y-95280516D01*
X157801282Y-95280518D01*
X157801284Y-95280520D01*
X157938216Y-95359577D01*
X158090943Y-95400500D01*
X158090946Y-95400500D01*
X158249054Y-95400500D01*
X158249057Y-95400500D01*
X158401784Y-95359577D01*
X158538716Y-95280520D01*
X158650520Y-95168716D01*
X158729577Y-95031784D01*
X158770500Y-94879057D01*
X158770500Y-94720943D01*
X158729577Y-94568216D01*
X158660804Y-94449096D01*
X160347654Y-94449096D01*
X160347654Y-94607210D01*
X160378129Y-94720943D01*
X160388577Y-94759938D01*
X160467633Y-94896867D01*
X160467637Y-94896873D01*
X160579433Y-95008669D01*
X160579436Y-95008671D01*
X160579438Y-95008673D01*
X160716370Y-95087730D01*
X160869097Y-95128653D01*
X160869100Y-95128653D01*
X161027208Y-95128653D01*
X161027211Y-95128653D01*
X161179938Y-95087730D01*
X161316870Y-95008673D01*
X161428674Y-94896869D01*
X161507731Y-94759937D01*
X161548654Y-94607210D01*
X161548654Y-94449096D01*
X161507731Y-94296369D01*
X161428674Y-94159437D01*
X161428672Y-94159435D01*
X161428670Y-94159432D01*
X161316874Y-94047636D01*
X161316868Y-94047632D01*
X161179939Y-93968576D01*
X161134123Y-93956300D01*
X161027211Y-93927653D01*
X160869097Y-93927653D01*
X160777460Y-93952206D01*
X160716368Y-93968576D01*
X160579439Y-94047632D01*
X160579433Y-94047636D01*
X160467637Y-94159432D01*
X160467633Y-94159438D01*
X160388577Y-94296367D01*
X160371456Y-94360265D01*
X160347654Y-94449096D01*
X158660804Y-94449096D01*
X158650520Y-94431284D01*
X158650518Y-94431282D01*
X158650516Y-94431279D01*
X158538720Y-94319483D01*
X158538714Y-94319479D01*
X158401785Y-94240423D01*
X158338014Y-94223336D01*
X158249057Y-94199500D01*
X158090943Y-94199500D01*
X158002008Y-94223330D01*
X157938214Y-94240423D01*
X157801285Y-94319479D01*
X157801279Y-94319483D01*
X157689483Y-94431279D01*
X157689479Y-94431285D01*
X157610423Y-94568214D01*
X157597794Y-94615347D01*
X157569500Y-94720943D01*
X150890000Y-94720943D01*
X150890000Y-92530000D01*
X147980000Y-92530000D01*
X147781740Y-92530000D01*
X147809577Y-92481784D01*
X147811886Y-92473169D01*
X147826993Y-92416785D01*
X147830394Y-92404089D01*
X147859898Y-92361953D01*
X147909585Y-92348639D01*
X147917762Y-92350081D01*
X147920940Y-92350500D01*
X147920943Y-92350500D01*
X148079054Y-92350500D01*
X148079057Y-92350500D01*
X148231784Y-92309577D01*
X148368716Y-92230520D01*
X148480520Y-92118716D01*
X148559577Y-91981784D01*
X148564532Y-91963291D01*
X148594034Y-91921155D01*
X148643720Y-91907840D01*
X148690342Y-91929578D01*
X148690343Y-91929580D01*
X148731279Y-91970516D01*
X148731282Y-91970518D01*
X148731284Y-91970520D01*
X148868216Y-92049577D01*
X149020943Y-92090500D01*
X149020946Y-92090500D01*
X149179054Y-92090500D01*
X149179057Y-92090500D01*
X149331784Y-92049577D01*
X149468716Y-91970520D01*
X149580520Y-91858716D01*
X149659577Y-91721784D01*
X149676244Y-91659578D01*
X149705747Y-91617443D01*
X149755434Y-91604129D01*
X149768341Y-91606405D01*
X149820943Y-91620500D01*
X149979054Y-91620500D01*
X149979057Y-91620500D01*
X150131784Y-91579577D01*
X150268716Y-91500520D01*
X150380520Y-91388716D01*
X150459577Y-91251784D01*
X150500500Y-91099057D01*
X150500500Y-90940943D01*
X150459577Y-90788216D01*
X150449346Y-90770496D01*
X150441660Y-90757182D01*
X150380520Y-90651284D01*
X150380518Y-90651282D01*
X150380516Y-90651279D01*
X150268720Y-90539483D01*
X150268714Y-90539479D01*
X150131785Y-90460423D01*
X150093602Y-90450192D01*
X149979057Y-90419500D01*
X149820943Y-90419500D01*
X149729306Y-90444053D01*
X149668214Y-90460423D01*
X149531285Y-90539479D01*
X149531279Y-90539483D01*
X149419483Y-90651279D01*
X149419479Y-90651285D01*
X149340422Y-90788215D01*
X149323754Y-90850420D01*
X149294249Y-90892556D01*
X149244562Y-90905869D01*
X149231655Y-90903593D01*
X149190462Y-90892556D01*
X149179057Y-90889500D01*
X149020943Y-90889500D01*
X148929306Y-90914053D01*
X148868214Y-90930423D01*
X148731285Y-91009479D01*
X148731279Y-91009483D01*
X148619483Y-91121279D01*
X148619479Y-91121285D01*
X148540422Y-91258216D01*
X148535467Y-91276709D01*
X148505962Y-91318846D01*
X148456275Y-91332159D01*
X148409656Y-91310419D01*
X148368720Y-91269483D01*
X148368714Y-91269479D01*
X148231785Y-91190423D01*
X148193602Y-91180192D01*
X148079057Y-91149500D01*
X147920943Y-91149500D01*
X147829306Y-91174053D01*
X147768214Y-91190423D01*
X147631285Y-91269479D01*
X147631279Y-91269483D01*
X147519483Y-91381279D01*
X147519479Y-91381285D01*
X147440422Y-91518216D01*
X147419603Y-91595910D01*
X147390098Y-91638047D01*
X147340411Y-91651360D01*
X147332235Y-91649918D01*
X147329058Y-91649500D01*
X147329057Y-91649500D01*
X147170943Y-91649500D01*
X147079306Y-91674053D01*
X147018214Y-91690423D01*
X146881285Y-91769479D01*
X146881279Y-91769483D01*
X146769483Y-91881279D01*
X146769479Y-91881285D01*
X146690423Y-92018214D01*
X146674308Y-92078358D01*
X146649500Y-92170943D01*
X146159084Y-92170943D01*
X146079057Y-92149500D01*
X145920943Y-92149500D01*
X145840909Y-92170945D01*
X145768214Y-92190423D01*
X145631285Y-92269479D01*
X145631279Y-92269483D01*
X145519483Y-92381279D01*
X145519479Y-92381285D01*
X145440423Y-92518214D01*
X145401655Y-92662900D01*
X145372150Y-92705037D01*
X145322463Y-92718351D01*
X145291417Y-92708562D01*
X145269603Y-92695967D01*
X145208510Y-92679597D01*
X145116874Y-92655044D01*
X144958760Y-92655044D01*
X144867123Y-92679597D01*
X144806031Y-92695967D01*
X144669102Y-92775023D01*
X144669096Y-92775027D01*
X144557300Y-92886823D01*
X144557296Y-92886829D01*
X144478240Y-93023758D01*
X144471553Y-93048716D01*
X144437317Y-93176487D01*
X143491060Y-93176487D01*
X143518716Y-93160520D01*
X143529660Y-93149576D01*
X143560853Y-93118384D01*
X143630516Y-93048720D01*
X143630520Y-93048716D01*
X143709577Y-92911784D01*
X143750500Y-92759057D01*
X143750500Y-92645700D01*
X143768093Y-92597362D01*
X143812642Y-92571642D01*
X143825700Y-92570500D01*
X143849054Y-92570500D01*
X143849057Y-92570500D01*
X144001784Y-92529577D01*
X144138716Y-92450520D01*
X144250520Y-92338716D01*
X144329577Y-92201784D01*
X144370500Y-92049057D01*
X144370500Y-91890943D01*
X144329577Y-91738216D01*
X144250520Y-91601284D01*
X144250518Y-91601282D01*
X144250516Y-91601279D01*
X144138720Y-91489483D01*
X144138714Y-91489479D01*
X144001785Y-91410423D01*
X143963602Y-91400192D01*
X143849057Y-91369500D01*
X143690943Y-91369500D01*
X143599306Y-91394053D01*
X143538214Y-91410423D01*
X143401285Y-91489479D01*
X143401279Y-91489483D01*
X143289483Y-91601279D01*
X143289479Y-91601285D01*
X143210423Y-91738214D01*
X143196069Y-91791785D01*
X143169500Y-91890943D01*
X143169500Y-91890945D01*
X143169500Y-92004300D01*
X143151907Y-92052638D01*
X143107358Y-92078358D01*
X143094300Y-92079500D01*
X143070943Y-92079500D01*
X142979306Y-92104053D01*
X142918214Y-92120423D01*
X142781285Y-92199479D01*
X142781279Y-92199483D01*
X142669483Y-92311279D01*
X142669479Y-92311285D01*
X142590423Y-92448214D01*
X142583737Y-92473169D01*
X142549500Y-92600943D01*
X140860500Y-92600943D01*
X140860500Y-92510943D01*
X140819577Y-92358216D01*
X140740520Y-92221284D01*
X140740518Y-92221282D01*
X140740516Y-92221279D01*
X140628720Y-92109483D01*
X140628714Y-92109479D01*
X140491785Y-92030423D01*
X140446219Y-92018214D01*
X140339057Y-91989500D01*
X140180943Y-91989500D01*
X140089306Y-92014053D01*
X140028214Y-92030423D01*
X139891285Y-92109479D01*
X139891279Y-92109483D01*
X139779483Y-92221279D01*
X139779479Y-92221285D01*
X139700423Y-92358214D01*
X139679961Y-92434579D01*
X139659500Y-92510943D01*
X135372503Y-92510943D01*
X135499197Y-92259247D01*
X135500929Y-92256006D01*
X135515369Y-92230516D01*
X135898479Y-91554231D01*
X135900354Y-91551103D01*
X136331865Y-90869673D01*
X136333880Y-90866658D01*
X136798312Y-90207215D01*
X136800466Y-90204311D01*
X137296703Y-89568440D01*
X137298998Y-89565644D01*
X137717104Y-89080943D01*
X142189500Y-89080943D01*
X142189500Y-89239057D01*
X142211533Y-89321284D01*
X142230423Y-89391785D01*
X142280613Y-89478716D01*
X142303903Y-89519057D01*
X142309479Y-89528714D01*
X142309483Y-89528720D01*
X142421279Y-89640516D01*
X142421282Y-89640518D01*
X142421284Y-89640520D01*
X142558216Y-89719577D01*
X142574422Y-89723919D01*
X142616560Y-89753422D01*
X142629875Y-89803109D01*
X142620087Y-89834156D01*
X142600423Y-89868215D01*
X142600423Y-89868216D01*
X142559500Y-90020943D01*
X142559500Y-90179057D01*
X142578396Y-90249577D01*
X142600423Y-90331785D01*
X142679479Y-90468714D01*
X142679483Y-90468720D01*
X142791279Y-90580516D01*
X142791282Y-90580518D01*
X142791284Y-90580520D01*
X142928216Y-90659577D01*
X143080943Y-90700500D01*
X143080946Y-90700500D01*
X143239054Y-90700500D01*
X143239057Y-90700500D01*
X143391784Y-90659577D01*
X143441380Y-90630943D01*
X145139500Y-90630943D01*
X145139500Y-90789057D01*
X145163755Y-90879577D01*
X145180423Y-90941785D01*
X145259479Y-91078714D01*
X145259483Y-91078720D01*
X145371279Y-91190516D01*
X145371282Y-91190518D01*
X145371284Y-91190520D01*
X145508216Y-91269577D01*
X145660943Y-91310500D01*
X145660946Y-91310500D01*
X145819054Y-91310500D01*
X145819057Y-91310500D01*
X145971784Y-91269577D01*
X146108716Y-91190520D01*
X146220520Y-91078716D01*
X146299577Y-90941784D01*
X146334183Y-90812631D01*
X146363687Y-90770496D01*
X146413374Y-90757182D01*
X146444419Y-90766970D01*
X146518216Y-90809577D01*
X146670943Y-90850500D01*
X146670946Y-90850500D01*
X146829054Y-90850500D01*
X146829057Y-90850500D01*
X146981784Y-90809577D01*
X147118716Y-90730520D01*
X147230520Y-90618716D01*
X147309577Y-90481784D01*
X147350500Y-90329057D01*
X147350500Y-90170943D01*
X147309577Y-90018216D01*
X147230520Y-89881284D01*
X147230518Y-89881282D01*
X147230516Y-89881279D01*
X147118720Y-89769483D01*
X147118714Y-89769479D01*
X146981785Y-89690423D01*
X146943602Y-89680192D01*
X146829057Y-89649500D01*
X146670943Y-89649500D01*
X146587778Y-89671784D01*
X146518214Y-89690423D01*
X146381285Y-89769479D01*
X146381279Y-89769483D01*
X146269483Y-89881279D01*
X146269479Y-89881285D01*
X146190424Y-90018213D01*
X146190424Y-90018214D01*
X146190423Y-90018216D01*
X146181734Y-90050643D01*
X146155817Y-90147367D01*
X146126312Y-90189503D01*
X146076625Y-90202817D01*
X146045579Y-90193028D01*
X145971785Y-90150423D01*
X145933602Y-90140192D01*
X145819057Y-90109500D01*
X145660943Y-90109500D01*
X145569306Y-90134053D01*
X145508214Y-90150423D01*
X145371285Y-90229479D01*
X145371279Y-90229483D01*
X145259483Y-90341279D01*
X145259479Y-90341285D01*
X145180423Y-90478214D01*
X145160711Y-90551784D01*
X145139500Y-90630943D01*
X143441380Y-90630943D01*
X143528716Y-90580520D01*
X143528720Y-90580516D01*
X143536397Y-90572840D01*
X143640516Y-90468720D01*
X143640520Y-90468716D01*
X143719577Y-90331784D01*
X143760500Y-90179057D01*
X143760500Y-90020943D01*
X143719577Y-89868216D01*
X143640520Y-89731284D01*
X143640518Y-89731282D01*
X143640516Y-89731279D01*
X143528720Y-89619483D01*
X143528714Y-89619479D01*
X143391786Y-89540424D01*
X143391785Y-89540423D01*
X143391784Y-89540423D01*
X143375572Y-89536079D01*
X143333438Y-89506575D01*
X143320124Y-89456888D01*
X143329913Y-89425842D01*
X143349577Y-89391784D01*
X143390500Y-89239057D01*
X143390500Y-89081285D01*
X143408093Y-89032947D01*
X143452642Y-89007227D01*
X143503300Y-89016160D01*
X143518874Y-89028111D01*
X143581279Y-89090516D01*
X143581282Y-89090518D01*
X143581284Y-89090520D01*
X143718216Y-89169577D01*
X143870943Y-89210500D01*
X143870946Y-89210500D01*
X144029054Y-89210500D01*
X144029057Y-89210500D01*
X144119528Y-89186258D01*
X144170771Y-89190742D01*
X144207144Y-89227115D01*
X144211628Y-89278358D01*
X144200126Y-89321285D01*
X144189500Y-89360943D01*
X144189500Y-89519057D01*
X144214121Y-89610943D01*
X144230423Y-89671785D01*
X144309479Y-89808714D01*
X144309483Y-89808720D01*
X144421279Y-89920516D01*
X144421282Y-89920518D01*
X144421284Y-89920520D01*
X144558216Y-89999577D01*
X144710943Y-90040500D01*
X144710946Y-90040500D01*
X144869054Y-90040500D01*
X144869057Y-90040500D01*
X145021784Y-89999577D01*
X145158716Y-89920520D01*
X145270520Y-89808716D01*
X145349577Y-89671784D01*
X145390500Y-89519057D01*
X145390500Y-89360943D01*
X145349577Y-89208216D01*
X145345131Y-89200516D01*
X145327268Y-89169576D01*
X145270520Y-89071284D01*
X145270518Y-89071282D01*
X145270516Y-89071279D01*
X145158720Y-88959483D01*
X145158714Y-88959479D01*
X145021785Y-88880423D01*
X144983602Y-88870192D01*
X144869057Y-88839500D01*
X144710943Y-88839500D01*
X144689339Y-88845288D01*
X144620471Y-88863741D01*
X144569227Y-88859257D01*
X144532854Y-88822883D01*
X144528371Y-88771642D01*
X144550500Y-88689057D01*
X144550500Y-88530943D01*
X144509577Y-88378216D01*
X144508225Y-88375875D01*
X144492870Y-88349278D01*
X144430520Y-88241284D01*
X144430518Y-88241282D01*
X144430516Y-88241279D01*
X144318720Y-88129483D01*
X144318714Y-88129479D01*
X144181785Y-88050423D01*
X144143602Y-88040192D01*
X144029057Y-88009500D01*
X143936091Y-88009500D01*
X143887753Y-87991907D01*
X143862033Y-87947358D01*
X143870965Y-87896701D01*
X143872713Y-87893672D01*
X143879577Y-87881784D01*
X143920500Y-87729057D01*
X143920500Y-87570943D01*
X143879577Y-87418216D01*
X143800520Y-87281284D01*
X143800518Y-87281282D01*
X143800516Y-87281279D01*
X143688720Y-87169483D01*
X143688714Y-87169479D01*
X143551785Y-87090423D01*
X143507425Y-87078537D01*
X143399057Y-87049500D01*
X143240943Y-87049500D01*
X143149306Y-87074053D01*
X143088214Y-87090423D01*
X142951285Y-87169479D01*
X142951279Y-87169483D01*
X142839483Y-87281279D01*
X142839479Y-87281285D01*
X142760423Y-87418214D01*
X142746295Y-87470943D01*
X142719500Y-87570943D01*
X142719500Y-87729057D01*
X142740711Y-87808216D01*
X142760423Y-87881785D01*
X142839479Y-88018714D01*
X142839483Y-88018720D01*
X142951279Y-88130516D01*
X142951282Y-88130518D01*
X142951284Y-88130520D01*
X143088216Y-88209577D01*
X143240943Y-88250500D01*
X143240946Y-88250500D01*
X143333909Y-88250500D01*
X143382247Y-88268093D01*
X143407967Y-88312642D01*
X143399035Y-88363299D01*
X143390423Y-88378215D01*
X143382249Y-88408720D01*
X143349500Y-88530943D01*
X143349500Y-88530945D01*
X143349500Y-88688715D01*
X143331907Y-88737053D01*
X143287358Y-88762773D01*
X143236700Y-88753840D01*
X143221126Y-88741889D01*
X143158720Y-88679483D01*
X143158714Y-88679479D01*
X143021785Y-88600423D01*
X142983602Y-88590192D01*
X142869057Y-88559500D01*
X142710943Y-88559500D01*
X142619306Y-88584053D01*
X142558214Y-88600423D01*
X142421285Y-88679479D01*
X142421279Y-88679483D01*
X142309483Y-88791279D01*
X142309479Y-88791285D01*
X142230423Y-88928214D01*
X142212634Y-88994607D01*
X142189500Y-89080943D01*
X137717104Y-89080943D01*
X137825853Y-88954873D01*
X137828278Y-88952198D01*
X138384420Y-88368064D01*
X138387029Y-88365456D01*
X138469020Y-88287394D01*
X138971161Y-87809315D01*
X138973836Y-87806890D01*
X139584607Y-87280035D01*
X139587403Y-87277740D01*
X140223274Y-86781503D01*
X140226178Y-86779349D01*
X140885621Y-86314917D01*
X140888636Y-86312902D01*
X141570066Y-85881391D01*
X141573194Y-85879516D01*
X142274982Y-85481959D01*
X142278210Y-85480234D01*
X142998614Y-85117612D01*
X143001914Y-85116051D01*
X143739297Y-84789192D01*
X143742660Y-84787799D01*
X144495166Y-84497525D01*
X144498579Y-84496304D01*
X145264465Y-84243290D01*
X145267939Y-84242236D01*
X146045280Y-84027117D01*
X146048816Y-84026231D01*
X146224435Y-83986795D01*
X146275452Y-83993370D01*
X146310307Y-84031201D01*
X146316110Y-84060023D01*
X146317027Y-84536097D01*
X146299527Y-84584469D01*
X146255028Y-84610274D01*
X146204353Y-84601439D01*
X146188653Y-84589416D01*
X146148720Y-84549483D01*
X146148714Y-84549479D01*
X146011785Y-84470423D01*
X145973602Y-84460192D01*
X145859057Y-84429500D01*
X145700943Y-84429500D01*
X145609306Y-84454053D01*
X145548214Y-84470423D01*
X145411285Y-84549479D01*
X145411279Y-84549483D01*
X145299483Y-84661279D01*
X145299479Y-84661285D01*
X145220423Y-84798214D01*
X145210795Y-84834148D01*
X145179500Y-84950943D01*
X145179500Y-85109057D01*
X145209617Y-85221455D01*
X145220423Y-85261785D01*
X145299479Y-85398714D01*
X145299483Y-85398720D01*
X145411279Y-85510516D01*
X145411282Y-85510518D01*
X145411284Y-85510520D01*
X145445891Y-85530500D01*
X145528314Y-85578087D01*
X145548216Y-85589577D01*
X145568611Y-85595041D01*
X145610747Y-85624545D01*
X145624062Y-85674232D01*
X145602323Y-85720852D01*
X145572561Y-85738037D01*
X145572768Y-85738537D01*
X145568976Y-85740107D01*
X145568617Y-85740315D01*
X145568216Y-85740422D01*
X145431285Y-85819479D01*
X145431279Y-85819483D01*
X145319483Y-85931279D01*
X145319479Y-85931285D01*
X145240423Y-86068214D01*
X145233853Y-86092736D01*
X145199500Y-86220943D01*
X145199500Y-86379057D01*
X145227026Y-86481784D01*
X145240423Y-86531785D01*
X145319479Y-86668714D01*
X145319483Y-86668720D01*
X145431279Y-86780516D01*
X145431282Y-86780518D01*
X145431284Y-86780520D01*
X145491660Y-86815378D01*
X145568213Y-86859576D01*
X145568215Y-86859576D01*
X145568216Y-86859577D01*
X145574965Y-86861385D01*
X145617102Y-86890890D01*
X145630416Y-86940577D01*
X145608677Y-86987197D01*
X145593102Y-86999148D01*
X145471285Y-87069479D01*
X145471279Y-87069483D01*
X145359483Y-87181279D01*
X145359479Y-87181285D01*
X145280423Y-87318214D01*
X145277519Y-87329054D01*
X145239500Y-87470943D01*
X145239500Y-87629057D01*
X145266294Y-87729054D01*
X145280423Y-87781785D01*
X145359479Y-87918714D01*
X145359483Y-87918720D01*
X145471279Y-88030516D01*
X145471282Y-88030518D01*
X145471284Y-88030520D01*
X145608216Y-88109577D01*
X145760943Y-88150500D01*
X145760946Y-88150500D01*
X145818715Y-88150500D01*
X145867053Y-88168093D01*
X145892773Y-88212642D01*
X145883840Y-88263300D01*
X145871889Y-88278874D01*
X145769483Y-88381279D01*
X145769479Y-88381285D01*
X145690423Y-88518214D01*
X145669961Y-88594579D01*
X145649500Y-88670943D01*
X145649500Y-88829057D01*
X145676069Y-88928214D01*
X145690423Y-88981785D01*
X145769479Y-89118714D01*
X145769483Y-89118720D01*
X145881279Y-89230516D01*
X145881282Y-89230518D01*
X145881284Y-89230520D01*
X146018216Y-89309577D01*
X146170943Y-89350500D01*
X146170946Y-89350500D01*
X146329054Y-89350500D01*
X146329057Y-89350500D01*
X146481784Y-89309577D01*
X146618716Y-89230520D01*
X146730520Y-89118716D01*
X146809577Y-88981784D01*
X146850500Y-88829057D01*
X146850500Y-88670943D01*
X146809577Y-88518216D01*
X146792255Y-88488214D01*
X146728056Y-88377016D01*
X146730031Y-88375875D01*
X146717120Y-88334917D01*
X146736807Y-88287394D01*
X146782435Y-88263643D01*
X146792248Y-88263000D01*
X147070201Y-88263000D01*
X147118539Y-88280593D01*
X147144259Y-88325142D01*
X147135326Y-88375800D01*
X147070423Y-88488214D01*
X147061768Y-88520516D01*
X147029500Y-88640943D01*
X147029500Y-88799057D01*
X147040337Y-88839500D01*
X147070423Y-88951785D01*
X147117282Y-89032947D01*
X147144993Y-89080945D01*
X147149479Y-89088714D01*
X147149483Y-89088720D01*
X147261279Y-89200516D01*
X147261282Y-89200518D01*
X147261284Y-89200520D01*
X147328033Y-89239057D01*
X147396104Y-89278358D01*
X147398216Y-89279577D01*
X147550943Y-89320500D01*
X147550946Y-89320500D01*
X147709054Y-89320500D01*
X147709057Y-89320500D01*
X147861784Y-89279577D01*
X147998716Y-89200520D01*
X148110520Y-89088716D01*
X148169395Y-88986739D01*
X148208800Y-88953675D01*
X148260239Y-88953675D01*
X148299645Y-88986740D01*
X148307462Y-89026014D01*
X148309500Y-89026014D01*
X148309500Y-89030943D01*
X148309500Y-89189057D01*
X148340192Y-89303602D01*
X148350423Y-89341785D01*
X148429479Y-89478714D01*
X148429483Y-89478720D01*
X148541279Y-89590516D01*
X148541282Y-89590518D01*
X148541284Y-89590520D01*
X148678216Y-89669577D01*
X148830943Y-89710500D01*
X148830946Y-89710500D01*
X148989054Y-89710500D01*
X148989057Y-89710500D01*
X149141784Y-89669577D01*
X149278716Y-89590520D01*
X149390520Y-89478716D01*
X149469577Y-89341784D01*
X149510500Y-89189057D01*
X149510500Y-89030943D01*
X149469577Y-88878216D01*
X149390520Y-88741284D01*
X149390518Y-88741282D01*
X149390516Y-88741279D01*
X149278720Y-88629483D01*
X149278714Y-88629479D01*
X149141785Y-88550423D01*
X149103602Y-88540192D01*
X148989057Y-88509500D01*
X148830943Y-88509500D01*
X148750909Y-88530945D01*
X148678214Y-88550423D01*
X148541285Y-88629479D01*
X148541279Y-88629483D01*
X148429483Y-88741279D01*
X148429479Y-88741285D01*
X148370604Y-88843259D01*
X148331199Y-88876324D01*
X148279759Y-88876324D01*
X148240354Y-88843259D01*
X148232551Y-88803986D01*
X148230500Y-88803986D01*
X148230500Y-88640945D01*
X148230500Y-88640943D01*
X148189577Y-88488216D01*
X148124673Y-88375799D01*
X148115741Y-88325142D01*
X148141461Y-88280593D01*
X148189799Y-88263000D01*
X149810201Y-88263000D01*
X149858539Y-88280593D01*
X149884259Y-88325142D01*
X149875326Y-88375800D01*
X149810423Y-88488214D01*
X149801768Y-88520516D01*
X149769500Y-88640943D01*
X149769500Y-88799057D01*
X149780337Y-88839500D01*
X149810423Y-88951785D01*
X149857282Y-89032947D01*
X149884993Y-89080945D01*
X149889479Y-89088714D01*
X149889483Y-89088720D01*
X150001279Y-89200516D01*
X150001282Y-89200518D01*
X150001284Y-89200520D01*
X150068033Y-89239057D01*
X150136104Y-89278358D01*
X150138216Y-89279577D01*
X150290943Y-89320500D01*
X150290946Y-89320500D01*
X150449054Y-89320500D01*
X150449057Y-89320500D01*
X150601784Y-89279577D01*
X150738716Y-89200520D01*
X150850520Y-89088716D01*
X150929577Y-88951784D01*
X150970500Y-88799057D01*
X150970500Y-88640943D01*
X150929577Y-88488216D01*
X150864673Y-88375799D01*
X150855741Y-88325142D01*
X150881461Y-88280593D01*
X150929799Y-88263000D01*
X151946215Y-88263000D01*
X151994553Y-88280593D01*
X152020273Y-88325142D01*
X152011340Y-88375800D01*
X151999389Y-88391374D01*
X151959483Y-88431279D01*
X151959479Y-88431285D01*
X151880423Y-88568214D01*
X151861055Y-88640500D01*
X151839500Y-88720943D01*
X151839500Y-88879057D01*
X151870523Y-88994839D01*
X151866040Y-89046081D01*
X151829667Y-89082454D01*
X151797886Y-89089500D01*
X151760943Y-89089500D01*
X151669306Y-89114053D01*
X151608214Y-89130423D01*
X151471285Y-89209479D01*
X151471279Y-89209483D01*
X151359483Y-89321279D01*
X151359479Y-89321285D01*
X151280423Y-89458214D01*
X151264121Y-89519057D01*
X151239500Y-89610943D01*
X151239500Y-89610945D01*
X151239500Y-89644300D01*
X151221907Y-89692638D01*
X151177358Y-89718358D01*
X151164300Y-89719500D01*
X151110943Y-89719500D01*
X151019306Y-89744053D01*
X150958214Y-89760423D01*
X150821285Y-89839479D01*
X150821279Y-89839483D01*
X150709483Y-89951279D01*
X150709479Y-89951285D01*
X150630423Y-90088214D01*
X150613755Y-90150423D01*
X150589500Y-90240943D01*
X150589500Y-90399057D01*
X150605943Y-90460423D01*
X150630423Y-90551785D01*
X150709479Y-90688714D01*
X150709483Y-90688720D01*
X150821279Y-90800516D01*
X150821282Y-90800518D01*
X150821284Y-90800520D01*
X150958216Y-90879577D01*
X151110943Y-90920500D01*
X151110948Y-90920500D01*
X151115817Y-90921142D01*
X151161444Y-90944896D01*
X151181127Y-90992421D01*
X151165656Y-91041480D01*
X151143598Y-91060823D01*
X151111285Y-91079478D01*
X151111279Y-91079483D01*
X150999483Y-91191279D01*
X150999479Y-91191285D01*
X150920423Y-91328214D01*
X150919366Y-91332159D01*
X150879500Y-91480943D01*
X150879500Y-91639057D01*
X150901667Y-91721784D01*
X150920423Y-91791785D01*
X150999479Y-91928714D01*
X150999483Y-91928720D01*
X151111279Y-92040516D01*
X151111282Y-92040518D01*
X151111284Y-92040520D01*
X151176822Y-92078358D01*
X151246731Y-92118720D01*
X151248216Y-92119577D01*
X151400943Y-92160500D01*
X151400946Y-92160500D01*
X151559054Y-92160500D01*
X151559057Y-92160500D01*
X151711784Y-92119577D01*
X151848716Y-92040520D01*
X151960520Y-91928716D01*
X152039577Y-91791784D01*
X152080500Y-91639057D01*
X152080500Y-91480943D01*
X152039577Y-91328216D01*
X151960520Y-91191284D01*
X151960518Y-91191282D01*
X151960516Y-91191279D01*
X151848720Y-91079483D01*
X151848714Y-91079479D01*
X151848712Y-91079478D01*
X151816401Y-91060823D01*
X151711785Y-91000423D01*
X151668588Y-90988848D01*
X151559057Y-90959500D01*
X151559054Y-90959500D01*
X151559047Y-90959498D01*
X151554175Y-90958856D01*
X151508551Y-90935098D01*
X151488872Y-90887571D01*
X151504347Y-90838514D01*
X151526400Y-90819177D01*
X151558716Y-90800520D01*
X151670520Y-90688716D01*
X151749577Y-90551784D01*
X151790500Y-90399057D01*
X151790500Y-90365700D01*
X151799744Y-90340301D01*
X152601808Y-90340301D01*
X152601808Y-90498415D01*
X152620276Y-90567337D01*
X152642731Y-90651143D01*
X152721787Y-90788072D01*
X152721791Y-90788078D01*
X152833587Y-90899874D01*
X152833590Y-90899876D01*
X152833592Y-90899878D01*
X152970524Y-90978935D01*
X153123251Y-91019858D01*
X153123254Y-91019858D01*
X153281362Y-91019858D01*
X153281365Y-91019858D01*
X153434092Y-90978935D01*
X153571024Y-90899878D01*
X153613907Y-90856995D01*
X156755552Y-90856995D01*
X156755552Y-91015109D01*
X156784002Y-91121285D01*
X156796475Y-91167837D01*
X156875531Y-91304766D01*
X156875535Y-91304772D01*
X156987331Y-91416568D01*
X156987334Y-91416570D01*
X156987336Y-91416572D01*
X157095330Y-91478922D01*
X157113617Y-91489480D01*
X157124268Y-91495629D01*
X157276995Y-91536552D01*
X157276998Y-91536552D01*
X157435106Y-91536552D01*
X157435109Y-91536552D01*
X157587836Y-91495629D01*
X157724768Y-91416572D01*
X157836572Y-91304768D01*
X157915629Y-91167836D01*
X157956552Y-91015109D01*
X157956552Y-90856995D01*
X157915629Y-90704268D01*
X157906652Y-90688720D01*
X157889826Y-90659576D01*
X157836572Y-90567336D01*
X157836570Y-90567334D01*
X157836568Y-90567331D01*
X157724772Y-90455535D01*
X157724766Y-90455531D01*
X157587837Y-90376475D01*
X157547623Y-90365700D01*
X157435109Y-90335552D01*
X157276995Y-90335552D01*
X157185358Y-90360105D01*
X157124266Y-90376475D01*
X156987337Y-90455531D01*
X156987331Y-90455535D01*
X156875535Y-90567331D01*
X156875531Y-90567337D01*
X156796475Y-90704266D01*
X156782297Y-90757182D01*
X156755552Y-90856995D01*
X153613907Y-90856995D01*
X153620482Y-90850420D01*
X153672011Y-90798892D01*
X153682824Y-90788078D01*
X153682828Y-90788074D01*
X153761885Y-90651142D01*
X153802808Y-90498415D01*
X153802808Y-90340301D01*
X153761885Y-90187574D01*
X153682828Y-90050642D01*
X153682826Y-90050640D01*
X153682824Y-90050637D01*
X153571028Y-89938841D01*
X153571022Y-89938837D01*
X153434093Y-89859781D01*
X153395910Y-89849550D01*
X153281365Y-89818858D01*
X153123251Y-89818858D01*
X153031614Y-89843411D01*
X152970522Y-89859781D01*
X152833593Y-89938837D01*
X152833587Y-89938841D01*
X152721791Y-90050637D01*
X152721787Y-90050643D01*
X152642731Y-90187572D01*
X152628431Y-90240943D01*
X152601808Y-90340301D01*
X151799744Y-90340301D01*
X151808093Y-90317362D01*
X151852642Y-90291642D01*
X151865700Y-90290500D01*
X151919054Y-90290500D01*
X151919057Y-90290500D01*
X152071784Y-90249577D01*
X152208716Y-90170520D01*
X152320520Y-90058716D01*
X152399577Y-89921784D01*
X152440500Y-89769057D01*
X152440500Y-89610943D01*
X152409476Y-89495160D01*
X152413960Y-89443919D01*
X152450333Y-89407546D01*
X152482114Y-89400500D01*
X152519054Y-89400500D01*
X152519057Y-89400500D01*
X152671784Y-89359577D01*
X152808716Y-89280520D01*
X152826174Y-89263061D01*
X152872790Y-89241321D01*
X152916946Y-89251109D01*
X153018216Y-89309577D01*
X153170943Y-89350500D01*
X153170946Y-89350500D01*
X153329054Y-89350500D01*
X153329057Y-89350500D01*
X153481784Y-89309577D01*
X153618716Y-89230520D01*
X153730520Y-89118716D01*
X153809577Y-88981784D01*
X153850500Y-88829057D01*
X153850500Y-88715131D01*
X153868093Y-88666793D01*
X153912642Y-88641073D01*
X153930014Y-88640696D01*
X153930014Y-88640500D01*
X154093054Y-88640500D01*
X154093057Y-88640500D01*
X154245784Y-88599577D01*
X154382716Y-88520520D01*
X154494520Y-88408716D01*
X154573577Y-88271784D01*
X154614500Y-88119057D01*
X154614500Y-87960943D01*
X154576529Y-87819233D01*
X154581013Y-87767991D01*
X154611568Y-87734646D01*
X154618716Y-87730520D01*
X154730520Y-87618716D01*
X154809577Y-87481784D01*
X154850500Y-87329057D01*
X154850500Y-87170943D01*
X154809577Y-87018216D01*
X154730520Y-86881284D01*
X154730518Y-86881282D01*
X154730516Y-86881279D01*
X154652411Y-86803174D01*
X154630671Y-86756554D01*
X154643985Y-86706867D01*
X154652411Y-86696826D01*
X154730516Y-86618720D01*
X154730520Y-86618716D01*
X154809577Y-86481784D01*
X154850500Y-86329057D01*
X154850500Y-86170943D01*
X154809577Y-86018216D01*
X154730520Y-85881284D01*
X154730518Y-85881282D01*
X154730516Y-85881279D01*
X154618720Y-85769483D01*
X154618714Y-85769479D01*
X154481786Y-85690423D01*
X154421358Y-85674232D01*
X154358084Y-85657277D01*
X154315949Y-85627774D01*
X154302635Y-85578087D01*
X154324374Y-85531467D01*
X154358083Y-85512004D01*
X154441784Y-85489577D01*
X154578716Y-85410520D01*
X154690520Y-85298716D01*
X154769577Y-85161784D01*
X154810500Y-85009057D01*
X154810500Y-84850943D01*
X154769577Y-84698216D01*
X154690520Y-84561284D01*
X154690518Y-84561282D01*
X154690516Y-84561279D01*
X154578720Y-84449483D01*
X154578714Y-84449479D01*
X154441785Y-84370423D01*
X154403602Y-84360192D01*
X154289057Y-84329500D01*
X154130943Y-84329500D01*
X154039306Y-84354053D01*
X153978214Y-84370423D01*
X153841285Y-84449479D01*
X153841279Y-84449483D01*
X153742374Y-84548389D01*
X153695754Y-84570129D01*
X153646067Y-84556815D01*
X153616562Y-84514678D01*
X153614000Y-84495215D01*
X153614000Y-84018462D01*
X153631593Y-83970124D01*
X153676142Y-83944404D01*
X153705670Y-83945088D01*
G37*
%TD.AperFunction*%
%TD*%
M02*
